<?xml version="1.0" encoding="UTF-8"?>
<svg width="210px" height="31px" viewBox="0 0 210 31" version="1.1" xmlns="http://www.w3.org/2000/svg" xmlns:xlink="http://www.w3.org/1999/xlink">
    <!-- Generator: Sketch 48.2 (47327) - http://www.bohemiancoding.com/sketch -->
    <title>500startups</title>
    <desc>Created with Sketch.</desc>
    <defs></defs>
    <g id="About" stroke="none" stroke-width="1" fill="none" fill-rule="evenodd" transform="translate(-744.000000, -3911.000000)">
        <path d="M814.118053,3925.85419 C813.909123,3923.42476 813.713529,3920.98677 813.484082,3918.5522 C813.371581,3917.36025 812.674007,3916.65679 811.480266,3916.62872 C809.488761,3916.58182 807.49452,3916.59038 805.503014,3916.63728 C804.389289,3916.66329 803.705735,3917.30651 803.544336,3918.41596 C802.815987,3923.40936 802.820432,3928.40686 803.528606,3933.4023 C803.697529,3934.59528 804.441949,3935.232 805.618251,3935.2587 C807.497597,3935.30149 809.378995,3935.29772 811.258684,3935.26486 C812.583732,3935.24192 813.394149,3934.5744 813.51007,3933.19828 C813.71558,3930.76166 813.91391,3928.3247 814.118053,3925.85419 M808.386662,3940.8176 C806.680341,3940.81657 804.971969,3940.86655 803.268042,3940.80596 C799.936442,3940.68718 798.009565,3939.28059 796.944055,3936.07204 C795.537622,3931.83517 795.580708,3927.43159 795.799897,3923.053 C795.913081,3920.79507 796.217415,3918.50668 796.777184,3916.31926 C797.689843,3912.75162 799.885834,3911.13349 803.584344,3911.05578 C806.883117,3910.98595 810.186335,3910.97568 813.484424,3911.05955 C817.184301,3911.15403 819.28523,3912.65372 820.193444,3916.21588 C821.837872,3922.66618 821.827614,3929.19932 820.203361,3935.6486 C819.301644,3939.2289 817.171649,3940.69505 813.505282,3940.80938 C811.801013,3940.86313 810.092983,3940.81897 808.386662,3940.8176 Z M781.751303,3940.81883 C780.101746,3940.81883 778.450821,3940.85717 776.802631,3940.8113 C773.208073,3940.711 771.026445,3939.2493 770.150032,3935.82133 C768.473803,3929.26217 768.466964,3922.62223 770.150716,3916.06033 C770.999773,3912.75354 773.072662,3911.20832 776.466154,3911.09467 C779.989587,3910.97725 783.523278,3910.97725 787.047395,3911.0909 C790.609467,3911.20524 792.603366,3912.8778 793.589544,3916.47522 C794.763794,3920.75762 794.780208,3925.15573 794.448518,3929.53295 C794.273441,3931.83777 793.862761,3934.16656 793.215795,3936.38376 C792.375629,3939.26163 790.21315,3940.71682 787.211872,3940.8024 C785.393392,3940.85477 783.571493,3940.81233 781.751303,3940.81233 C781.751303,3940.81472 781.751303,3940.81678 781.751303,3940.81883 Z M776.176866,3925.96086 C776.387506,3928.38926 776.591307,3930.81869 776.810838,3933.2471 C776.935649,3934.62459 777.772054,3935.25171 779.088554,3935.26951 C780.90635,3935.29416 782.724487,3935.29245 784.542283,3935.26951 C785.873829,3935.25342 786.773836,3934.58282 786.788198,3933.22587 C786.839148,3928.35743 786.83949,3923.48761 786.783753,3918.6195 C786.768023,3917.25229 785.822879,3916.61865 784.512534,3916.59709 C782.69508,3916.56765 780.876942,3916.56662 779.059488,3916.59504 C777.736149,3916.61592 776.927442,3917.28173 776.805025,3918.64484 C776.587546,3921.07358 776.386822,3923.5037 776.176866,3925.96086 Z M751.537219,3916.5314 C751.371716,3918.75955 751.22673,3920.71589 751.075589,3922.74824 C755.36054,3920.3794 759.733713,3921.05205 764.011825,3921.70006 C766.446153,3922.06874 767.608093,3924.22157 767.765389,3926.45931 C767.987655,3929.61548 768.015695,3932.83738 767.626558,3935.9689 C767.235369,3939.11891 765.144015,3940.71549 761.940988,3940.79456 C757.957977,3940.89246 753.967785,3940.9065 749.986826,3940.77745 C746.521525,3940.66551 744.820675,3938.97993 744.375459,3935.54477 C744.201407,3934.20117 744.131308,3932.84422 744,3931.32947 L750.718595,3931.32947 C751.310849,3935.34178 751.310849,3935.34212 755.351991,3935.34178 C756.49102,3935.34178 757.630049,3935.32226 758.768736,3935.34452 C760.054461,3935.36985 760.907621,3934.78037 760.992424,3933.50284 C761.101505,3931.86177 761.099112,3930.20324 760.997895,3928.56148 C760.926086,3927.39178 760.205944,3926.73248 758.949285,3926.74377 C756.234901,3926.76876 753.514704,3926.44767 750.947016,3927.89191 C750.287399,3928.26298 749.099813,3927.88095 748.21451,3927.63175 C744.48967,3926.5822 744.541646,3926.55618 744.856238,3922.65547 C745.162965,3918.85711 745.367792,3915.05087 745.623911,3911.14708 L767.107139,3911.14708 L767.107139,3916.5314 L751.537219,3916.5314 Z M923.956518,3920.36721 C926.613796,3917.44381 929.736465,3918.10038 932.700129,3918.31364 C934.48031,3918.44167 935.71953,3919.7305 935.786552,3921.46776 C935.94419,3925.54614 935.961971,3929.63992 935.772532,3933.71556 C935.689097,3935.5165 934.352764,3936.65881 932.467946,3936.8464 C929.513857,3937.14079 926.537541,3937.47045 923.888812,3934.80447 L923.888812,3942 L920.255956,3942 L920.255956,3918.31022 L923.743142,3918.31022 C923.800589,3918.86478 923.856669,3919.40221 923.956518,3920.36721 Z M923.807086,3931.17282 C923.691508,3932.38839 924.212637,3933.10007 925.301399,3933.22331 C927.207418,3933.43897 929.13703,3933.58445 931.04852,3933.51804 C931.514937,3933.50161 932.312702,3932.56434 932.33698,3932.02314 C932.468972,3929.06859 932.482992,3926.10172 932.344845,3923.14786 C932.318515,3922.58269 931.462619,3921.63789 930.928496,3921.59305 C929.187981,3921.44756 927.410535,3921.54752 925.665232,3921.7269 C924.313169,3921.86588 923.590633,3922.63883 923.804693,3924.17139 L923.807086,3931.17282 Z M868.371359,3926.09956 C868.292369,3926.2471 868.382301,3926.15194 868.393585,3926.04856 C868.860344,3921.61794 868.580289,3921.30643 864.148984,3921.30677 L863.636404,3921.30677 C861.187714,3921.30917 861.187714,3921.30917 860.736001,3923.86765 L857.464584,3923.86765 C856.838477,3920.02958 858.302699,3918.2283 861.987531,3918.22659 C864.093931,3918.22522 866.201356,3918.18586 868.306731,3918.24234 C870.560168,3918.30327 871.855467,3919.39869 871.907443,3921.5149 C872.028493,3926.41142 872.015157,3931.31136 872.046958,3936.20993 C872.047984,3936.36534 871.947793,3936.5211 871.861964,3936.77236 L868.578237,3936.77236 C868.498905,3936.22773 868.422309,3935.69543 868.292027,3934.79855 C866.092275,3937.25023 863.358742,3937.10441 860.636152,3936.9935 C857.913562,3936.88258 856.720163,3935.71562 856.539273,3933.00138 C856.53175,3932.88773 856.532092,3932.7734 856.527988,3932.65975 C856.353253,3927.4774 857.625641,3926.14441 862.811625,3926.10196 C864.618137,3926.08724 866.42499,3926.09956 868.371359,3926.09956 Z M868.302285,3928.91034 C866.107321,3928.91034 864.010153,3928.88432 861.914354,3928.91992 C860.65154,3928.94183 860.163238,3929.68945 860.105791,3930.91769 C859.983715,3933.53095 860.194355,3933.79933 862.74392,3933.80343 C863.199053,3933.80412 863.654185,3933.8072 864.10966,3933.80275 C868.119001,3933.76578 868.739637,3933.0695 868.302285,3928.91034 Z M938.65977,3931.08995 C939.080708,3931.0297 939.351873,3930.96295 939.624406,3930.95713 C940.357542,3930.94138 941.090679,3930.95199 941.917167,3930.95199 C941.98248,3931.43535 942.070018,3931.81018 942.076515,3932.18673 C942.0984,3933.39443 942.639362,3933.89353 943.889182,3933.82507 C945.53532,3933.7347 947.192742,3933.74736 948.84059,3933.81891 C950.184445,3933.87676 950.537336,3933.13838 950.496644,3932.02208 C950.456636,3930.92598 950.757208,3929.62174 949.023874,3929.46051 C946.985179,3929.27121 944.951956,3929.01618 942.913604,3928.81867 C939.79367,3928.5164 938.934697,3927.62808 938.951794,3924.47944 C938.959317,3923.17966 939.040017,3921.86139 939.272199,3920.58523 C939.553965,3919.03795 940.645805,3918.25678 942.197223,3918.23761 C944.92973,3918.20407 947.663946,3918.18353 950.395769,3918.24343 C952.405056,3918.28725 953.220944,3919.25293 953.525962,3921.75254 C953.608029,3922.42759 953.607687,3923.11325 953.658637,3924.04538 L951.95471,3924.04538 L950.321566,3924.04538 C950.253519,3923.47132 950.33798,3922.89451 950.103062,3922.51659 C949.80078,3922.0305 949.268025,3921.40474 948.789297,3921.36332 C947.15034,3921.22126 945.490525,3921.34929 943.840625,3921.29417 C942.655091,3921.25481 942.336738,3921.93944 942.375036,3922.90204 C942.415044,3923.90435 941.940762,3925.23528 943.605707,3925.43451 C945.751773,3925.69159 947.902626,3925.91752 950.054847,3926.12086 C953.000387,3926.3995 953.692148,3927.0838 953.90826,3930.02397 C954.337746,3935.8711 953.4203,3936.88026 947.676598,3936.88026 C946.082437,3936.88026 944.488275,3936.88847 942.894113,3936.8782 C939.808374,3936.85801 939.105671,3936.22609 938.772271,3933.15344 C938.700804,3932.49277 938.697727,3931.82422 938.65977,3931.08995 Z M826.440219,3931.01405 L829.471931,3931.01405 C829.573489,3931.13284 829.695565,3931.20883 829.709927,3931.30194 C830.102141,3933.80258 830.100431,3933.80326 832.732405,3933.80326 C834.041724,3933.80326 835.351385,3933.78307 836.66002,3933.806 C837.639018,3933.82312 838.24153,3933.4315 838.098254,3932.40318 C837.951558,3931.35055 838.79446,3929.7889 836.925714,3929.50649 C834.903433,3929.2008 832.859268,3929.02724 830.820916,3928.83965 C827.539924,3928.53807 826.781825,3927.77881 826.617006,3924.50659 C826.59136,3923.99516 826.594096,3923.48032 826.614955,3922.96855 C826.771567,3919.10549 827.696536,3918.22642 831.586195,3918.22608 C833.521621,3918.22608 835.457389,3918.21889 837.392815,3918.22745 C840.064455,3918.24046 840.952836,3919.06441 841.178864,3921.7345 C841.235969,3922.40955 841.261957,3923.08768 841.311198,3923.90753 L838.074318,3923.90753 C837.52002,3921.30694 837.52002,3921.30694 834.70442,3921.30694 C834.021549,3921.30694 833.338337,3921.3066 832.655125,3921.30694 C830.22832,3921.30797 829.509203,3922.18909 830.217035,3924.51925 C830.34424,3924.93688 831.075325,3925.36615 831.578673,3925.43975 C833.659084,3925.74373 835.758304,3925.9231 837.852735,3926.12883 C840.747325,3926.41227 841.491062,3927.19858 841.529703,3930.13669 C841.545774,3931.33241 841.572788,3932.53634 841.455158,3933.72282 C841.233918,3935.94686 840.245004,3936.83449 837.995328,3936.86906 C835.491242,3936.90809 832.986131,3936.89029 830.481361,3936.87694 C827.536847,3936.86153 826.589993,3935.96021 826.444665,3933.04674 C826.413889,3932.42817 826.440219,3931.80618 826.440219,3931.01405 Z M913.805106,3918.32289 L917.305286,3918.32289 L917.305286,3936.755 L914.017456,3936.755 C913.901535,3936.26549 913.777408,3935.74106 913.585917,3934.93284 C911.489434,3937.10177 908.907042,3937.11991 906.279172,3936.99942 C903.352096,3936.86454 902.06432,3935.72052 902.005163,3932.82211 C901.914205,3928.37745 901.960026,3923.93006 901.952845,3919.48369 C901.952161,3919.14582 901.98704,3918.80829 902.012344,3918.34924 L905.593908,3918.34924 C905.593908,3919.87393 905.593566,3921.39006 905.593908,3922.90584 C905.59425,3925.64233 905.567236,3928.37916 905.605192,3931.11497 C905.633916,3933.18736 906.098623,3933.66455 908.127401,3933.61184 C909.59299,3933.57418 911.062683,3933.42972 912.513568,3933.21406 C913.478204,3933.07029 913.84785,3932.42468 913.829384,3931.37719 C913.765098,3927.67262 913.804764,3923.96634 913.805106,3920.26075 L913.805106,3918.32289 Z M890.721596,3921.34056 L887.610552,3921.34056 L887.610552,3918.2994 L890.66449,3918.2994 L890.66449,3913.72158 L894.351716,3913.72158 L894.351716,3918.18301 L898.770369,3918.18301 L898.770369,3921.28647 L894.477553,3921.28647 C894.477553,3925.25941 894.450539,3928.99992 894.528503,3932.73838 C894.534658,3933.0427 895.232232,3933.53461 895.65317,3933.58767 C896.650975,3933.71364 897.675109,3933.62841 898.655132,3933.62841 C899.079148,3936.16019 899.086329,3936.18929 896.769289,3936.74179 C895.948271,3936.93759 895.085537,3937.0355 894.241267,3937.03789 C891.73171,3937.04611 890.74348,3936.04894 890.728093,3933.49833 C890.703814,3929.52025 890.721596,3925.54183 890.721596,3921.34056 Z M854.442721,3918.17312 L854.442721,3921.34299 L850.112291,3921.34299 C850.112291,3925.24199 850.084593,3928.98045 850.162899,3932.71685 C850.169738,3933.02836 850.865602,3933.53225 851.287908,3933.58668 C852.286054,3933.71607 853.312582,3933.6281 854.30047,3933.6281 C854.771675,3936.16707 854.762784,3936.1948 852.48883,3936.73669 C851.88324,3936.88046 851.262262,3937.00815 850.643336,3937.03998 C847.390384,3937.20806 846.445924,3936.29578 846.442504,3933.02219 C846.438059,3929.21356 846.441478,3925.40459 846.441478,3921.44466 C845.336986,3921.39536 844.393552,3921.35326 843.320861,3921.30533 L843.320861,3918.30731 C844.243436,3918.26007 845.237821,3918.20941 846.403522,3918.15019 L846.403522,3913.75756 L850.031933,3913.75756 L850.031933,3918.17312 L854.442721,3918.17312 Z M879.037915,3936.76092 L875.432073,3936.76092 L875.432073,3918.30861 L878.953112,3918.30861 C879.010217,3918.98709 879.064245,3919.63064 879.14768,3920.62165 C880.935385,3918.63895 882.855081,3917.61952 885.427898,3918.36407 L885.427898,3921.83449 C883.971199,3921.90466 882.517578,3921.95533 881.067035,3922.04844 C879.614439,3922.14155 878.917891,3922.72349 878.991068,3924.40119 C879.144603,3927.92159 879.037915,3931.45294 879.037915,3934.98019 L879.037915,3936.76092 Z" id="500startups" fill="#D4D4D4"></path>
    </g>
</svg>