<?xml version="1.0" encoding="UTF-8"?>
<svg width="54px" height="54px" viewBox="0 0 54 54" version="1.1" xmlns="http://www.w3.org/2000/svg" xmlns:xlink="http://www.w3.org/1999/xlink">
    <!-- Generator: Sketch 48.2 (47327) - http://www.bohemiancoding.com/sketch -->
    <title>adobe</title>
    <desc>Created with Sketch.</desc>
    <defs></defs>
    <g id="Integration-Overview" stroke="none" stroke-width="1" fill="none" fill-rule="evenodd" transform="translate(-1115.000000, -2611.000000)">
        <g id="dcm-copy-4" transform="translate(1013.000000, 2568.000000)">
            <g id="adobe" transform="translate(102.000000, 43.000000)">
                <path d="M21.2203493,28.076397 L18.7561572,28.076397 L18.7561572,44.3763803 C19.5083843,44.7682068 20.4162445,45.0816681 21.2203493,45.3690075 L21.2203493,28.076397 Z M25.7596507,27.0315263 L25.7596507,46.2571476 C26.0968559,46.2832694 26.6156332,46.44 26.9528384,46.44 C27.3937991,46.44 27.7828821,46.44 28.2238428,46.4138782 L28.2238428,27.0315263 L25.7596507,27.0315263 L25.7596507,27.0315263 Z M39.8963319,40.6670892 C40.7782533,39.7267056 41.6861135,38.6034696 42.360524,37.5063553 L42.360524,25.0723937 L39.8963319,25.0723937 L39.8963319,40.6670892 Z M12.8939738,29.1212677 L18.5745852,22.5124604 L23.969869,24.5499583 L35.5386026,16.2171143 L41.3489083,21.7549291 L44.28,19.40397 L43.8390393,18.4374646 L41.400786,20.5010842 L35.6682969,15.12 L23.9439301,23.5312093 L18.4967686,21.4153461 L12.4270742,28.3114929 L8.64,29.2257548 L8.64,30.1138949 L12.8939738,29.1212677 Z M14.0871616,33.0395329 L11.6229694,33.0395329 L11.6229694,37.8459383 C12.2973799,38.890809 13.2052402,39.8834362 14.0871616,40.7715763 L14.0871616,33.0395329 Z M35.3570306,22.0683903 L32.8928384,22.0683903 L32.8928384,45.2906422 C33.6969432,45.0033028 34.6048035,44.6637198 35.3570306,44.2457715 L35.3570306,22.0683903 Z" id="Shape" fill="#E0D6E9"></path>
                <path d="M0,26.9869249 C0,41.8924939 12.0755082,54 27,54 C41.9244918,54 54,41.9186441 54,26.9869249 C54,12.0552058 41.8983543,0 26.9738625,0 C12.0493708,0 0,12.0813559 0,26.9869249 Z M2.77057115,26.9869249 C2.77057115,13.598063 13.6176186,2.74576271 26.9738625,2.74576271 C40.3301065,2.74576271 51.1771539,13.598063 51.1771539,26.9869249 C51.1771539,40.3757869 40.3301065,51.2280872 26.9738625,51.2280872 C13.6176186,51.2280872 2.77057115,40.3757869 2.77057115,26.9869249 Z" id="Shape" fill="#8B7EBA"></path>
            </g>
        </g>
    </g>
</svg>