<?xml version="1.0" encoding="UTF-8"?>
<svg width="54px" height="54px" viewBox="0 0 54 54" version="1.1" xmlns="http://www.w3.org/2000/svg" xmlns:xlink="http://www.w3.org/1999/xlink">
    <!-- Generator: Sketch 48.2 (47327) - http://www.bohemiancoding.com/sketch -->
    <title>adobe-2</title>
    <desc>Created with Sketch.</desc>
    <defs>
        <path d="M0,26.9869249 C0,41.8924939 12.0755082,54 27,54 C41.9244918,54 54,41.9186441 54,26.9869249 C54,12.0552058 41.8983543,0 26.9738625,0 C12.0493708,0 0,12.0813559 0,26.9869249 Z" id="path-1"></path>
    </defs>
    <g id="Integration-Overview" stroke="none" stroke-width="1" fill="none" fill-rule="evenodd" transform="translate(-1309.000000, -2611.000000)">
        <g id="dcm-copy-4" transform="translate(1013.000000, 2568.000000)">
            <g id="adobe-2" transform="translate(296.000000, 43.000000)">
                <g id="Shape">
                    <use fill="#3C3256" fill-rule="evenodd" xlink:href="#path-1"></use>
                    <path stroke="#8B7EBA" stroke-width="3" d="M1.5,26.9869249 C1.5,41.0734881 12.9133468,52.5 27,52.5 C41.095902,52.5 52.5,41.0903795 52.5,26.9869249 C52.5,12.8943441 41.0806585,1.5 26.9738625,1.5 C12.8872129,1.5 1.5,12.9003581 1.5,26.9869249 Z"></path>
                </g>
                <path d="M21.5803493,27.956397 L19.1161572,27.956397 L19.1161572,44.2563803 C19.8683843,44.6482068 20.7762445,44.9616681 21.5803493,45.2490075 L21.5803493,27.956397 Z M26.1196507,26.9115263 L26.1196507,46.1371476 C26.4568559,46.1632694 26.9756332,46.32 27.3128384,46.32 C27.7537991,46.32 28.1428821,46.32 28.5838428,46.2938782 L28.5838428,26.9115263 L26.1196507,26.9115263 L26.1196507,26.9115263 Z M40.2563319,40.5470892 C41.1382533,39.6067056 42.0461135,38.4834696 42.720524,37.3863553 L42.720524,24.9523937 L40.2563319,24.9523937 L40.2563319,40.5470892 Z M13.2539738,29.0012677 L18.9345852,22.3924604 L24.329869,24.4299583 L35.8986026,16.0971143 L41.7089083,21.6349291 L44.64,19.28397 L44.1990393,18.3174646 L41.760786,20.3810842 L36.0282969,15 L24.3039301,23.4112093 L18.8567686,21.2953461 L12.7870742,28.1914929 L9,29.1057548 L9,29.9938949 L13.2539738,29.0012677 Z M14.4471616,32.9195329 L11.9829694,32.9195329 L11.9829694,37.7259383 C12.6573799,38.770809 13.5652402,39.7634362 14.4471616,40.6515763 L14.4471616,32.9195329 Z M35.7170306,21.9483903 L33.2528384,21.9483903 L33.2528384,45.1706422 C34.0569432,44.8833028 34.9648035,44.5437198 35.7170306,44.1257715 L35.7170306,21.9483903 Z" id="Shape" fill="#E0D6E9"></path>
            </g>
        </g>
    </g>
</svg>