<?xml version="1.0" encoding="UTF-8"?>
<svg width="100px" height="100px" viewBox="0 0 100 100" version="1.1" xmlns="http://www.w3.org/2000/svg" xmlns:xlink="http://www.w3.org/1999/xlink">
    <!-- Generator: Sketch 48.2 (47327) - http://www.bohemiancoding.com/sketch -->
    <title>ai-automation</title>
    <desc>Created with Sketch.</desc>
    <defs></defs>
    <g id="Home" stroke="none" stroke-width="1" fill="none" fill-rule="evenodd" transform="translate(-670.000000, -2232.000000)">
        <g id="ai-automation" transform="translate(670.000000, 2232.000000)">
            <path d="M0,50 C0,22.386 22.386,0 50,0 C77.614,0 100,22.386 100,50 C100,77.614 77.614,100 50,100 C22.386,100 0,77.614 0,50" id="Mask" fill="#EFF4FF"></path>
            <rect id="Rectangle-11" fill="#A3B8E5" x="25" y="33" width="50" height="46" rx="2"></rect>
            <rect id="Rectangle-13" fill="#EFF4FF" x="30" y="62" width="40" height="10" rx="5"></rect>
            <circle id="Oval-16" fill="#EFF4FF" cx="39" cy="48" r="9"></circle>
            <circle id="Oval-16-Copy" fill="#EFF4FF" cx="61" cy="48" r="9"></circle>
            <path d="M21,46 L25,46 L25,63 L21,63 C19.8954305,63 19,62.1045695 19,61 L19,48 C19,46.8954305 19.8954305,46 21,46 Z" id="Rectangle-36" fill="#6983C0"></path>
            <path d="M77,46 L81,46 L81,63 L77,63 C75.8954305,63 75,62.1045695 75,61 L75,48 C75,46.8954305 75.8954305,46 77,46 Z" id="Rectangle-36-Copy" fill="#6983C0" transform="translate(78.000000, 54.500000) scale(-1, 1) translate(-78.000000, -54.500000) "></path>
            <rect id="Rectangle-14" fill="#A3B8E5" x="49" y="29" width="2" height="4"></rect>
            <circle id="Oval-15" fill="#6983C0" cx="50" cy="23" r="8"></circle>
        </g>
    </g>
</svg>