<?xml version="1.0" encoding="UTF-8"?>
<svg width="77px" height="27px" viewBox="0 0 77 27" version="1.1" xmlns="http://www.w3.org/2000/svg" xmlns:xlink="http://www.w3.org/1999/xlink">
    <!-- Generator: Sketch 48.2 (47327) - http://www.bohemiancoding.com/sketch -->
    <title>audi</title>
    <desc>Created with Sketch.</desc>
    <defs></defs>
    <g id="layout/clients-logo" stroke="none" stroke-width="1" fill="none" fill-rule="evenodd" transform="translate(-730.000000, -77.000000)">
        <path d="M742.9198,77.000784 L743.764272,77 C751.101343,77.2464488 756.850317,83.3528066 756.728724,90.7217273 C756.607131,98.090648 750.659887,104 743.365309,104 C736.070731,104 730.123487,98.090648 730.001894,90.7217273 C729.8803,83.3528066 735.629275,77.2464488 742.9198,77.000784 Z M732.794249,90.6746941 C732.890435,96.5038403 737.594971,101.178402 743.365309,101.178402 C749.135647,101.178402 753.840183,96.5038403 753.936369,90.6746941 C754.032429,84.8531503 749.496712,80.0277469 743.740285,79.8215976 L742.990333,79.8215976 C737.233906,80.0277469 732.698189,84.8531503 732.794249,90.6746941 Z M759.676261,77.000784 L760.520733,77 C767.857803,77.2464488 773.606778,83.3528066 773.485185,90.7217273 C773.363592,98.090648 767.416348,104 760.12177,104 C752.827191,104 746.879948,98.090648 746.758354,90.7217273 C746.636761,83.3528066 752.385736,77.2464488 759.676261,77.000784 Z M749.55071,90.6746941 C749.646895,96.5038403 754.351432,101.178402 760.12177,101.178402 C765.892108,101.178402 770.596644,96.5038403 770.69283,90.6746941 C770.78889,84.8531503 766.253173,80.0277469 760.496746,79.8215976 L759.746794,79.8215976 C753.990366,80.0277469 749.45465,84.8531503 749.55071,90.6746941 Z M776.432721,77.000784 L777.277194,77 C784.614264,77.2464488 790.363239,83.3528066 790.241646,90.7217273 C790.120052,98.090648 784.172809,104 776.87823,104 C769.583652,104 763.636408,98.090648 763.514815,90.7217273 C763.393222,83.3528066 769.142197,77.2464488 776.432721,77.000784 Z M766.30717,90.6746941 C766.403356,96.5038403 771.107892,101.178402 776.87823,101.178402 C782.648568,101.178402 787.353105,96.5038403 787.44929,90.6746941 C787.54535,84.8531503 783.009634,80.0277469 777.253206,79.8215976 L776.503254,79.8215976 C770.746827,80.0277469 766.21111,84.8531503 766.30717,90.6746941 Z M793.189182,77.000784 L794.033654,77 C801.370725,77.2464488 807.1197,83.3528066 806.998106,90.7217273 C806.876513,98.090648 800.929269,104 793.634691,104 C786.340113,104 780.392869,98.090648 780.271276,90.7217273 C780.149683,83.3528066 785.898657,77.2464488 793.189182,77.000784 Z M783.063631,90.6746941 C783.159817,96.5038403 787.864353,101.178402 793.634691,101.178402 C799.405029,101.178402 804.109565,96.5038403 804.205751,90.6746941 C804.301811,84.8531503 799.766094,80.0277469 794.009667,79.8215976 L793.259715,79.8215976 C787.503288,80.0277469 782.967571,84.8531503 783.063631,90.6746941 Z" id="audi" fill="#D4D4D4" fill-rule="nonzero"></path>
    </g>
</svg>