<?xml version="1.0" encoding="UTF-8"?>
<svg width="49px" height="54px" viewBox="0 0 49 54" version="1.1" xmlns="http://www.w3.org/2000/svg" xmlns:xlink="http://www.w3.org/1999/xlink">
    <!-- Generator: Sketch 48.2 (47327) - http://www.bohemiancoding.com/sketch -->
    <title>baidu</title>
    <desc>Created with Sketch.</desc>
    <defs></defs>
    <g id="Integration-Overview" stroke="none" stroke-width="1" fill="none" fill-rule="evenodd" transform="translate(-835.000000, -2611.000000)">
        <g id="dcm-copy-3" transform="translate(731.000000, 2568.000000)" fill="#FFFFFF">
            <path d="M111.417864,71.4567114 C105.625792,72.7206632 103.471264,65.9366729 104.107591,62.7582393 C104.107591,62.7582393 104.793327,55.8939741 109.490916,55.4706373 C113.222037,55.1404498 115.971718,59.2730949 116.257691,61.6396913 C116.427627,63.174003 117.219667,70.1957889 111.417864,71.4567114 Z M122.192,59.6858293 C118.987159,59.6858293 116.392442,55.952287 116.392442,51.3402641 C116.392442,46.7274839 118.987907,43 122.192,43 C125.394596,43 127.983323,46.7274839 127.983323,51.3402641 C127.983323,55.952287 125.394596,59.6858293 122.192,59.6858293 Z M135.999544,60.2348797 C131.71669,59.6797709 130.748725,55.7606873 131.165706,51.8302442 C131.507825,48.6169744 135.304825,43.6914248 138.346467,44.3987531 C141.374635,45.097751 144.144528,49.1698113 143.583063,52.6708592 C143.033576,56.176451 140.28689,60.8028628 135.999544,60.2348797 Z M152.977493,66.1244859 C152.977493,67.8125318 153.67371,74.9539728 147.321671,75.0963473 C140.962894,75.2356924 140.697882,70.7493831 140.697882,67.5330841 C140.697882,64.1630509 141.374635,59.3935074 146.495194,59.3935074 C151.605273,59.3935074 152.977493,64.4477998 152.977493,66.1244859 Z M146.495194,80.8435791 C146.495194,80.8435791 151.460041,84.7732649 148.285893,92.3403147 C145.115488,99.9134229 133.513378,95.9776785 133.513378,95.9776785 C133.513378,95.9776785 129.234267,94.582712 124.260437,95.7027747 C119.297087,96.8258667 115.017228,96.4025299 115.017228,96.4025299 C115.017228,96.4025299 109.210184,96.5433897 107.554237,89.1164425 C105.902033,81.6834368 113.348554,77.6128911 113.906276,76.9214663 C114.458757,76.2156526 118.320138,73.5574917 120.804059,69.3483581 C123.295466,65.1498269 130.747228,61.782823 135.999544,70.0503852 C139.867663,75.6575146 146.495194,80.8435791 146.495194,80.8435791 Z M128.483401,79.0502671 L128.483401,88.762021 C128.483401,88.762021 128.640611,91.1785999 132.009401,92.0593524 L140.687402,92.0593524 L140.687402,79.0487524 L136.942057,79.0487524 L136.942057,88.8157901 L133.368146,88.8157901 C133.368146,88.8157901 132.225752,88.6476671 132.010898,87.719204 L132.010898,78.9927114 L128.483401,79.0502671 Z M123.221352,73.6135327 L123.221352,78.6026964 L119.202761,78.6026964 C119.202761,78.6026964 115.186416,78.9396997 113.780508,83.5449068 C113.290162,86.6195887 114.21321,88.4303189 114.374163,88.8173047 C114.536614,89.2035332 115.834721,91.4527464 119.094211,92.1131214 L126.635059,92.1131214 L126.635059,73.668059 L123.221352,73.6135327 Z M123.160714,89.0853928 L120.122815,89.0853928 C120.122815,89.0853928 118.006467,88.9740681 117.361905,86.5090213 C117.029518,85.4169791 117.411314,84.1552993 117.579005,83.6592607 C117.732472,83.1624648 118.442912,82.0143816 119.907961,81.5721121 L123.159966,81.5721121 L123.160714,89.0853928 Z" id="baidu"></path>
        </g>
    </g>
</svg>