<?xml version="1.0" encoding="UTF-8"?>
<svg width="162px" height="166px" viewBox="0 0 162 166" version="1.1" xmlns="http://www.w3.org/2000/svg" xmlns:xlink="http://www.w3.org/1999/xlink">
    <!-- Generator: Sketch 48.2 (47327) - http://www.bohemiancoding.com/sketch -->
    <title>burger-king</title>
    <desc>Created with Sketch.</desc>
    <defs></defs>
    <g id="Page-1" stroke="none" stroke-width="1" fill="none" fill-rule="evenodd">
        <g id="burger-king" fill="#D4D4D4" fill-rule="nonzero">
            <path d="M146.78842,100.349636 L148.949997,100.349636 L148.949997,105.960455 L150.221689,105.960455 L150.221689,100.349636 L152.373324,100.349636 L152.373324,99.2545504 L146.78842,99.2545504 L146.78842,100.349636 Z M159.883165,99.2545504 L157.780251,104.716039 L155.64353,99.2545504 L153.522718,99.2545504 L153.522718,105.960455 L154.66913,105.960455 L154.66913,100.201301 L154.686033,100.201301 L156.951016,105.960455 L158.504091,105.960455 L160.7124,100.201301 L160.731291,100.201301 L160.731291,105.960455 L162,105.960455 L162,99.2545504 L159.883165,99.2545504 Z M150.027803,86.3474767 C150.121266,82.9905424 150.027803,72.3940988 150.027803,72.3940988 L132.660611,76.1572101 C132.660611,76.1572101 132.660611,77.4713125 132.64868,80.2249543 C132.68348,82.9039312 133.979034,84.3663678 136.794852,83.8516777 C137.680761,83.704339 139.033984,83.2692914 139.033984,83.2692914 L139.053869,86.5883955 C139.047904,86.4997931 139.308407,88.4440673 134.93156,89.3181445 C129.20845,90.2141234 126.61237,86.6849621 126.536804,80.4479535 C126.653135,73.7609643 130.42645,69.9062641 134.998177,68.8529911 C140.150567,67.67229 143.068796,68.89779 144.783939,69.161606 C150.535883,70.0257279 152.165518,61.3904825 146.929608,59.3665657 C143.06283,57.8025848 138.050635,57.5198537 133.260165,58.4725779 C126.870884,59.7508411 114.305098,65.1117815 114.269304,82.5057183 C114.304104,96.3326636 124.483603,100.832469 133.625068,99.7911422 C140.191333,99.0395154 144.733231,96.3973732 147.224911,93.9433866 C149.491883,91.7094126 150.027803,88.638196 150.027803,86.3474767 Z M106.525805,65.8514618 C103.46937,66.7175747 101.10993,68.6688177 101.10993,73.8266695 L101.103964,86.1224864 C101.103964,86.1224864 94.1379971,77.3647905 89.5702475,72.7952982 C87.1312642,70.3622178 83.1014233,71.810717 83.1014233,71.810717 L77.1486335,73.6136256 L77.164542,114.603664 C77.164542,114.603664 82.4929203,112.766908 82.9572518,112.609613 C87.238647,111.136226 88.7947045,108.578704 88.7827731,104.16551 C88.7241102,99.3789919 88.7151616,90.0259678 88.7151616,90.0259678 L101.110924,104.325791 C103.120376,106.404462 105.648845,106.586644 107.952606,105.9057 C110.338892,105.206837 112.333429,103.022639 112.390104,99.9344988 C112.414961,89.612822 112.382149,64.4169001 112.382149,64.4169001 C112.382149,64.4169001 109.188503,65.0918708 106.525805,65.8514618 Z M60.4197728,86.4201505 C60.4197728,91.9115056 60.4098299,120.486263 60.4098299,120.486263 C60.4098299,120.486263 63.8669621,119.297598 67.0904371,118.08504 C71.6691237,116.360778 73.3961984,113.995394 73.3961984,109.182992 C73.3961984,105.048547 73.4091241,74.5434526 73.4091241,74.5434526 C73.4091241,74.5434526 69.6765747,75.6345558 66.6420141,76.7316321 C62.6956933,78.1632073 60.4197728,80.4459624 60.4197728,86.4201505 Z M48.0458845,104.628433 C48.0458845,104.628433 55.8709147,92.2649195 57.151555,90.1962038 C58.8527782,87.4564994 58.0006751,84.0527752 54.8925373,82.6460883 C51.4612566,81.0860895 48.5201588,82.8242886 47.2703414,84.7456655 L36.7458249,102.675199 L36.7269335,88.219077 L24.3152623,93.2972863 L24.2735023,134.25049 L33.0202356,130.578968 C33.0202356,130.578968 34.7353788,130.088171 35.7694361,128.45948 C36.7209678,126.964191 36.6851735,124.438526 36.6851735,124.438526 L36.6980992,111.479685 L46.4669584,121.862089 C48.6166046,124.093076 52.5609368,125.233956 56.0339776,122.423569 C59.1798982,119.876998 58.6936924,115.545438 56.9407663,113.605146 L48.0458845,104.628433 Z M38.2432195,75.719176 C38.1915167,72.7465171 35.9583505,70.5941767 33.3443728,70.1611203 C36.0001105,68.0257039 37.2210936,65.5846592 37.2210936,62.7264866 C37.2210936,58.4367387 33.4527499,55.6173918 27.0425886,57.9558967 C24.790531,58.7772107 17.8663238,61.6035263 17.8663238,61.6035263 L17.8921752,91.1907404 L28.866109,86.7038772 C34.2342587,84.4788629 38.338671,81.4385079 38.2432195,75.719176 Z M25.4457654,63.9061921 C27.8688402,62.6538127 29.6655148,63.2222615 29.6466234,65.4034724 C29.634692,67.314894 28.4674003,68.8002279 26.8298114,69.6026268 C26.3784056,69.8196528 25.9836741,69.9958619 25.4457654,70.2128879 L25.4457654,63.9061921 Z M25.4974683,82.0348316 L25.5074111,74.7913401 C28.529046,73.2741491 30.2750121,74.495667 30.3098121,76.759507 C30.3485893,78.9685928 28.9575833,80.448949 27.1927258,81.2662808 C26.4778342,81.6017752 25.4974683,82.0348316 25.4974683,82.0348316 Z M55.2723546,48.0135176 C53.5900228,48.5023239 51.6223309,49.2728658 51.6223309,49.2728658 L51.6094052,67.7768209 C51.5875309,69.6225374 51.3081366,71.9291853 49.0401704,72.4966386 C47.3011643,72.9356682 46.4719298,71.7758733 46.4679527,69.9391166 L46.4401127,54.7871181 C46.4401127,52.2674263 44.6931523,51.5118174 42.6240433,52.2017212 C40.2844885,52.9842094 38.8745911,53.5456895 38.8745911,53.5456895 C38.8745911,53.5456895 38.9044197,66.6538607 38.8726025,71.889364 C38.8467511,78.0427479 43.0764434,81.1069957 49.5283648,79.1955741 C55.2186631,77.5131248 59.0158411,74.32344 59.0854411,66.1411617 L59.0754982,50.59991 C59.0745039,48.085196 57.3543893,47.4181895 55.2723546,48.0135176 Z M122.727695,54.7273861 C122.727695,52.9185043 122.739626,51.5426789 122.739626,51.5426789 L113.839773,53.4929263 L113.849716,48.2454766 C113.849716,48.2454766 118.219602,47.3176407 119.432631,47.0548202 C120.952894,46.723308 121.749317,45.8890521 121.749317,44.148862 C121.749317,42.519176 121.743351,41.1184623 121.743351,41.1184623 L113.849716,42.7919518 L113.845738,38.6356053 C113.845738,38.6356053 117.947168,37.7854209 120.161443,37.3125431 C121.876586,36.9551471 122.445317,35.7714594 122.445317,34.1457555 C122.445317,33.0875049 122.468186,30.9909143 122.468186,30.9909143 C118.533797,31.6848001 111.049806,33.1930313 106.388594,34.2562596 L106.32496,61.3944646 C106.32496,61.3944646 115.192002,59.3008606 120.071957,58.2475876 C121.707557,57.8862095 122.727695,56.7313922 122.727695,54.7273861 Z M80.7618685,68.1859846 C82.4272974,66.6190171 82.3219031,64.0196827 80.8384285,62.585121 L76.0231018,57.9499235 C78.2184851,56.1310864 80.6564742,53.466047 80.6912742,49.0916789 C80.7648514,44.4863474 76.7161191,41.8949774 71.0248265,43.2180395 C67.3658543,44.0722061 61.1416244,46.2394794 61.1416244,46.2394794 L61.1247215,74.1950163 C61.1247215,74.1950163 64.1393964,73.1487121 65.5592367,72.6688656 C67.2544942,72.0177876 68.5997631,70.5882035 68.6186545,68.6260098 C68.6186545,66.5314102 68.6405288,61.3307505 68.6405288,61.3307505 L75.0646102,67.9699541 C77.1287478,70.0794866 79.7685769,69.1138205 80.7618685,68.1859846 Z M68.6315802,57.1455336 L68.6315802,49.3853609 C70.1021291,48.8517557 72.9378326,48.1737983 72.9795926,51.2619389 C73.0273183,54.8677562 68.6355574,57.1405559 68.6315802,57.1455336 Z M131.676268,52.7801253 C131.682234,50.7960299 131.658371,46.2603856 131.658371,46.2603856 L137.952201,53.6442472 C139.095629,54.9145462 141.069287,55.5755795 143.067802,54.3132448 C145.091174,53.0290084 145.160774,50.4047858 143.790648,48.8746529 C142.761562,47.7337731 138.959412,43.4370566 138.959412,43.4370566 C141.027527,42.0353474 143.46651,39.6928604 143.50131,35.8072986 C143.578865,31.3821584 139.809527,28.2721161 134.220646,28.9869082 C132.195285,29.2497286 124.381192,30.625554 124.381192,30.625554 L124.379203,57.4272692 L128.468701,56.6218837 C130.51693,56.2027647 131.652405,54.7582476 131.676268,52.7801253 Z M135.942749,36.9760533 C135.991469,40.4653933 131.653399,42.1100123 131.647434,42.116981 L131.637491,34.8734895 C132.998668,34.5718432 135.89204,34.0352514 135.942749,36.9760533 Z M94.951323,64.8758404 C87.6443157,66.1919338 81.6567259,62.1421092 81.6567259,52.9672854 C81.6567259,44.0094875 86.9920641,36.5031755 97.4300778,36.1388108 C102.238444,35.9705658 104.487519,37.5345468 104.430845,40.0671804 C104.372182,42.4295781 102.725645,43.8153588 99.865084,43.3484542 C98.703758,43.1971333 97.194432,42.9900627 95.5359631,43.4101772 C92.2230024,44.2673304 89.7939619,47.3037033 89.7084533,52.4844523 C89.749219,56.412822 91.2287165,58.4815377 93.8854484,58.5502294 C95.782546,58.5990105 97.6120321,57.7986027 97.5981121,56.5820624 L97.5782264,53.5058682 C97.5782264,53.5058682 96.8484205,53.6691355 95.935666,53.8543045 C94.4969343,54.1529641 93.4907169,53.2251282 93.4698369,51.7895709 C93.4748084,49.8721761 93.4907169,48.6994393 93.4907169,48.6994393 L104.573028,46.1797475 L104.573028,56.7363699 C104.573028,58.3312123 103.981428,60.1968395 102.55761,61.4502144 C101.132799,62.7006027 99.0815867,64.0326247 94.951323,64.8758404 Z M121.822894,25.895781 C111.774641,27.6100873 96.1245803,30.6882725 77.0661077,35.7475666 C63.6770535,39.3115716 42.4599861,46.350979 35.3408989,48.7581757 C34.5007273,49.0399112 33.8315729,49.0438934 33.3732071,48.4694713 C32.9178241,47.8980359 33.1136984,46.5610363 33.2260527,46.1269843 C33.2260527,46.1269843 36.2407277,28.2024289 56.4128005,17.3152898 C67.5497972,11.3072536 83.4325205,8.93788719 95.0984773,10.1862844 C116.891236,12.514834 123.044872,23.0017692 123.044872,23.0017692 C123.044872,23.0017692 123.831352,23.9375693 123.448552,24.8863114 C123.17214,25.5443582 122.53182,25.7773127 121.822894,25.895781 Z M111.683166,21.5263906 C111.798504,16.5895469 98.1151408,10.7348226 84.1623264,12.0369786 C97.4708435,13.3291793 105.382377,17.7672614 105.423142,21.2964227 C105.446011,23.5303967 102.809165,26.2143513 100.22601,26.982902 C106.822103,25.3631713 111.621521,24.470179 111.683166,21.5263906 Z M42.9173577,40.9980029 C45.5025011,31.0665747 54.7881373,21.6199706 62.2492589,16.4262796 C48.9437246,21.6199706 40.4177228,35.3802153 39.966317,40.8158206 C39.7843627,42.9910582 42.650889,43.2966866 42.9173577,40.9980029 Z M137.525652,103.759333 C138.156029,104.40842 138.026772,105.499523 137.865698,106.176485 C137.06828,109.508531 128.044141,133.393337 96.7857805,141.10672 C75.0417416,146.482593 54.9561716,139.183352 50.4411192,133.506828 C50.4411192,133.506828 49.3861819,132.449573 49.8415648,131.37838 C50.1458163,130.688476 50.5753478,130.544124 51.5328452,130.129983 C73.6845413,120.626633 112.122641,108.88035 135.21692,103.449723 C136.251972,103.20084 136.997686,103.207808 137.525652,103.759333 Z M131.062793,112.128771 C132.575102,108.906234 127.766736,107.247678 126.533821,111.0307 C123.453523,118.958122 115.429636,129.180245 104.282696,135.524771 C114.18479,132.114078 125.802027,123.274749 131.062793,112.128771 Z M145.205516,107.870881 L159.099668,115.431947 C151.378043,134.422717 127.249707,166 82.5167832,166 C35.6789561,166 0,127.847228 0,82.3095985 C0,40.5231341 33.5939385,0 83.4981434,0 C92.3214367,0 100.234958,1.37980749 108.209131,3.93434286 C103.035862,2.76558817 96.1733004,1.57990944 88.5839159,1.57990944 C42.0712203,1.57990944 8.72784185,35.9436865 8.72784185,79.5320639 C8.72784185,96.1066779 13.57598,110.72308 21.6177646,121.878017 L21.6177646,138.294342 L32.2059154,133.761684 C44.3898951,145.09283 62.3486875,152.066533 83.2406233,151.777828 C111.916824,151.367669 133.798074,133.520765 145.205516,107.870881 Z" id="Combined-Shape"></path>
        </g>
    </g>
</svg>