<?xml version="1.0" encoding="UTF-8"?>
<svg width="170px" height="36px" viewBox="0 0 170 36" version="1.1" xmlns="http://www.w3.org/2000/svg" xmlns:xlink="http://www.w3.org/1999/xlink">
    <!-- Generator: Sketch 48.2 (47327) - http://www.bohemiancoding.com/sketch -->
    <title>campaignasia</title>
    <desc>Created with Sketch.</desc>
    <defs></defs>
    <g id="About" stroke="none" stroke-width="1" fill="none" fill-rule="evenodd" transform="translate(-1005.000000, -3047.000000)">
        <path d="M1140.92117,3081.29615 C1141.33837,3081.26566 1142.02515,3081.23787 1142.70637,3081.15845 C1143.19423,3081.1014 1143.6804,3081.00008 1144.15617,3080.87468 C1145.11979,3080.62017 1146.03841,3080.25746 1146.72737,3079.48115 C1147.74278,3078.33648 1147.4473,3076.9705 1146.02703,3076.45657 C1145.34315,3076.20919 1144.60652,3076.06435 1143.88247,3075.98911 C1141.65466,3075.75796 1139.41959,3075.80763 1137.18621,3075.9264 C1136.52,3075.96157 1135.85935,3076.04026 1135.24032,3076.33657 C1133.76439,3077.04304 1133.50037,3078.66992 1134.73068,3079.75828 C1135.12223,3080.10476 1135.6084,3080.37402 1136.09336,3080.57197 C1137.55259,3081.1673 1139.09991,3081.25779 1140.92117,3081.29615 Z M1136.83677,3061.507 C1136.89727,3062.32904 1136.92582,3063.15478 1137.02649,3063.97142 C1137.14822,3064.95847 1137.37448,3065.92314 1137.94269,3066.76412 C1138.93245,3068.22822 1140.97586,3068.23633 1141.91408,3066.73879 C1142.22794,3066.23715 1142.45397,3065.64478 1142.58198,3065.06224 C1143.04637,3062.95117 1143.03839,3060.8138 1142.75332,3058.67839 C1142.64127,3057.83864 1142.41864,3057.02323 1141.93852,3056.30938 C1140.98167,3054.88709 1139.01061,3054.84283 1138.03368,3056.24815 C1137.74352,3056.6652 1137.52766,3057.15381 1137.36359,3057.63946 C1136.94179,3058.88913 1136.88008,3060.19634 1136.83677,3061.507 Z M1138.64254,3083 C1138.18299,3082.95943 1137.72271,3082.92254 1137.26365,3082.87803 C1135.46731,3082.7032 1133.69397,3082.42533 1132.05808,3081.58803 C1131.28587,3081.19287 1130.60659,3080.68263 1130.20851,3079.86771 C1129.61054,3078.64386 1129.92441,3077.2073 1131.02839,3076.43419 C1131.58788,3076.04247 1132.23038,3075.77321 1132.83658,3075.45083 C1132.92951,3075.40165 1133.02897,3075.36501 1133.09963,3075.33378 C1132.6592,3074.96739 1132.18706,3074.63862 1131.7914,3074.23263 C1130.63273,3073.04419 1130.46478,3070.97838 1131.39187,3069.63551 C1131.96806,3068.80117 1132.82012,3068.39936 1133.75036,3068.13281 C1133.97928,3068.0674 1134.21305,3068.01871 1134.48046,3067.95355 C1134.04995,3067.64592 1133.64751,3067.37666 1133.26515,3067.08084 C1132.0922,3066.17396 1131.08961,3065.1092 1130.58578,3063.67314 C1129.70371,3061.15806 1130.18165,3058.86282 1131.85263,3056.84127 C1133.34792,3055.03242 1135.33276,3054.07807 1137.59179,3053.67406 C1139.69377,3053.29832 1141.72968,3053.57299 1143.71259,3054.34537 C1143.88779,3054.41373 1144.08647,3054.44815 1144.2745,3054.44889 C1146.50062,3054.45578 1148.72698,3054.45332 1150.95309,3054.45332 L1151.30713,3054.45332 L1151.30713,3056.5479 L1146.93548,3056.5479 C1147.02793,3056.6861 1147.09351,3056.77758 1147.15231,3056.87299 C1147.64477,3057.67094 1148.18612,3058.44282 1148.61808,3059.27348 C1149.70561,3061.36462 1149.43699,3063.42306 1148.27687,3065.38117 C1147.16199,3067.26232 1145.43342,3068.33961 1143.40332,3068.94551 C1141.56439,3069.49461 1139.6974,3069.6001 1137.81056,3069.20715 C1137.57558,3069.15822 1137.3302,3069.13756 1137.08989,3069.13928 C1136.21,3069.14617 1135.32986,3069.15526 1134.45069,3069.19043 C1134.08262,3069.20494 1133.92435,3069.37805 1133.89991,3069.67658 C1133.87329,3070.00215 1134.03204,3070.23797 1134.38027,3070.30682 C1134.66268,3070.36264 1134.95549,3070.38403 1135.24371,3070.38453 C1138.01214,3070.38994 1140.78033,3070.37469 1143.54827,3070.39338 C1144.94362,3070.40272 1146.3288,3070.54067 1147.67188,3070.96362 C1148.46369,3071.21297 1149.20734,3071.55993 1149.8433,3072.11124 C1151.03513,3073.14428 1151.40054,3074.50559 1151.31536,3076.03091 C1151.17839,3078.49017 1149.88202,3080.17853 1147.83305,3081.34213 C1146.34284,3082.18853 1144.71663,3082.59869 1143.03718,3082.81803 C1142.48373,3082.89008 1141.92739,3082.94 1141.37225,3083 L1138.64254,3083 Z M1077.89195,3082.99985 L1077.89195,3082.1269 C1078.09958,3082.09666 1078.2893,3082.07526 1078.47637,3082.04084 C1079.87099,3081.7851 1080.5372,3081.05281 1080.67949,3079.60223 C1080.7187,3079.20215 1080.73903,3078.79838 1080.73927,3078.39609 C1080.74266,3071.92495 1080.74193,3065.45381 1080.74096,3058.98267 C1080.74096,3058.80587 1080.7429,3058.6271 1080.71918,3058.45275 C1080.54978,3057.21513 1079.94286,3056.66948 1078.55889,3056.50104 C1078.48363,3056.49169 1078.40885,3056.48136 1078.31931,3056.47005 L1078.31931,3055.57694 C1081.34377,3054.94374 1084.37428,3054.30907 1087.45779,3053.66358 L1087.45779,3056.64686 C1087.85273,3056.21235 1088.18983,3055.81153 1088.55742,3055.44243 C1089.37004,3054.62702 1090.30051,3054.00809 1091.44394,3053.78973 C1093.15582,3053.46268 1094.66127,3053.95842 1095.98983,3055.0453 C1097.57974,3056.34587 1098.55837,3058.07185 1099.15053,3060.02136 C1100.27896,3063.73865 1100.14973,3067.40725 1098.562,3070.97356 C1097.77769,3072.73569 1096.65483,3074.24331 1094.97224,3075.22126 C1093.18704,3076.25896 1091.33819,3076.42568 1089.46974,3075.43101 C1088.82749,3075.08921 1088.31663,3074.57552 1087.86047,3074.00724 C1087.74577,3073.86388 1087.633,3073.7188 1087.48393,3073.5297 C1087.47255,3073.65831 1087.45876,3073.73847 1087.459,3073.81888 C1087.46215,3075.6479 1087.45779,3077.47716 1087.47812,3079.30592 C1087.48272,3079.70453 1087.55217,3080.10756 1087.63421,3080.49928 C1087.77747,3081.18412 1088.20822,3081.63166 1088.86499,3081.81731 C1089.36544,3081.95871 1089.8821,3082.04158 1090.437,3082.1601 L1090.437,3082.99985 L1077.89195,3082.99985 Z M1087.47134,3065.74348 L1087.45779,3065.74348 C1087.45779,3067.26709 1087.48054,3068.79118 1087.44617,3070.3138 C1087.43359,3070.86807 1087.5725,3071.32102 1087.89241,3071.75479 C1088.34253,3072.36511 1088.81055,3072.94716 1089.50338,3073.28995 C1090.53307,3073.79896 1091.55671,3073.50216 1092.12322,3072.49839 C1092.30303,3072.1797 1092.43564,3071.82216 1092.52857,3071.46585 C1092.85647,3070.21348 1092.89519,3068.92471 1092.94359,3067.63938 C1093.03216,3065.29176 1093.04571,3062.94537 1092.76258,3060.60759 C1092.66674,3059.81677 1092.51792,3059.03554 1092.18179,3058.30792 C1091.81274,3057.50923 1091.24236,3057.00513 1090.31842,3057.01276 C1089.42909,3057.02013 1088.7682,3057.43669 1088.27235,3058.15374 C1087.73246,3058.93374 1087.49482,3059.82488 1087.47909,3060.76078 C1087.45126,3062.42111 1087.47134,3064.08267 1087.47134,3065.74348 Z M1175,3075.79999 C1174.88433,3075.79433 1174.76889,3075.78351 1174.65298,3075.78351 C1171.34321,3075.78253 1168.03319,3075.78277 1164.72293,3075.78277 L1164.33284,3075.78277 C1164.33284,3075.4599 1164.3234,3075.15892 1164.34058,3074.85941 C1164.34421,3074.79892 1164.4381,3074.71777 1164.50756,3074.69122 C1165.57064,3074.28474 1165.96727,3073.43737 1165.99002,3072.35786 C1166.00164,3071.79893 1165.9588,3071.23925 1165.95832,3070.67958 C1165.95493,3067.0309 1165.96389,3063.38222 1165.9484,3059.73378 C1165.94622,3059.23878 1165.88887,3058.72706 1165.75408,3058.25321 C1165.45376,3057.19558 1164.53732,3056.7564 1163.51247,3057.12673 C1162.67759,3057.42821 1162.07913,3058.04665 1161.53827,3058.71943 C1160.41832,3060.11271 1160.42654,3060.11935 1160.42654,3061.93115 C1160.42654,3065.13721 1160.42219,3068.34327 1160.43187,3071.54934 C1160.43308,3071.98925 1160.48051,3072.4331 1160.54923,3072.8681 C1160.68959,3073.75876 1161.18786,3074.36859 1162.03001,3074.66786 C1162.21949,3074.73523 1162.31072,3074.82204 1162.29015,3075.0404 C1162.26813,3075.27277 1162.28507,3075.50884 1162.28507,3075.7631 L1151.84465,3075.7631 C1151.84465,3075.47023 1151.83764,3075.18843 1151.85046,3074.90761 C1151.85312,3074.85105 1151.92427,3074.75859 1151.97485,3074.74974 C1153.02003,3074.56999 1153.39367,3073.82245 1153.50208,3072.86983 C1153.5621,3072.34384 1153.60324,3071.8122 1153.6042,3071.28302 C1153.61219,3066.93623 1153.60977,3062.58918 1153.60614,3058.24239 C1153.60614,3057.96821 1153.5846,3057.69181 1153.54467,3057.42058 C1153.40843,3056.49673 1152.80562,3055.97837 1151.9959,3055.68231 C1151.6905,3055.57042 1151.55765,3055.42559 1151.60605,3055.09411 C1151.63412,3054.90255 1151.61113,3054.70313 1151.61113,3054.48034 L1160.42001,3054.48034 L1160.42001,3057.53886 C1160.44348,3057.54772 1160.46671,3057.55681 1160.48995,3057.56542 C1160.6349,3057.40263 1160.77865,3057.23886 1160.92433,3057.07681 C1161.82794,3056.07206 1162.7768,3055.12264 1163.97783,3054.47764 C1166.07496,3053.35166 1168.99561,3053.65338 1170.6465,3055.17723 C1171.68176,3056.1328 1172.21318,3057.37435 1172.54762,3058.71919 C1172.84576,3059.91648 1172.95562,3061.1396 1172.95974,3062.37009 C1172.97014,3065.50729 1172.95248,3068.6445 1172.97353,3071.78171 C1172.9774,3072.32442 1173.05871,3072.88261 1173.20512,3073.40441 C1173.42945,3074.20384 1174.16415,3074.70572 1175,3074.73769 L1175,3075.79999 Z M1125.69103,3047 C1126.30425,3047.15 1126.88359,3047.36713 1127.38355,3047.78024 C1128.85077,3048.99303 1129.0359,3051.30844 1127.77316,3052.76147 C1126.4993,3054.2263 1124.30174,3054.34433 1122.93519,3052.97909 C1121.95462,3051.99917 1121.68141,3050.78073 1122.06376,3049.45213 C1122.43522,3048.16164 1123.29552,3047.35115 1124.60423,3047.05951 C1124.6582,3047.04721 1124.70901,3047.02016 1124.76153,3047 L1125.69103,3047 Z M1056.88158,3075.76312 L1056.88158,3074.83829 C1057.02847,3074.78591 1057.18189,3074.73526 1057.33217,3074.67649 C1058.12326,3074.36739 1058.50779,3073.73223 1058.60434,3072.92198 C1058.6888,3072.21206 1058.73405,3071.4928 1058.73696,3070.77748 C1058.75027,3067.40371 1058.7522,3064.03019 1058.73502,3060.65642 C1058.73163,3059.98265 1058.67888,3059.29929 1058.55619,3058.63782 C1058.24498,3056.96028 1056.93917,3056.91086 1055.94457,3057.36356 C1055.22899,3057.68938 1054.69031,3058.23798 1054.19978,3058.84192 C1054.15066,3058.90241 1054.10734,3058.96807 1054.05822,3059.02856 C1053.41136,3059.82454 1053.09895,3060.68446 1053.12097,3061.76962 C1053.19211,3065.28945 1053.14904,3068.81149 1053.15944,3072.33256 C1053.16065,3072.67411 1053.21293,3073.01813 1053.26713,3073.35673 C1053.37772,3074.04427 1053.77242,3074.48641 1054.43355,3074.67673 C1054.62812,3074.73304 1054.82607,3074.77878 1055.04725,3074.83583 L1055.04725,3075.76534 L1044.22569,3075.76534 C1044.22569,3075.48722 1044.21843,3075.2069 1044.23295,3074.92755 C1044.23537,3074.87985 1044.32564,3074.82034 1044.38711,3074.79501 C1044.61047,3074.7028 1044.84786,3074.64206 1045.06348,3074.53509 C1045.84537,3074.14706 1046.16819,3073.44132 1046.29016,3072.61829 C1046.3434,3072.26026 1046.36856,3071.89436 1046.36881,3071.5319 C1046.37389,3066.96822 1046.37244,3062.40429 1046.3705,3057.84061 C1046.3705,3057.62471 1046.36808,3057.4061 1046.3359,3057.1934 C1046.17618,3056.13602 1045.66412,3055.62725 1044.55553,3055.4534 C1044.32806,3055.4175 1044.26103,3055.33807 1044.27797,3055.1202 C1044.29369,3054.9161 1044.28135,3054.70979 1044.28135,3054.47889 L1053.19865,3054.47889 L1053.19865,3057.92987 C1053.47525,3057.60725 1053.69474,3057.33995 1053.92584,3057.08323 C1055.03927,3055.84758 1056.29208,3054.80791 1057.91635,3054.36037 C1059.62,3053.89094 1061.27743,3053.9775 1062.77877,3055.02946 C1063.89848,3055.81414 1064.48387,3056.98069 1064.88026,3058.26257 C1064.92938,3058.42118 1064.97125,3058.58225 1065.01723,3058.74208 C1065.01916,3058.74848 1065.03102,3058.75167 1065.06514,3058.77454 C1065.12008,3058.70446 1065.17912,3058.63339 1065.23381,3058.55864 C1066.02611,3057.4752 1066.86511,3056.43553 1067.91101,3055.58766 C1069.94038,3053.94184 1072.58467,3053.68094 1074.68568,3054.96135 C1076.2889,3055.93832 1077.25252,3057.39872 1077.52428,3059.27028 C1077.68884,3060.40364 1077.76773,3061.55765 1077.78274,3062.70404 C1077.82339,3065.79133 1077.80693,3068.87961 1077.82,3071.96764 C1077.82145,3072.34018 1077.85219,3072.71395 1077.8943,3073.08428 C1077.99158,3073.94173 1078.45597,3074.47091 1079.2865,3074.68632 C1079.92488,3074.85181 1079.92125,3074.86731 1079.90697,3075.54231 C1079.90576,3075.60919 1079.89657,3075.67558 1079.88906,3075.7619 L1069.07646,3075.7619 L1069.07646,3074.8437 C1069.30926,3074.79058 1069.53407,3074.7419 1069.75792,3074.68829 C1070.39872,3074.5346 1070.78785,3074.11755 1070.91732,3073.47354 C1071.00033,3073.06141 1071.05961,3072.63895 1071.07317,3072.2192 C1071.11576,3070.89305 1071.15036,3069.56617 1071.15472,3068.23928 C1071.16464,3065.49527 1071.16706,3062.75101 1071.13802,3060.00724 C1071.1327,3059.48643 1071.02549,3058.9479 1070.86457,3058.45143 C1070.54368,3057.46069 1069.71363,3057.04954 1068.71952,3057.31561 C1067.83938,3057.55118 1067.19761,3058.13815 1066.69474,3058.85938 C1066.23374,3059.52085 1065.85986,3060.24577 1065.45959,3060.95003 C1065.40127,3061.05257 1065.39087,3061.19446 1065.39087,3061.31814 C1065.38724,3064.63289 1065.38167,3067.9474 1065.39401,3071.26215 C1065.39619,3071.85944 1065.4412,3072.46141 1065.52687,3073.05206 C1065.68078,3074.1146 1066.16259,3074.59116 1067.20414,3074.79993 C1067.2506,3074.80927 1067.2961,3074.82231 1067.35757,3074.83731 L1067.35757,3075.76312 L1056.88158,3075.76312 Z M1120.46753,3072.117 C1120.73687,3072.31052 1120.99557,3072.49593 1121.27411,3072.69585 C1120.1527,3074.52167 1118.70266,3075.83626 1116.51696,3076.09101 C1115.601,3076.19748 1114.69788,3076.13281 1113.83516,3075.78634 C1112.44078,3075.22642 1111.69931,3074.10068 1111.29808,3072.69315 C1111.28211,3072.63782 1111.26759,3072.58224 1111.23807,3072.47528 C1111.09916,3072.58519 1110.98203,3072.67692 1110.86588,3072.77036 C1109.69002,3073.71757 1108.48972,3074.62765 1107.1285,3075.29085 C1105.86843,3075.90486 1104.55681,3076.21052 1103.16413,3075.8906 C1101.14104,3075.42609 1099.71303,3073.67675 1099.59638,3071.55733 C1099.48942,3069.60807 1100.16653,3067.96323 1101.46798,3066.56061 C1102.74475,3065.18504 1104.28892,3064.18053 1105.90424,3063.27931 C1107.65193,3062.30431 1109.47706,3061.50709 1111.36826,3060.86406 C1111.4561,3060.83406 1111.58484,3060.72685 1111.58388,3060.65751 C1111.56791,3059.65595 1111.58315,3058.64972 1111.4895,3057.65481 C1111.37552,3056.44891 1110.63477,3055.72645 1109.50683,3055.43579 C1108.34598,3055.13702 1107.21924,3055.2553 1106.19101,3055.91776 C1105.95361,3056.07095 1105.74283,3056.29694 1105.57948,3056.53227 C1105.28013,3056.96308 1105.26198,3057.43448 1105.55867,3057.88325 C1105.75783,3058.18423 1105.96038,3058.48989 1106.20407,3058.75275 C1107.42688,3060.07005 1106.77978,3061.60054 1105.89384,3062.32914 C1104.93287,3063.11972 1103.82792,3063.38431 1102.62617,3063.1448 C1101.2163,3062.86373 1100.27639,3061.6266 1100.2309,3060.1062 C1100.18492,3058.56882 1100.82935,3057.3489 1101.89171,3056.32866 C1103.32021,3054.95702 1105.06984,3054.22965 1106.96346,3053.83301 C1109.29169,3053.34538 1111.61243,3053.38743 1113.91212,3054.02555 C1114.71748,3054.24883 1115.47299,3054.58965 1116.18058,3055.04727 C1117.38959,3055.82899 1118.01031,3056.96235 1118.13107,3058.38685 C1118.19568,3059.14964 1118.23246,3059.91685 1118.23512,3060.6821 C1118.24626,3063.8584 1118.23295,3067.03471 1118.24601,3070.21102 C1118.24843,3070.83757 1118.2949,3071.4688 1118.38226,3072.08872 C1118.47494,3072.74675 1118.82463,3073.05241 1119.35847,3072.97003 C1119.58062,3072.93585 1119.80108,3072.78855 1119.9879,3072.64593 C1120.16189,3072.5129 1120.29015,3072.3179 1120.46753,3072.117 Z M1045.05068,3072.11444 C1045.29776,3072.30674 1045.53419,3072.49116 1045.81684,3072.71124 C1045.54145,3073.10051 1045.29074,3073.49321 1045.00301,3073.85468 C1043.47214,3075.77616 1041.01178,3076.58468 1038.75686,3075.92026 C1037.18292,3075.45624 1036.31198,3074.31895 1035.85219,3072.78796 C1035.8246,3072.696 1035.79798,3072.60378 1035.76313,3072.48526 C1035.29753,3072.8546 1034.85444,3073.21682 1034.40046,3073.56354 C1033.30857,3074.39763 1032.1816,3075.17591 1030.88039,3075.64116 C1029.52013,3076.1273 1028.14608,3076.21681 1026.81728,3075.56935 C1024.98465,3074.67649 1024.16913,3073.11944 1024.17034,3071.0969 C1024.17179,3069.00084 1025.11291,3067.34789 1026.59441,3065.9706 C1028.23175,3064.44847 1030.13456,3063.34068 1032.14094,3062.41978 C1033.37924,3061.85126 1034.66133,3061.38159 1035.92019,3060.85855 C1036.00537,3060.82339 1036.12008,3060.71101 1036.11935,3060.63503 C1036.11137,3059.65265 1036.12056,3058.66782 1036.0545,3057.68815 C1035.95576,3056.22405 1034.92075,3055.61422 1033.97696,3055.3993 C1033.02931,3055.18364 1032.09375,3055.26479 1031.19837,3055.67004 C1030.79521,3055.85225 1030.43923,3056.10159 1030.18586,3056.48028 C1029.8611,3056.96618 1029.8461,3057.48282 1030.1711,3057.96799 C1030.36131,3058.25176 1030.57402,3058.52126 1030.79448,3058.78167 C1031.8111,3059.9829 1031.4031,3061.38134 1030.57209,3062.19404 C1029.30742,3063.43093 1027.10235,3063.59101 1025.83769,3062.49478 C1024.89947,3061.68159 1024.64295,3060.59274 1024.78549,3059.39987 C1024.96941,3057.85635 1025.84011,3056.72643 1027.01136,3055.81045 C1028.43648,3054.69553 1030.07793,3054.08029 1031.83022,3053.76283 C1034.11877,3053.34848 1036.39958,3053.39078 1038.62981,3054.09725 C1039.34975,3054.32545 1040.04912,3054.67094 1040.69984,3055.06266 C1041.98702,3055.83774 1042.61379,3057.04733 1042.6905,3058.55446 C1042.72438,3059.22159 1042.75414,3059.8897 1042.7556,3060.55757 C1042.76237,3063.77371 1042.74955,3066.98986 1042.76624,3070.20576 C1042.76939,3070.86059 1042.81367,3071.52551 1042.93685,3072.16633 C1043.10842,3073.05944 1043.8862,3073.27534 1044.54394,3072.65469 C1044.71939,3072.48919 1044.87572,3072.30231 1045.05068,3072.11444 Z M1111.23323,3062.30554 C1111.15724,3062.32422 1111.11779,3062.32718 1111.08464,3062.34291 C1110.83926,3062.45824 1110.58976,3062.5657 1110.35115,3062.69431 C1108.44495,3063.72168 1107.00435,3065.18012 1106.31491,3067.30127 C1105.96353,3068.38176 1105.85366,3069.49176 1106.17044,3070.60618 C1106.57941,3072.0447 1107.76736,3072.66462 1109.15231,3072.17651 C1109.81828,3071.94167 1110.38842,3071.54036 1110.94646,3071.11372 C1111.1599,3070.95093 1111.24145,3070.77905 1111.24024,3070.50241 C1111.22814,3067.92782 1111.23323,3065.35324 1111.23323,3062.7784 L1111.23323,3062.30554 Z M1035.76652,3062.26929 C1035.43886,3062.4279 1035.16492,3062.5447 1034.90526,3062.68855 C1032.62905,3063.9515 1031.02026,3065.74093 1030.59024,3068.43084 C1030.43923,3069.37535 1030.48134,3070.31272 1030.94452,3071.18248 C1031.43601,3072.10534 1032.34059,3072.51182 1033.341,3072.27206 C1034.18169,3072.07067 1034.86751,3071.58329 1035.53735,3071.06075 C1035.70578,3070.9292 1035.77233,3070.78584 1035.7716,3070.56502 C1035.76386,3067.92207 1035.76652,3065.27912 1035.76652,3062.63618 L1035.76652,3062.26929 Z M1023.13881,3069.92068 C1023.39339,3070.21748 1023.63296,3070.49683 1023.90666,3070.81601 C1023.54149,3071.28396 1023.19156,3071.76297 1022.81066,3072.21494 C1021.49856,3073.77174 1019.96987,3075.05043 1018.00729,3075.63469 C1014.47609,3076.68567 1011.20092,3076.17395 1008.35747,3073.6992 C1006.5776,3072.15027 1005.57791,3070.11224 1005.19411,3067.78503 C1004.59759,3064.16954 1005.3698,3060.86414 1007.59591,3057.96422 C1009.50139,3055.48209 1011.99975,3053.96415 1015.10238,3053.63906 C1018.00124,3053.33538 1020.61528,3054.08513 1022.7521,3056.18341 C1023.72008,3057.13406 1024.30764,3058.29668 1024.35895,3059.70348 C1024.42138,3061.40905 1023.32369,3062.85471 1021.70716,3063.07454 C1020.3924,3063.25356 1019.12991,3062.74872 1018.4257,3061.36799 C1017.95284,3060.44045 1017.80595,3059.4352 1017.72319,3058.41152 C1017.68277,3057.91332 1017.64914,3057.40947 1017.54508,3056.92332 C1017.31905,3055.87111 1016.64122,3055.40046 1015.58249,3055.4698 C1014.29774,3055.55414 1013.44543,3056.3039 1012.79204,3057.33742 C1011.97144,3058.63529 1011.6295,3060.08881 1011.55811,3061.61217 C1011.43905,3064.14962 1011.90779,3066.55675 1013.16447,3068.77552 C1013.72542,3069.76626 1014.43277,3070.63576 1015.36591,3071.28789 C1017.11408,3072.50953 1018.94502,3072.6374 1020.79968,3071.57978 C1021.52881,3071.16371 1022.18559,3070.61634 1022.87406,3070.12748 C1022.95973,3070.06699 1023.03983,3069.99814 1023.13881,3069.92068 Z M1119.8789,3075.75976 C1119.8789,3075.46271 1119.87092,3075.18779 1119.88471,3074.91386 C1119.8881,3074.84918 1119.959,3074.78131 1120.01176,3074.72845 C1120.04298,3074.69722 1120.0996,3074.69156 1120.14534,3074.67582 C1121.21061,3074.31041 1121.74251,3073.52402 1121.85431,3072.41747 C1121.89061,3072.05648 1121.90876,3071.69206 1121.909,3071.32911 C1121.91263,3067.05165 1121.91578,3062.7742 1121.90465,3058.49699 C1121.90344,3058.05978 1121.83447,3057.61691 1121.74905,3057.18658 C1121.63773,3056.62888 1121.28659,3056.23298 1120.77187,3056.02618 C1120.30796,3055.83954 1119.82276,3055.70823 1119.31723,3055.54249 L1119.31723,3054.47897 L1128.61301,3054.47897 L1128.61301,3054.86429 C1128.61301,3060.50847 1128.6118,3066.15264 1128.61591,3071.79681 C1128.61615,3072.10025 1128.63697,3072.40738 1128.68778,3072.70591 C1128.88211,3073.84959 1129.43289,3074.42402 1130.55091,3074.67779 C1131.07555,3074.79681 1131.07555,3074.79681 1131.07531,3075.35967 L1131.07532,3075.75976 L1119.8789,3075.75976 Z" id="campaignasia" fill="#D4D4D4"></path>
    </g>
</svg>