<?xml version="1.0" encoding="UTF-8"?>
<svg width="180px" height="27px" viewBox="0 0 180 27" version="1.1" xmlns="http://www.w3.org/2000/svg" xmlns:xlink="http://www.w3.org/1999/xlink">
    <!-- Generator: Sketch 48.2 (47327) - http://www.bohemiancoding.com/sketch -->
    <title>cnbc</title>
    <desc>Created with Sketch.</desc>
    <defs></defs>
    <g id="About" stroke="none" stroke-width="1" fill="none" fill-rule="evenodd" transform="translate(-765.000000, -3052.000000)">
        <path d="M770.422509,3059.6296 C773.136693,3057.30112 776.974429,3058.10163 778.377288,3061.77365 L785.071936,3077.3331 L771.264948,3067.72333 C767.80384,3065.38787 768.502646,3061.39267 770.422509,3059.6296 Z M782.307825,3052.06442 C784.883622,3051.77592 788.113363,3053.77463 787.550229,3058.1042 L785.11716,3075.52893 L778.193134,3058.96251 C776.693315,3054.82215 780.063432,3052.11066 782.307825,3052.06442 Z M788.63091,3057.43949 C788.499217,3053.73297 791.192958,3052 793.5439,3052 C793.67089,3052 793.793719,3052.00716 793.916187,3052.01615 C796.535037,3052.11085 799.487281,3055.20827 798.080805,3058.91682 L791.204174,3075.52654 L789.003196,3060.53472 C788.816872,3058.2545 790.21955,3058.2011 790.734565,3057.77423 C790.639413,3057.43949 789.940245,3057.43949 789.940245,3057.43949 L788.63091,3057.43949 Z M797.803851,3061.9146 C798.868432,3059.28129 800.70454,3058.358 802.420351,3058.358 C803.872594,3058.358 805.243615,3059.01592 805.990359,3059.86763 C807.771293,3061.67694 808.284499,3065.33722 805.102696,3067.6268 L791.299688,3077.2874 L797.803851,3061.9146 Z M803.557109,3069.81452 C804.500851,3069.17992 805.461235,3068.90299 806.366987,3068.90262 C808.518399,3068.90501 810.372054,3070.45592 810.998682,3072.4315 C811.934102,3075.57481 809.829905,3079 806.555302,3079 L790.594369,3079 L803.557109,3069.81452 Z M770.050765,3078.99982 C766.773087,3078.99982 764.199641,3075.95322 765.230394,3072.24413 C766.446386,3069.00429 769.814513,3067.8617 772.809992,3069.81434 L785.775988,3078.99982 L770.050765,3078.99982 Z M816.800964,3067.20305 C816.800964,3063.71657 820.171624,3055.60761 833.041925,3055.60761 C845.906257,3055.60761 848.655897,3061.05353 848.655897,3063.5892 L839.469207,3063.5892 C839.469207,3063.5892 839.032702,3060.67584 833.850717,3060.67584 C828.665115,3060.67584 827.262799,3064.82979 827.262799,3067.35904 C827.262799,3069.89802 828.665115,3074.28944 833.850717,3074.28944 C839.032883,3074.28944 839.469207,3070.94353 839.469207,3070.94353 L848.655897,3070.94353 C848.655897,3073.47609 844.908247,3078.99982 833.041925,3078.99982 C820.171624,3078.99982 816.800964,3071.38581 816.800964,3067.20305 Z M913.144706,3067.20305 C913.144706,3063.71657 916.518802,3055.60761 929.385848,3055.60761 C942.252893,3055.60761 945,3061.05353 945,3063.5892 L935.819823,3063.5892 C935.819823,3063.5892 935.381509,3060.67584 930.197896,3060.67584 C925.011932,3060.67584 923.607807,3064.82979 923.607807,3067.35904 C923.607807,3069.89802 925.011932,3074.28944 930.197896,3074.28944 C935.381509,3074.28944 935.819823,3070.94353 935.819823,3070.94353 L945,3070.94353 C945,3073.47609 941.250541,3078.99982 929.385848,3078.99982 C916.518802,3078.99982 913.144706,3071.38581 913.144706,3067.20305 Z M873.762816,3055.99814 L882.008297,3055.99814 L882.008297,3078.42669 L869.79411,3078.42669 L859.289945,3064.10379 L859.289945,3078.42669 L851.044827,3078.42669 L851.044827,3055.99814 L863.071604,3055.99814 L873.762816,3070.15844 L873.762816,3055.99814 Z M906.931244,3066.50311 C906.931244,3066.50311 912.364676,3067.39501 912.364676,3071.6398 C912.364676,3075.88459 909.178532,3078.42669 901.246908,3078.42669 L884.755223,3078.42669 L884.755223,3055.99814 L901.246908,3055.99814 C902.619919,3055.99814 911.570537,3056.43455 911.570537,3061.31082 C911.570537,3064.73546 908.43233,3066.50311 906.931244,3066.50311 Z M900.183774,3073.06849 C901.650852,3073.06849 902.836091,3072.15769 902.836091,3071.03419 C902.836091,3069.90793 901.650671,3068.99346 900.183774,3068.99346 L900.183774,3068.98025 L893.313656,3068.98025 L893.313656,3073.09804 L900.183774,3073.09804 L900.183774,3073.06849 Z M893.377151,3060.36038 L893.377151,3063.71657 L899.996546,3063.71657 L899.996546,3063.70666 C901.118109,3063.70666 902.027299,3062.96451 902.027299,3062.03976 C902.027299,3061.11849 901.117928,3060.36992 899.996546,3060.36992 L899.996546,3060.36038 L893.377151,3060.36038 Z" id="cnbc" fill="#D4D4D4" fill-rule="nonzero"></path>
    </g>
</svg>