<?xml version="1.0" encoding="UTF-8"?>
<svg width="48px" height="64px" viewBox="0 0 48 64" version="1.1" xmlns="http://www.w3.org/2000/svg" xmlns:xlink="http://www.w3.org/1999/xlink">
    <!-- Generator: Sketch 48.2 (47327) - http://www.bohemiancoding.com/sketch -->
    <title>csv</title>
    <desc>Created with Sketch.</desc>
    <defs></defs>
    <g id="Integration-Overview" stroke="none" stroke-width="1" fill="none" fill-rule="evenodd" transform="translate(-836.000000, -2912.000000)">
        <g id="dcm-copy-6" transform="translate(731.000000, 2874.000000)">
            <g id="csv" transform="translate(105.000000, 38.000000)">
                <path d="M30.8102038,0.00018028169 L3.42393962,0.00018028169 C1.53292075,0.00018028169 -0.000362264151,1.52536338 -0.000362264151,3.40750423 L-0.000362264151,60.1962366 C-0.000362264151,62.0783775 1.53292075,63.6035606 3.42393962,63.6035606 L44.5037887,63.6035606 C46.3948075,63.6035606 47.9271849,62.0783775 47.9271849,60.1962366 L47.9271849,14.7652507 L30.8102038,0.00018028169 Z" id="Fill-1" fill="#FFFFFF"></path>
                <path d="M30.8102038,0.00018028169 L30.8102038,11.3579268 C30.8102038,13.2400676 32.3425811,14.7652507 34.2336,14.7652507 L47.9271849,14.7652507 L30.8102038,0.00018028169 Z" id="Fill-4" fill="#E6E7E8"></path>
                <polygon id="Fill-6" fill="#1FA363" points="7.98883019 23.1418592 39.9396226 23.1418592 39.9396226 19.7345352 7.98883019 19.7345352"></polygon>
                <polygon id="Fill-8" fill="#1FA363" points="7.98883019 31.5204507 30.810566 31.5204507 30.810566 28.1131268 7.98883019 28.1131268"></polygon>
                <path d="M14.8010264,51.7172282 C13.0032906,51.7172282 11.5008,51.1141859 10.2917434,49.9108056 C9.09355472,48.7074254 8.49491321,47.2065803 8.49491321,45.4064676 C8.49491321,43.6063549 9.09355472,42.1109183 10.2917434,40.9183549 C11.4890264,39.7041577 12.9924226,39.095707 14.8010264,39.095707 C16.631366,39.095707 18.1166491,39.7537352 19.2595925,41.0697915 L18.1411019,42.1496789 C17.2707623,41.1040451 16.1568,40.5812282 14.8010264,40.5812282 C13.4561208,40.5812282 12.3312906,41.031031 11.4256302,41.931538 C10.5335547,42.8194254 10.0879698,43.9786366 10.0879698,45.4064676 C10.0879698,46.8342986 10.5335547,47.9926085 11.4256302,48.8813972 C12.3312906,49.7828056 13.4561208,50.231707 14.8010264,50.231707 C16.2138566,50.231707 17.4383094,49.6403831 18.4789132,48.4604394 L19.6146113,49.5574535 C19.0386113,50.2434254 18.3321962,50.7752563 17.4962717,51.1511437 C16.6594415,51.527031 15.7610264,51.7172282 14.8010264,51.7172282" id="Fill-9" fill="#1FA363"></path>
                <path d="M28.9378415,48.223369 C28.9378415,49.2816225 28.5475019,50.1307493 27.768634,50.7707493 C26.9779925,51.4008338 26.0161811,51.7172282 24.885917,51.7172282 C23.880634,51.7172282 22.9939925,51.4242704 22.2250868,50.8392563 C21.4570868,50.2542423 20.9254642,49.4555944 20.6320302,48.4433127 L22.1236528,47.834862 C22.2250868,48.1963268 22.3654642,48.5217352 22.5465962,48.8137915 C22.7277283,49.1058479 22.9396528,49.3564394 23.1832755,49.5646648 C23.4250868,49.7737915 23.6940679,49.9360451 23.9884075,50.0541296 C24.2818415,50.1722141 24.592483,50.231707 24.9203321,50.231707 C25.6330868,50.231707 26.2145208,50.0478197 26.6655396,49.6836507 C27.1183698,49.3185803 27.3447849,48.8309183 27.3447849,48.223369 C27.3447849,47.7167775 27.1582189,47.2850028 26.7841811,46.9253408 C26.4336906,46.5764958 25.7788981,46.2384676 24.8188981,45.9130592 C23.8462189,45.5642141 23.2421434,45.3280451 23.0048604,45.2027493 C21.7161057,44.551031 21.0712755,43.5892282 21.0712755,42.3182423 C21.0712755,41.4303549 21.4281057,40.6704676 22.1408604,40.0403831 C22.864483,39.4121014 23.7502189,39.095707 24.8025962,39.095707 C25.7281811,39.095707 26.5305962,39.3318761 27.2098415,39.8042141 C27.8872755,40.2657352 28.3392,40.8444394 28.5656151,41.543031 L27.1075019,42.1496789 C26.9725585,41.7007775 26.7026717,41.3257915 26.3014642,41.0283268 C25.9002566,40.7299606 25.4112,40.5812282 24.8352,40.5812282 C24.2256906,40.5812282 23.7112755,40.7488901 23.293766,41.0869183 C22.8753509,41.4033127 22.6652377,41.8134535 22.6652377,42.3182423 C22.6652377,42.734693 22.8300679,43.0943549 23.157917,43.3981296 C23.5192755,43.7019042 24.304483,44.0624676 25.5144453,44.4780169 C26.7461434,44.8944676 27.624634,45.4037634 28.1508226,46.0050028 C28.6761057,46.6062423 28.9378415,47.3462986 28.9378415,48.223369" id="Fill-10" fill="#1FA363"></path>
                <polygon id="Fill-11" fill="#1FA363" points="35.5321358 51.4460845 33.9037585 51.4460845 29.6317585 39.3663099 31.3624755 39.3663099 34.6835321 49.1691268 34.7514566 49.1691268 38.2092679 39.3663099 39.9390792 39.3663099"></polygon>
            </g>
        </g>
    </g>
</svg>