<?xml version="1.0" encoding="UTF-8"?>
<svg width="59px" height="48px" viewBox="0 0 59 48" version="1.1" xmlns="http://www.w3.org/2000/svg" xmlns:xlink="http://www.w3.org/1999/xlink">
    <!-- Generator: Sketch 48.2 (47327) - http://www.bohemiancoding.com/sketch -->
    <title>dc</title>
    <desc>Created with Sketch.</desc>
    <defs></defs>
    <g id="Product" stroke="none" stroke-width="1" fill="none" fill-rule="evenodd" transform="translate(-1111.000000, -4284.000000)">
        <g id="dcm" transform="translate(1012.000000, 4238.000000)">
            <g id="dc" transform="translate(99.000000, 46.000000)">
                <path d="M34.8768388,0 C32.8144448,0 30.8587262,0.249613685 28.9385663,0.784500152 C39.1083025,3.42327339 46.6822669,12.5876615 46.8600595,23.4993455 L46.8600595,24.426482 C46.6111498,30.8451196 41.2773721,35.9800297 34.8768388,35.9800297 C32.7077692,35.9800297 30.6453751,35.4094841 28.9385663,34.3753703 C25.3471559,32.3071426 22.9647352,28.4559601 22.9647352,23.9629137 C22.9647352,19.4698674 25.3827144,15.690003 28.9030077,13.5504572 C27.1606404,12.5163433 25.1338048,11.9457978 22.9647352,11.9457978 C16.4930849,11.9457978 11.2659827,17.0807079 11.0526316,23.4993455 L11.0526316,24.426482 C11.2304242,35.4094841 18.8043886,44.5738723 28.9741248,47.1413273 C30.8942848,47.6405547 32.8855618,47.9258275 34.9123973,47.9258275 C48.1046076,47.9258275 58.7721631,37.192439 58.7721631,23.9985728 C58.7721631,10.7333884 48.0690491,4.05397007e-14 34.8768388,4.05397007e-14 L34.8768388,0 Z" id="Shape" fill="#3E9A4E"></path>
                <path d="M29.8335968,0.784500152 C27.9134368,0.285272782 25.9221598,0 23.8953243,0 C10.703114,0 0,10.7333884 0,23.9629137 C0,37.192439 10.703114,47.8901684 23.8597658,47.8901684 C25.9221598,47.8901684 27.8778783,47.6405547 29.7980383,47.1056682 C19.6994191,44.466895 12.1254547,35.373825 11.9476621,24.3908229 L11.9476621,23.4636864 C12.1965718,17.0450488 17.4592325,11.9101387 23.8597658,11.9101387 C26.0288354,11.9101387 28.0912294,12.4806842 29.7980383,13.5147981 C33.3894486,15.5830257 35.7363108,19.4342083 35.7363108,23.9272546 C35.7363108,28.420301 33.3183316,32.2001653 29.7980383,34.3397112 C31.5759642,35.3025068 33.6383583,35.9443706 35.8074279,35.9443706 C42.2790782,35.9443706 47.5061804,30.8094605 47.7195315,24.3908229 L47.7195315,23.9272546 C47.75509,23.8202773 47.75509,23.6419818 47.75509,23.4993455 C47.5772974,12.5163433 40.003333,3.35195519 29.8335968,0.784500152 Z" id="Shape" fill="#AFEA04"></path>
            </g>
        </g>
    </g>
</svg>