<?xml version="1.0" encoding="UTF-8"?>
<svg width="100px" height="100px" viewBox="0 0 100 100" version="1.1" xmlns="http://www.w3.org/2000/svg" xmlns:xlink="http://www.w3.org/1999/xlink">
    <!-- Generator: Sketch 48.2 (47327) - http://www.bohemiancoding.com/sketch -->
    <title>dominos</title>
    <desc>Created with Sketch.</desc>
    <defs></defs>
    <g id="Page-1" stroke="none" stroke-width="1" fill="none" fill-rule="evenodd">
        <g id="dominos" fill="#D4D4D4">
            <path d="M34.1683824,31.8061713 L65.1270308,0.96506395 C66.4220343,-0.324884337 68.5361439,-0.321134488 69.8264588,0.97303238 L99.0343675,30.2752952 C100.32562,31.5694621 100.320931,33.6839085 99.0259279,34.9738568 L68.0682172,65.8154329 L34.1683824,31.8061713 Z M61.9087454,26.3337344 C65.1598513,23.0952705 70.42051,23.1046451 73.6594254,26.3538899 C76.8983408,29.6031346 76.8894323,34.8632363 73.6392642,38.1012315 C70.3881584,41.3392266 65.1274996,41.329852 61.8885843,38.0806073 C58.6496689,34.8318313 58.6585773,29.5717296 61.9087454,26.3337344 Z M0.973719561,64.8765643 L31.9314302,34.0345195 L65.831734,68.0437811 L34.8735544,98.8853572 C33.5785509,100.175305 31.4639724,100.171556 30.1731887,98.87692 L0.965280002,69.5751259 C-0.325034866,68.2804903 -0.321283951,66.1665126 0.973719561,64.8765643 Z M38.5227262,61.7116912 C35.2720892,64.9492176 35.2627119,70.2093193 38.5020961,73.4580953 C41.7414804,76.7078088 47.002608,76.7171834 50.2527761,73.4791882 C53.5034131,70.2407243 53.5127904,64.9810914 50.2734061,61.7318466 C47.0340219,58.4816644 41.7733632,58.4732273 38.5227262,61.7116912 Z M14.1985092,61.7866882 C10.9483411,65.0246834 10.9389638,70.2843163 14.1778792,73.5330923 C17.4172634,76.7828058 22.678391,76.7921804 25.9285591,73.5541852 C29.1791961,70.3157213 29.1881046,65.0560884 25.9491892,61.8068436 C22.7098049,58.5571301 17.4491462,58.5482243 14.1985092,61.7866882 Z M45.6353993,100 L45.6353993,95.8489164 L44.0543885,95.8489164 L44.0543885,95.124258 L48.0392672,95.124258 L48.0392672,95.8489164 L46.4484102,95.8489164 L46.4484102,100 L45.6353993,100 Z M48.5845565,100 L48.5845565,95.124258 L49.7815674,95.124258 L51.0132742,99.0180081 L52.2037209,95.124258 L53.3786951,95.124258 L53.3786951,100 L52.6350762,100 L52.6350762,95.9084453 L51.3785196,100 L50.6433402,100 L49.3323953,95.8489164 L49.3323953,100 L48.5845565,100 Z" id="Combined-Shape"></path>
        </g>
    </g>
</svg>