<?xml version="1.0" encoding="UTF-8"?>
<svg width="100px" height="100px" viewBox="0 0 100 100" version="1.1" xmlns="http://www.w3.org/2000/svg" xmlns:xlink="http://www.w3.org/1999/xlink">
    <!-- Generator: Sketch 48.2 (47327) - http://www.bohemiancoding.com/sketch -->
    <title>engage-customers</title>
    <desc>Created with Sketch.</desc>
    <defs></defs>
    <g id="Customer-Stories" stroke="none" stroke-width="1" fill="none" fill-rule="evenodd" transform="translate(-170.000000, -1473.000000)">
        <g id="engage-customers" transform="translate(170.000000, 1473.000000)">
            <path d="M50,0 C77.614,0 100,22.386 100,50 C100,77.614 77.614,100 50,100 C22.386,100 0,77.614 0,50 C0,22.386 22.386,0 50,0 Z" id="Mask-Copy" fill="#FFC4B9"></path>
            <path d="M54,67 L43,76 L43,67 L41,67 C31.0588745,67 23,58.9411255 23,49 C23,39.0588745 31.0588745,31 41,31 L59,31 C68.9411255,31 77,39.0588745 77,49 C77,58.9411255 68.9411255,67 59,67 L54,67 Z" id="Combined-Shape" fill="#904B3E"></path>
            <circle id="Oval-4" fill="#FFB5A8" cx="36" cy="49" r="4"></circle>
            <circle id="Oval-4-Copy" fill="#B3695C" cx="50" cy="49" r="4"></circle>
            <circle id="Oval-4-Copy-2" fill="#FFB5A8" cx="64" cy="49" r="4"></circle>
        </g>
    </g>
</svg>