<?xml version="1.0" encoding="UTF-8"?>
<svg width="100px" height="100px" viewBox="0 0 100 100" version="1.1" xmlns="http://www.w3.org/2000/svg" xmlns:xlink="http://www.w3.org/1999/xlink">
    <!-- Generator: Sketch 48.2 (47327) - http://www.bohemiancoding.com/sketch -->
    <title>evocative</title>
    <desc>Created with Sketch.</desc>
    <defs>
        <path d="M-0.0002,50 C-0.0002,22.386 22.3858,0 49.9998,0 C77.6138,0 99.9998,22.386 99.9998,50 C99.9998,77.614 77.6138,100 49.9998,100 C22.3858,100 -0.0002,77.614 -0.0002,50" id="path-1"></path>
    </defs>
    <g id="Storytelling" stroke="none" stroke-width="1" fill="none" fill-rule="evenodd" transform="translate(-669.000000, -1536.000000)">
        <g id="Group-2" transform="translate(170.000000, 1496.000000)">
            <g id="evocative" transform="translate(499.000000, 40.000000)">
                <mask id="mask-2" fill="white">
                    <use xlink:href="#path-1"></use>
                </mask>
                <use id="Mask" fill="#FFEFEC" xlink:href="#path-1"></use>
                <g id="hand-bulb" mask="url(#mask-2)">
                    <g transform="translate(43.828990, 70.969846) rotate(20.000000) translate(-43.828990, -70.969846) translate(22.828990, 20.969846)">
                        <path d="M3.112,99.2891 L8.809,73.9861 C9.02,73.0601 9.844,72.4021 10.794,72.4021 L29.452,72.4021 C30.542,72.4021 31.441,73.2601 31.487,74.3501 C31.679,78.9091 32.224,90.9401 33.724,99.2891 L3.112,99.2891 Z" id="Fill-1" fill="#E9BAB2"></path>
                        <path d="M26.9181,3.1153 C21.0711,-1.5257 14.7881,0.0093 11.0401,1.4373 C7.2911,2.8653 1.5791,5.8993 0.3021,13.2543 C-0.9749,20.6093 1.7121,27.0973 9.9321,32.3373 C18.1521,37.5763 18.7591,40.7883 18.7591,40.7883 L20.3361,44.9283 C21.1531,47.0733 23.5511,48.1493 25.6961,47.3413 C26.4601,48.1853 27.6861,48.5253 28.8141,48.0963 C29.9401,47.6673 30.6291,46.5973 30.6381,45.4613 L30.7121,45.4323 C32.8611,44.6133 33.9391,42.2073 33.1211,40.0583 L31.5441,35.9183 L31.4571,35.9513 C31.4571,35.9513 29.7731,33.1493 32.4241,23.7693 C35.0751,14.3883 32.7641,7.7573 26.9181,3.1153" id="Fill-5" fill="#E9BAB2"></path>
                        <circle id="Oval-8" fill-opacity="0.88" fill="#FFD8D1" cx="17" cy="17" r="10"></circle>
                        <path d="M13.1315,37.9688 L11.6405,50.2048 C11.6405,52.2138 11.2445,54.1888 10.6555,56.1088 C8.5785,62.8948 11.6405,72.4028 11.6405,72.4028 L27.0045,72.4028 C27.0045,72.4028 29.4295,70.3808 35.2935,63.0438 C41.1555,55.7068 40.9535,51.5808 41.5595,47.1198 C41.7625,45.6258 41.8295,44.5228 41.8295,43.7148 C41.8285,42.5918 41.4245,41.5058 40.7245,40.6268 L33.5785,31.6598 C32.9465,30.8658 31.6365,30.9378 31.2235,31.8638 C30.6595,33.1298 31.4515,35.0038 31.4515,35.0038 L34.7715,41.3668 C35.7565,43.2538 35.9885,45.4438 35.4235,47.4948 L35.3535,47.7448 C34.9185,49.3238 34.0315,50.7418 32.8015,51.8238 L29.6315,54.6138 C29.6315,54.6138 19.3225,60.2738 18.9185,49.3568 C18.6935,43.3148 18.9705,41.9598 17.9305,39.4838 C17.2095,37.7658 15.2905,36.8938 13.5125,37.4498 C13.5125,37.4498 13.1445,37.5458 13.1315,37.9688" id="Fill-8" fill-opacity="0.88" fill="#FFD8D1"></path>
                    </g>
                </g>
            </g>
        </g>
    </g>
</svg>