<?xml version="1.0" encoding="UTF-8"?>
<svg width="41px" height="48px" viewBox="0 0 41 48" version="1.1" xmlns="http://www.w3.org/2000/svg" xmlns:xlink="http://www.w3.org/1999/xlink">
    <!-- Generator: Sketch 48.2 (47327) - http://www.bohemiancoding.com/sketch -->
    <title>page</title>
    <desc>Created with Sketch.</desc>
    <defs></defs>
    <g id="Integration-Overview" stroke="none" stroke-width="1" fill="none" fill-rule="evenodd" transform="translate(-559.000000, -2002.000000)">
        <g id="facebook-copy-2" transform="translate(451.000000, 1956.000000)">
            <g id="page" transform="translate(108.000000, 46.000000)">
                <g id="flag">
                    <polygon id="Fill-1" fill="#F89B29" points="7.41359292 5.36318587 7.17358821 5.36318587 -5.80188679e-05 5.36318587 -5.80188679e-05 9.08872581 7.17358821 9.08872581 7.17358821 26.9128928 -5.80188679e-05 26.9128928 -5.80188679e-05 30.6382401 7.17358821 30.6382401 7.41359292 30.6382401 40.8711401 30.6382401 36.2294373 18.0008093 40.8711401 5.36318587"></polygon>
                    <polygon id="Fill-2" fill="#4B5161" points="1.79703774 25.1947009 5.32651887 25.1947009 5.32651887 9.08878362 1.79703774 9.08878362"></polygon>
                    <polygon id="Fill-3" fill="#4B5161" points="1.79703774 47.7961301 5.32651887 47.7961301 5.32651887 30.6382979 1.79703774 30.6382979"></polygon>
                    <path d="M5.32644151,3.5165829 L1.79696038,3.5165829 L1.79696038,0.963584103 C1.79696038,0.431364111 2.22997453,-7.7077479e-05 2.76413491,-7.7077479e-05 L4.35926698,-7.7077479e-05 C4.89342736,-7.7077479e-05 5.32644151,0.431364111 5.32644151,0.963584103 L5.32644151,3.5165829 Z" id="Fill-4" fill="#4B5161"></path>
                    <polygon id="Fill-7" fill="#0E1D22" points="1.79703774 10.7185869 5.32651887 10.7185869 5.32651887 9.08878362 1.79703774 9.08878362"></polygon>
                    <polygon id="Fill-9" fill="#0E1D22" points="1.79703774 32.3964352 5.32651887 32.3964352 5.32651887 30.7666319 1.79703774 30.7666319"></polygon>
                </g>
            </g>
        </g>
    </g>
</svg>