<?xml version="1.0" encoding="UTF-8"?>
<svg width="128px" height="25px" viewBox="0 0 128 25" version="1.1" xmlns="http://www.w3.org/2000/svg" xmlns:xlink="http://www.w3.org/1999/xlink">
    <!-- Generator: Sketch 48.2 (47327) - http://www.bohemiancoding.com/sketch -->
    <title>facebook</title>
    <desc>Created with Sketch.</desc>
    <defs></defs>
    <g id="layout/clients-logo" stroke="none" stroke-width="1" fill="none" fill-rule="evenodd" transform="translate(-134.000000, -78.000000)">
        <path d="M144.014247,81.9184953 C142.507907,81.9184953 142.070835,82.5943903 142.070835,84.0806326 L142.070835,86.5468015 L146.090642,86.5468015 L145.689292,90.5346426 L142.070835,90.5346426 L142.070835,102.630499 L137.248026,102.630499 L137.248026,90.5346426 L134,90.5346426 L134,86.5468015 L137.248026,86.5468015 L137.248026,84.1475559 C137.248026,80.1282214 138.856129,78 143.344229,78 C144.315935,78 145.453945,78.0672261 146.157284,78.1677625 L146.157284,81.9184953 L144.014247,81.9184953 Z M146.425832,94.0815168 C146.425832,89.5879657 148.535548,86.2087934 152.956706,86.2087934 C155.36841,86.2087934 156.841429,87.4597443 157.544768,89.012607 L157.544768,86.5464381 L162.167952,86.5464381 L162.167952,102.628318 L157.544768,102.628318 L157.544768,100.197882 C156.87475,101.751048 155.36841,102.966569 152.956706,102.966569 C148.535548,102.966569 146.425832,99.5892133 146.425832,95.0950565 L146.425832,94.0815168 Z M151.24864,95.1625855 C151.24864,97.5615282 152.120384,99.1483069 154.363383,99.1483069 C156.339816,99.1483069 157.344843,97.6959805 157.344843,95.3996938 L157.344843,93.7771824 C157.344843,91.4790787 156.339816,90.0264495 154.363383,90.0264495 C152.120384,90.0264495 151.24864,91.6153479 151.24864,94.0142907 L151.24864,95.1625855 Z M172.213389,86.2085512 C174.088058,86.2085512 175.864866,86.6137248 176.834471,87.2896198 L175.763103,90.7360182 C175.026443,90.3644576 173.821492,89.9931999 172.548398,89.9931999 C169.934967,89.9931999 168.796957,91.5124496 168.796957,94.1151904 L168.796957,95.0596871 C168.796957,97.662428 169.934967,99.1819805 172.548398,99.1819805 C173.821492,99.1819805 175.026443,98.8104199 175.763103,98.4388594 L176.834471,101.885258 C175.864866,102.561153 174.088058,102.966326 172.213389,102.966326 C166.553958,102.966326 163.973849,99.8914886 163.973849,94.9591507 L163.973849,94.2160296 C163.973849,89.283389 166.553958,86.2085512 172.213389,86.2085512 Z M177.471319,95.1963196 L177.471319,93.7773035 C177.471319,89.2165262 180.049027,86.2086117 185.308908,86.2086117 C190.265,86.2086117 192.441357,89.2501393 192.441357,93.7103802 L192.441357,96.2770855 L182.294127,96.2770855 C182.39409,98.4746527 183.365496,99.4530653 186.045567,99.4530653 C187.853595,99.4530653 189.763687,99.0812019 191.170064,98.4746527 L192.039707,101.818092 C190.768414,102.49429 188.155284,103 185.843842,103 C179.74944,103 177.471319,99.9269791 177.471319,95.1963196 Z M182.294127,93.1014085 L188.121963,93.1014085 L188.121963,92.6965377 C188.121963,90.939574 187.418624,89.5544737 185.308908,89.5544737 C183.130449,89.5544737 182.294127,90.939574 182.294127,93.1014085 Z M210.326635,95.0934819 C210.326635,99.5873358 208.183598,102.966508 203.76214,102.966508 C201.350735,102.966508 199.675991,101.748867 199.005973,100.195702 L199.005973,102.628258 L194.451531,102.628258 L194.451531,78.4701589 L199.27434,78.0313722 L199.27434,88.7754381 C199.977679,87.3567248 201.517339,86.2087329 203.76214,86.2087329 C208.183598,86.2087329 210.326635,89.5857854 210.326635,94.0796393 L210.326635,95.0934819 Z M205.503826,93.9788002 C205.503826,91.7140068 204.632082,90.026389 202.322441,90.026389 C200.345708,90.026389 199.27434,91.4454051 199.27434,93.7416918 L199.27434,95.4314294 C199.27434,97.729533 200.345708,99.1482463 202.322441,99.1482463 C204.632082,99.1482463 205.503826,97.4588116 205.503826,95.194321 L205.503826,93.9788002 Z M211.933027,94.9925518 L211.933027,94.1822046 C211.933027,89.554504 214.544356,86.208642 219.870578,86.208642 C225.195,86.208642 227.80813,89.554504 227.80813,94.1822046 L227.80813,94.9925518 C227.80813,99.6226749 225.195,102.966417 219.870578,102.966417 C214.544356,102.966417 211.933027,99.6226749 211.933027,94.9925518 Z M222.985322,93.8445599 C222.985322,91.7163385 222.113878,90.026601 219.870578,90.026601 C217.625778,90.026601 216.755835,91.7163385 216.755835,93.8445599 L216.755835,95.3304993 C216.755835,97.4590236 217.625778,99.1484583 219.870578,99.1484583 C222.113878,99.1484583 222.985322,97.4590236 222.985322,95.3304993 L222.985322,93.8445599 Z M229.414852,94.9925518 L229.414852,94.1822046 C229.414852,89.554504 232.026181,86.208642 237.352404,86.208642 C242.676826,86.208642 245.289956,89.554504 245.289956,94.1822046 L245.289956,94.9925518 C245.289956,99.6226749 242.676826,102.966417 237.352404,102.966417 C232.026181,102.966417 229.414852,99.6226749 229.414852,94.9925518 Z M240.467147,93.8445599 C240.467147,91.7163385 239.595403,90.026601 237.352404,90.026601 C235.107604,90.026601 234.237661,91.7163385 234.237661,93.8445599 L234.237661,95.3304993 C234.237661,97.4590236 235.107604,99.1484583 237.352404,99.1484583 C239.595403,99.1484583 240.467147,97.4590236 240.467147,95.3304993 L240.467147,93.8445599 Z M251.919111,94.2159993 L256.675578,86.5464684 L261.800075,86.5464684 L256.808561,94.4867207 L262,102.628349 L256.877304,102.628349 L251.919111,94.7574421 L251.919111,102.628349 L247.096303,102.628349 L247.096303,78.4720666 L251.919111,78.031463 L251.919111,94.2159993 Z" id="facebook" fill="#D4D4D4"></path>
    </g>
</svg>