<?xml version="1.0" encoding="UTF-8"?>
<svg width="8px" height="16px" viewBox="0 0 8 16" version="1.1" xmlns="http://www.w3.org/2000/svg" xmlns:xlink="http://www.w3.org/1999/xlink">
    <!-- Generator: Sketch 48.2 (47327) - http://www.bohemiancoding.com/sketch -->
    <title>fb</title>
    <desc>Created with Sketch.</desc>
    <defs></defs>
    <g id="layout/footer" stroke="none" stroke-width="1" fill="none" fill-rule="evenodd" transform="translate(-1222.000000, -682.000000)">
        <g id="social" transform="translate(1181.000000, 682.000000)" fill="#FFFFFF">
            <path d="M49,0.101473376 L49,2.54229486 C48.5755333,2.54229486 48.1467219,2.53989218 47.7178095,2.5426953 C46.6785178,2.54970312 46.3459969,2.85484334 46.3095217,3.86977498 C46.289819,4.41588388 46.3059853,4.96329423 46.3059853,5.56606632 L48.9626154,5.56606632 C48.8755194,6.44835005 48.7945868,7.26846447 48.7071877,8.15515311 L46.3133612,8.15515311 L46.3133612,16 L43.1498162,16 L43.1498162,8.18668827 L41,8.18668827 L41,5.59079389 L43.1200096,5.59079389 C43.1200096,5.01054692 43.1173826,4.49827575 43.1204138,3.98600457 C43.1373884,1.17497031 44.4388775,-0.0738220762 47.2816222,0.00336398514 C47.8485545,0.0186810635 48.4144764,0.067135089 49,0.101473376" id="fb"></path>
        </g>
    </g>
</svg>