<?xml version="1.0" encoding="UTF-8"?>
<svg width="100px" height="100px" viewBox="0 0 100 100" version="1.1" xmlns="http://www.w3.org/2000/svg" xmlns:xlink="http://www.w3.org/1999/xlink">
    <!-- Generator: Sketch 48.2 (47327) - http://www.bohemiancoding.com/sketch -->
    <title>formats</title>
    <desc>Created with Sketch.</desc>
    <defs></defs>
    <g id="Integration-Features" stroke="none" stroke-width="1" fill="none" fill-rule="evenodd" transform="translate(-570.000000, -1321.000000)">
        <g id="formats" transform="translate(570.000000, 1321.000000)">
            <path d="M0,50 C0,22.386 22.386,0 50,0 C77.614,0 100,22.386 100,50 C100,77.614 77.614,100 50,100 C22.386,100 0,77.614 0,50" id="Mask" fill="#EFF4FF"></path>
            <path d="M39,25 L62,25 L75,37 L75,73 C75,74.1045695 74.1045695,75 73,75 L39,75 C37.8954305,75 37,74.1045695 37,73 L37,27 C37,25.8954305 37.8954305,25 39,25 Z" id="Rectangle-2" fill="#6983C0"></path>
            <path d="M27,25 L50,25 L63,37 L63,73 C63,74.1045695 62.1045695,75 61,75 L27,75 C25.8954305,75 25,74.1045695 25,73 L25,27 C25,25.8954305 25.8954305,25 27,25 Z" id="Rectangle-2" fill="#A3B8E5"></path>
            <rect id="Rectangle-5" stroke="#EFF4FF" stroke-width="2" x="35" y="44" width="19" height="14"></rect>
            <polygon id="Path-15" fill="#EFF4FF" points="50 25 50 37 63 37"></polygon>
        </g>
    </g>
</svg>