<?xml version="1.0" encoding="UTF-8"?>
<svg width="50px" height="50px" viewBox="0 0 50 50" version="1.1" xmlns="http://www.w3.org/2000/svg" xmlns:xlink="http://www.w3.org/1999/xlink">
    <!-- Generator: Sketch 48.2 (47327) - http://www.bohemiancoding.com/sketch -->
    <title>ga</title>
    <desc>Created with Sketch.</desc>
    <defs>
        <linearGradient x1="-49.6402878%" y1="25.2307692%" x2="93.1654676%" y2="96.4871795%" id="linearGradient-1">
            <stop stop-color="#BF360C" stop-opacity="0.2" offset="0%"></stop>
            <stop stop-color="#BF360C" stop-opacity="0.02" offset="100%"></stop>
        </linearGradient>
    </defs>
    <g id="Product" stroke="none" stroke-width="1" fill="none" fill-rule="evenodd" transform="translate(-555.000000, -4283.000000)">
        <g id="google-analytics" transform="translate(451.000000, 4238.000000)">
            <g id="ga" transform="translate(104.000000, 45.000000)">
                <path d="M45.9913212,0.486486486 L37.0347625,0.486486486 C35.976748,0.481889912 34.9603599,0.896910935 34.2097853,1.64000739 C33.4592107,2.38310384 33.0361142,3.39322554 33.0338192,4.44756757 L33.0338192,49.7837838 L45.9913212,49.7837838 C48.1778584,49.77431 49.9480424,48.0102833 49.9575492,45.8313514 L49.9575492,4.44756757 C49.9527988,2.26525889 48.1812314,0.495990345 45.9913212,0.486486486 L45.9913212,0.486486486 Z" id="Shape" fill="#F57E02"></path>
                <path d="M16.1100891,19.9459459 L16.1100891,32.9189189 L4.39366068,32.9189189 C2.23870585,32.9236752 0.492957416,34.6633515 0.48818452,36.8108108 L0.48818452,45.8918919 C0.492957416,48.0393512 2.23870585,49.7790275 4.39366068,49.7837838 L33.0338192,49.7837838 L33.0338192,16.0540541 L20.0155653,16.0540541 C17.8606105,16.0588103 16.114862,17.7984866 16.1100891,19.9459459 L16.1100891,19.9459459 Z" id="Shape" fill="#FFC313"></path>
                <path d="M33.0338192,16.0540541 L33.0338192,49.7837838 L45.9566058,49.7837838 C48.1431431,49.77431 49.913327,48.0102833 49.9228338,45.8313514 L49.9228338,32.9189189 L33.0338192,16.0540541 Z" id="Shape" fill="url(#linearGradient-1)"></path>
            </g>
        </g>
    </g>
</svg>