<?xml version="1.0" encoding="UTF-8"?>
<svg width="200px" height="172px" viewBox="0 0 200 172" version="1.1" xmlns="http://www.w3.org/2000/svg" xmlns:xlink="http://www.w3.org/1999/xlink">
    <!-- Generator: Sketch 48.2 (47327) - http://www.bohemiancoding.com/sketch -->
    <title>gsk</title>
    <desc>Created with Sketch.</desc>
    <defs></defs>
    <g id="Page-1" stroke="none" stroke-width="1" fill="none" fill-rule="evenodd">
        <g id="gsk" fill="#D4D4D4">
            <path d="M76.7764208,4.21867049 C94.7661509,0.875878551 112.410659,0 125.253857,0 C140.672634,0 153.355654,1.48986074 163.610552,4.28573445 C172.822265,6.79311747 180.076562,10.3538673 185.601855,14.8176682 C188.03576,16.7879613 190.251081,19.029401 192.13795,21.5234868 C196.911503,27.8263436 199.365647,35.3409769 199.888974,43.8222563 C199.962991,44.9935632 200,46.1885737 200,47.3968814 C200,85.8251134 162.358615,135.292884 132.686836,157.360398 C126.926191,161.581959 120.994379,165.028816 114.733537,167.522902 C107.468832,170.408965 99.7681169,172 91.4261097,172 C80.7814632,172 70.3681216,169.22783 60.6059029,164.438538 C49.8941781,159.189048 39.9712026,151.506754 31.3736035,142.405133 C12.4441977,122.351272 0,95.3771037 0,72.1654549 C0,61.5531601 2.366248,52.4711956 6.49850808,44.7079632 C10.0403627,38.0460829 14.8844633,32.3572084 20.6416395,27.4973833 C20.980501,27.2152521 21.3193625,26.9365897 21.6588023,26.6585055 C36.4091088,14.6835402 56.8061435,7.93378307 76.7764208,4.21867049 Z M52.8234219,124.327347 C36.5858256,126.076213 23.9265145,115.315915 38.9324127,107.043344 C42.3765411,107.308131 45.0521592,107.676982 50.6179307,107.89205 C61.5077603,108.325075 64.9455277,110.805285 65.8013554,113.812757 C67.0972405,118.336685 63.2801332,123.213276 52.8234219,124.327347 Z M31.8793514,68.3694031 C31.8793514,61.1230257 36.3406426,56.1926677 43.7632133,56.1926677 C52.2428469,56.1926677 56.8047556,62.5093998 56.8047556,70.4530112 C56.8047556,77.7057481 52.8737307,82.8679392 45.270164,82.8679392 C36.6095344,82.8679392 31.8793514,76.5009092 31.8793514,68.3694031 Z M66.939375,102.069047 C61.8639697,99.7437775 54.3037726,99.5720706 41.950362,98.6019556 C36.2030162,98.1492738 35.0580575,96.470362 35.0580575,94.1815151 C35.0580575,92.7991879 35.756598,91.2451539 37.2606574,90.0270179 C38.2610506,89.204328 39.559827,88.570111 41.0066384,88.2954956 C42.4973978,88.4700931 43.7799829,88.5267506 44.9579025,88.5267506 C58.7384637,88.5267506 66.5230264,80.2270064 66.5230264,70.3321804 C66.5230264,66.0869156 64.9252886,61.6768816 62.1022136,58.4884524 C65.1068628,58.4884524 70.7530127,58.8411163 72.5219161,59.2030305 L72.5219161,52.1248912 C69.3495709,53.0111762 65.4590244,53.1857738 62.1022136,53.1857738 C59.275669,53.1857738 56.6301205,52.6486839 54.1424375,51.9508717 C51.1453057,51.0680555 47.6236902,50.3627276 44.6259802,50.3627276 C30.7714015,50.3627276 22.2217982,58.8509447 22.2217982,69.8320913 C22.2217982,77.4004914 27.1057988,84.1068882 34.1790993,86.7582275 C28.8718109,89.2419069 26.0417968,92.7656559 26.0417968,96.8334325 C26.0417968,100.810441 28.8509935,104.938922 34.3398561,106.418377 C26.3771887,109.888937 18.9551963,116.158262 24.4874286,123.454937 C32.6149007,134.178234 61.299586,133.036991 70.2296857,121.881246 C77.2214512,113.138071 72.4716073,104.609962 66.939375,102.069047 Z M100.199847,75.9846323 C93.1438947,72.4504768 86.4198645,69.25511 86.4198645,63.6165334 C86.4198645,58.8411163 91.5392177,56.7129916 96.852867,56.7129916 C102.331899,56.7129916 107.447783,58.6595811 111.7009,62.0226079 L111.7009,54.06859 C107.279509,51.5947389 102.153795,50.3627276 97.0246108,50.3627276 C87.4873361,50.3627276 76.8825897,55.1288944 76.8825897,66.0869156 C76.8825897,75.1081756 84.8319571,78.9880574 92.2539495,82.5222129 C98.9710406,85.6938761 105.161335,88.5267506 105.161335,94.3595815 C105.161335,100.172756 98.9710406,101.414595 94.0199616,101.414595 C89.4308746,101.414595 82.1864085,99.4749434 76.355793,96.3027021 L76.355793,104.424958 C82.0123517,106.730571 87.4873361,107.962582 93.6741609,107.962582 C103.576897,107.962582 115.41045,103.891337 115.41045,92.0510778 C115.41045,83.9282437 107.635718,79.7026356 100.199847,75.9846323 Z M172.539264,104.592618 C169.534615,104.592618 165.401776,103.814445 158.86626,96.7426649 C150.376796,87.3791474 140.544029,75.4475424 140.544029,75.4475424 L155.576527,61.3109204 C164.404853,53.0111762 166.882705,52.4873835 167.591076,52.3029576 L153.629519,52.3029576 C150.799505,56.0151795 147.616751,58.8411163 147.616751,58.8411163 L131.537599,73.8669141 L131.537599,26.5070334 L119.334536,29.6815873 C120.932852,31.809712 121.463118,35.3438675 121.463118,43.2915259 L121.463118,92.2418632 C121.463118,102.126283 120.932852,103.189478 119.871741,106.019462 L132.950293,106.019462 C132.067865,103.720208 131.537599,102.126283 131.537599,92.2418632 L131.537599,78.0954129 C131.537599,78.0954129 138.788426,86.7582275 147.798325,97.5416511 C153.447945,104.233595 158.053801,107.251473 163.525895,107.251473 C167.765711,107.251473 171.659149,106.194059 174.301806,104.233595 C173.774432,104.424958 173.06953,104.592618 172.539264,104.592618 Z" id="Combined-Shape"></path>
        </g>
    </g>
</svg>