<?xml version="1.0" encoding="UTF-8"?>
<svg width="100px" height="100px" viewBox="0 0 100 100" version="1.1" xmlns="http://www.w3.org/2000/svg" xmlns:xlink="http://www.w3.org/1999/xlink">
    <!-- Generator: Sketch 48.2 (47327) - http://www.bohemiancoding.com/sketch -->
    <title>harmonised</title>
    <desc>Created with Sketch.</desc>
    <defs>
        <path d="M50,0 C77.614,0 100,22.386 100,50 C100,77.614 77.614,100 50,100 C22.386,100 0,77.614 0,50 C0,22.386 22.386,0 50,0 Z" id="path-1"></path>
    </defs>
    <g id="Storytelling" stroke="none" stroke-width="1" fill="none" fill-rule="evenodd" transform="translate(-295.000000, -1536.000000)">
        <g id="Group-2" transform="translate(170.000000, 1496.000000)">
            <g id="harmonised" transform="translate(125.000000, 40.000000)">
                <mask id="mask-2" fill="white">
                    <use xlink:href="#path-1"></use>
                </mask>
                <use id="Mask" fill="#E2EBFF" xlink:href="#path-1"></use>
                <g id="ok-sign" mask="url(#mask-2)">
                    <g transform="translate(20.000000, 17.000000)">
                        <path d="M29.5601,11.1743 C29.5601,11.1743 26.1451,6.9883 30.3311,5.6673 C30.3311,5.6673 28.1281,3.0233 30.1101,0.7103 C32.0931,-1.6027 35.3971,2.4723 35.3971,2.4723 C35.3971,2.4723 45.4861,12.6703 52.3591,31.0003 C54.3431,36.2873 45.7511,48.8433 45.8611,56.1133 L27.4671,56.1133 C27.4671,56.1133 27.5771,52.0383 22.8411,47.6323 C18.1051,43.2263 14.2491,35.9573 16.8931,34.3043 C19.5371,32.6523 19.7571,33.5333 24.3831,38.3803 C29.0091,43.2263 39.9131,41.0373 38.3711,33.5403 C36.8291,26.0443 25.8151,27.4753 23.5021,29.5683 C21.1891,31.6613 18.5451,33.0923 16.4531,31.0003 C14.3601,28.9073 17.5541,25.9333 19.3161,24.8323 C21.0791,23.7303 25.4841,19.7653 36.7201,22.6293 L29.5601,11.1743 Z" id="Fill-3" fill-opacity="0.88" fill="#A3B8E5"></path>
                        <path d="M19.9771,83 L25.6741,57.696 C25.8851,56.771 26.7091,56.113 27.6591,56.113 L46.3171,56.113 C47.4071,56.113 48.3061,56.97 48.3521,58.06 C48.5441,62.62 49.0891,74.651 50.5891,83 L19.9771,83 Z" id="Fill-5" fill="#6983C0"></path>
                        <path d="M43.25,65.833 C41.823,65.833 40.667,64.677 40.667,63.25 C40.667,61.823 41.823,60.667 43.25,60.667 C44.677,60.667 45.833,61.823 45.833,63.25 C45.833,64.677 44.677,65.833 43.25,65.833 Z" id="Fill-7" fill="#CAD9F9"></path>
                        <path d="M1,32 L7,32 C7.55228475,32 8,32.4477153 8,33 C8,33.5522847 7.55228475,34 7,34 L1,34 C0.44771525,34 6.76353751e-17,33.5522847 0,33 C-6.76353751e-17,32.4477153 0.44771525,32 1,32 Z M5.00271442,20.9417478 L10.1988668,23.9417478 C10.6771595,24.2178902 10.8410346,24.8294806 10.5648922,25.3077732 C10.2887499,25.7860658 9.67715946,25.949941 9.19886684,25.6737986 L4.00271442,22.6737986 C3.52442179,22.3976562 3.36054664,21.7860658 3.63668901,21.3077732 C3.91283139,20.8294806 4.52442179,20.6656054 5.00271442,20.9417478 Z M5.00271442,44.6737986 C4.52442179,44.949941 3.91283139,44.7860658 3.63668901,44.3077732 C3.36054664,43.8294806 3.52442179,43.2178902 4.00271442,42.9417478 L9.19886684,39.9417478 C9.67715946,39.6656054 10.2887499,39.8294806 10.5648922,40.3077732 C10.8410346,40.7860658 10.6771595,41.3976562 10.1988668,41.6737986 L5.00271442,44.6737986 Z" id="Combined-Shape" fill="#A3B8E5"></path>
                    </g>
                </g>
            </g>
        </g>
    </g>
</svg>