<?xml version="1.0" encoding="UTF-8"?>
<svg width="149px" height="27px" viewBox="0 0 149 27" version="1.1" xmlns="http://www.w3.org/2000/svg" xmlns:xlink="http://www.w3.org/1999/xlink">
    <!-- Generator: Sketch 48.2 (47327) - http://www.bohemiancoding.com/sketch -->
    <title>healthengine</title>
    <desc>Created with Sketch.</desc>
    <defs></defs>
    <g id="layout/clients-logo" stroke="none" stroke-width="1" fill="none" fill-rule="evenodd" transform="translate(-782.000000, -87.000000)">
        <path d="M871.975067,108.455238 L861.975067,108.455238 C861.648033,108.45793 861.333611,108.329205 861.102355,108.09795 C860.871099,107.866694 860.742375,107.552272 860.745067,107.225238 L860.745067,88.825238 C860.750505,88.1481932 861.298022,87.6006764 861.975067,87.595238 L871.505067,87.595238 C872.189396,87.595044 872.748773,88.1411025 872.765067,88.825238 C872.754105,89.5116823 872.191576,90.0608178 871.505067,90.055238 L863.325067,90.055238 L863.325067,96.835238 L870.765067,96.835238 C871.427808,96.835238 871.965067,97.3724963 871.965067,98.035238 C871.965067,98.6979797 871.427808,99.235238 870.765067,99.235238 L863.325067,99.235238 L863.325067,105.985238 L871.975067,105.985238 C872.657138,105.985238 873.210067,106.538166 873.210067,107.220238 C873.210067,107.90231 872.657138,108.455238 871.975067,108.455238 Z M884.375067,108.625238 C884.040076,108.627929 883.718025,108.496043 883.481143,108.259162 C883.244261,108.02228 883.112376,107.700228 883.115067,107.365238 L883.115067,99.295238 C883.115067,97.495238 882.625067,96.205238 880.425067,96.205238 C879.023861,96.1393894 877.69379,96.8253858 876.935067,98.005238 L876.935067,107.365238 C876.943152,107.696621 876.817141,108.017239 876.585589,108.254438 C876.354037,108.491638 876.036548,108.625337 875.705067,108.625238 C875.370076,108.627929 875.048025,108.496043 874.811143,108.259162 C874.574261,108.02228 874.442376,107.700228 874.445067,107.365238 L874.445067,97.725238 C874.57565,96.9949279 874.214665,96.2648472 873.555067,95.925238 C873.244866,95.7667175 873.054004,95.4434198 873.065067,95.095238 C873.051878,94.7768392 873.182636,94.4694014 873.421135,94.2580486 C873.659634,94.0466959 873.980564,93.9538572 874.295067,94.005238 C874.86197,94.0372806 875.404343,94.2472314 875.845067,94.605238 C876.124425,94.8660688 876.339991,95.187707 876.475067,95.545238 C877.655785,94.3491306 879.297975,93.7250983 880.975067,93.835238 C884.585067,93.835238 885.635067,96.065238 885.635067,99.075238 L885.635067,107.375238 C885.629575,108.067208 885.067059,108.62526 884.375067,108.625238 Z M892.785067,113.695238 C891.455417,113.726214 890.132946,113.491637 888.895067,113.005238 C888.470602,112.849902 888.179536,112.45657 888.155067,112.005238 C888.126834,111.684659 888.25461,111.370084 888.498393,111.159994 C888.742176,110.949905 889.072171,110.869979 889.385067,110.945238 C890.433758,111.314158 891.533745,111.51661 892.645067,111.545238 C895.165067,111.545238 896.075067,109.995238 896.075067,107.545238 L896.075067,106.745238 C895.024901,107.456496 893.792993,107.852094 892.525067,107.885238 C888.745067,107.885238 887.525067,105.565238 887.525067,101.885238 L887.525067,99.955238 C887.525067,96.295238 888.895067,93.835238 892.615067,93.835238 C893.934413,93.8460454 895.205568,94.3324929 896.195067,95.205238 L896.195067,94.635238 C896.296311,94.1131984 896.78841,93.7616991 897.315067,93.835238 C897.654283,93.8178072 897.984997,93.9449499 898.225176,94.1851287 C898.465355,94.4253076 898.592497,94.7560213 898.575067,95.095238 L898.575067,107.395238 C898.565067,111.005238 896.975067,113.695238 892.785067,113.695238 Z M896.075067,97.455238 C895.288296,96.5913101 894.183164,96.0856943 893.015067,96.055238 C890.865067,96.055238 890.015067,97.345238 890.015067,99.685238 L890.015067,102.145238 C890.015067,104.465238 890.755067,105.665238 892.965067,105.665238 C894.107614,105.619778 895.202222,105.193901 896.075067,104.455238 L896.075067,97.455238 Z M901.855067,90.885238 C901.445964,90.8960889 901.049978,90.7404219 900.757783,90.4538825 C900.465588,90.167343 900.302213,89.7744745 900.305067,89.365238 C900.305067,88.5036738 901.003502,87.805238 901.865067,87.805238 C902.726631,87.805238 903.425067,88.5036738 903.425067,89.365238 C903.42529,89.7771816 903.258302,90.1715744 902.962339,90.4581116 C902.666376,90.7446488 902.266787,90.8987888 901.855067,90.885238 Z M901.855067,108.625238 C901.523585,108.625337 901.206096,108.491638 900.974545,108.254438 C900.742993,108.017239 900.616982,107.696621 900.625067,107.365238 L900.625067,95.095238 C900.616982,94.7638553 900.742993,94.4432372 900.974545,94.2060378 C901.206096,93.9688383 901.523585,93.8351394 901.855067,93.835238 C902.190057,93.8325472 902.512109,93.9644326 902.74899,94.2013142 C902.985872,94.4381959 903.117758,94.7602476 903.115067,95.095238 L903.115067,107.365238 C903.117758,107.700228 902.985872,108.02228 902.74899,108.259162 C902.512109,108.496043 902.190057,108.627929 901.855067,108.625238 Z M916.225067,108.625238 C915.891806,108.625249 915.572339,108.492181 915.337629,108.255593 C915.102919,108.019005 914.972401,107.698488 914.975067,107.365238 L914.975067,99.295238 C914.975067,97.495238 914.485067,96.205238 912.285067,96.205238 C910.883861,96.1393894 909.55379,96.8253858 908.795067,98.005238 L908.795067,107.365238 C908.803152,107.696621 908.677141,108.017239 908.445589,108.254438 C908.214037,108.491638 907.896548,108.625337 907.565067,108.625238 C907.230076,108.627929 906.908025,108.496043 906.671143,108.259162 C906.434261,108.02228 906.302376,107.700228 906.305067,107.365238 L906.305067,97.725238 C906.43565,96.9949279 906.074665,96.2648472 905.415067,95.925238 C905.104866,95.7667175 904.914004,95.4434198 904.925067,95.095238 C904.911878,94.7768392 905.042636,94.4694014 905.281135,94.2580486 C905.519634,94.0466959 905.840564,93.9538572 906.155067,94.005238 C906.72197,94.0372806 907.264343,94.2472314 907.705067,94.605238 C907.984425,94.8660688 908.199991,95.187707 908.335067,95.545238 C909.511674,94.3481949 911.149841,93.7206566 912.825067,93.825238 C916.435067,93.825238 917.485067,96.055238 917.485067,99.065238 L917.485067,107.365238 C917.485067,108.061117 916.920945,108.625238 916.225067,108.625238 Z M929.645067,101.985238 L921.835067,101.985238 L921.835067,102.755238 C921.835067,105.015238 922.835067,106.475238 925.065067,106.475238 C926.307498,106.522593 927.540976,106.246956 928.645067,105.675238 C928.897526,105.564503 929.184501,105.5629 929.438182,105.670809 C929.691863,105.778718 929.889743,105.986565 929.985067,106.245238 C930.103488,106.4886 930.11821,106.769569 930.02587,107.023974 C929.933531,107.278379 929.742016,107.484492 929.495067,107.595238 C928.09199,108.290757 926.540593,108.633987 924.975067,108.595238 C920.855067,108.595238 919.335067,105.795238 919.335067,102.525238 L919.335067,99.895238 C919.335067,96.635238 920.965067,93.825238 924.975067,93.825238 C929.155067,93.825238 930.585067,96.605238 930.585067,99.825238 L930.585067,100.995238 C930.604941,101.254638 930.514058,101.510326 930.334923,101.69899 C930.155787,101.887654 929.905148,101.991654 929.645067,101.985238 Z M928.155067,99.525238 C928.155067,97.295238 927.355067,95.895238 925.035067,95.895238 C922.715067,95.895238 921.835067,97.325238 921.835067,99.525238 L921.835067,100.015238 L928.155067,100.015238 L928.155067,99.525238 Z M795.385067,108.715238 C794.280497,108.715238 793.385067,107.819808 793.385067,106.715238 L793.385067,99.955238 L785.975067,99.955238 L785.975067,106.735238 C786.099662,107.51584 785.752798,108.296589 785.090015,108.727382 C784.427233,109.158174 783.5729,109.158174 782.910118,108.727382 C782.247336,108.296589 781.900472,107.51584 782.025067,106.735238 L782.025067,89.315238 C781.900472,88.5346365 782.247336,87.7538872 782.910118,87.3230945 C783.5729,86.8923018 784.427233,86.8923018 785.090015,87.3230945 C785.752798,87.7538872 786.099662,88.5346365 785.975067,89.315238 L785.975067,96.455238 L793.385067,96.455238 L793.385067,89.315238 C793.385067,88.2106685 794.280497,87.315238 795.385067,87.315238 C796.470062,87.3423713 797.335406,88.2299037 797.335067,89.315238 L797.335067,106.735238 C797.324626,107.812794 796.462338,108.688348 795.385067,108.715238 Z M809.915067,102.215238 L803.075067,102.215238 L803.075067,102.755238 C803.075067,104.475238 803.845067,105.475238 805.455067,105.475238 C806.555004,105.502185 807.647428,105.287114 808.655067,104.845238 C809.033865,104.702162 809.456056,104.730101 809.812698,104.921843 C810.16934,105.113586 810.425496,105.450351 810.515067,105.845238 C810.805094,106.587942 810.450169,107.426452 809.715067,107.735238 C808.302516,108.362916 806.770646,108.676796 805.225067,108.655238 C800.785067,108.655238 799.225067,105.735238 799.225067,102.385238 L799.225067,99.695238 C799.225067,96.345238 801.085067,93.395238 805.225067,93.395238 C809.575067,93.395238 811.225067,96.285238 811.225067,99.605238 L811.225067,100.835238 C811.235818,101.192361 811.103505,101.538989 810.857524,101.798114 C810.611543,102.057239 810.272265,102.207401 809.915067,102.215238 Z M807.515067,98.955238 C807.515067,97.325238 806.855067,96.405238 805.345067,96.405238 C803.835067,96.405238 803.085067,97.325238 803.085067,98.955238 L803.085067,99.325238 L807.525067,99.325238 L807.525067,98.955238 L807.515067,98.955238 Z M823.905067,108.625238 C823.26623,108.618806 822.646129,108.408602 822.135067,108.025238 C821.916982,107.853931 821.724972,107.651815 821.565067,107.425238 C820.437486,108.26849 819.051462,108.692783 817.645067,108.625238 C814.215067,108.625238 812.495067,106.855238 812.495067,104.165238 L812.495067,103.965238 C812.495067,101.275238 814.495067,99.615238 818.165067,99.615238 L820.715067,99.615238 L820.715067,99.065238 C820.715067,97.405238 820.285067,96.465238 818.545067,96.465238 C817.643999,96.4388231 816.752551,96.6565024 815.965067,97.095238 C815.493476,97.3935548 814.898558,97.4176203 814.404413,97.1583693 C813.910268,96.8991182 813.591968,96.395937 813.569413,95.8383692 C813.546859,95.2808014 813.823476,94.7535548 814.295067,94.455238 C815.687813,93.6965318 817.260408,93.3301689 818.845067,93.395238 C822.995067,93.395238 824.565067,95.225238 824.565067,99.515238 L824.565067,104.295238 C824.496638,104.924418 824.781317,105.53994 825.305067,105.895238 C825.647247,106.174772 825.845541,106.593394 825.845067,107.035238 C825.855067,108.165238 825.075067,108.625238 823.905067,108.625238 Z M820.695067,102.385238 L818.615067,102.385238 C816.925067,102.385238 816.325067,103.075238 816.325067,104.015238 L816.325067,104.215238 C816.325067,105.275238 816.985067,105.875238 818.475067,105.875238 C819.086544,105.950735 819.698689,105.740186 820.134352,105.304523 C820.570015,104.868861 820.780564,104.256715 820.705067,103.645238 L820.705067,102.385238 L820.695067,102.385238 Z M830.975067,108.625238 C830.321733,108.621076 829.688398,108.399409 829.175067,107.995238 C828.145544,107.185405 827.577754,105.922819 827.655067,104.615238 L827.655067,89.615238 C827.728264,88.5950549 828.577261,87.8047909 829.600067,87.8047909 C830.622872,87.8047909 831.471869,88.5950549 831.545067,89.615238 L831.545067,104.305238 C831.490493,104.953913 831.81334,105.576268 832.375067,105.905238 C832.717247,106.184772 832.915541,106.603394 832.915067,107.045238 C832.915067,108.165238 832.085067,108.625238 830.975067,108.625238 Z M841.975067,108.455238 L840.885067,108.455238 C836.765067,108.455238 835.275067,105.795238 835.275067,101.815238 L835.275067,96.755238 L834.775067,96.755238 C833.896934,96.755238 833.185067,96.0433708 833.185067,95.165238 C833.185067,94.2871053 833.896934,93.575238 834.775067,93.575238 L835.235067,93.575238 L835.235067,89.685238 C835.261396,88.6193792 836.119208,87.7615675 837.185067,87.735238 C838.25259,87.7462295 839.110626,88.617673 839.105067,89.685238 L839.105067,93.575238 L841.305067,93.575238 C842.183199,93.575238 842.895067,94.2871053 842.895067,95.165238 C842.895067,96.0433708 842.183199,96.755238 841.305067,96.755238 L839.105067,96.755238 L839.105067,101.755238 C839.105067,104.105238 839.535067,105.075238 841.365067,105.075238 L841.975067,105.075238 C842.908428,105.075238 843.665067,105.831877 843.665067,106.765238 C843.64904,107.69188 842.901708,108.439212 841.975067,108.455238 Z M855.415067,108.625238 C854.900673,108.633276 854.404571,108.434545 854.037987,108.073601 C853.671402,107.712656 853.465004,107.219694 853.465067,106.705238 L853.465067,99.275238 C853.465067,98.105238 853.125067,97.045238 851.465067,97.045238 C850.530536,97.0333329 849.646393,97.4679745 849.085067,98.215238 L849.085067,106.715238 C849.085067,107.781148 848.220976,108.645238 847.155067,108.645238 C846.089157,108.645238 845.225067,107.781148 845.225067,106.715238 L845.225067,89.655238 C845.225067,88.5893284 846.089157,87.725238 847.155067,87.725238 C848.220976,87.725238 849.085067,88.5893284 849.085067,89.655238 L849.085067,94.345238 C850.107129,93.6924654 851.30301,93.3647312 852.515067,93.405238 C856.125067,93.405238 857.355067,95.575238 857.355067,98.815238 L857.355067,106.715238 C857.352433,107.226202 857.146233,107.71504 856.782117,108.073525 C856.418002,108.43201 855.92601,108.630567 855.415067,108.625238 Z" id="healthengine" fill="#D4D4D4" fill-rule="nonzero"></path>
    </g>
</svg>