<svg id="Layer_1" data-name="Layer 1" xmlns="http://www.w3.org/2000/svg" viewBox="0 0 40 40">
  <title>instant-stories</title>
  <path d="M24.62,7.27a43.16,43.16,0,0,0-15.09,17l-.5,1-1.1,0-4.3-.07-.3,1.38,2.6.45.56.09.41.41,2.81,2.81,2.8,2.81.4.39L13,34l.49,2.68,1.4-.3L14.83,32l0-1.1,1-.5A43.4,43.4,0,0,0,32.71,15.37a26,26,0,0,1-4.51-3.59A25.54,25.54,0,0,1,24.62,7.27ZM19,21a3.43,3.43,0,1,0-.08-4.93A3.49,3.49,0,0,0,19,21ZM17.7,22.28a5.2,5.2,0,1,1,7.45.1A5.26,5.26,0,0,1,17.7,22.28ZM25.27,4.84A50,50,0,0,1,38.8,1.17a39.84,39.84,0,0,1-3.64,13.55h0C30.05,23.88,21.94,29.27,16.61,32l.1,5.84-4.63,1-.82-4.49L8.45,31.53,5.64,28.72,1.2,28l1-4.63,5.75.1C10.68,18.1,16.08,10,25.26,4.82Zm1,1.65a23.12,23.12,0,0,0,3.23,4,23.61,23.61,0,0,0,4.2,3.34c.2-.45.41-1,.63-1.58a39.41,39.41,0,0,0,2.48-9,50.41,50.41,0,0,0-9.05,2.52S27.18,6,26.23,6.49Z" style="fill: #353c45;fill-rule: evenodd"/>
</svg>
