<?xml version="1.0" encoding="UTF-8"?>
<svg width="50px" height="49px" viewBox="0 0 50 49" version="1.1" xmlns="http://www.w3.org/2000/svg" xmlns:xlink="http://www.w3.org/1999/xlink">
    <!-- Generator: Sketch 48.2 (47327) - http://www.bohemiancoding.com/sketch -->
    <title>instagram</title>
    <desc>Created with Sketch.</desc>
    <defs></defs>
    <g id="Integration-Overview" stroke="none" stroke-width="1" fill="none" fill-rule="evenodd" transform="translate(-1117.000000, -1390.000000)">
        <g id="instagram" transform="translate(1013.000000, 1344.000000)" fill="#FFFFFF">
            <path d="M139.306122,46 L118.693878,46 C110.58226,46.0084794 104.008652,52.4506145 104,60.4 L104,80.6 C104.008652,88.5493855 110.58226,94.9915206 118.693878,95 L139.306122,95 C147.41774,94.9915206 153.991348,88.5493855 154,80.6 L154,60.4 C153.991348,52.4506145 147.41774,46.0084794 139.306122,46 L139.306122,46 Z M149.965463,80.6153846 C149.948183,86.3751139 145.183416,91.0377085 139.306122,91.0461538 L118.693878,91.0461538 C112.810471,91.037681 108.043183,86.3657383 108.034537,80.6 L108.034537,60.4 C108.043183,54.6342617 112.810471,49.962319 118.693878,49.9538462 L139.306122,49.9538462 C145.189529,49.962319 149.956817,54.6342617 149.965463,60.4 L149.965463,80.6153846 Z M129,57.9846154 C121.946882,57.9846154 116.229199,63.5879439 116.229199,70.5 C116.229199,77.4120561 121.946882,83.0153846 129,83.0153846 C136.053118,83.0153846 141.770801,77.4120561 141.770801,70.5 C141.762151,63.5914582 136.049532,57.9930921 129,57.9846154 Z M129,79.0692308 C124.176117,79.0692289 120.265184,75.2376593 120.26374,70.5102541 C120.262297,65.782849 124.17089,61.9489864 128.994772,61.9461554 C133.818654,61.9433244 137.73193,65.7725965 137.736264,70.5 C137.727623,75.2248953 133.821322,79.0530709 129,79.0615385 L129,79.0692308 Z M142.281005,59.5923077 C143.650879,59.5923077 144.761381,58.5040152 144.761381,57.1615385 C144.761381,55.8190617 143.650879,54.7307692 142.281005,54.7307692 C140.91113,54.7307692 139.800628,55.8190617 139.800628,57.1615385 C139.800628,58.5040152 140.91113,59.5923077 142.281005,59.5923077 Z"></path>
        </g>
    </g>
</svg>