<?xml version="1.0" encoding="UTF-8"?>
<svg width="100px" height="100px" viewBox="0 0 100 100" version="1.1" xmlns="http://www.w3.org/2000/svg" xmlns:xlink="http://www.w3.org/1999/xlink">
    <!-- Generator: Sketch 48.2 (47327) - http://www.bohemiancoding.com/sketch -->
    <title>instant-stories-2</title>
    <desc>Created with Sketch.</desc>
    <defs></defs>
    <g id="Integration-Features" stroke="none" stroke-width="1" fill="none" fill-rule="evenodd" transform="translate(-970.000000, -759.000000)">
        <g id="instant-stories-2" transform="translate(970.000000, 759.000000)">
            <path d="M0,50 C0,22.386 22.386,0 50,0 C77.614,0 100,22.386 100,50 C100,77.614 77.614,100 50,100 C22.386,100 0,77.614 0,50" id="Mask" fill-opacity="0.88" fill="#EFF4FF"></path>
            <g id="Group-4" transform="translate(25.000000, 25.000000)">
                <path d="M35.0116547,45.8324304 C32.1350993,47.1888201 28.9232023,47.9468553 25.5349864,47.9468553 C22.1666254,47.9468553 18.9725231,47.1976783 16.1089226,45.8562142 L13.4094944,48.5668124 C12.0583879,49.9235097 10.2225353,50.6861661 8.30782477,50.6861661 L5.3800214,50.6861661 C5.1419704,50.6861661 4.91361527,50.5918544 4.74494061,50.4238748 C4.39274382,50.0731294 4.39156726,49.5032821 4.74231269,49.1510853 L11.1740523,42.6927316 C6.30668995,38.5811772 3.21355779,32.4198343 3.21355779,25.5330622 C3.21355779,13.154266 13.2072018,3.11926906 25.5349864,3.11926906 C37.862771,3.11926906 47.8564149,13.154266 47.8564149,25.5330622 C47.8564149,32.4008065 44.7803514,38.5471248 39.9362245,42.6586047 L46.4019503,49.1510853 C46.7526958,49.5032821 46.7515192,50.0731294 46.3993224,50.4238748 C46.2306477,50.5918544 46.0022926,50.6861661 45.7642416,50.6861661 L42.8364382,50.6861661 C40.9217277,50.6861661 39.0858751,49.9235097 37.7347686,48.5668124 L35.0116547,45.8324304 Z M47.863897,12.987125 L37.1310262,2.25425426 C40.1070907,-0.721810168 44.9223025,-0.731752106 47.886103,2.23204832 C50.8499034,5.19584875 50.8399615,10.0110606 47.863897,12.987125 Z M3.23395329,12.987125 C0.257888861,10.0110606 0.247946923,5.19584875 3.21174735,2.23204832 C6.17554778,-0.731752106 10.9907596,-0.721810168 13.9668241,2.25425426 L3.23395329,12.987125 Z" id="Combined-Shape" fill="#6983C0"></path>
                <ellipse id="Oval-3" fill="#A3B8E5" cx="25.4992721" cy="25.5675449" rx="16.9642857" ry="17.0344828"></ellipse>
                <polyline id="Path-10" fill="#EFF4FF" points="23.4 38 25 27.516129 17 27.516129 26.6 13 25 23.483871 33 23.483871 23.4 38"></polyline>
            </g>
        </g>
    </g>
</svg>