<?xml version="1.0" encoding="UTF-8"?>
<svg width="40px" height="40px" viewBox="0 0 40 40" version="1.1" xmlns="http://www.w3.org/2000/svg" xmlns:xlink="http://www.w3.org/1999/xlink">
    <!-- Generator: Sketch 48.2 (47327) - http://www.bohemiancoding.com/sketch -->
    <title>integrate</title>
    <desc>Created with Sketch.</desc>
    <defs></defs>
    <g id="layout/product-home-combine" stroke="none" stroke-width="1" fill="none" fill-rule="evenodd" transform="translate(0.000000, -230.000000)">
        <g id="integrate" transform="translate(0.000000, 230.000000)" fill="#353C45" fill-rule="nonzero">
            <path d="M2,2 L2,38 L38,38 L38,2 L2,2 Z M2,0 L38,0 C39.1045695,0 40,0.8954305 40,2 L40,38 C40,39.1045695 39.1045695,40 38,40 L2,40 C0.8954305,40 0,39.1045695 0,38 L0,2 C0,0.8954305 0.8954305,0 2,0 Z" id="Rectangle"></path>
            <path d="M10,12.5483402 L10,28.4516598 L23.1375248,20.5 L10,12.5483402 Z M8,12.5483402 C8,12.1832305 8.09994502,11.8250863 8.28899984,11.5127349 C8.86094889,10.5677756 10.0906461,10.265391 11.0356054,10.8373401 L24.1731302,18.7889998 C24.4495054,18.9562796 24.6812452,19.1880194 24.848525,19.4643946 C25.420474,20.4093539 25.1180895,21.6390511 24.1731302,22.2110002 L11.0356054,30.1626599 C10.7232539,30.3517147 10.3651098,30.4516598 10,30.4516598 C8.8954305,30.4516598 8,29.5562293 8,28.4516598 L8,12.5483402 Z" id="Path-2"></path>
            <path d="M22.5,28 C26.6421356,28 30,24.6421356 30,20.5 C30,16.3578644 26.6421356,13 22.5,13 C18.3578644,13 15,16.3578644 15,20.5 C15,24.6421356 18.3578644,28 22.5,28 Z M22.5,30 C17.2532949,30 13,25.7467051 13,20.5 C13,15.2532949 17.2532949,11 22.5,11 C27.7467051,11 32,15.2532949 32,20.5 C32,25.7467051 27.7467051,30 22.5,30 Z" id="Oval"></path>
        </g>
    </g>
</svg>