<?xml version="1.0" encoding="UTF-8"?>
<svg width="186px" height="33px" viewBox="0 0 186 33" version="1.1" xmlns="http://www.w3.org/2000/svg" xmlns:xlink="http://www.w3.org/1999/xlink">
    <!-- Generator: Sketch 48.2 (47327) - http://www.bohemiancoding.com/sketch -->
    <title>jnj</title>
    <desc>Created with Sketch.</desc>
    <defs></defs>
    <g id="Page-1" stroke="none" stroke-width="1" fill="none" fill-rule="evenodd">
        <g id="jnj" fill="#D4D4D4" fill-rule="nonzero">
            <path d="M14.062966,11.9293547 C13.3242751,12.8112529 12.5269263,13.8691354 12.5269263,15.4549703 C12.5269263,18.4219845 14.2409279,20.7433939 17.3130075,20.7433939 C21.3912179,20.7433939 22.1885667,16.6018335 22.1885667,14.6323926 C22.1885667,14.40302 22.1756421,14.1835341 22.1517813,13.9739349 C23.2334714,13.8088262 24.3131732,13.3579903 25.3262635,12.7005213 L25.3312345,12.7034873 C25.3809445,14.6758943 25.4376139,16.5860147 25.4376139,17.4530829 C25.4087821,20.1857811 25.6145816,20.5100665 26.4715824,20.5100665 C27.3872411,20.5100665 27.8903065,18.6582779 28.7473074,16.8954701 C29.7524441,14.6917131 30.8162386,12.4879561 31.4654515,12.4879561 C32.6773819,12.4879561 30.4901408,20.6277189 33.4150787,20.6257415 C35.4830157,20.6257415 38.5560895,12.3703038 39.8863297,12.3703038 C40.9202983,12.3703038 38.821541,20.6277189 41.127092,20.6257415 C42.8112676,20.6257415 45.6775476,12.2229912 46.6528583,12.2229912 C47.657995,12.2229912 45.5890638,20.6257415 48.5736537,20.6257415 C51.262966,20.6257415 53.4492129,13.7218228 54.1879039,13.7218228 C54.5428335,13.7218228 55.2079536,14.646234 55.6821872,15.9137156 L55.6792046,15.9473306 C54.7466446,17.1040805 54.1590721,18.2123854 54.1590721,19.0408952 C54.1590721,20.0987776 54.9872411,20.6267302 55.8134217,20.6267302 C57.0551781,20.6267302 58.2661143,19.3058601 58.2661143,17.3957397 C58.2661143,16.9963149 58.2323115,15.8553838 57.7809445,14.713464 L57.7829329,14.7015999 C59.6400994,12.9892145 62.0420878,11.4973036 63.4956089,11.2540895 C62.6684341,12.1943196 61.1612262,13.0168974 61.1612262,15.6912637 C61.1612262,18.5702858 63.3772991,20.7740428 66.2137531,20.7740428 C70.2024855,20.7740428 71.0594863,16.5435017 71.0594863,14.8983462 C71.0594863,14.2992091 70.9819387,13.7593924 70.8437448,13.2779076 L70.839768,13.2838397 C72.1948633,12.6491102 73.2188898,11.7543592 73.6006628,11.7543592 C74.4288318,11.7543592 74.1037283,14.2517527 74.1037283,16.8391156 C74.1037283,18.7779076 73.8074565,20.7740428 75.2560066,20.7740428 C76.3496272,20.7740428 76.8805302,18.630595 77.9741508,16.7204746 C79.0379453,14.8390257 80.1902237,12.2823117 80.6336371,12.2823117 C81.2251864,12.2823117 80.9885667,16.2202049 80.9885667,16.9844508 C80.9885667,17.9533525 80.8106048,21.0083588 82.819884,21.0083588 C84.1789561,21.0083588 86.7201326,17.2177782 86.7201326,16.7194859 C86.7201326,16.4545209 86.7201326,16.3952004 86.5133389,16.3952004 C86.3065452,16.3952004 84.7396852,18.9519144 84.1193041,18.9519144 C83.2324772,18.9519144 83.7942005,15.690275 83.7942005,13.2808736 C83.7942005,12.2229912 83.9413422,9.8729103 82.1686827,9.8729103 C79.9227838,9.8729103 77.7365369,16.1608844 77.0565037,16.1608844 C76.4062966,16.1598957 78.0019884,10.108215 75.1953604,10.108215 C74.0540182,10.108215 72.356918,11.6495596 70.5047225,12.4414884 L70.5156587,12.4454431 C69.8336371,11.1146863 68.6097763,10.4315118 67.4246893,10.4315118 C66.5676885,10.4315118 65.9174814,11.0781053 65.9174814,11.7533705 C65.9174814,12.6639403 66.6561723,13.8978069 68.370174,13.8978069 C68.841425,13.8978069 69.2997514,13.821679 69.7371997,13.6990832 L69.7570837,13.7069926 C69.912179,14.2062736 69.9976802,14.7075319 69.996686,15.103002 C69.996686,16.6601654 68.9338857,18.6869495 66.8947804,18.6869495 C65.2990886,18.6869495 63.8803645,17.0131224 63.8803645,14.9556894 C63.8803645,11.6050692 65.9194698,11.0474564 65.9194698,10.3712026 C65.9194698,10.0775661 65.68285,10.0192342 65.2394366,10.0192342 C62.9607291,10.0192342 59.8280033,11.8927737 57.4757249,14.0520403 L57.4667771,14.0500629 C57.3857175,13.9066663 57.2974535,13.7674166 57.2023198,13.632842 C54.9265949,10.4008628 55.8134217,9.69593744 55.2228666,9.69593744 C54.4841756,9.69593744 51.1744822,18.6582779 49.8740679,18.6582779 C48.1600663,18.6582779 51.292792,10.0192342 47.9542668,10.0192342 C45.3246065,10.0192342 43.8173985,16.8064893 42.813256,16.8064893 C41.8389395,16.8064893 43.7875725,10.0192342 40.9511185,10.0192342 C38.9130075,10.0192342 35.8687655,18.1293367 34.5395195,18.1293367 C33.4170671,18.1293367 35.573488,10.1378752 32.9736537,10.1378752 C30.491135,10.1378752 28.5415079,16.3961891 27.9211268,16.3961891 C27.4021541,16.3961891 27.5135046,14.4415783 27.5343828,10.8546647 L27.5433306,10.8299479 C29.578459,8.65486248 30.9942005,5.67499551 30.9951947,2.85232788 C30.9951947,1.53046917 30.3449876,0.501258314 29.1042254,0.502246989 C26.6813587,0.502246989 25.2626346,4.32149919 25.2626346,8.52336869 C25.2626346,9.43987057 25.2835128,10.6094733 25.3113505,11.8107136 L25.3043911,11.8255438 C24.1799503,12.6481215 23.1211268,13.0781952 22.5146645,13.0781952 L21.9678542,13.0811612 L21.9688484,13.0821499 C21.4101077,11.270897 19.9078708,10.4631494 18.8212096,10.4631494 C17.9642088,10.4631494 17.2851698,11.2560669 17.2851698,11.9323207 C17.2851698,12.9289053 18.1749793,13.982833 20.9796189,14.0441309 L20.9855841,14.0500629 C21.0565089,14.3873429 21.0938063,14.7307575 21.0969345,15.0753191 C21.0969345,16.6324825 19.9446562,18.749236 17.9065452,18.749236 C16.1328915,18.749236 14.8036454,16.7511235 14.8036454,14.5463779 C14.8036454,11.7256876 16.6946147,10.8437893 16.6946147,10.6381449 C16.6946147,10.5204925 16.6647887,10.4028402 16.6061309,10.4028402 C14.7300746,10.4028402 11.6699254,12.4573072 8.78574979,15.4391515 L8.78077879,15.4381629 C8.45468103,12.9704296 8.06594863,10.0548265 8.06594863,6.6429085 C8.06594863,1.70645335 8.98260149,1.06084846 8.98260149,0.414254898 C8.98260149,0.120618371 8.89411765,0.00197735035 8.3910522,0.00197735035 C7.26859983,0.00197735035 0,3.26361675 0,10.491821 C0,16.0511415 3.07605634,18.5218407 5.05749793,20.021661 C2.93289147,23.159716 1.41872411,26.608215 1.41872411,29.6207083 C1.41872411,31.3241956 2.09875725,33 3.36835128,33 C5.37763049,33 9.21822701,28.7674816 9.21922121,20.100755 C9.21922121,18.9618012 9.07108534,17.6636707 8.88119304,16.1964767 L8.88218724,16.1915333 C10.6031483,14.3852238 12.4483844,12.8952903 14.062966,11.9293547 Z M168.631317,12.8082869 L168.635294,12.7974115 C168.260481,12.0776559 167.728583,11.5190545 167.089312,11.5190545 C166.794035,11.5190545 166.528583,11.812691 166.528583,12.0479957 C166.528583,12.5769369 167.031649,12.9002337 167.798177,12.9002337 C168.078542,12.899245 168.355924,12.8666187 168.631317,12.8082869 Z M104.715162,19.4314219 C105.085998,18.9084127 105.474731,18.396279 105.872411,17.8960093 L105.893289,17.8495416 C105.408119,15.2868956 104.891135,12.8152076 104.891135,10.9891246 C104.891135,5.78869315 107.16686,2.08610462 107.16686,1.29219845 C107.16686,0.763257235 107.256338,0.675265145 106.871582,0.675265145 C106.605137,0.675265145 101.405468,2.87902211 101.405468,10.6658278 C101.406462,13.8048715 102.875891,17.6468632 104.715162,19.4314219 Z M104.305551,20.021661 C103.571831,19.4670142 102.889809,18.5139313 101.848882,17.8070286 C100.971002,17.2088801 98.6565037,17.857451 96.6492129,18.2183175 L96.6452361,18.2222722 C96.4702568,19.3730901 96.0725766,20.5100665 95.6739022,20.5100665 C95.4134217,20.5100665 95.2990886,19.598508 94.9729909,18.5406256 L94.9531069,18.5267841 C94.056338,18.6869495 93.2967688,18.8046018 92.836454,18.8046018 C91.4475559,18.8046018 88.2561723,18.1866798 88.2561723,16.1015639 C88.2561723,14.9270178 89.5864126,14.4564084 90.8570008,14.4564084 C92.3045568,14.4564084 94.6091135,15.4846306 95.1708368,16.6018335 C95.3179785,14.603721 93.8694283,13.5161783 93.8694283,13.1928815 C93.8694283,12.8695848 95.4362883,12.2823117 95.5844242,12.2823117 C96.2057995,12.2823117 96.7376968,15.103002 96.7376968,17.1021032 C96.7376968,17.197016 96.73372,17.2929175 96.7297432,17.3937624 L96.7297432,17.3957397 C98.320464,17.0793637 100.030489,16.7451914 101.140017,16.8954701 C100.076222,15.3966385 99.277879,13.3401941 99.277879,10.4898436 C99.277879,3.2616394 106.516653,0 107.639105,0 C108.142171,0 108.260481,0.117652346 108.260481,0.412277548 C108.260481,1.05887111 107.314996,1.70546468 107.314996,6.64093115 C107.314996,10.0558152 107.703728,12.9743843 108.029826,15.4431062 C110.914996,12.4592846 113.977133,10.4018515 115.855178,10.4018515 C115.913836,10.4018515 115.942668,10.5195039 115.942668,10.6371562 C115.942668,10.8428006 114.051698,11.7246989 114.053687,14.5453892 C114.051698,16.7491461 115.410771,18.7472587 117.18343,18.7472587 C119.192709,18.7472587 120.346976,16.6305051 120.346976,15.0733417 C120.346976,14.7648751 120.308202,14.4079633 120.234631,14.0431422 L120.232643,14.0411648 C117.425021,13.979867 116.535211,12.9269279 116.535211,11.928366 C116.535211,11.2521122 117.215244,10.4591947 118.100083,10.4591947 C119.163877,10.4591947 120.659155,11.2669423 121.21889,13.0772065 L121.764706,13.0742405 C122.372162,13.0742405 123.432974,12.6431781 124.559403,11.818623 L124.561392,11.8117023 C124.5338,10.714468 124.517561,9.61698053 124.512676,8.51941399 C124.512676,4.31754449 125.932394,0.498292288 128.353273,0.497303613 C129.594035,0.497303613 130.244242,1.52651447 130.244242,2.84837318 C130.244242,5.67104081 128.8285,8.65189646 126.793372,10.8269818 L126.78343,10.847744 C126.763546,14.4376236 126.651201,16.3942118 127.172162,16.3942118 C127.791549,16.3942118 129.741176,10.1358979 132.224689,10.1358979 C134.824524,10.1358979 132.696935,18.1273593 133.789561,18.1273593 C135.119801,18.1273593 138.162055,10.0172569 140.20116,10.0172569 C143.038608,10.0172569 141.088981,16.804512 142.063297,16.804512 C143.06744,16.804512 144.573654,10.0172569 147.203314,10.0172569 C150.542833,10.0172569 147.411102,18.6563006 149.126098,18.6563006 C150.425518,18.6563006 153.734217,9.69396009 154.473902,9.69396009 C155.064457,9.69396009 154.178625,10.3988855 156.452361,13.6308646 C156.549793,13.7673018 156.637283,13.9057163 156.716819,14.0480856 L156.728749,14.0500629 C159.08401,11.8907963 162.223695,10.0162682 164.519304,10.0162682 C164.932891,10.0162682 165.169511,10.0755887 165.169511,10.3692252 C165.169511,11.0444904 163.130406,11.6030919 163.130406,14.9527234 C163.130406,17.0101564 164.550124,18.6839835 166.143828,18.6839835 C168.182933,18.6839835 169.246727,16.6562107 169.246727,15.100036 C169.246727,14.7045659 169.163215,14.2052849 169.008119,13.706004 L168.9942,13.6990832 C168.557419,13.8258903 168.105046,13.891772 167.650041,13.8948409 C165.908202,13.8948409 165.168517,12.6599856 165.168517,11.7504045 C165.168517,11.0741506 165.818724,10.4285457 166.675725,10.4285457 C167.857829,10.4285457 169.079702,11.1087543 169.762717,12.4325903 L169.768683,12.433579 C171.614913,11.6396728 173.307042,10.105249 174.446396,10.105249 C177.254018,10.105249 175.658326,16.1589071 176.308534,16.1589071 C177.017399,16.1589071 179.174814,9.87093295 181.419718,9.87093295 C183.192378,9.87093295 183.045236,12.2210138 183.045236,13.2788963 C183.045236,15.6892864 182.484507,18.9499371 183.371334,18.9499371 C183.990721,18.9499371 185.557581,16.3932231 185.76338,16.3932231 C185.971168,16.3932231 186,16.4535323 186,16.7175085 C186,17.2158008 183.457829,21.0063814 182.069925,21.0063814 C180.060646,21.0063814 180.238608,17.9513752 180.238608,16.9824735 C180.238608,16.2182276 180.473239,12.2803344 179.883679,12.2803344 C179.441259,12.2803344 178.287987,14.8370484 177.223198,16.7184972 C176.131566,18.6286177 175.599669,20.7720654 174.507042,20.7720654 C173.058492,20.7720654 173.35377,18.7749416 173.35377,16.8371382 C173.35377,14.250764 173.677879,11.7523818 172.852693,11.7523818 C172.469925,11.7523818 171.444905,12.6481215 170.098757,13.2818623 L170.096769,13.285817 C170.232974,13.7643358 170.310522,14.3011864 170.310522,14.8963689 C170.310522,16.5415244 169.454515,20.7720654 165.463795,20.7720654 C162.628335,20.7720654 160.411268,18.5683085 160.411268,15.6892864 C160.411268,13.01492 161.918476,12.1923423 162.776471,11.2521122 C161.306048,11.4963149 158.899089,12.9862484 157.03894,14.6986338 L157.032974,14.71643 C157.483347,15.8573611 157.516156,16.9953263 157.516156,17.394751 C157.516156,19.3048715 156.304225,20.6277189 155.063463,20.6257415 C154.236288,20.6257415 153.409114,20.0987776 153.409114,19.0399065 C153.409114,18.2094194 153.999669,17.0971598 154.9372,15.9374438 L154.9372,15.9275571 C154.462966,14.6521661 153.795857,13.7218228 153.437945,13.7218228 C152.700249,13.7218228 150.542833,20.6257415 147.824689,20.6257415 C144.840099,20.6257415 146.908036,12.2229912 145.903894,12.2229912 C144.929577,12.2229912 142.063297,20.6257415 140.408948,20.6257415 C138.074565,20.6257415 140.172328,12.3703038 139.137365,12.3703038 C137.809114,12.3703038 134.735046,20.6257415 132.667109,20.6257415 C129.743165,20.6257415 131.927423,12.4879561 130.717481,12.4879561 C130.067274,12.4879561 129.002486,14.6917131 127.999337,16.8954701 C127.141342,18.6582779 126.640265,20.5100665 125.723612,20.5100665 C124.867606,20.5100665 124.68865,20.1857811 124.68865,17.4530829 C124.68865,16.5860147 124.63198,14.676883 124.58227,12.7054647 L124.578293,12.7005213 C123.564209,13.3570016 122.488484,13.8068488 121.407788,13.9729463 L121.403811,13.9788783 C121.426678,14.1865001 121.440597,14.4049973 121.440597,14.6323926 C121.440597,16.6008449 120.642254,20.7433939 116.565037,20.7433939 C113.490969,20.7433939 111.807788,18.4219845 111.807788,15.4549703 C111.807788,13.8691354 112.576305,12.8102642 113.314996,11.9293547 C111.701408,12.8943016 109.858161,14.3812691 108.138194,16.1826353 L108.132229,16.2073521 C108.320133,17.6696027 108.470257,18.9627899 108.470257,20.0987776 C108.470257,28.7655042 104.658492,32.9980226 102.619387,32.9980226 C101.347804,32.9980226 100.667771,31.3222182 100.667771,29.6187309 C100.666777,26.6072263 102.180944,23.1577386 104.305551,20.021661 Z M155.201657,16.7491461 L155.193703,16.7491461 C154.690638,17.470879 154.384424,18.1629516 154.384424,18.7472587 C154.384424,19.3345317 154.502734,19.6874888 154.858658,19.6874888 C155.182767,19.6874888 155.478045,19.2742225 155.478045,18.7166097 C155.478045,18.05222 155.370671,17.3789322 155.201657,16.7491461 Z M126.785418,9.65243574 C128.036123,8.04583858 129.002486,5.90337947 129.002486,3.29129966 C129.002486,2.05644436 128.913007,1.35151896 128.264789,1.35151896 C126.599503,1.35151896 126.766529,7.48624843 126.785418,9.65243574 Z M119.923447,13.054467 L119.927423,13.0465576 C119.611268,12.3090059 119.114167,11.7237102 118.426181,11.7237102 C118.128915,11.7237102 117.951947,11.9006831 117.951947,12.1349991 C117.952941,12.7885134 118.888484,12.9941578 119.923447,13.054467 Z M106.041425,18.6414704 L106.033471,18.6394931 C103.751781,21.6213374 102.054681,25.0886212 102.054681,28.3828869 C102.054681,29.472407 102.054681,31.0879022 103.561889,31.0879022 C105.424027,31.0879022 106.725435,28.3245551 106.725435,24.4756426 C106.725435,22.6871292 106.408285,20.6534244 106.041425,18.6414704 Z M94.6836785,17.7704476 L94.6956089,17.7526514 C94.1806131,16.5059321 93.277879,15.3086464 91.4485501,15.3086464 C90.9464789,15.3086464 90.6800331,15.7495955 90.6800331,16.2785368 C90.6800331,17.2484271 92.2160729,17.8643717 93.6357912,17.8643717 C93.9300746,17.8653604 94.2879867,17.8287794 94.6836785,17.7704476 Z M69.3802817,12.8082869 C69.1071949,12.8674443 68.8286179,12.8979307 68.5491301,12.899245 C67.7517813,12.899245 67.2785418,12.5759482 67.2785418,12.047007 C67.2785418,11.8117023 67.5449876,11.5180658 67.8402651,11.5180658 C68.4785418,11.5180658 69.0094449,12.0776559 69.3852527,12.7964228 L69.3802817,12.8082869 Z M55.953604,16.7590329 C56.1206297,17.3848643 56.2280033,18.0561747 56.2280033,18.7166097 C56.2280033,19.2742225 55.9327258,19.6874888 55.606628,19.6874888 C55.2526926,19.6874888 55.1343828,19.3345317 55.1343828,18.7472587 C55.1343828,18.1659177 55.4386081,17.4768111 55.9376968,16.7580442 L55.953604,16.7580442 L55.953604,16.7590329 Z M27.535377,9.64254898 C27.5164872,7.4674636 27.3524441,1.35151896 29.0147473,1.35151896 C29.6649544,1.35151896 29.7534383,2.05644436 29.7534383,3.29129966 C29.7534383,5.89942477 28.7890638,8.03990653 27.540348,9.64551501 L27.535377,9.64254898 Z M20.6773819,13.054467 C19.6404308,12.9931692 18.7019056,12.7895021 18.7019056,12.1349991 C18.7019056,11.9006831 18.8798674,11.7237102 19.175145,11.7237102 C19.8651201,11.7237102 20.3632146,12.3109833 20.6793703,13.051501 L20.6773819,13.054467 Z M6.64026512,17.8762358 C6.23661972,18.3804602 5.84391052,18.8995147 5.46810273,19.4284559 L5.46512013,19.4284559 C3.62883181,17.6419198 2.15542668,13.8019054 2.15443248,10.6648391 C2.15443248,2.87902211 7.35509528,0.675265145 7.62154101,0.675265145 C8.0053024,0.675265145 7.88798674,0.763257235 7.88798674,1.29219845 C7.88798674,2.08610462 5.64208782,5.78770448 5.64208782,10.9891246 C5.64208782,12.8152076 6.15907208,15.2878842 6.64324772,17.851519 L6.64026512,17.8762358 Z M6.7903894,18.633561 C7.15923778,20.6474924 7.47439934,22.6831745 7.47439934,24.4766313 C7.47439934,28.3255438 6.17398509,31.0888909 4.31284176,31.0888909 C2.8056338,31.0888909 2.8056338,29.472407 2.8056338,28.385853 C2.8056338,25.0876326 4.50472245,21.6173827 6.78740679,18.6345497 L6.7903894,18.6345497 L6.7903894,18.633561 Z" id="Shape"></path>
        </g>
    </g>
</svg>