<?xml version="1.0" encoding="UTF-8"?>
<svg width="105px" height="40px" viewBox="0 0 105 40" version="1.1" xmlns="http://www.w3.org/2000/svg" xmlns:xlink="http://www.w3.org/1999/xlink">
    <!-- Generator: Sketch 48.2 (47327) - http://www.bohemiancoding.com/sketch -->
    <title>kenshoo</title>
    <desc>Created with Sketch.</desc>
    <defs></defs>
    <g id="Integration-Overview" stroke="none" stroke-width="1" fill="none" fill-rule="evenodd" transform="translate(-807.000000, -1394.000000)">
        <g id="kenshoo" transform="translate(731.000000, 1344.000000)" fill="#FFFFFF">
            <path d="M105.211144,73.7264 C105.221985,73.5104 105.318349,72.806 105.324371,72.7652 C105.670076,70.5008 106.390394,69.8576 106.431349,69.8132 C106.474712,69.7664 106.51928,69.7232 106.565053,69.6812 C106.864985,69.3644 107.231167,69.1292 107.676849,69.026 C107.676849,69.026 108.819962,68.6516 109.740235,69.0476 C110.709894,69.464 111.366371,70.514 110.225667,71.8196 C110.225667,71.8196 109.221076,72.8168 107.799712,73.3832 L105.665258,74.246 C105.507462,74.318 105.349667,74.3912 105.191871,74.4608 C105.193076,74.4524 105.188258,74.1584 105.211144,73.7264 M111.88553,77.7464 C111.618121,77.9444 111.331439,78.1148 111.030303,78.2576 C110.725553,78.4016 110.413576,78.5144 110.095576,78.5996 C109.775167,78.6836 109.463189,78.7232 109.158439,78.7232 C108.52003,78.7232 107.956303,78.614 107.470871,78.3944 C106.984235,78.1748 106.540962,77.9048 106.239826,77.5076 C105.753189,76.8596 105.426758,76.1072 105.28703,75.3116 C114.153689,72.9896 112.274599,70.1372 112.114394,69.9188 C112.077053,69.854 112.036099,69.7916 111.989121,69.734 C111.632576,69.284 111.271212,69.0128 110.717121,68.702 C110.141349,68.3768 109.246371,68.1392 108.439326,68.1272 C105.187053,68.0768 103.44528,70.4564 103.086326,72.152 C102.840599,73.5092 102.957439,74.2364 103.027303,74.9372 C103.033326,74.9996 103.041758,75.0644 103.052599,75.128 C103.057417,75.1508 103.116439,75.4724 103.244121,75.8552 C103.562121,76.724 104.076462,77.5064 104.746189,78.1448 C105.248485,78.626 105.847144,78.998 106.502417,79.2356 C107.180576,79.4852 107.929803,79.61 108.750099,79.61 C109.480053,79.61 110.183508,79.4828 110.859258,79.2248 C111.537417,78.9668 112.103553,78.656 112.560076,78.2924 L112.696189,77.1788 L112.581758,77.1092 C112.384212,77.3372 112.151735,77.5496 111.88553,77.7464 M168.554576,75.8852 C168.44978,76.4636 168.243803,77.0204 167.947485,77.5292 C167.672849,78.002 167.278962,78.3968 166.809189,78.6764 C166.333394,78.9596 165.747985,79.1012 165.051758,79.1012 C164.35553,79.1012 163.768917,78.9596 163.294326,78.6764 C162.81853,78.3944 162.439099,78.0104 162.152417,77.5292 C161.868144,77.0492 161.666985,76.4996 161.547735,75.8852 C161.42728,75.2528 161.367053,74.6108 161.368258,73.9688 C161.368258,73.3064 161.428485,72.6668 161.547735,72.0512 C161.651326,71.4728 161.857303,70.9172 162.152417,70.4072 C162.429462,69.9344 162.822144,69.5396 163.294326,69.26 C163.768917,68.9768 164.35553,68.834 165.051758,68.834 C165.747985,68.834 166.333394,68.9768 166.809189,69.26 C167.278962,69.5408 167.672849,69.9356 167.947485,70.4072 C168.232962,70.8884 168.435326,71.438 168.554576,72.0512 C168.673826,72.668 168.731644,73.3064 168.731644,73.9688 C168.731644,74.6324 168.673826,75.2696 168.554576,75.8852 M170.312008,71.2364 C169.972326,70.4864 169.524235,69.8792 168.968939,69.4136 C168.425689,68.9552 167.796917,68.6084 167.117553,68.396 C166.44903,68.1848 165.751599,68.0768 165.050553,68.0768 C164.353121,68.0792 163.660508,68.1872 162.996803,68.396 C162.311417,68.6072 161.677826,68.9528 161.130962,69.4136 C160.576871,69.8792 160.129985,70.4864 159.790303,71.2364 C159.448212,71.9852 159.278371,72.896 159.278371,73.9688 C159.278371,75.0428 159.448212,75.9524 159.790303,76.7012 C160.129985,77.4512 160.576871,78.0584 161.130962,78.524 C161.673008,78.9836 162.310212,79.3172 162.996803,79.5044 C163.664121,79.6916 164.356735,79.7876 165.050553,79.7888 C165.74678,79.7888 166.43578,79.6952 167.117553,79.5044 C167.798121,79.316 168.430508,78.9812 168.968939,78.524 C169.52303,78.0584 169.972326,77.4512 170.312008,76.7012 C170.651689,75.9536 170.823939,75.0428 170.823939,73.9688 C170.823939,72.896 170.651689,71.9852 170.312008,71.2364 M155.940576,75.8852 C155.83578,76.4636 155.631008,77.0204 155.335894,77.5292 C155.051621,78.0104 154.670985,78.3932 154.196394,78.6764 C153.720599,78.9596 153.135189,79.1012 152.437758,79.1012 C151.74153,79.1012 151.157326,78.9596 150.68153,78.6764 C150.209349,78.3968 149.816667,78.002 149.540826,77.5292 C149.255349,77.0492 149.054189,76.4996 148.934939,75.8852 C148.814485,75.2696 148.755462,74.6324 148.755462,73.9688 C148.755462,73.3064 148.814485,72.6668 148.934939,72.0512 C149.054189,71.438 149.254144,70.8884 149.540826,70.4072 C149.816667,69.9344 150.209349,69.5408 150.68153,69.26 C151.157326,68.9768 151.74153,68.834 152.437758,68.834 C153.135189,68.834 153.720599,68.9768 154.196394,69.26 C154.670985,69.5444 155.050417,69.926 155.335894,70.4072 C155.621371,70.8884 155.82253,71.438 155.940576,72.0512 C156.06103,72.668 156.120053,73.3064 156.120053,73.9688 C156.120053,74.6324 156.06103,75.2696 155.940576,75.8852 M156.357349,69.4136 C155.814099,68.954 155.184121,68.6072 154.504758,68.396 C153.836235,68.1836 153.140008,68.0768 152.438962,68.0756 C151.758394,68.0756 151.073008,68.1824 150.385212,68.396 C149.70103,68.606 149.066235,68.9516 148.520576,69.4136 C147.96528,69.878 147.517189,70.4864 147.177508,71.2352 C146.837826,71.9852 146.66678,72.896 146.66678,73.9688 C146.66678,75.0416 146.837826,75.9512 147.177508,76.7012 C147.519599,77.4512 147.96528,78.0572 148.520576,78.5228 C149.061417,78.9824 149.698621,79.3172 150.385212,79.5044 C151.053735,79.6916 151.745144,79.7864 152.438962,79.7888 C153.135189,79.7888 153.822985,79.694 154.504758,79.5044 C155.18653,79.316 155.803258,78.9884 156.357349,78.5228 C156.911439,78.0572 157.35953,77.4512 157.700417,76.7012 C158.040099,75.9524 158.211144,75.0416 158.211144,73.9688 C158.211144,72.896 158.041303,71.984 157.700417,71.2352 C157.35953,70.4864 156.912644,69.8792 156.357349,69.4136 M143.408485,68.9168 C143.050735,68.6132 142.631553,68.3912 142.181053,68.2652 C141.742599,68.1416 141.289689,68.0768 140.833167,68.0756 C139.976735,68.0756 139.237144,68.2616 138.618008,68.6324 C137.998871,69.0032 137.466462,69.5276 137.021985,70.2056 L136.973803,70.2056 L136.973803,68.4068 C136.973803,66.6476 137.008735,64.8884 137.079803,63.1304 C137.105099,62.5784 137.162917,61.7108 137.162917,61.7108 C137.162917,61.7108 136.340212,62.5568 135.100735,62.6708 C135.12603,63.41 135.153735,64.1264 135.153735,64.1264 C135.153735,64.1264 135.15253,64.2908 135.168189,64.9052 C135.199508,66.1124 135.215167,67.3196 135.217576,68.5256 L135.217576,72.8096 C135.216371,74.0168 135.199508,75.224 135.168189,76.43 C135.15253,77.0456 135.133258,77.63 135.109167,78.1808 C135.092303,78.6392 135.063394,79.0964 135.026053,79.5536 C135.737939,79.49 136.453439,79.49 137.164121,79.5536 C137.12678,79.1048 137.099076,78.6548 137.081008,78.2048 C137.013553,76.5332 136.978621,74.8604 136.975008,73.1876 C136.975008,71.9576 137.231576,71.0036 137.747121,70.3244 C138.260258,69.6452 139.070917,69.3056 140.180303,69.3056 C140.988553,69.3056 141.622144,69.6092 142.081076,70.2176 C142.540008,70.826 142.770076,71.72 142.770076,72.902 L142.770076,74.3468 C142.770076,75.2612 142.750803,76.1528 142.711053,77.0192 C142.672508,77.8628 142.635167,78.7076 142.602644,79.5512 C142.923053,79.52 143.251894,79.5044 143.587962,79.5044 C143.940894,79.5044 144.278167,79.5188 144.597371,79.5512 C144.566053,79.0712 144.549189,78.59 144.550394,78.1076 L144.550394,76.5692 C144.550394,75.764 144.566053,75.002 144.597371,74.2856 C144.631099,73.568 144.646758,72.8696 144.646758,72.1916 C144.646758,71.372 144.531121,70.6976 144.299849,70.1684 C144.070985,69.6428 143.773462,69.224 143.408485,68.9168 M131.417235,73.6724 C130.988417,73.4516 130.533099,73.286 130.06453,73.1756 C129.604394,73.0676 129.152689,72.9284 128.710621,72.7616 C128.322758,72.62 127.972235,72.398 127.677121,72.11 C127.400076,71.834 127.261553,71.444 127.261553,70.9388 C127.261553,70.592 127.324189,70.2932 127.451871,70.04 C127.578349,69.788 127.736144,69.5828 127.925258,69.4256 C128.11678,69.2672 128.329985,69.1496 128.56728,69.0704 C128.804576,68.9924 129.041871,68.9516 129.279167,68.9516 C129.817599,68.9516 130.269303,69.1016 130.633076,69.4016 C130.996849,69.7016 131.242576,70.04 131.370258,70.4192 L131.65453,70.4192 C131.685849,70.2296 131.756917,69.962 131.868939,69.614 C131.960485,69.3128 132.080939,69.02 132.225485,68.7392 C131.837621,68.6048 131.454576,68.462 131.073939,68.3132 C130.669212,68.1548 130.175349,68.0756 129.588735,68.0756 C128.955144,68.0756 128.392621,68.1668 127.902371,68.348 C127.412121,68.5292 127.000167,68.7776 126.666508,69.0932 C126.335258,69.4088 126.075076,69.7928 125.907644,70.2176 C125.728167,70.6736 125.640235,71.1596 125.646258,71.6492 C125.646258,72.3116 125.78478,72.8324 126.061826,73.2116 C126.338871,73.5908 126.682167,73.8932 127.095326,74.1224 C127.52053,74.3564 127.975849,74.5364 128.449235,74.654 C128.939485,74.7812 129.391189,74.9264 129.803144,75.0932 C130.213894,75.2588 130.558394,75.4724 130.835439,75.7316 C131.113689,75.992 131.252212,76.3676 131.252212,76.8548 C131.252212,77.204 131.188371,77.51 131.063099,77.78 C130.934212,78.0476 130.765576,78.2672 130.551167,78.4412 C130.331939,78.6176 130.082599,78.7544 129.815189,78.8444 C129.536939,78.938 129.249053,78.9872 128.949121,78.9872 C128.616667,78.9872 128.303485,78.932 128.01078,78.8204 C127.73253,78.7172 127.468735,78.5792 127.226621,78.4064 C127.009803,78.2516 126.811053,78.0728 126.63278,77.8748 C126.488235,77.7164 126.365371,77.5424 126.265394,77.3516 L125.977508,77.3516 C125.977508,77.5904 125.925712,77.8856 125.822121,78.2408 C125.74503,78.5276 125.645053,78.8084 125.525803,79.082 C125.859462,79.2704 126.269008,79.4348 126.761667,79.5788 C127.251917,79.7204 127.861417,79.7912 128.590167,79.7912 C129.255076,79.7912 129.848917,79.6928 130.371689,79.496 C130.871576,79.3136 131.328099,79.0316 131.713553,78.668 C132.074917,78.3296 132.365212,77.9228 132.56878,77.4728 C132.762712,77.0504 132.863894,76.5908 132.865099,76.1252 C132.865099,75.4616 132.726576,74.942 132.44953,74.5616 C132.180917,74.1896 131.827985,73.8836 131.417235,73.6724 M80.5286025,77.8907455 L76.3338531,89.7572 L79.8381873,77.5359164 C78.1354073,76.6156096 76.7481028,75.5027568 76.2814554,74.21684 C75.1022054,70.96724 78.0099781,68.79284 78.0099781,68.79284 C76.3332508,71.09684 77.0198418,73.47164 80.9960463,75.39644 C83.5761827,76.72604 86.4755236,77.52404 90.4926827,78.49364 C99.6472281,80.69564 112.805683,81.89444 134.634455,81.73484 C169.719251,81.65084 181.829751,78.48044 181.829751,78.48044 C167.719705,82.10444 146.899137,83.56964 120.271455,83.30804 C102.01416,83.12804 91.7273418,81.25964 87.6909099,80.33564 C85.9402846,79.9355687 83.0053625,79.1029793 80.5286025,77.8907455 Z M122.150667,68.9168 C122.514439,69.224 122.813167,69.6428 123.04203,70.1684 C123.270894,70.6964 123.387735,71.3708 123.387735,72.1904 C123.387735,72.8684 123.370871,73.568 123.339553,74.2856 C123.305826,75.002 123.291371,75.7628 123.291371,76.568 L123.291371,78.1064 C123.291371,78.5888 123.305826,79.07 123.339553,79.5512 C123.017939,79.5188 122.681871,79.5032 122.330144,79.5032 C121.992871,79.5032 121.66403,79.5188 121.344826,79.5512 C121.376144,78.7304 121.411076,77.8868 121.450826,77.018 C121.490576,76.1516 121.509849,75.26 121.509849,74.3456 L121.509849,72.902 C121.509849,71.7188 121.280985,70.8248 120.822053,70.2164 C120.361917,69.6092 119.72953,69.3044 118.92128,69.3044 C117.813099,69.3044 117.001235,69.6452 116.486894,70.3232 C115.972553,71.0024 115.715985,71.9564 115.715985,73.1876 L115.715985,75.1988 C115.715985,75.908 115.726826,76.6532 115.750917,77.4344 C115.770189,78.1436 115.82078,78.8504 115.905099,79.5524 C115.194417,79.49 114.478917,79.49 113.768235,79.5524 C113.847735,78.9212 113.898326,78.2156 113.922417,77.4344 C113.946508,76.6532 113.958553,75.9092 113.958553,75.1988 L113.958553,72.7376 C113.958553,72.0284 113.946508,71.2832 113.922417,70.502 C113.898326,69.7208 113.84653,68.9912 113.768235,68.3132 C114.211508,68.3924 114.568053,68.4308 114.836667,68.4308 C114.963144,68.4308 115.101667,68.4188 115.252235,68.396 L115.787053,68.3132 C115.740076,68.9444 115.715985,69.5756 115.715985,70.2056 L115.764167,70.2056 C116.208644,69.5276 116.741053,69.0032 117.360189,68.6324 C117.98053,68.2616 118.718917,68.0756 119.576553,68.0756 C120.031871,68.0768 120.485985,68.1416 120.923235,68.2652 C121.374939,68.3912 121.792917,68.6132 122.150667,68.9168 Z M100.63881,76.001 L100.988128,76.3934 C101.919242,77.4506 102.856378,78.503 103.798333,79.5518 C103.561037,79.5194 102.611855,79.5026 102.372151,79.5026 L101.719287,79.5026 C101.506083,79.5026 101.28806,79.5194 101.066424,79.5518 C100.424401,78.821 99.7956281,78.0782 99.1776963,77.327 C98.4899008,76.4918 97.8153554,75.6818 97.1588781,74.9018 C96.5011963,74.1206 95.9073554,73.4198 95.3773554,72.7958 C94.8461508,72.173 94.4546736,71.735 94.201719,71.4818 C94.0752418,71.357 93.9800827,71.2934 93.9174463,71.2934 C93.8379463,71.2934 93.7969918,71.3402 93.7969918,71.435 L93.7969918,73.4942 C93.7969918,74.5202 93.817469,75.545 93.857219,76.571 C93.8873327,77.3318 93.9198554,78.095 93.9559918,78.857 C93.2296508,78.7202 92.5045145,78.5762 91.7854008,78.425 L91.7131281,78.4094 C91.7408327,77.7962 91.7673327,77.183 91.7914236,76.571 C91.8311736,75.5618 91.8504463,74.5358 91.8504463,73.4942 L91.8504463,69.4238 C91.8504463,68.3822 91.8311736,67.361 91.7914236,66.359 C91.7516736,65.357 91.7709463,64.7534 91.7227645,63.7118 C91.8227418,63.7274 92.4201963,63.4586 92.9477872,63.1154 C93.5030827,62.7542 93.9885145,62.315 93.9885145,62.315 C93.9885145,62.315 93.896969,65.3582 93.857219,66.3602 C93.817469,67.3622 93.7969918,68.3834 93.7969918,69.425 L93.7969918,70.7258 C93.7945827,70.7738 93.8066281,70.8206 93.830719,70.8614 C93.8487872,70.8686 93.8692645,70.8722 93.8885372,70.8722 C93.9511736,70.8722 94.0607872,70.8026 94.2173781,70.6622 C94.8064008,70.1546 95.3797645,69.6266 95.9326508,69.0794 C96.5325145,68.4914 97.1359918,67.8782 97.7430827,67.2422 C98.3513781,66.6062 98.9500372,65.9594 99.541469,65.3006 C100.112424,64.6634 100.680969,64.0238 101.245901,63.3806 C101.416946,63.4118 101.580764,63.4382 101.736151,63.461 C101.890333,63.485 102.046924,63.497 102.203514,63.497 C102.390219,63.497 102.576924,63.485 102.763628,63.461 C102.950333,63.4382 103.137037,63.4118 103.323742,63.3806 C102.778083,63.8462 102.164969,64.397 101.479583,65.033 C100.794196,65.669 100.105196,66.3206 99.4125827,66.9866 C98.7416508,67.6322 98.0803554,68.2874 97.4274918,68.9522 C97.1287645,69.2582 96.4313327,69.887 95.7543781,70.4378 C95.8085827,70.5218 95.8700145,70.6022 95.9362645,70.679 C97.1926054,72.1382 98.5127872,73.577 99.819719,75.0698 L100.63881,76.001 Z M104.650308,56.408 C104.650308,56.408 99.1913077,58.6076 91.5906258,62.4296 C90.0090577,63.224 85.4932168,65.708 84.5765577,66.416 C83.4912622,69.506 82.4384895,72.5444 81.472444,75.248 L80.6316713,74.81 L82.6709668,67.7132 C81.0978304,68.7932 80.0619213,69.8 79.5439668,70.2512 C77.4504668,72.0764 78.544194,73.3004 78.544194,73.3004 C78.544194,73.3004 76.5326031,71.6936 78.106944,69.248 C79.0693758,67.7132 81.1496258,66.494 82.8155122,65.5568 C83.0022168,65.4524 83.1901258,65.3504 83.380444,65.2496 L87.1591031,52.1024 C87.1591031,52.1024 88.441944,51.7448 90.1283077,50 C90.1283077,50 89.6151713,51.8336 88.6900804,54.5804 C87.8107622,57.1892 86.547194,60.8036 85.2836258,64.4228 C92.178444,60.9536 104.650308,56.408 104.650308,56.408 Z M172.205674,68.1014 L172.205674,67.1066 L171.79131,68.1014 L171.731083,68.1014 L171.320333,67.1066 L171.320333,68.1014 L171.16856,68.1014 L171.16856,66.893 L171.384174,66.893 L171.762401,67.8014 L172.140628,66.893 L172.357446,66.893 L172.357446,68.1014 L172.205674,68.1014 Z M170.432583,68.1014 L170.432583,67.0262 L170.049537,67.0262 L170.049537,66.893 L170.968605,66.893 L170.968605,67.0262 L170.583151,67.0262 L170.583151,68.1014 L170.432583,68.1014 Z"></path>
        </g>
    </g>
</svg>