<?xml version="1.0" encoding="UTF-8"?>
<svg width="63px" height="19px" viewBox="0 0 63 19" version="1.1" xmlns="http://www.w3.org/2000/svg" xmlns:xlink="http://www.w3.org/1999/xlink">
    <!-- Generator: Sketch 48.2 (47327) - http://www.bohemiancoding.com/sketch -->
    <title>kfc</title>
    <desc>Created with Sketch.</desc>
    <defs></defs>
    <g id="BI-Demo-2" stroke="none" stroke-width="1" fill="none" fill-rule="evenodd" transform="translate(-1182.000000, -746.000000)">
        <path d="M1237.8017,761.371681 C1239.3106,761.367104 1241.20311,760.945061 1242.6965,760.447032 L1241.80384,764.297143 C1239.93049,764.670665 1237.82678,764.989715 1235.35589,764.999785 C1227.63395,765.033659 1224.31099,761.052632 1224.30004,756.921006 C1224.28223,751.389589 1230.20702,745.869159 1239.74986,746.002363 C1241.7742,746.029828 1243.70229,746.393737 1245,746.818526 L1243.73787,751.359378 L1243.0979,751.359378 C1242.30879,750.323954 1241.11006,749.538918 1238.74499,749.538918 C1233.90857,749.538918 1230.91631,752.195224 1230.92543,755.736356 C1230.93455,758.941502 1233.68962,761.383125 1237.8017,761.371681 Z M1210.3828,746 L1210.08234,747.181791 C1210.08234,747.181791 1211.90602,747.379076 1211.34646,749.17709 L1207.2,764.081321 L1215.48974,764.095238 L1215.80156,762.814153 C1215.80156,762.814153 1214.25153,762.442864 1214.65426,761.029625 C1214.68652,760.899269 1215.87111,756.605612 1215.87111,756.605612 L1219.67165,756.599319 C1221.56351,756.609208 1222.18944,757.579237 1222.18944,757.579237 L1223.29128,753.153426 L1216.8884,753.153426 L1217.8407,749.676967 L1223.4031,749.670674 C1224.42676,749.670674 1225.14359,750.349424 1225.14359,750.844327 L1225.77315,750.844327 L1227,746 L1210.3828,746.000029 L1210.3828,746 Z M1204.25852,761.414006 C1203.76506,760.894877 1199.46419,754.324436 1199.46419,754.324436 L1207.32736,748.156858 C1208.65148,747.073286 1209.59211,747.188249 1209.59211,747.188249 L1209.9,746 L1200.11938,746.007652 L1199.81882,747.188267 C1200.48363,747.232276 1201.41234,747.814725 1200.65178,748.504951 C1200.55739,748.591622 1192.79548,754.40084 1192.79548,754.40084 L1194.46552,748.469923 C1194.81098,747.324336 1196.06638,747.188267 1196.06638,747.188267 L1196.37244,746.003611 L1187.03441,746.008101 L1186.73476,747.191457 C1187.17965,747.301031 1188.45383,747.541239 1188.01032,749.184446 C1184.89428,760.226673 1185.25532,759.127836 1185.04502,759.734086 C1184.19236,762.922912 1182.82059,762.760843 1182.3221,762.794074 L1182,764.072138 L1191.76459,764.072138 L1192.09402,762.77831 C1192.09402,762.77831 1190.54218,762.47294 1190.83954,761.379492 C1191.13277,760.296326 1192.35884,755.950191 1192.35884,755.950191 C1194.04858,758.614994 1194.4449,758.942818 1196.48194,761.69245 C1198.52035,764.442175 1200.70172,764.078425 1206.47607,764.080221 L1206.7968,762.807546 C1205.56431,762.813366 1204.75289,761.932751 1204.25852,761.41452 L1204.25852,761.414006 Z" id="kfc" fill="#D4D4D4" fill-rule="nonzero"></path>
    </g>
</svg>