<?xml version="1.0" encoding="UTF-8"?>
<svg width="41px" height="42px" viewBox="0 0 41 42" version="1.1" xmlns="http://www.w3.org/2000/svg" xmlns:xlink="http://www.w3.org/1999/xlink">
    <!-- Generator: Sketch 48.2 (47327) - http://www.bohemiancoding.com/sketch -->
    <title>linkedin</title>
    <desc>Created with Sketch.</desc>
    <defs></defs>
    <g id="Product" stroke="none" stroke-width="1" fill="none" fill-rule="evenodd" transform="translate(-840.000000, -4326.000000)">
        <g id="integration" transform="translate(732.000000, 4277.000000)" fill="#FFFFFF">
            <path d="M145.966647,49 C147.639357,49 149,50.3564444 149,52.0286667 L149,87.9697778 C149,89.642 147.639357,91 145.966647,91 L111.025001,91 C109.356087,91 108,89.642 108,87.9697778 L108,52.0286667 C108,50.3564444 109.356087,49 111.025001,49 L145.966647,49 Z M123.97328,64.7451 L123.97328,84.7884333 L130.052135,84.7884333 L130.052135,74.8741 C130.052135,72.2607667 130.535042,69.7267667 133.699752,69.7267667 C136.820423,69.7267667 136.859906,72.7165444 136.859906,75.0413222 L136.859906,84.7884333 L142.938761,84.7884333 L142.938761,73.7953222 C142.938761,68.3983222 141.801348,64.2488778 135.643528,64.2488778 C132.686103,64.2488778 130.701326,65.9094333 129.889648,67.4859889 L129.806885,67.4859889 L129.806885,64.7451 L123.97328,64.7451 Z M117.117447,54.7816889 C115.169116,54.7816889 113.592835,56.4002444 113.592835,58.3952444 C113.592835,60.3879111 115.169116,62.0072444 117.117447,62.0072444 C119.061982,62.0072444 120.642059,60.3879111 120.642059,58.3952444 C120.642059,56.4002444 119.061982,54.7816889 117.117447,54.7816889 Z M114.075742,84.7883556 L120.159152,84.7883556 L120.159152,64.7450222 L114.075742,64.7450222 L114.075742,84.7883556 Z" id="linkedin"></path>
        </g>
    </g>
</svg>