<?xml version="1.0" encoding="UTF-8"?>
<svg width="16px" height="16px" viewBox="0 0 16 16" version="1.1" xmlns="http://www.w3.org/2000/svg" xmlns:xlink="http://www.w3.org/1999/xlink">
    <!-- Generator: Sketch 48.2 (47327) - http://www.bohemiancoding.com/sketch -->
    <title>lk</title>
    <desc>Created with Sketch.</desc>
    <defs></defs>
    <g id="Request-Demo-Copy" stroke="none" stroke-width="1" fill="none" fill-rule="evenodd" transform="translate(-1014.000000, -250.000000)">
        <g id="Group" transform="translate(350.000000, 192.000000)" fill="#000000">
            <path d="M669.659632,63.3126249 L672.840233,63.3126249 L672.840233,64.7741037 L672.885356,64.7741037 C673.3279,63.9334631 674.410041,63.0480325 676.022489,63.0480325 C679.379859,63.0480325 680,65.2605722 680,68.1383252 L680,74 L676.685684,74 L676.685684,68.8027092 C676.685684,67.5631064 676.664157,65.9689166 674.962703,65.9689166 C673.237238,65.9689166 672.973948,67.3200795 672.973948,68.713544 L672.973948,74 L669.659632,74 L669.659632,63.3126249 Z M665.921691,58 C666.981891,58 667.843381,58.8630356 667.843381,59.9267965 C667.843381,60.9893131 666.981891,61.8527635 665.921691,61.8527635 C664.85942,61.8527635 664,60.9893131 664,59.9267965 C664,58.8630356 664.85942,58 665.921691,58 Z M664.263291,73.9999585 L664.263291,63.3125834 L667.580091,63.3125834 L667.580091,73.9999585 L664.263291,73.9999585 Z" id="lk"></path>
        </g>
    </g>
</svg>