<?xml version="1.0" encoding="UTF-8"?>
<svg width="16px" height="16px" viewBox="0 0 16 16" version="1.1" xmlns="http://www.w3.org/2000/svg" xmlns:xlink="http://www.w3.org/1999/xlink">
    <!-- Generator: Sketch 48.2 (47327) - http://www.bohemiancoding.com/sketch -->
    <title>lk</title>
    <desc>Created with Sketch.</desc>
    <defs></defs>
    <g id="layout/footer" stroke="none" stroke-width="1" fill="none" fill-rule="evenodd" transform="translate(-1254.000000, -682.000000)">
        <g id="social" transform="translate(1181.000000, 682.000000)" fill="#FFFFFF">
            <path d="M78.6596316,5.3126249 L81.8402326,5.3126249 L81.8402326,6.77410375 L81.8853563,6.77410375 C82.3278999,5.93346311 83.4100411,5.04803253 85.0224894,5.04803253 C88.3798594,5.04803253 89,7.26057216 89,10.1383252 L89,16 L85.6856838,16 L85.6856838,10.8027092 C85.6856838,9.56310637 85.6641569,7.96891662 83.9627031,7.96891662 C82.2372384,7.96891662 81.9739478,9.32007952 81.9739478,10.713544 L81.9739478,16 L78.6596316,16 L78.6596316,5.3126249 Z M74.9216907,0 C75.981891,0 76.8433814,0.863035606 76.8433814,1.92679646 C76.8433814,2.98931314 75.981891,3.85276347 74.9216907,3.85276347 C73.8594205,3.85276347 73,2.98931314 73,1.92679646 C73,0.863035606 73.8594205,0 74.9216907,0 Z M73.2632907,15.9999585 L73.2632907,5.31258343 L76.5800907,5.31258343 L76.5800907,15.9999585 L73.2632907,15.9999585 Z" id="lk"></path>
        </g>
    </g>
</svg>