<?xml version="1.0" encoding="UTF-8"?>
<svg width="140px" height="140px" viewBox="0 0 140 140" version="1.1" xmlns="http://www.w3.org/2000/svg" xmlns:xlink="http://www.w3.org/1999/xlink">
    <!-- Generator: Sketch 48.2 (47327) - http://www.bohemiancoding.com/sketch -->
    <title>logo-blue</title>
    <desc>Created with Sketch.</desc>
    <defs></defs>
    <g id="About" stroke="none" stroke-width="1" fill="none" fill-rule="evenodd" transform="translate(-210.000000, -432.000000)" fill-opacity="0.88">
        <g id="Group-3" transform="translate(170.000000, 392.000000)" fill="#A3B8E5">
            <path d="M110,180 C71.3400675,180 40,148.659932 40,110 C40,71.3400675 71.3400675,40 110,40 C148.659932,40 180,71.3400675 180,110 C180,148.659932 148.659932,180 110,180 Z M115.428571,131.101243 C115.428571,131.101243 112.714286,131.953819 113.285714,133.943162 C113.857143,135.932504 116.571429,135.648313 116.571429,135.648313 C124.714286,133.374778 129.714286,124.422735 127.571429,115.754885 C127.285714,114.618117 126.142857,113.765542 125,114.049734 C125,114.049734 125,114.049734 124.857143,114.049734 C123.142857,114.476021 123.428571,116.749556 123.428571,117.31794 C125,123.285968 121.428571,129.396092 115.428571,131.101243 Z M127.285714,89.6092362 C127.142857,89.3250444 127,89.0408526 127,88.7566607 L127,88.330373 L118.142857,88.330373 C118.428571,89.0408526 118.714286,89.8934281 118.714286,90.6039076 C118.857143,90.8880995 119,91.3143872 119,91.598579 C120,95.5772647 120.714286,97.8507993 126.285714,106.944938 L126.857143,107.513321 C129.714286,111.065719 131.285714,115.612789 131.285714,120.159858 C131.285714,131.953819 121.857143,141.474245 110,141.616341 C98.1428571,141.616341 88.5714286,132.238011 88.4285714,120.44405 C88.4285714,115.612789 90.1428571,111.065719 93.1428571,107.371226 C96.2857143,103.676732 98.4285714,98.7033748 100.857143,93.4458259 C101.714286,91.740675 102.285714,89.8934281 103.428571,88.0461812 L94.1428571,88.0461812 C93.7142857,88.7566607 93.4285714,89.4671403 93.1428571,90.1776199 C91,94.7246892 89.1428571,98.9875666 86.7142857,101.971581 C82.4285714,107.087034 80,113.48135 80,120.159858 C80,136.642984 93.4285714,150 110,150 C126.571429,150 140,136.642984 140,120.159858 C139.857143,113.623446 137.571429,107.22913 133.571429,102.113677 C128.428571,94.2984014 128,92.7353464 127.285714,89.6092362 Z M118.285714,70 L102.285714,70 C97,70 97.5714286,77.2468917 97.5714286,77.2468917 L123,77.2468917 C123,77.2468917 123.428571,70 118.285714,70 Z M97,85.6305506 L123.285714,85.6305506 C124.714286,85.3463588 125.857143,83.9253996 125.571429,82.5044405 C125.428571,81.3676732 124.428571,80.3730018 123.285714,80.2309059 L97,80.2309059 C95.5714286,80.5150977 94.4285714,81.9360568 94.7142857,83.357016 C95,84.4937833 95.8571429,85.3463588 97,85.6305506 Z" id="logo-blue"></path>
        </g>
    </g>
</svg>