<?xml version="1.0" encoding="UTF-8"?>
<svg width="80px" height="38px" viewBox="0 0 80 38" version="1.1" xmlns="http://www.w3.org/2000/svg" xmlns:xlink="http://www.w3.org/1999/xlink">
    <!-- Generator: Sketch 48.2 (47327) - http://www.bohemiancoding.com/sketch -->
    <title>logo-white</title>
    <desc>Created with Sketch.</desc>
    <defs></defs>
    <g id="layout/footer" stroke="none" stroke-width="1" fill="none" fill-rule="evenodd" transform="translate(-170.000000, -386.000000)">
        <path d="M204.45614,395.014599 C204.877193,395.014599 205.22807,394.59854 205.22807,394.113139 C205.22807,393.627737 204.877193,393.211679 204.45614,393.211679 L195.614035,393.211679 C195.192982,393.211679 194.842105,393.627737 194.842105,394.113139 C194.842105,394.59854 195.192982,395.014599 195.614035,395.014599 L204.45614,395.014599 Z M184.526316,396.540146 C183.333333,395.777372 181.929825,395.361314 180.385965,395.361314 C178.842105,395.361314 177.438596,395.708029 176.175439,396.40146 C174.912281,397.094891 173.719298,398.135036 172.666667,399.521898 L172.666667,395.916058 L170,395.916058 L170,416.164234 L172.666667,416.164234 L172.666667,408.675182 C172.666667,405.970803 172.807018,404.167883 173.017544,403.19708 C173.438596,401.671533 174.280702,400.354015 175.54386,399.313869 C176.807018,398.273723 178.280702,397.718978 179.894737,397.718978 C181.298246,397.718978 182.421053,398.065693 183.333333,398.759124 C184.175439,399.383212 184.807018,400.423358 185.087719,401.740876 C185.22807,402.50365 185.368421,404.09854 185.368421,406.386861 L185.368421,416.094891 L188.035088,416.094891 L188.035088,405.762774 C188.035088,402.989051 187.754386,400.978102 187.192982,399.660584 C186.631579,398.343066 185.719298,397.30292 184.526316,396.540146 Z M228.807018,399.383212 C227.684211,397.927007 226.561404,396.886861 225.368421,396.332117 C224.175439,395.708029 222.912281,395.430657 221.508772,395.430657 C219.824561,395.430657 218.280702,395.846715 216.736842,396.817518 C215.263158,397.718978 214.070175,399.036496 213.22807,400.631387 C212.385965,402.226277 211.964912,403.959854 211.964912,405.832117 C211.964912,407.70438 212.385965,409.368613 213.157895,410.963504 C213.929825,412.558394 215.122807,413.806569 216.596491,414.708029 C218.070175,415.609489 219.684211,416.094891 221.368421,416.094891 C222.842105,416.094891 224.175439,415.748175 225.508772,415.124088 C226.77193,414.5 227.894737,413.529197 228.807018,412.281022 L228.807018,413.321168 C228.807018,415.609489 228.596491,417.20438 228.105263,418.175182 C227.614035,419.145985 226.842105,420.047445 225.719298,420.671533 C224.596491,421.29562 223.192982,421.642336 221.578947,421.642336 C219.894737,421.642336 218.561404,421.364964 217.438596,420.671533 C216.315789,420.047445 215.403509,419.007299 214.701754,417.689781 L212.105263,417.689781 C212.736842,419.284672 213.508772,420.463504 214.280702,421.29562 C215.052632,422.127737 216.105263,422.821168 217.368421,423.306569 C218.631579,423.791971 220.035088,424 221.649123,424 C223.824561,424 225.649123,423.514599 227.192982,422.474453 C228.736842,421.50365 229.789474,420.047445 230.421053,418.175182 C230.842105,416.857664 231.052632,414.777372 231.052632,411.934307 L231.052632,395.916058 L228.736842,395.916058 L228.807018,399.383212 Z M226.77193,411.518248 C225.438596,412.974453 223.684211,413.667883 221.508772,413.667883 C219.333333,413.667883 217.578947,412.905109 216.245614,411.448905 C214.912281,409.992701 214.210526,408.189781 214.210526,405.970803 C214.210526,404.514599 214.561404,403.19708 215.192982,401.879562 C215.824561,400.631387 216.736842,399.660584 217.929825,398.967153 C219.122807,398.273723 220.315789,397.927007 221.719298,397.927007 C222.982456,397.927007 224.245614,398.273723 225.298246,398.967153 C226.421053,399.660584 227.263158,400.631387 227.894737,401.810219 C228.45614,402.989051 228.807018,404.375912 228.807018,405.90146 C228.807018,408.189781 228.105263,410.062044 226.77193,411.518248 Z M235.54386,388.357664 C234.982456,388.357664 234.421053,388.565693 234,388.981752 C233.578947,389.39781 233.368421,389.952555 233.368421,390.507299 C233.368421,391.062044 233.578947,391.616788 234,392.032847 C234.421053,392.448905 234.912281,392.656934 235.54386,392.656934 C236.105263,392.656934 236.666667,392.448905 237.087719,392.032847 C237.508772,391.616788 237.719298,391.131387 237.719298,390.507299 C237.719298,389.883212 237.508772,389.39781 237.087719,388.981752 C236.666667,388.565693 236.175439,388.357664 235.54386,388.357664 Z M234.210526,395.916058 L236.877193,395.916058 L236.877193,416.164234 L234.210526,416.164234 L234.210526,395.916058 Z M245.789474,395.846715 L245.789474,388.357664 L243.122807,388.357664 L243.122807,395.846715 L239.473684,395.846715 L239.473684,398.135036 L243.122807,398.135036 L243.122807,416.094891 L245.789474,416.094891 L245.789474,398.135036 L250,398.135036 L250,395.846715 L245.789474,395.846715 Z M204.385965,392.240876 C204.385965,392.240876 204.526316,389.813869 202.77193,389.813869 L200.315789,389.813869 L200.315789,386 L199.754386,386 L199.754386,389.813869 L197.368421,389.813869 C195.614035,389.813869 195.754386,392.240876 195.754386,392.240876 L204.385965,392.240876 Z M205.789474,396.40146 C205.719298,396.332117 205.719298,396.262774 205.719298,396.124088 L205.719298,395.985401 L202.77193,395.985401 C202.912281,396.193431 202.912281,396.540146 202.982456,396.748175 C203.052632,396.886861 203.052632,396.956204 203.052632,397.094891 C203.403509,398.412409 203.614035,399.175182 205.508772,402.226277 L205.719298,402.434307 C206.701754,403.682482 207.192982,405.138686 207.192982,406.664234 C207.192982,410.547445 203.964912,413.667883 199.964912,413.667883 C195.964912,413.667883 192.736842,410.616788 192.736842,406.733577 C192.736842,405.138686 193.298246,403.613139 194.350877,402.364964 C195.403509,401.116788 196.105263,399.452555 196.947368,397.718978 C197.22807,397.164234 197.438596,396.540146 197.789474,395.916058 L194.701754,395.916058 C194.561404,396.124088 194.491228,396.332117 194.350877,396.609489 C193.649123,398.135036 193.017544,399.591241 192.175439,400.562044 C190.701754,402.29562 189.929825,404.445255 189.929825,406.664234 C189.929825,412.00365 194.421053,416.441606 200.035088,416.441606 C205.649123,416.441606 210.140351,412.072993 210.140351,406.664234 C210.070175,404.445255 209.368421,402.364964 207.964912,400.631387 C206.210526,397.99635 206.070175,397.441606 205.789474,396.40146 Z M201.789474,410.270073 C201.789474,410.270073 200.877193,410.547445 201.087719,411.240876 C201.298246,412.00365 202.210526,411.79562 202.210526,411.79562 C204.947368,411.032847 206.631579,408.051095 205.929825,405.138686 C205.929825,405.138686 205.789474,404.445255 205.017544,404.583942 C204.45614,404.722628 204.526316,405.485401 204.526316,405.693431 C205.017544,407.843066 203.754386,409.715328 201.789474,410.270073 Z" id="logo-white" fill="#FFFFFF" fill-rule="nonzero"></path>
    </g>
</svg>