<?xml version="1.0" encoding="UTF-8"?>
<svg width="174px" height="32px" viewBox="0 0 174 32" version="1.1" xmlns="http://www.w3.org/2000/svg" xmlns:xlink="http://www.w3.org/1999/xlink">
    <!-- Generator: Sketch 48.2 (47327) - http://www.bohemiancoding.com/sketch -->
    <title>manulife</title>
    <desc>Created with Sketch.</desc>
    <defs></defs>
    <g id="Page-1" stroke="none" stroke-width="1" fill="none" fill-rule="evenodd">
        <g id="manulife" fill="#D4D4D4" fill-rule="nonzero">
            <path d="M174,25.9605659 C173.651501,27.2722328 172.71392,28.8261445 171.466452,30.0344142 C170.211461,31.2987343 168.497496,32.0071861 166.711223,31.999945 C162.4431,31.999945 159.425416,28.4460368 159.425416,23.3707132 C159.425416,18.2619086 162.478742,14.8448785 167.02705,14.8448785 C171.118943,14.8448785 173.791099,17.5706247 173.791099,21.7134044 L173.791099,22.093512 L163.208412,22.093512 C163.449985,25.7872526 165.600382,28.3406702 168.481439,28.3406702 C170.390263,28.3406702 172.15949,27.2367824 173.168355,25.4780458 L174,25.9605659 Z M169.244771,20.332806 L169.244771,20.0560955 C169.244771,17.8138542 168.169572,16.3633397 166.537963,16.3633397 C164.665771,16.3633397 163.381671,17.8827856 163.17376,20.332806 L169.244771,20.332806 Z M0,31.3441116 L31.5134169,31.3441116 L31.5134169,0 L0,0 L0,31.3441116 Z M12.426167,25.0546098 L7.71351025,29.6109782 L7.71351025,11.1147027 L12.426167,6.55833438 L12.426167,25.0546098 Z M20.1683888,25.046732 L15.4557321,29.6031003 L15.4557321,11.1048554 L20.1683888,6.5504565 L20.1683888,25.046732 Z M27.9502128,24.9915868 L23.237556,29.5479552 L23.237556,11.0497102 L27.9502128,6.49531134 L27.9502128,24.9915868 Z M74.3688918,8.11323077 L74.3688918,9.21908805 L73.674864,9.21908805 C71.0720122,9.21908805 70.3433325,10.0127844 70.3433325,12.8094315 L70.3433325,26.6508651 C70.3433325,29.4475122 71.0720122,30.2412085 73.674864,30.2412085 L74.3688918,30.2412085 L74.3688918,31.3460811 L61.5278922,31.3460811 L61.5278922,30.2412085 L62.2229101,30.2412085 C64.8247718,30.2412085 65.5534515,29.4475122 65.5534515,26.6508651 L65.5534515,11.6346427 L65.4851378,11.6346427 L56.183581,31.3450963 L55.1073924,31.3450963 L45.7731638,11.9802847 L45.7048501,11.9802847 L45.7048501,26.6498804 C45.7048501,29.4465275 46.4335298,30.2402238 49.0363816,30.2402238 L49.5234882,30.2402238 L49.5234882,31.3450963 L40.1872795,31.3450963 L40.1872795,30.2402238 L40.6743861,30.2402238 C43.2415959,30.2402238 43.9712657,29.4465275 43.9712657,26.6498804 L43.9712657,12.8094315 C43.9712657,10.0137691 43.2415959,9.21908805 40.6743861,9.21908805 L40.1526276,9.21908805 L40.1526276,8.11323077 L49.1749892,8.11323077 L57.2617498,24.9935563 L65.2772265,8.11323077 L74.3688918,8.11323077 Z M91.6532535,28.9630226 C91.2720828,29.5843903 90.5780549,30.3790714 89.8840271,30.9305229 C89.0504017,31.6208221 88.0435169,31.999945 87.073264,31.999945 C85.5109589,31.999945 84.4347702,30.9649887 84.4347702,29.4809932 L84.4347702,29.1008855 C83.5328311,29.9654827 82.1457655,30.8940878 80.8616656,31.5164402 C80.1676378,31.8630669 79.5429137,31.9989603 78.8835378,31.9989603 C76.4885973,31.9989603 74.9619341,30.2746895 74.9619341,27.6159053 C74.9619341,26.4775518 75.4470606,25.3382135 76.2103922,24.5779982 C77.2182671,23.6119732 78.5360289,22.9206893 81.034925,22.0580616 L84.1585452,21.0221205 L84.4347702,20.9187233 L84.4347702,18.7444287 C84.4347702,16.9147912 83.7753943,16.2235073 81.9725061,16.2235073 C80.4448529,16.2235073 79.5429137,16.8448751 79.5429137,17.9497476 C79.5429137,17.9851981 79.5429137,18.1565419 79.5775656,18.4342372 L79.5775656,18.6065658 C79.5775656,19.779385 78.8835378,20.5051346 77.7726973,20.5051346 C76.6965086,20.5051346 75.9678289,19.7803698 75.9678289,18.7109477 C75.9678289,16.4332559 78.6053326,14.8448785 82.3180349,14.8448785 C84.4704122,14.8448785 86.2396386,15.2939176 87.3514691,16.1565454 C88.1821244,16.8458598 88.5652753,17.6750066 88.5999272,19.0900706 L88.5999272,27.2722328 C88.5999272,28.4450521 88.6345791,28.5838997 88.7028928,28.8596255 C88.7395248,28.9974883 88.8088285,29.1353512 88.946446,29.2397331 C89.0504017,29.3431303 89.1899993,29.3785808 89.3642488,29.3785808 C89.8493752,29.3785808 90.4740993,28.9275722 91.0988233,28.1693263 L91.6532535,28.9630226 Z M84.227849,22.4736197 C81.1735326,23.5095608 81.3814439,23.4051789 80.3755491,24.0255619 C79.9118925,24.3144853 79.5199511,24.7039843 79.2290666,25.1649002 C79.0220012,25.5465448 78.9150767,25.9739771 78.9181897,26.4076356 C78.9181897,27.8581501 79.9240845,29.0319541 81.1378906,29.0319541 C82.0051779,29.0319541 83.531841,28.237273 84.4347702,27.3746452 L84.4347702,22.4037035 L84.227849,22.4736197 Z M98.4153219,17.2269522 C100.2192,15.6395595 102.093372,14.8458632 103.931902,14.8458632 C105.979334,14.8458632 107.750541,15.9162701 108.340613,17.5371437 C108.687132,18.4696876 108.791087,19.5735754 108.791087,21.8877024 L108.791087,27.7557377 C108.791087,29.723238 109.20691,30.2402238 110.734563,30.2402238 L111.04742,30.2402238 L111.04742,31.3450963 L102.475533,31.3450963 L102.475533,30.2402238 L102.649783,30.2402238 C104.210108,30.2402238 104.62791,29.723238 104.62791,27.7557377 L104.62791,22.1634282 C104.62791,19.7468888 104.523955,19.1599868 104.106152,18.5041533 C103.681075,17.915777 102.996056,17.5683198 102.267622,17.5716094 C100.983522,17.5716094 99.66477,18.0905647 98.4153219,19.0910553 L98.4153219,27.7557377 C98.4153219,29.723238 98.8331247,30.2402238 100.358798,30.2402238 L100.914218,30.2402238 L100.914218,31.3450963 L92.065116,31.3450963 L92.065116,30.2402238 L92.2740173,30.2402238 C93.7996905,30.2402238 94.2155131,29.723238 94.2155131,27.7557377 L94.2155131,20.6774633 C94.2155131,19.1944525 94.1462093,18.5386191 93.9392881,18.0216332 C93.6957348,17.502678 93.2452603,17.2269522 92.6551881,17.2269522 C92.4809386,17.2269522 92.3066891,17.2269522 92.0304641,17.2958836 L92.0304641,16.0521635 L96.9579625,14.8448785 L98.416312,14.8448785 L98.416312,17.2269522 L98.4153219,17.2269522 Z M127.498156,26.3071926 L127.532808,27.7557377 C127.56746,28.8940912 127.915959,29.3785808 128.749585,29.3785808 C128.956506,29.3785808 129.40698,29.2751836 129.790131,29.1708017 L129.790131,30.3436209 L124.687393,31.999945 L123.301318,31.999945 L123.301318,29.5843903 C121.530111,31.1373173 119.551984,31.999945 117.748105,31.999945 C115.528404,31.999945 113.652252,30.584881 113.201778,28.6173807 C112.960204,27.6159053 112.923572,27.1678509 112.923572,24.6823801 L112.923572,19.0900706 C112.923572,17.2958836 112.50775,16.6400502 111.258302,16.6400502 L111.258302,15.5361624 L117.123381,15.5361624 L117.123381,25.2682973 C117.123381,27.4790271 117.297631,28.1013796 117.991659,28.6872969 C118.409461,29.0674045 118.997553,29.2751836 119.656929,29.2751836 C120.455903,29.2751836 121.044985,29.1018702 122.05286,28.5504187 C122.712236,28.2057615 122.884505,28.1023643 123.302308,27.7557377 L123.302308,19.0910553 C123.302308,17.1580207 122.884505,16.6410349 121.358832,16.6410349 L120.630152,16.6410349 L120.630152,15.5371471 L127.500137,15.5371471 L127.500137,26.3071926 L127.498156,26.3071926 Z M136.351219,27.7547529 C136.351219,29.6543065 136.767041,30.239239 138.189749,30.239239 L138.293705,30.239239 L138.293705,31.3441116 L130.104968,31.3441116 L130.104968,30.239239 L130.205954,30.239239 C131.768259,30.239239 132.14943,29.7222532 132.14943,27.7547529 L132.14943,13.4307992 C132.14943,11.6356275 132.116758,11.0142598 131.942509,10.5327244 C131.768259,10.0137691 131.250461,9.66812716 130.658409,9.66812716 L130.345552,9.66812716 C130.31288,9.66812716 130.242586,9.66812716 130.13863,9.70259289 L129.929729,8.56423935 L134.928511,7.70161159 L136.352209,7.70161159 L136.352209,27.7547529 L136.351219,27.7547529 Z M138.920409,31.3450963 L138.920409,30.2402238 L139.473849,30.2402238 C141.001502,30.2402238 141.417325,29.723238 141.417325,27.7557377 L141.417325,20.5405851 C141.417325,19.0221239 141.350001,18.3662905 141.1411,17.8837704 C140.897546,17.3313341 140.445092,17.0546236 139.857,17.0546236 C139.580775,17.0546236 139.404545,17.0890893 139.12832,17.1934712 L138.852095,16.0541329 L144.159774,14.846848 L145.616144,14.846848 L145.616144,27.7567224 C145.616144,29.7242227 146.035926,30.2412085 147.5616,30.2412085 L147.908118,30.2412085 L147.908118,31.3460811 L138.920409,31.3460811 L138.920409,31.3450963 Z M143.639006,12.6705838 C142.975632,12.6734795 142.338587,12.4126519 141.869506,11.9460912 C141.400425,11.4795305 141.138188,10.8459079 141.1411,10.1860977 C141.1411,8.8054994 142.25095,7.70161159 143.639006,7.70161159 C145.027061,7.70161159 146.136912,8.8054994 146.136912,10.1860977 C146.130947,11.5557765 145.016083,12.6646509 143.639006,12.6705838 Z M148.741744,31.3450963 L148.741744,30.2402238 L149.433792,30.2402238 C150.963425,30.2402238 151.379248,29.723238 151.379248,27.7557377 L151.379248,17.5016932 L148.741744,17.5016932 L148.741744,15.5361624 L151.379248,15.5361624 L151.379248,15.0181918 C151.379248,10.772015 154.641475,7.70062685 159.117509,7.70062685 C161.373842,7.70062685 162.864863,8.7011175 162.864863,10.2540444 C162.864863,11.392398 162.06589,12.1860943 160.817432,12.1860943 C160.160036,12.1860943 159.569964,11.8059866 159.015534,10.9778246 L158.667035,10.4953045 C158.249232,9.8384863 157.868061,9.59722625 157.278979,9.59722625 C156.480005,9.59722625 155.890923,10.1496625 155.716674,11.013275 C155.579056,11.5312456 155.544404,12.0482314 155.544404,13.2210507 L155.544404,15.5361624 L158.632383,15.5361624 L158.632383,17.5016932 L155.544404,17.5016932 L155.544404,27.7547529 C155.544404,29.7222532 155.958247,30.239239 157.522532,30.239239 L158.632383,30.239239 L158.632383,31.3441116 L148.741744,31.3441116 L148.741744,31.3450963 Z" id="Shape"></path>
        </g>
    </g>
</svg>