<?xml version="1.0" encoding="UTF-8"?>
<svg width="800px" height="158px" viewBox="0 0 800 158" version="1.1" xmlns="http://www.w3.org/2000/svg" xmlns:xlink="http://www.w3.org/1999/xlink">
    <!-- Generator: Sketch 48.2 (47327) - http://www.bohemiancoding.com/sketch -->
    <title>maybank</title>
    <desc>Created with Sketch.</desc>
    <defs></defs>
    <g id="Page-1" stroke="none" stroke-width="1" fill="none" fill-rule="evenodd">
        <g id="maybank" fill="#D4D4D4">
            <path d="M509.341935,70.864339 C506.391991,70.864339 503.262291,71.5347232 501.241379,72.312226 L501.241379,109.818034 C502.800445,110.317921 505.761068,110.695514 508.72614,110.695514 C519.315684,110.695514 525.548387,103.304328 525.548387,90.2778079 C525.548387,77.9100678 519.617353,70.864339 509.341935,70.864339 Z M507.018465,127.383706 C494.551279,127.383706 482.557508,125.047627 475.533704,122.34913 L475.533704,23.6312655 L501.241379,23.6312655 L501.241379,56.8166215 C504.519689,55.6356384 510.132147,54.7367345 514.487208,54.7367345 C536.307008,54.7367345 551.261402,66.9437966 551.261402,88.4317966 C551.261402,114.794588 535.531924,127.384599 507.018465,127.384599 L507.018465,127.383706 Z M602.665184,93.5279661 C588.824027,94.0974802 578.373304,95.3739774 578.373304,103.723876 C578.373304,109.427944 584.139711,112.562949 593.317909,112.562949 C596.913904,112.562949 600.967297,112.046102 602.665184,111.488192 L602.665184,93.5279661 Z M594.091212,127.381921 C567.625362,127.381921 554.527253,119.223944 554.527253,104.217514 C554.527253,85.5976158 577.290323,81.2762712 602.664294,80.1488475 L602.664294,77.4083955 C602.664294,71.8150169 598.012013,69.180791 589.268966,69.180791 C581.16307,69.180791 571.507898,71.4320678 565.45584,73.4860678 L559.2,59.1607345 C566.674972,56.7023616 577.073192,53.5941356 592.425362,53.5941356 C615.316574,53.5941356 626.849388,61.3477401 626.849388,79.9783503 L626.849388,122.352701 C620.456507,125.045842 607.512347,127.381921 594.091212,127.381921 Z M683.85495,125.817989 L683.85495,80.2550734 C683.85495,74.3805085 680.560623,70.522452 671.377976,70.522452 C666.581535,70.522452 662.343938,72.3157966 662.343938,72.3157966 L662.343938,125.817989 L636.641602,125.817989 L636.641602,59.1607345 C646.014683,56.1435593 657.070523,53.5950282 671.696552,53.5950282 C698.03515,53.5950282 709.562625,62.513548 709.562625,77.8074124 L709.562625,125.817989 L683.85495,125.817989 Z M770.961513,125.817989 L745.248498,90.7866215 L744.929922,90.7866215 L744.929922,125.817989 L719.546162,125.817989 L719.546162,23.6294802 L744.929922,23.6294802 L744.929922,85.7475819 L745.248498,85.7475819 L768.462736,55.6383164 L797.443382,55.6383164 L771.27386,88.3228927 L799.63426,125.817989 L770.961513,125.817989 Z M427.167964,153.872362 L400.213571,153.872362 L412.823137,125.817989 L381.195106,55.6383164 L409.16218,55.6383164 L426.228254,105.489548 L443.119021,55.6383164 L471.107453,55.6383164 L427.167964,153.872362 Z M293.419355,31.5696497 L263.48921,31.5696497 L243.728587,89.7975593 L223.941268,31.5696497 L194.011123,31.5696497 L180.467186,125.819774 L204.923693,125.819774 L212.710122,61.0460226 L235.628031,125.819774 L251.818465,125.819774 L274.736374,61.0460226 L282.534372,125.819774 L306.989989,125.819774 L293.419355,31.5696497 Z M358.384872,93.5279661 C344.51168,94.0974802 334.071635,95.3739774 334.071635,103.723876 C334.071635,109.427944 339.843382,112.562949 349.037597,112.562949 C352.607786,112.562949 356.649611,112.046102 358.384872,111.488192 L358.384872,93.5279661 Z M349.81713,127.382814 C323.313904,127.382814 310.242492,119.224836 310.242492,104.218407 C310.242492,85.5985085 332.989544,81.2771638 358.384872,80.1497401 L358.384872,77.4092881 C358.384872,71.8159096 353.711235,69.1816836 344.984205,69.1816836 C336.87297,69.1816836 327.213348,71.4329605 321.144383,73.4869605 L314.900111,59.1616271 C322.384872,56.7032542 335.006007,53.5950282 348.103226,53.5950282 C371.015795,53.5950282 382.532592,61.3486328 382.532592,79.9792429 L382.532592,122.353593 C376.161068,125.046734 363.206229,127.382814 349.81713,127.382814 Z" id="Shape" fill-rule="nonzero"></path>
            <path d="M78.6171301,0.138361582 C121.851835,0.138361582 156.886318,35.2652429 156.886318,78.6357966 C156.886318,122.010814 121.852725,157.153763 78.6171301,157.153763 C35.3868743,157.153763 0.34349277,122.010814 0.34349277,78.6357966 C0.34349277,35.2652429 35.3868743,0.138361582 78.6171301,0.138361582 Z M78.6171301,150.848045 C118.393771,150.848045 150.605562,118.515175 150.605562,78.6357966 C150.605562,38.7671299 118.393771,6.36463277 78.6171301,6.36463277 C38.8671858,6.36463277 6.64026696,38.7671299 6.64026696,78.6357966 C6.64026696,118.515175 38.8671858,150.848045 78.6171301,150.848045 Z M47.3948832,75.0428588 C41.7922136,73.6012203 36.8640712,80.1783051 34.1268076,85.1432542 C35.0816463,78.3474689 43.4046719,67.2205198 47.3948832,75.0428588 Z M35.0798665,75.1205198 C36.9575083,68.6710847 41.4086763,66.3028701 43.7908788,68.2077966 C40.5543938,69.2138192 38.2095662,71.1357062 35.0798665,75.1205198 Z M49.3784205,85.480678 C47.3948832,79.5739774 39.1457175,86.3376271 36.2803115,90.0091186 C37.054505,83.4052542 44.1904338,77.4075028 47.4954394,78.2483842 C51.9670745,79.4356158 52.2642937,83.0437288 49.3784205,85.480678 Z M94.3092325,102.676791 C94.8235818,94.1787119 86.5904338,90.2090734 85.0100111,81.5030056 C83.4660734,72.786226 97.8580645,58.8599096 88.770634,44.5979548 C105.938154,58.4876723 92.4903226,66.725096 101.157731,78.2671299 C97.7939933,77.2459322 94.4738598,74.26 93.4656285,72.6907119 C88.6433815,79.0598079 105.295662,87.819435 94.3092325,102.676791 Z M66.6758621,34.1467458 C68.7021135,34.1628136 72.203782,35.5999887 70.7764182,37.233548 C66.0182425,41.6771864 59.5835373,39.8463503 54.480089,44.3640791 C56.5757508,38.7715932 65.8963293,37.9726667 66.6758621,34.1467458 Z M82.116129,40.4417514 C80.4716352,42.3734576 72.8124583,44.8800339 70.5254727,47.5669266 C78.959733,47.3705424 69.2040044,51.798113 66.3448276,61.9725989 C65.0714127,66.4742599 55.003337,65.0692203 53.4914349,62.754565 C56.0213571,63.2598079 63.9314794,61.5360904 67.0238042,50.8456497 C67.1243604,50.5787458 66.8591769,50.4885876 66.6740823,50.7331751 C62.7746385,54.9750734 59.8780868,55.7463277 58.2389321,54.6599661 C56.4823137,56.0766102 55.6876529,57.1245876 54.1063404,60.0248249 C51.2258065,57.4593333 52.5205784,55.1714576 55.2738598,52.5586554 C55.6502781,52.1971299 55.2097887,51.7338418 54.7167964,51.5160339 C52.2020022,50.4198531 51.6823137,46.8911864 54.2656285,45.5664859 C53.5439377,47.8070508 56.0213571,49.1531751 58.1650723,47.2054011 C60.392436,45.1942486 63.9733037,48.109661 68.4458287,46.3600565 C68.9174638,39.1697175 82.6260289,38.2493898 74.1010011,34.1038983 C82.2807564,35.1099209 84.1058954,38.1851186 82.116129,40.4417514 Z M60.8115684,52.9157175 C61.9577308,52.9371412 62.9543938,50.1591977 65.214683,48.982678 C63.0558398,49.1103277 61.8945495,49.0094576 61.1621802,48.9933898 C62.3288098,51.9944972 60.2758621,52.984452 59.4589544,50.9090282 C59.6235818,52.0480565 60.1913237,52.9157175 60.8115684,52.9157175 Z M86.3724138,34.9679887 L86.3724138,34.9688814 C85.6249166,32.7970508 87.8843159,26.7885876 89.4496107,27.6401808 C93.0936596,29.6147345 95.5452725,38.2038644 95.0407119,42.5466328 C92.378198,39.3634237 90.4525028,37.6236384 86.3724138,34.9679887 Z M21.2057842,69.836 C23.8380423,62.8643616 30.2460512,54.5689153 40.6433815,48.4060226 C43.0416018,42.1806441 42.2513904,37.9762373 67.4331479,28.1695254 C68.0703003,24.4542938 67.9581758,19.957096 69.0091212,19.957096 C70.0912125,19.957096 73.8055617,21.6495706 76.4627364,25.4603164 C77.5661846,25.3746215 78.5361513,25.2639322 79.2106785,25.124678 C79.6662959,22.959096 81.1728587,16.9934802 83.1466073,13.9075706 C84.9503893,11.0707119 88.4520578,10.767209 92.9770857,14.5190395 C97.6614016,18.3449605 100.965517,19.931209 107.390434,28.1686328 C112.822247,30.6118305 121.315239,33.7459435 128.667408,42.8028249 C125.469188,40.6586667 121.856285,39.870452 118.880534,39.551774 C124.880089,44.8139774 128.832925,53.5254011 125.835818,66.2493107 C124.646941,54.3555706 115.931479,49.3593785 110.604672,45.6021921 C113.490545,55.6222486 100.965517,52.1417853 97.1408231,44.6015254 C98.4044494,45.0058983 99.7143493,44.952339 100.504561,44.4587006 C100.06941,29.1157401 92.8969967,20.2980904 89.6978865,17.670113 C85.5759733,14.2369605 83.3850945,22.4699209 81.9906563,28.621209 C81.5546162,30.680565 79.7944383,32.154339 77.5661846,32.0909605 C78.0645161,31.3455932 78.6162403,29.3558644 78.7007786,28.7060113 C72.3773081,29.2433898 65.2369299,32.9845085 60.8551724,34.9635254 C49.7201335,40.0141695 46.9303671,42.5368136 44.4689655,51.0036497 C35.6467186,54.7652994 25.4665184,64.9558531 21.2057842,69.836 Z M76.7572859,67.6847006 C77.9986652,69.1102712 85.3357063,80.2327571 76.8320356,94.3768814 C79.1546162,83.9738757 72.6887653,64.039096 65.5537264,74.2457175 C70.3964405,76.337209 71.9777531,80.3014915 70.6776418,84.164904 C68.6994438,80.4344972 63.665406,76.4166554 58.6731924,78.0716384 C56.1850945,78.9660791 52.880089,78.9875028 50.4133482,75.2776271 C47.1982202,70.600113 52.5935484,64.7362599 43.4055617,65.204904 C54.5192436,59.5588588 51.2987764,70.5260226 56.6567297,71.8730395 C62.8903226,73.3307458 63.6226919,69.5048249 65.7708565,67.0250282 C67.4954394,64.912113 70.6776418,63.3312203 74.0253615,65.5771412 C75.621802,60.7077062 73.2929922,52.9710621 77.8447164,48.899661 C79.5265851,47.3883955 84.8747497,47.6008475 87.6431591,49.7780339 C83.7072303,49.7298305 79.0754171,54.4448362 76.7572859,67.6847006 Z M133.60356,48.2364181 L133.604449,48.2364181 C153.519021,84.369322 134.527253,130.607085 92.0026696,140.415582 C97.0794216,133.774226 101.158621,124.454904 100.65495,121.268124 C95.1279199,125.285966 84.283871,127.131977 81.8064516,125.775141 C91.912792,116.601322 90.3848721,106.905299 84.4493882,106.159932 C78.5334816,105.410102 71.6476085,114.509831 72.2046719,126.967729 C67.2124583,124.748588 51.1181313,127.845209 49.6373749,115.041853 C47.7971079,112.242486 46.996218,107.458746 47.5790879,105.537751 C62.0716352,113.876938 55.8923248,95.1293898 64.6344828,93.3619322 C63.6849833,90.7232429 56.3746385,84.7094237 46.5397108,94.6018305 C46.0832036,96.2095028 46.1953281,102.637514 46.9695217,104.931638 C42.4444939,104.244294 38.8903226,99.9711525 38.072525,98.8169492 C33.2662959,98.3643729 28.6140156,97.0128927 24.0783092,84.8424294 C20.2963293,82.3787006 18.3546162,79.898904 16.9592881,77.1370282 C17.01802,76.4987797 17.5537264,73.4548249 20.3968854,70.8634463 C20.3968854,70.8634463 19.3833148,73.5289153 19.9830923,74.6572316 C27.6698554,68.468452 28.6460512,74.418 32.5926585,73.5985424 C32.6674082,78.2867684 27.8558398,81.4744407 28.2215795,85.9868136 C31.0389321,93.4262034 32.9325918,94.2135254 38.4765295,95.0490508 C45.1176863,91.7658644 50.6082314,84.1613333 58.7354839,84.0122599 C65.3187987,83.9595932 73.5946607,87.1624407 74.9472747,96.2889492 C75.8807564,102.860678 61.9559511,112.189819 56.4814238,110.326847 C47.4945495,120.076429 62.523693,123.289989 67.520356,121.805503 C71.1012236,105.261921 79.9234705,100.540667 86.8467186,102.914237 C94.5548387,105.516328 95.578198,115.318576 90.3101224,120.837864 C94.5548387,119.820237 100.72436,116.495096 102.825362,108.554927 C104.495662,110.316136 105.026029,114.56339 105.147942,116.04252 C109.583092,109.528814 108.135261,95.3846893 104.58109,89.9457401 C107.476752,90.2063955 110.156174,91.3293559 113.047386,93.7663051 C115.031813,83.3258079 108.320356,70.2671525 105.296552,68.0426554 C107.313014,67.8560904 110.156174,68.0426554 114.070745,69.9047345 C113.047386,63.6472203 107.476752,59.6293785 107.476752,54.8456384 C109.721023,59.2883842 121.662291,60.5131073 120.993993,76.8710169 C119.609344,75.5829153 116.601557,74.2582147 115.12703,74.0448701 C119.354839,84.6665763 119.068298,95.1293898 116.850723,102.542 C115.933259,101.020023 114.480089,99.2695254 113.047386,98.6785876 C114.480089,104.547797 112.65406,120.640588 108.649611,127.131977 C135.498109,108.554927 116.993993,80.2657853 128.834705,68.7398192 C126.319911,80.9415254 132.574861,91.3873785 131.842492,98.5286215 C137.683648,87.1151299 139.26941,68.0426554 133.60356,48.2364181 Z M51.3833148,112.615616 L51.3824249,112.615616 C52.719911,112.056814 53.9185762,110.013525 53.9185762,110.013525 C53.9185762,110.013525 51.3833148,109.40652 49.5154616,108.198757 C49.3775306,110.258113 50.8476085,112.178215 51.3833148,112.615616 Z M62.5548387,100.359458 L62.5548387,100.36035 C61.9559511,102.291164 62.1098999,104.238938 61.1648498,105.111955 C66.6927697,102.450949 68.9850945,101.29139 69.4407119,97.592226 C69.6373749,96.2086102 65.7699666,95.8211977 64.7991101,95.9854463 C65.5733037,96.9807571 66.5975528,99.9452655 65.6160178,100.679028 C64.6131257,101.41904 63.6636263,100.524599 62.5548387,100.359458 Z M40.4280311,97.3744181 C40.465406,99.5034011 44.7572859,102.227785 44.7572859,102.227785 C44.7572859,102.227785 43.5897664,97.8644859 43.9670745,94.6661017 C43.0220245,94.7616158 40.8996663,96.2309266 40.4280311,97.3744181 Z M26.3172414,83.1928023 L26.3172414,83.1936949 C27.9617353,82.1448249 27.4100111,80.792452 27.170634,80.2657853 C26.7523915,79.4463277 24.7412681,78.8714576 25.3730812,77.0575819 C25.781535,75.8649944 27.1715239,75.8649944 27.3939933,75.2954802 C27.6226919,74.8223729 26.5984427,73.9547119 25.0384872,74.3644407 C22.879644,74.9875141 21.1870968,76.8067458 20.7893215,77.259322 C21.1239155,78.4617288 24.2963293,81.7770508 26.3172414,83.1928023 Z" id="Combined-Shape"></path>
        </g>
    </g>
</svg>