<?xml version="1.0" encoding="UTF-8"?>
<svg width="20px" height="20px" viewBox="0 0 20 20" version="1.1" xmlns="http://www.w3.org/2000/svg" xmlns:xlink="http://www.w3.org/1999/xlink">
    <!-- Generator: Sketch 48.2 (47327) - http://www.bohemiancoding.com/sketch -->
    <title>media-icon</title>
    <desc>Created with Sketch.</desc>
    <defs></defs>
    <g id="Home" stroke="none" stroke-width="1" fill="none" fill-rule="evenodd" transform="translate(-170.000000, -1218.000000)">
        <path d="M171,1219 L171,1237 L189,1237 L189,1219 L171,1219 Z M171,1218 L189,1218 C189.552285,1218 190,1218.44772 190,1219 L190,1237 C190,1237.55228 189.552285,1238 189,1238 L171,1238 C170.447715,1238 170,1237.55228 170,1237 L170,1219 C170,1218.44772 170.447715,1218 171,1218 Z M177,1232.60154 L177,1224.3594 L183.576498,1228.30129 L177,1232.60154 Z M176,1223.47676 L176,1233.52588 C176,1233.80203 176.223858,1234.02588 176.5,1234.02588 C176.597196,1234.02588 176.692286,1233.99755 176.773635,1233.94436 L184.791941,1228.70134 C185.02306,1228.55022 185.087909,1228.24035 184.936784,1228.00923 C184.895406,1227.94595 184.840214,1227.89287 184.775362,1227.854 L176.757056,1223.0479 C176.520202,1222.90593 176.213106,1222.98286 176.071138,1223.21971 C176.024588,1223.29737 176,1223.38622 176,1223.47676 Z" id="media-icon" fill="#AEB1B5" fill-rule="nonzero"></path>
    </g>
</svg>