<?xml version="1.0" encoding="UTF-8"?>
<svg width="83px" height="58px" viewBox="0 0 83 58" version="1.1" xmlns="http://www.w3.org/2000/svg" xmlns:xlink="http://www.w3.org/1999/xlink">
    <!-- Generator: Sketch 48.2 (47327) - http://www.bohemiancoding.com/sketch -->
    <title>miaozhen</title>
    <desc>Created with Sketch.</desc>
    <defs></defs>
    <g id="Integration-Overview" stroke="none" stroke-width="1" fill="none" fill-rule="evenodd" transform="translate(-538.000000, -1385.000000)">
        <g id="miaozhen" transform="translate(451.000000, 1344.000000)" fill="#FFFFFF">
            <path d="M102.817474,46.946733 C103.502089,46.9521274 104.042404,46.4170034 104.041319,45.7351519 C104.041319,45.0705625 103.509684,44.5343597 102.840258,44.5257286 C102.166492,44.5170976 101.617497,45.0630103 101.617497,45.7405463 C101.618582,46.4083724 102.149132,46.9424175 102.817474,46.946733 L102.817474,46.946733 Z M167.763751,48.4808988 C166.530141,48.4657945 165.501589,49.4691519 165.493995,50.6990739 C165.485315,51.9527313 166.485657,52.9604042 167.742052,52.9647197 C168.969152,52.9690352 169.986854,51.9764666 169.999873,50.7638067 C170.012893,49.5090705 169.021231,48.497082 167.763751,48.4808988 L167.763751,48.4808988 Z M168.918159,52.0552247 C168.659936,51.6722227 168.401713,51.2881418 168.140235,50.9008243 C168.399543,50.7929364 168.625217,50.6127636 168.652341,50.2653646 C168.68272,49.8618639 168.460301,49.5479101 168.055608,49.5090705 C167.720352,49.4767041 167.379672,49.5025972 167.020547,49.5025972 L167.020547,52.1339829 L167.350378,52.1339829 L167.350378,51.0540251 C167.672614,50.9731092 167.890692,51.0756027 168.044758,51.3248237 C168.16736,51.5222586 168.278027,51.7272456 168.412563,51.9171282 C168.492851,52.0325683 168.606772,52.124273 168.70659,52.2267665 C167.985085,52.7586538 166.878416,52.5752444 166.299042,51.7995304 C165.695799,50.992529 165.868309,49.8564695 166.682036,49.2706382 C167.503358,48.6804914 168.634982,48.8649797 169.21978,49.6838488 C169.762265,50.4423007 169.621219,51.5600193 168.918159,52.0552247 L168.918159,52.0552247 Z M167.377502,50.7174149 L167.377502,49.7971311 C167.676953,49.8089988 168.013294,49.6806122 168.206419,49.9913293 C168.280197,50.1110849 168.274772,50.3452016 168.207504,50.475746 C168.034993,50.8004885 167.699738,50.7206515 167.377502,50.7174149 L167.377502,50.7174149 Z M101.616412,66.5100448 C101.617497,67.1357946 102.138283,67.6676819 102.780585,67.7000483 C103.413122,67.7302569 103.987071,67.2328937 104.033725,66.606065 C104.046744,66.4431543 104.039149,66.2770069 104.039149,66.1119385 C104.042404,60.6582054 104.045659,55.2055513 104.047829,49.7518182 C104.048914,49.1282262 103.598652,48.6146798 102.981304,48.5283695 C102.393251,48.4452958 101.803027,48.8369289 101.657641,49.4270757 C101.614242,49.6029329 101.616412,49.7917367 101.616412,49.9751462 C101.614242,52.6874478 101.614242,55.3997495 101.614242,58.1120511 L101.616412,58.1120511 L101.616412,66.5100448 Z M153.123172,81.0112566 C152.767302,80.3563771 152.435301,79.6863933 152.141274,79.0034629 C151.894986,78.4348937 151.803849,77.8220905 151.972019,77.2103661 C152.296425,76.017126 153.019015,75.1335242 154.134364,74.5746649 C154.238521,74.5228787 154.340508,74.4624615 154.427305,74.3880188 C154.882992,74.0007013 154.986065,73.3695571 154.684443,72.8603262 C154.370887,72.3316756 153.73401,72.1115842 153.136192,72.372673 C151.710542,72.9951861 150.619062,73.9834392 149.944211,75.3881396 C149.259595,76.8133387 149.383282,78.2665886 149.855244,79.7198385 C150.256682,80.9529972 150.929363,82.0577692 151.518502,83.2035386 C151.892816,83.9339397 152.230242,84.6859183 152.529694,85.4497646 C152.722818,85.9428123 152.762962,86.4746996 152.492805,86.9731416 C152.008908,87.8653745 151.327547,88.574198 150.430277,89.0542991 C149.722877,89.4308279 149.428851,90.16015 149.772786,90.8010041 C150.121061,91.4483315 150.892474,91.6371353 151.586855,91.2098992 C152.486295,90.6575132 153.313042,90.0123436 153.983553,89.189159 C154.681188,88.3346869 155.096731,87.3744846 155.085882,86.2578449 C155.110836,86.2524505 155.13579,86.2470561 155.15966,86.2416617 C155.024039,85.6094387 154.926391,84.9685846 154.744116,84.3493081 C154.391501,83.1517524 153.71665,82.0998455 153.123172,81.0112566 L153.123172,81.0112566 Z M114.071863,81.0425441 C113.684529,80.3196952 113.28309,79.5892942 113.012933,78.8189746 C112.468278,77.2653889 113.428476,75.2532797 114.940923,74.6264511 C115.652663,74.3297593 115.962965,73.6543811 115.685213,73.0038171 C115.41397,72.3672786 114.703315,72.0835334 114.025209,72.3888561 C112.56918,73.040499 111.460341,74.0632762 110.808274,75.5294727 C110.190927,76.9201477 110.329803,78.3248481 110.78549,79.7263118 C111.181504,80.9400506 111.837911,82.0297183 112.421624,83.156068 C112.806788,83.9015733 113.149639,84.6718929 113.45994,85.4530012 C113.749627,86.18556 113.591221,86.8760425 113.10407,87.4974768 C112.58437,88.1620662 112.000656,88.743582 111.230328,89.1255051 C110.716052,89.3811994 110.456744,89.9918449 110.594535,90.5302055 C110.729072,91.0620928 111.218393,91.4397005 111.799937,91.5055121 C112.072264,91.3889931 112.373885,91.3134716 112.609324,91.1462454 C113.181103,90.7449024 113.753967,90.3360073 114.269327,89.8677738 C115.95537,88.3368446 116.406717,86.4790151 115.677618,84.3255727 C115.281604,83.1614624 114.647982,82.1181864 114.071863,81.0425441 L114.071863,81.0425441 Z M121.880389,78.3938963 C122.494481,78.3938963 123.110744,78.414395 123.720497,78.3582933 C124.408368,78.2946395 124.831506,77.7454901 124.790277,77.0701119 C124.752303,76.4411254 124.222838,75.9664187 123.551242,75.9631821 C122.946914,75.9599454 122.342586,75.9664187 121.738258,75.9621032 C121.193603,75.9577877 120.95491,75.7236709 120.9484,75.179916 C120.940805,74.6469498 120.95057,74.1139836 120.94406,73.5810174 C120.94189,73.4278166 120.932125,73.2681425 120.887642,73.1224938 C120.712961,72.5463725 120.163967,72.2140777 119.547704,72.2960725 C118.98352,72.3694363 118.543022,72.8419853 118.525663,73.4288954 C118.507218,74.0093323 118.521323,74.5919269 118.516983,75.1734427 C118.513728,75.6503072 118.216446,75.9491566 117.73689,75.9674976 C117.649007,75.9707342 117.561125,75.9610243 117.474327,75.9631821 C116.836365,75.9750497 116.325345,76.4659396 116.291711,77.0981627 C116.254822,77.8166961 116.791881,78.3690821 117.56004,78.4025273 C118.345558,78.4359726 118.509388,78.6031988 118.518068,79.3843072 C118.546277,82.1268174 118.570147,84.8693277 118.607036,87.611838 C118.613545,88.1534352 118.63416,88.699348 118.715532,89.233393 C118.910827,90.5075491 119.687665,91.2411867 120.972269,91.3598634 C121.969356,91.4504892 122.934979,91.239029 123.860458,90.8851567 C124.478891,90.6478033 124.747963,90.009107 124.554839,89.4038559 C124.361714,88.7975259 123.761726,88.4695467 123.0923,88.5946967 C122.776574,88.654035 122.459762,88.7122945 122.140781,88.734951 C121.186008,88.7986048 120.9484,88.574198 120.94623,87.6291 C120.945145,86.2718703 120.94623,84.9146406 120.94623,83.5574109 C120.94623,82.1430006 120.942975,80.7275115 120.947315,79.3131012 C120.949485,78.628013 121.201198,78.3928174 121.880389,78.3938963 L121.880389,78.3938963 Z M132.375299,64.9154617 C131.558317,65.1377108 130.72723,65.2099957 129.885294,65.1387897 C129.606457,65.1161332 129.326535,65.0535582 129.058547,64.9704845 C128.585501,64.823757 128.450964,64.5410907 128.59852,64.075015 C128.62022,64.0016513 128.649514,63.9293664 128.675553,63.8560026 C130.233569,59.6030618 131.79267,55.350121 133.340922,51.0939436 C133.445079,50.8069618 133.508007,50.493008 133.524282,50.1887642 C133.566596,49.3806839 133.131523,48.8833207 132.324306,48.7948526 C132.045468,48.7635651 131.759036,48.7603285 131.480199,48.7862216 C130.957244,48.8347711 130.436459,48.9146082 129.915673,48.9825775 C129.015148,49.0990965 128.128728,48.9890508 127.240138,48.8552698 C126.553353,48.7506186 125.955534,49.2059055 125.853547,49.8823626 C125.759155,50.5156645 126.202907,51.117679 126.857144,51.2374345 C127.039419,51.2708798 127.223864,51.3054039 127.407224,51.3054039 C128.301238,51.3064828 129.195253,51.3054039 130.090353,51.2849052 C130.535191,51.2751953 130.73157,51.5039176 130.590524,51.919286 C130.57425,51.9656778 130.555805,52.0099118 130.539531,52.0552247 C129.548953,54.6100101 128.562716,57.1658743 127.566714,59.717423 C126.940687,61.3227948 126.330934,62.93464 125.658253,64.520592 C125.122278,65.7828804 125.379415,66.5402534 126.661849,67.0678252 C127.811917,67.5414531 129.023828,67.6957327 130.096863,67.7140737 C131.26212,67.7108371 132.241848,67.5889237 133.174922,67.2070006 C133.829158,66.9405175 134.13946,66.3018212 133.928976,65.6760714 C133.713067,65.0341384 133.076189,64.7245001 132.375299,64.9154617 L132.375299,64.9154617 Z M147.469396,65.7569873 C148.109528,66.7355305 148.993778,67.3397027 150.172055,67.497219 C151.071494,67.6180535 151.9373,67.4400384 152.803106,67.2458402 C153.492062,67.0904817 153.89567,66.4420754 153.73184,65.7666972 C153.574519,65.118291 152.898583,64.7288157 152.231327,64.9003574 C152.005653,64.957538 151.778895,65.0147186 151.551051,65.0675836 C150.493206,65.3146469 149.592681,64.9025152 149.132654,63.923972 C148.973163,63.585204 148.849477,63.219464 148.774614,62.8537241 C148.414404,61.0746527 148.512051,59.2880292 148.701921,57.4992479 C148.72796,57.2521846 148.815843,57.1820575 149.064301,57.1852941 C150.048368,57.1993195 151.033521,57.2111872 152.017588,57.1820575 C152.851929,57.1583221 153.656977,56.7505059 153.659147,55.6371028 C153.661317,54.4654403 153.633108,53.2926989 153.582114,52.1221152 C153.549565,51.3539534 153.390074,50.6041326 153.039629,49.9082557 C152.705459,49.2469029 152.210712,48.7657229 151.474018,48.568288 C150.220878,48.2327567 149.240066,48.6610716 148.454548,49.6331415 C147.912063,50.306362 147.539919,51.0712872 147.245892,51.8761308 C146.389851,54.218377 146.128373,56.6566434 146.0687,59.6980032 C146.131628,60.3194374 146.217341,61.508362 146.381171,62.6854189 C146.533067,63.7750867 146.857473,64.8215992 147.469396,65.7569873 L147.469396,65.7569873 Z M150.108041,51.5265741 C150.298996,51.1338621 150.653781,51.0756027 150.929363,51.4251594 C151.120318,51.6668283 151.284148,51.9786243 151.323207,52.2763949 C151.41543,52.9819818 151.432789,53.6983574 151.467508,54.4104175 C151.481613,54.6855316 151.275469,54.7847885 151.045455,54.7901829 C150.435702,54.8031294 149.823779,54.7944984 149.160863,54.7944984 C149.395217,53.6400979 149.611125,52.542878 150.108041,51.5265741 L150.108041,51.5265741 Z M131.493219,88.6410885 C131.208957,88.7058212 130.926865,88.7835005 130.642603,88.8439177 C129.704104,89.0456681 128.825279,88.6788493 128.404311,87.8232983 C128.163447,87.335645 127.992022,86.7951266 127.898715,86.2589238 C127.607943,84.5834248 127.70776,82.9003736 127.892205,81.2194803 C127.914989,81.0155721 127.997447,80.9519183 128.207931,80.954076 C129.172469,80.9670226 130.139177,80.9907579 131.101545,80.9508394 C132.260292,80.901211 132.8733,80.3736392 132.858111,79.2052133 C132.853771,78.7110867 132.857026,78.2169602 132.857026,77.7228336 L132.847261,77.7228336 C132.847261,77.5286354 132.853771,77.3344372 132.846176,77.1413179 C132.804947,76.0462557 132.771313,74.9501147 132.341665,73.9165487 C132.00207,73.103074 131.45633,72.5053751 130.56123,72.3003881 C129.448051,72.0457726 128.526912,72.3769885 127.782623,73.2260662 C127.083903,74.0212 126.636895,74.9576669 126.320084,75.9491566 C125.219925,79.4004904 125.008356,82.9197935 125.569285,86.4876461 C125.730946,87.5255277 126.034737,88.5267273 126.600006,89.429749 C127.16419,90.3327707 127.941029,90.9595993 128.998874,91.1926372 C130.078419,91.4310694 131.136264,91.2401079 132.17024,90.944495 C132.784333,90.7686378 133.091379,90.0652087 132.898254,89.4556421 C132.712725,88.8687319 132.091037,88.5062286 131.493219,88.6410885 L131.493219,88.6410885 Z M129.241907,75.3827452 C129.479515,74.8594889 129.961242,74.8130971 130.227059,75.3266435 C130.434289,75.7279865 130.54604,76.1972988 130.613309,76.6482702 C130.684917,77.1229769 130.652367,77.6138668 130.664302,78.0993624 C130.669727,78.3658455 130.540616,78.5330717 130.269373,78.5373872 C129.637921,78.548176 129.006469,78.5406239 128.351147,78.5406239 C128.564886,77.4358518 128.79056,76.3774716 129.241907,75.3827452 L129.241907,75.3827452 Z M113.165913,67.6536565 C113.732267,67.5144811 114.101157,67.0117235 114.096817,66.3697905 C114.074033,62.5613479 114.057758,58.7529052 114.016529,54.9455414 C114.00351,53.6724643 113.862464,52.4101759 113.327574,51.2288035 C112.964109,50.4271964 112.441154,49.7453449 111.612237,49.3990248 C110.001057,48.7258043 108.440871,48.8121147 106.988097,49.8543117 C106.677795,50.0765608 106.50203,50.3829624 106.484671,50.7638067 C106.460801,51.2525388 106.664776,51.634462 107.087914,51.8793675 C107.544686,52.1447717 108.000373,52.0919066 108.437616,51.8081615 C109.490036,51.1230733 110.839739,51.5783603 111.189099,52.7737581 C111.352929,53.3369329 111.426707,53.9303163 111.498315,54.5139899 C111.556903,54.9897755 111.552564,55.4720344 111.572093,55.8949549 C110.94932,55.9456622 110.365607,55.9284001 109.813357,56.0524712 C108.349733,56.3847659 107.514307,57.4010699 107.072724,58.7658518 C106.605102,60.2083129 106.590998,61.7014814 106.639821,63.1968076 C106.669116,64.0523586 106.781952,64.8960419 107.122633,65.6922546 C107.619549,66.8563649 108.487525,67.4184609 109.745004,67.3008631 C110.394901,67.2404458 111.031778,67.0408532 111.708799,66.8973623 C112.04297,67.5392953 112.540971,67.8057784 113.165913,67.6536565 L113.165913,67.6536565 Z M111.408263,64.8550445 C110.96234,64.9273294 110.514248,65.0460061 110.068325,65.0427694 C109.54754,65.0395328 109.175395,64.7158691 108.987695,64.2379257 C108.870519,63.9358396 108.776126,63.6100182 108.750087,63.2885123 C108.65678,62.1761881 108.683904,61.0617061 108.934532,59.9698807 C109.239408,58.6320708 110.156208,58.0214253 111.628511,58.2069925 C111.628511,59.521067 111.624171,60.8254317 111.629596,62.1308752 C111.632851,62.9152202 111.643701,63.6984863 111.668655,64.4817524 C111.675165,64.6921338 111.616577,64.8215992 111.408263,64.8550445 L111.408263,64.8550445 Z M117.55136,66.4863095 C118.119884,67.2987053 118.902147,67.7151526 119.906829,67.7140737 C121.28474,67.7119159 122.240599,67.0268278 122.91545,65.8853739 C123.384156,65.091319 123.656484,64.2249792 123.851778,63.3316674 C124.271662,61.4091052 124.353034,59.4541765 124.388838,57.4960112 C124.407283,55.992054 124.380159,54.4913334 124.145805,53.0014016 C123.988485,52.0023597 123.759556,51.0227376 123.226836,50.1445301 C122.828652,49.4918084 122.299187,48.9879719 121.533198,48.8067203 C120.299588,48.5143441 119.236318,48.8347711 118.381362,49.7701592 C117.696746,50.51998 117.338706,51.4413426 117.067464,52.3983083 C116.648665,53.8698991 116.48592,55.3814085 116.400207,56.9026278 C116.273266,59.1391439 116.207083,61.3767388 116.543423,63.6035449 C116.698574,64.6241644 116.944862,65.6210485 117.55136,66.4863095 L117.55136,66.4863095 Z M119.470671,52.5525879 C119.611717,52.1447717 119.804842,51.7455865 120.03594,51.3809254 C120.347327,50.8921933 120.674987,50.8878777 120.920191,51.4046607 C121.206623,52.0120696 121.46376,52.6550814 121.592872,53.3088821 C122.213474,56.4311577 122.278572,59.5620644 121.565748,62.6800246 C121.419277,63.3251942 121.157799,63.9498651 120.902831,64.5637472 C120.772635,64.8744643 120.59253,65.2639396 120.193261,65.2574663 C119.787482,65.2509931 119.632332,64.8464135 119.530345,64.5281442 C119.284057,63.7567457 119.022579,62.9777951 118.902147,62.1815825 C118.722042,60.9872635 118.660199,59.7756824 118.600526,59.1456171 C118.639585,56.5239413 118.796905,54.4999644 119.470671,52.5525879 L119.470671,52.5525879 Z M163.806867,59.4865429 C163.705965,56.9403886 163.621337,54.3931554 163.492226,51.84808 C163.462932,51.2665642 163.34033,50.6710231 163.147206,50.1207948 C162.845584,49.2587705 162.155543,48.8865573 161.243084,48.9663943 C160.487945,49.032206 159.816349,49.3450809 159.154518,49.67306 C158.770438,49.8640216 158.412398,49.8370496 158.083653,49.5953808 C157.867744,49.4367856 157.675704,49.2382718 157.505364,49.0300482 C157.145154,48.5887867 156.58314,48.4204816 156.064524,48.6287052 C155.551334,48.8347711 155.237778,49.3569485 155.313725,49.9017824 C155.682615,52.5849543 155.88008,55.2810728 155.897439,57.9858223 C155.913714,60.795223 155.848615,63.6057027 155.826916,66.4161823 C155.825831,66.6136172 155.86489,66.8261563 155.943008,67.0052502 C156.173021,67.5252699 156.75131,67.7939107 157.298135,67.666603 C157.867744,67.532822 158.259418,67.0473265 158.252908,66.472284 C158.207339,62.2268954 158.160686,57.9825856 158.109692,53.737197 C158.103182,53.2150196 158.205169,52.7198142 158.413483,52.2407919 C158.691236,51.6031745 159.24891,51.4715512 159.855408,51.4596836 C160.421762,51.4488948 160.784142,51.7876628 160.930613,52.2861048 C161.095528,52.8482008 161.241999,53.4329532 161.268038,54.0144689 C161.345071,55.7180188 161.37545,57.4237264 161.396065,59.129434 C161.427529,61.5914357 161.432954,64.0534374 161.451398,66.5154392 C161.455738,67.1660032 162.021007,67.7108371 162.679584,67.702206 C163.33382,67.693575 163.89258,67.1293213 163.891495,66.4938616 C163.887155,64.2940274 163.806867,62.0941933 163.806867,59.8932802 C163.806867,59.7584204 163.812292,59.6224816 163.806867,59.4865429 L163.806867,59.4865429 Z M108.64159,72.2658639 C108.017733,72.1666071 107.340712,72.6596547 107.257169,73.2832468 C107.033665,74.9533514 106.844881,76.6288504 106.587743,78.2935606 C106.304566,80.1114716 105.96063,81.9185938 105.638394,83.7289527 C105.612355,83.8692069 105.535322,84.0008302 105.482159,84.13569 C105.442015,84.1346112 105.400786,84.1324534 105.360642,84.1302956 C105.322668,84.0051457 105.27059,83.8832324 105.247805,83.7559246 C104.819242,81.2939229 104.396104,78.8319212 103.966456,76.3720772 C103.780927,75.3126181 103.598652,74.2542378 103.380573,73.201252 C103.241697,72.5269526 102.573355,72.149345 101.902844,72.310098 C101.263797,72.4643777 100.877548,73.1095473 101.026189,73.7709001 C101.061993,73.9305741 101.096712,74.092406 101.130346,74.2531589 C102.110074,79.0433814 103.119095,83.8292884 103.702809,88.689638 C103.819986,89.6627868 103.865554,90.6337779 103.630116,91.6058478 C103.160324,93.5489088 102.565761,95.4477357 101.721654,97.2645679 C101.510085,97.7209336 101.591458,98.2571365 101.929969,98.6164032 C102.261969,98.9702755 102.788179,99.0954254 103.246037,98.9238837 C103.678939,98.7609729 103.879659,98.4178894 104.048914,98.0014422 C105.289034,94.9126118 106.380514,91.7752318 106.998946,88.502992 C107.930935,83.566042 108.795656,78.6161454 109.684246,73.6705643 C109.805763,72.996265 109.338141,72.3759096 108.64159,72.2658639 L108.64159,72.2658639 Z M135.712665,48.6189953 C135.624783,54.5787226 135.521711,60.5384499 135.426234,66.499256 C135.414299,67.1886596 135.969803,67.7334935 136.664184,67.7237836 C137.33795,67.7151526 137.876095,67.1541355 137.8685,66.4873883 C137.839206,63.7254582 137.794722,60.9624493 137.797977,58.2005192 C137.800147,56.3987914 137.904304,54.5970635 137.906474,52.7942568 C137.906474,52.1231941 138.238475,51.7380343 138.735391,51.4068185 C138.800489,51.3636633 138.865587,51.3205082 138.9296,51.2762742 C139.210607,51.0799182 139.516569,51.0378419 139.848569,51.1133634 C140.585264,51.2827474 141.074585,51.7326399 141.212376,52.463041 C141.313278,53.0003227 141.320873,53.5613398 141.323043,54.111568 C141.338233,58.211308 141.340403,62.3121268 141.349082,66.4118668 C141.350167,66.5445689 141.356677,66.6837443 141.396821,66.8099731 C141.611645,67.4756414 142.146535,67.8122517 142.802942,67.7086793 C143.395335,67.6137379 143.796774,67.0969549 143.795689,66.4248134 C143.791349,63.2367261 143.782669,60.0475599 143.781584,56.8594727 C143.780499,55.502243 143.815218,54.1450133 143.789179,52.7899413 C143.771819,51.9052606 143.604734,51.036763 143.20438,50.2308405 C142.815961,49.450811 142.221398,48.8908728 141.345827,48.7344354 C140.794663,48.6362574 140.221799,48.5984966 139.66304,48.622232 C139.175888,48.6427307 138.694162,48.7883793 138.196161,48.8811629 C138.193991,48.8671375 138.187481,48.8229034 138.185311,48.7775905 C138.125638,47.4322285 138.101768,46.0836298 137.995441,44.7415044 C137.920579,43.7888543 137.766513,42.838362 137.587493,41.8997373 C137.468146,41.278303 136.780276,40.9190363 136.164013,41.0398708 C135.609593,41.1488375 135.098573,41.7940072 135.20707,42.428388 C135.557515,44.4761002 135.745215,46.5410745 135.712665,48.6189953 L135.712665,48.6189953 Z M148.058534,76.0052583 C148.0249,75.1691272 147.819841,74.3578102 147.365238,73.6317247 C146.637224,72.4686932 145.355875,72.0209584 144.074526,72.5204794 C143.489727,72.7481228 142.938563,73.0545244 142.384143,73.3188498 C142.13894,73.1257305 141.903502,72.8851404 141.620325,72.7308608 C141.06482,72.4287747 140.448558,72.4147492 139.856164,72.5733444 C139.200843,72.7502806 138.56288,72.9908706 137.928173,73.2303817 C137.373754,73.4386053 136.958211,73.3307174 136.642484,72.8463008 C136.324588,72.3608053 135.751724,72.1568972 135.214664,72.3381488 C134.660245,72.5258738 134.344519,73.0512878 134.390088,73.6586966 C134.507264,75.232781 134.649395,76.8068654 134.717748,78.3841864 C134.890259,82.3167001 134.911958,86.2502928 134.735108,90.1838854 C134.704729,90.864658 135.413214,91.6123211 136.245386,91.3976242 C136.825844,91.2465811 137.191479,90.7772688 137.183884,90.1558345 C137.128551,85.8262933 137.069962,81.4945944 137.015714,77.1628954 C137.009204,76.6212982 137.131806,76.106673 137.380264,75.625493 C137.675375,75.0569238 138.216775,74.965219 138.77445,74.9522725 C139.29415,74.9414837 139.657615,75.2414121 139.808426,75.7074878 C139.976596,76.2275074 140.138256,76.7734201 140.158871,77.3128596 C140.245668,79.7144441 140.294492,82.1160287 140.332466,84.5197709 C140.36176,86.3991781 140.351995,88.2785852 140.365015,90.1590712 C140.37044,90.9013399 140.89882,91.4397005 141.596455,91.4343061 C142.270221,91.4278328 142.808366,90.8937877 142.800772,90.1946742 C142.745438,85.5436271 142.702039,80.8925799 142.597882,76.2436906 C142.583778,75.6352029 142.754118,75.2813306 143.233674,75.0029798 C143.258629,74.9889544 143.281413,74.9684557 143.306367,74.9544303 C143.893336,74.6383187 144.766736,74.5595606 145.212659,75.4226637 C145.327666,75.6438339 145.443757,75.8811873 145.483901,76.1217773 C145.586973,76.7507637 145.700895,77.3862234 145.713915,78.0206042 C145.777928,81.0727527 145.810477,84.1249012 145.849536,87.1781286 C145.862556,88.1750128 145.856046,89.1729758 145.869065,90.1720177 C145.877745,90.9013399 146.394191,91.4299905 147.082061,91.4343061 C147.772102,91.4375427 148.301567,90.8873144 148.304822,90.1547556 C148.315672,88.0908602 148.360156,86.0269648 148.321097,83.9630694 C148.272273,81.3101061 148.169201,78.6571428 148.058534,76.0052583 L148.058534,76.0052583 Z M98.2573466,77.5804216 C97.7159468,76.5403823 97.1528476,75.5100529 96.6472518,74.4538304 C96.1546756,73.4245799 95.8834332,72.3446221 96.0646232,71.1859061 C96.2794471,69.8168087 96.7166899,68.5717824 97.9036465,67.7140737 C97.9969539,67.6461043 98.0750717,67.5554785 98.1510196,67.4680893 C98.5003798,67.0667463 98.6468507,66.5920396 98.6240663,66.0709411 C98.5589682,64.6004291 98.4341967,63.1299171 98.4244319,61.6583262 C98.3929678,56.6674322 98.3951378,51.6754594 98.3973077,46.6834865 C98.3983927,45.2021857 98.4548111,43.7198061 98.4504712,42.2374264 C98.4493862,41.9709433 98.3256997,41.6569895 98.1564445,41.4455293 C97.5976851,40.7464157 96.4801665,40.8899066 96.142741,41.7368266 C95.4960991,43.3540661 94.9026208,44.9928832 94.324332,46.634937 C93.8382656,48.0126654 93.4053628,49.4087347 92.9312311,50.8533536 C92.8900023,50.7292825 92.8683029,50.6764175 92.8531133,50.6213946 C92.3475175,48.702069 91.8419217,46.7838222 91.3363259,44.8644966 C91.080273,43.8913478 90.8296451,42.9160412 90.5670824,41.9439713 C90.4021671,41.3344047 89.8618522,40.9611126 89.2542693,41.0172143 C88.6857452,41.0690005 88.2094436,41.537234 88.1692997,42.098251 C88.0347635,43.9927624 87.8893776,45.886195 87.7754558,47.7817853 C87.6170502,50.3840413 87.4510499,52.9862973 87.3468928,55.590711 C87.2036768,59.1930878 87.1190492,62.7976224 87.0007875,66.401078 C86.9910228,66.6794288 87.0723955,66.9049145 87.2264612,67.1217691 C87.5280827,67.5457686 88.0575479,67.7227047 88.5707385,67.5878449 C88.978687,67.4821147 89.443054,66.9405175 89.4517337,66.4798362 C89.4994724,63.5625475 89.5721654,60.6463378 89.6383485,57.730128 C89.7034467,54.7653686 89.7685449,51.7995304 89.834728,48.8347711 C89.8368979,48.7193311 89.8282182,48.5931022 89.869447,48.4906087 C89.906336,48.4042984 89.9974734,48.3147515 90.083186,48.2867006 C90.1254998,48.2726752 90.2426765,48.3848786 90.2730557,48.4604001 C90.334899,48.6103643 90.3652781,48.7754328 90.3978272,48.9361857 C90.8003509,50.9785036 91.2007047,53.0208214 91.6021434,55.0631392 C91.7323397,55.7320442 92.3084586,56.054629 92.8021197,56.0535501 C93.398853,56.0535501 93.9152985,55.6327873 94.0064359,55.029694 C94.3406065,52.8482008 95.0219674,50.7573334 95.6837988,48.6621505 C95.7337074,48.505713 95.8454593,48.3525122 95.9680609,48.2381511 C96.1275514,48.0892658 96.2631726,48.166945 96.2924668,48.3697743 C96.3174211,48.541316 96.3098263,48.7182522 96.3076563,48.8919517 C96.2685974,54.5139899 96.2273686,60.1349491 96.1937345,65.7559084 C96.1926496,65.9619743 96.1188716,66.0838876 95.9669759,66.2165897 C94.2245148,67.737809 93.4075327,69.6636079 93.4856505,71.9594623 C93.5323042,73.2983511 93.9456776,74.5509295 94.5142017,75.7484852 C95.0957453,76.9740916 95.7402173,78.1684106 96.3402054,79.3853861 C96.9911872,80.7037761 97.5000379,82.0664002 97.6258943,83.5509376 C97.7181168,84.6211856 97.5510314,85.6180697 96.8892,86.4962772 C96.0570284,87.6042858 95.0349871,88.4770989 93.718919,88.9766198 C93.0972314,89.2107366 92.7684857,90.0069492 93.0223685,90.65104 C93.2740815,91.2929729 94.0064359,91.6209521 94.6346333,91.3156294 C95.3669877,90.9574416 96.1036821,90.5927805 96.7796181,90.1418091 C98.0978561,89.2614439 99.1415968,88.1253844 99.7242255,86.6246638 C100.2602,85.2447776 100.163638,83.8260518 99.955324,82.4084049 C99.705781,80.6908296 99.0526293,79.1102719 98.2573466,77.5804216 L98.2573466,77.5804216 Z"></path>
        </g>
    </g>
</svg>