<?xml version="1.0" encoding="UTF-8"?>
<svg width="386px" height="43px" viewBox="0 0 386 43" version="1.1" xmlns="http://www.w3.org/2000/svg" xmlns:xlink="http://www.w3.org/1999/xlink">
    <!-- Generator: Sketch 48.2 (47327) - http://www.bohemiancoding.com/sketch -->
    <title>mindshare</title>
    <desc>Created with Sketch.</desc>
    <defs></defs>
    <g id="Page-1" stroke="none" stroke-width="1" fill="none" fill-rule="evenodd">
        <g id="mindshare" fill="#D4D4D4">
            <path d="M43.8185005,0.294544042 C46.2611178,0.294544042 48.2470953,2.28495046 48.2470953,4.73301495 L48.2470953,42.3999895 L39.7961079,42.3999895 L39.7961079,15.2790096 L25.2520873,32.8054182 C24.6450357,33.4138236 23.6948287,33.5636682 22.995008,32.8622869 L8.45729214,15.2790096 L8.45729214,42.3999895 L0,42.3999895 L0,4.88376228 C0,2.34904064 2.04992512,0.294544042 4.57900673,0.294544042 C6.23533903,0.294544042 7.22157278,1.13945126 8.49331894,2.51423083 L24.1874952,21.443402 L40.5607768,1.72619238 C41.3677772,0.845178017 42.5323436,0.294544042 43.8185005,0.294544042 Z M282.554618,0.119695189 C284.147903,0.119695189 285.55475,0.914052397 286.404982,2.12454446 L306.921346,42.3957469 L297.548973,42.3957469 L291.848632,31.027412 L273.63258,31.027412 L268.239367,42.3957469 L258.873299,42.3957469 L278.704253,2.12454446 C279.554486,0.914052397 280.962233,0.119695189 282.554618,0.119695189 Z M276.789428,24.390016 L288.505345,24.390016 L282.483465,12.3907087 L276.789428,24.390016 Z M113.161271,0.294544042 C114.718529,0.294544042 115.98307,1.56100218 115.98307,3.12263624 L115.98307,42.3999895 L109.932369,42.3999895 L82.0079931,14.2987006 L82.0079931,42.3999895 L73.550701,42.3999895 L73.550701,4.88376228 C73.550701,2.34904064 75.6006261,0.294544042 78.128807,0.294544042 C79.4581961,0.294544042 80.6506833,0.867744983 81.4865051,1.77674238 L107.524877,27.9796981 L107.517672,3.12263624 C107.517672,1.56100218 108.782213,0.294544042 110.339471,0.294544042 L113.161271,0.294544042 Z M150.469368,1.30157234 C160.906333,3.82816987 166.657111,10.7156079 166.657111,20.7028445 C166.657111,30.8552712 160.728,38.0929486 149.96229,41.0790096 C146.755004,41.9807855 143.03974,42.3960177 138.290507,42.3960177 L124.481433,42.3960177 L124.481433,4.53767529 C124.481433,2.19612688 126.368337,0.298696364 128.710079,0.298696364 L140.469228,0.298696364 C144.361924,0.298696364 147.540389,0.613731212 150.469368,1.30157234 Z M147.890749,33.4829688 C154.534092,31.5358909 157.906201,27.2400432 157.906201,20.7028445 C157.906201,14.4743618 154.755657,10.622632 148.284342,8.92559619 C146.098416,8.34517382 143.60446,8.11679612 139.675737,8.11679612 L139.668532,8.11679612 L132.93242,8.11679612 L132.925215,8.11679612 L132.925215,34.5923608 L132.93242,34.5923608 L138.168016,34.5923608 C142.096739,34.5923608 145.283309,34.226776 147.890749,33.4829688 Z M347.549673,13.4748258 C347.549673,19.6608825 344.113617,23.8556302 337.670223,25.7313964 L349.05019,42.3993576 L338.905943,42.3993576 L328.51221,26.8985599 L320.775454,26.8985599 L320.775454,42.3993576 L312.310956,42.3993576 L312.310956,4.53289109 C312.310956,2.19134268 314.203264,0.294814846 316.539602,0.294814846 L330.690931,0.294814846 C341.242281,0.294814846 347.549673,5.22795365 347.549673,13.4748258 Z M320.775454,19.0876816 L329.612829,19.0876816 C337.834145,19.0876816 338.784352,15.9589974 338.784352,13.6039088 C338.784352,8.82151734 334.177425,8.1129146 331.433983,8.1129146 L320.775454,8.1129146 L320.775454,19.0876816 Z M62.4264346,0.294544042 C63.9836932,0.294544042 65.248234,1.56100218 65.248234,3.12263624 L65.248234,42.3999895 L56.7900412,42.3999895 L56.7900412,3.12263624 C56.7900412,1.56100218 58.0473766,0.294544042 59.6046352,0.294544042 L62.4264346,0.294544042 Z M250.926867,0.294544042 C252.484126,0.294544042 253.748666,1.56100218 253.748666,3.12263624 L253.748666,42.3999895 L245.283268,42.3999895 L245.283268,24.9448925 L223.288004,24.9448925 L223.288004,42.3999895 L214.837917,42.3999895 L214.837917,3.12263624 C214.837917,1.56100218 216.102458,0.294544042 217.666021,0.294544042 L220.467105,0.294544042 C222.017158,0.294544042 223.295209,1.56100218 223.295209,3.12263624 L223.288004,17.1475544 L245.283268,17.1475544 L245.304884,3.12263624 C245.304884,1.56100218 246.56222,0.294544042 248.119478,0.294544042 L250.926867,0.294544042 Z M191.288276,17.3043497 C198.432392,18.3207658 207.311197,19.5809052 207.311197,29.4038542 C207.311197,37.6660719 199.932007,43 188.516915,43 C180.558594,43 175.179792,40.5726971 172.07248,38.5254219 L171.27899,38.0090898 L171.743736,37.1795281 L174.665509,32.0026661 L175.179792,31.092766 L176.072356,31.6379839 C179.823647,33.9217609 184.037882,35.0808002 188.580862,35.0808002 C191.5882,35.0808002 198.553081,34.5581493 198.553081,29.7116676 C198.553081,26.6840835 194.995435,26.0314468 189.202325,25.216328 C184.973678,24.6142413 180.194723,23.9480645 176.879356,21.5288857 C174.157531,19.5312579 172.829944,16.6824041 172.829944,12.80901 C172.829944,4.7896129 179.036461,0 189.4383,0 C195.00264,0 200.860598,1.43164833 205.210835,3.83728693 L205.468426,3.96636997 C205.832297,4.2019691 206.082683,4.60997985 206.082683,5.07576203 C206.082683,5.2120665 206.068273,5.34114955 206.032246,5.4702326 L203.575218,10.5171089 C203.339242,10.8249223 202.968166,11.0180956 202.546653,11.0180956 C202.410651,11.0180956 202.210703,10.9828911 202.210703,10.9828911 C200.375137,10.0657696 195.524128,7.93273994 189.859814,7.93273994 C184.601702,7.93273994 181.587159,9.5792258 181.587159,12.4434251 C181.587159,15.7580611 185.273602,16.4531237 191.288276,17.3043497 Z M363.562507,34.5927219 L386,34.5927219 L386,42.3963788 L355.104314,42.3963788 L355.104314,4.53713368 C355.104314,2.19558527 356.990317,0.299057436 359.333861,0.299057436 L384.006817,0.299057436 C384.850745,0.299057436 385.628924,0.864134268 385.628924,1.85888614 L385.628924,6.55552313 C385.628924,7.54395625 384.850745,8.11715719 384.006817,8.11715719 L363.562507,8.11715719 L363.562507,17.1448463 L381.942481,17.1448463 C382.799919,17.1448463 383.571793,17.7180473 383.571793,18.7055777 L383.571793,23.3877719 C383.571793,24.376205 382.799919,24.9421845 381.942481,24.9421845 L363.562507,24.9421845 L363.562507,34.5927219 Z" id="Combined-Shape"></path>
        </g>
    </g>
</svg>