<?xml version="1.0" encoding="UTF-8"?>
<svg width="64px" height="16px" viewBox="0 0 64 16" version="1.1" xmlns="http://www.w3.org/2000/svg" xmlns:xlink="http://www.w3.org/1999/xlink">
    <!-- Generator: Sketch 48.2 (47327) - http://www.bohemiancoding.com/sketch -->
    <title>mixpanel</title>
    <desc>Created with Sketch.</desc>
    <defs></defs>
    <g id="Integration-Overview" stroke="none" stroke-width="1" fill="none" fill-rule="evenodd" transform="translate(-1110.000000, -1100.000000)">
        <g id="mixpanel" transform="translate(1013.000000, 1038.000000)" fill="#FFFFFF">
            <path d="M105.0962,62 C109.56564,62 113.189914,65.5817596 113.189914,70.0012283 C113.189914,74.4182404 109.56564,78 105.0962,78 C100.624274,78 97,74.4182404 97,70.0012283 C97,65.5817596 100.624274,62 105.0962,62 Z M134.313861,64.4303393 C137.475779,64.4303393 140.041109,66.9631199 140.041109,70.0879472 C140.041109,73.2127745 137.475779,75.745555 134.313861,75.745555 C131.154429,75.745555 128.5891,73.2127745 128.5891,70.0879472 C128.5891,66.9631199 131.154429,64.4303393 134.313861,64.4303393 Z M158.399869,67.5202825 C159.836653,67.5202825 161,68.6699831 161,70.0874559 C161,71.5073852 159.836653,72.6570858 158.399869,72.6570858 C156.965572,72.6570858 155.802225,71.5073852 155.802225,70.0874559 C155.802225,68.6699831 156.965572,67.5202825 158.399869,67.5202825 Z"></path>
        </g>
    </g>
</svg>