<?xml version="1.0" encoding="UTF-8"?>
<svg width="100px" height="23px" viewBox="0 0 100 23" version="1.1" xmlns="http://www.w3.org/2000/svg" xmlns:xlink="http://www.w3.org/1999/xlink">
    <!-- Generator: Sketch 48.2 (47327) - http://www.bohemiancoding.com/sketch -->
    <title>moat</title>
    <desc>Created with Sketch.</desc>
    <defs></defs>
    <g id="Integration-Overview" stroke="none" stroke-width="1" fill="none" fill-rule="evenodd" transform="translate(-530.000000, -485.000000)">
        <g id="moat" transform="translate(451.000000, 426.000000)" fill="#FFFFFF" fill-rule="nonzero">
            <path d="M99.4162182,81.2486389 L99.4162182,59.6261342 L96.294582,59.6261342 L89.2260496,72.0653357 L82.1575171,59.6261342 L79,59.6261342 L79,81.2486389 L82.1575171,81.2486389 L82.1575171,66.0544465 L89.2260496,78.2014519 L96.258701,66.0544465 L96.258701,81.2486389 L99.4162182,81.2486389 Z M131.170793,70.3956442 C131.170793,77.8257714 125.465734,82 119.58127,82 C113.804449,82 108.386437,77.8257714 108.386437,70.6043558 L108.386437,70.0199637 C108.386437,62.7150635 114.199139,59 119.868317,59 C125.7169,59 131.170793,63.0490018 131.170793,70.3956442 Z M127.977395,70.4373865 C127.977395,65.1361161 123.886975,62.7568058 119.832436,62.7568058 C115.777897,62.7568058 111.579835,65.2613431 111.579835,70.5626135 C111.579835,75.7803992 115.598493,78.2431942 119.617151,78.2431942 C123.635809,78.2431942 127.977395,75.7386569 127.977395,70.4373865 Z M158.655544,81.2486389 L154.923933,81.2486389 L152.555795,76.1978222 L141.217438,76.1978222 L138.921062,81.2486389 L135.332975,81.2486389 L145.37962,59.6261342 L148.537137,59.6261342 L158.655544,81.2486389 Z M150.977036,72.5662433 L146.922497,63.7586208 L142.867958,72.5662433 L150.977036,72.5662433 Z M179,63.2994554 L179,59.6261342 L161.597775,59.6261342 L161.597775,63.2994554 L168.630427,63.2994554 L168.630427,81.2486389 L171.823825,81.2486389 L171.823825,63.2994554 L179,63.2994554 Z"></path>
        </g>
    </g>
</svg>