<?xml version="1.0" encoding="UTF-8"?>
<svg width="100px" height="100px" viewBox="0 0 100 100" version="1.1" xmlns="http://www.w3.org/2000/svg" xmlns:xlink="http://www.w3.org/1999/xlink">
    <!-- Generator: Sketch 48.2 (47327) - http://www.bohemiancoding.com/sketch -->
    <title>multi-data</title>
    <desc>Created with Sketch.</desc>
    <defs></defs>
    <g id="Marketing-Stories" stroke="none" stroke-width="1" fill="none" fill-rule="evenodd" transform="translate(-170.000000, -1043.000000)">
        <g id="multi-data" transform="translate(170.000000, 1043.000000)">
            <path d="M50,0 C77.614,0 100,22.386 100,50 C100,77.614 77.614,100 50,100 C22.386,100 0,77.614 0,50 C0,22.386 22.386,0 50,0 Z" id="Mask" fill="#CBCFB2"></path>
            <path d="M44.5175087,55.2232938 C42.1456337,55.2232938 40.2221962,53.3294477 40.2221962,50.9940631 C40.2221962,48.65714 42.1456337,46.7632938 44.5175087,46.7632938 C46.8909462,46.7632938 48.8143837,48.65714 48.8143837,50.9940631 C48.8143837,53.3294477 46.8909462,55.2232938 44.5175087,55.2232938 Z M39.7003212,73.55714 L44.5175087,73.55714 L49.3346962,73.55714 L53.8862587,76.7617554 L57.0112587,71.8617554 L51.9237587,66.8525246 C54.1393837,59.8048323 56.4675087,48.0279092 53.0128212,35.5756015 C50.3315712,36.4232938 47.4800087,36.8894477 44.5175087,36.8894477 C41.5550087,36.8894477 38.7034462,36.4232938 36.0221962,35.5756015 C32.5550087,48.0709861 34.9128212,59.8848323 37.1346962,66.9248323 L32.1190712,71.8617554 L35.2440712,76.7617554 L39.7003212,73.55714 Z" id="Fill-1" fill="#85896E" transform="translate(44.565165, 56.168678) rotate(45.000000) translate(-44.565165, -56.168678) "></path>
            <path d="M73.1371056,41.3227015 C71.5355431,36.7580861 69.1199181,32.1488553 65.5761681,27.6857784 C62.0324181,32.1488553 59.6167931,36.7580861 58.0152306,41.3227015 C60.3996056,42.0796246 62.9386681,42.4965476 65.5761681,42.4965476 C68.2136681,42.4965476 70.7511681,42.0796246 73.1371056,41.3227015" id="Fill-4" fill="#A3A78A" transform="translate(65.576168, 35.091163) rotate(45.000000) translate(-65.576168, -35.091163) "></path>
        </g>
    </g>
</svg>