<?xml version="1.0" encoding="UTF-8"?>
<svg width="100px" height="100px" viewBox="0 0 100 100" version="1.1" xmlns="http://www.w3.org/2000/svg" xmlns:xlink="http://www.w3.org/1999/xlink">
    <!-- Generator: Sketch 48.2 (47327) - http://www.bohemiancoding.com/sketch -->
    <title>natural-lang</title>
    <desc>Created with Sketch.</desc>
    <defs></defs>
    <g id="Customer-Stories" stroke="none" stroke-width="1" fill="none" fill-rule="evenodd" transform="translate(-749.000000, -1273.000000)">
        <g id="natural-lang" transform="translate(749.000000, 1273.000000)">
            <path d="M50,0 C77.614,0 100,22.386 100,50 C100,77.614 77.614,100 50,100 C22.386,100 0,77.614 0,50 C0,22.386 22.386,0 50,0 Z" id="Mask" fill="#FFC4B9"></path>
            <rect id="Rectangle-2-Copy" fill="#B3695C" x="25" y="25" width="50" height="50" rx="2"></rect>
            <path d="M27,25 L73,25 C74.1045695,25 75,25.8954305 75,27 L75,33 L25,33 L25,27 C25,25.8954305 25.8954305,25 27,25 Z" id="Rectangle-30" fill="#904B3E"></path>
            <polyline id="Path-14" stroke="#FFC4B9" stroke-width="2" points="34 40 39.5226805 45.5226805 34.0226337 51.0227273"></polyline>
            <rect id="Rectangle-31" fill="#FFC4B9" x="43" y="55" width="9" height="2"></rect>
        </g>
    </g>
</svg>