<?xml version="1.0" encoding="UTF-8"?>
<svg width="180px" height="45px" viewBox="0 0 180 45" version="1.1" xmlns="http://www.w3.org/2000/svg" xmlns:xlink="http://www.w3.org/1999/xlink">
    <!-- Generator: Sketch 48.2 (47327) - http://www.bohemiancoding.com/sketch -->
    <title>newscorp</title>
    <desc>Created with Sketch.</desc>
    <defs></defs>
    <g id="layout/clients-logo" stroke="none" stroke-width="1" fill="none" fill-rule="evenodd" transform="translate(-897.000000, -68.000000)">
        <path d="M928.181541,68 L928.722904,68 C929.204322,68.0816132 929.674616,68.2928106 930.026255,68.6379532 C930.464413,69.1743573 930.469357,69.9749138 930.148618,70.571749 C929.447194,71.9859617 928.276712,73.0706068 927.302753,74.2842131 C924.752288,77.6801927 922.634421,81.3814429 920.621612,85.1194501 C918.68976,88.7839432 916.85308,92.5088674 915.303149,96.3565228 C915.064603,96.9022719 914.599253,97.3919508 913.987439,97.467334 C913.292813,97.5483241 912.595714,97.3302737 911.96845,97.0449392 C911.448098,96.8088217 911.27506,96.2001495 911.270734,95.6693525 C911.354781,93.3916601 910.474757,91.2435519 910.031036,89.0437347 C909.448267,86.1586161 909.221463,83.2105744 909.186856,80.2700087 C907.00657,84.4061137 904.849769,88.5559247 902.778251,92.7474768 C902.288799,93.7461478 901.761649,94.7579017 901.609005,95.8749429 C901.561419,96.1035843 901.62569,96.3303568 901.69058,96.5484072 C901.438438,97.1122233 901.033033,97.6349213 900.447174,97.8685467 C899.591252,98.2305104 898.603696,98.1065332 897.760751,97.7682436 C897.383775,97.6286913 897.084047,97.3078457 897,96.9078789 L897,96.3596378 C897.207646,95.3647049 897.761987,94.4981102 898.254529,93.6265315 C899.674063,91.1868588 901.094215,88.7484321 902.482849,86.2913154 C904.06059,83.5582091 905.468381,80.7285376 906.80634,77.8708311 C907.377367,76.6939818 907.723444,75.4124683 907.775356,74.1016738 C908.741899,73.8294223 909.791872,73.8954604 910.73246,74.2356191 C911.485178,74.5028866 911.917156,75.2940981 911.961034,76.0666196 C912.1934,78.9025211 912.278683,81.7496366 912.481385,84.5880301 C912.731673,87.0046517 913.31815,89.3745483 914.028226,91.6914898 C916.874092,85.3742576 920.062327,79.2084147 923.674506,73.3004942 C924.473573,71.9516966 925.231852,70.56988 926.205812,69.3375836 C926.705152,68.7046144 927.366406,68.1358143 928.181541,68 Z M1007.56358,72.8731154 C1008.53754,72.4295386 1009.64808,72.1815841 1010.70855,72.4351456 C1012.06876,72.7597292 1013.17806,73.8830004 1013.57172,75.226191 C1013.99876,76.6628317 1013.83746,78.2072517 1013.46419,79.6370395 C1013.00626,81.3446858 1012.23686,82.9657349 1011.21778,84.4042447 C1010.77035,85.0403289 1010.09056,85.608506 1009.27604,85.582963 C1008.63209,85.599784 1008.12286,85.1032521 1007.80522,84.5892761 C1007.41341,83.9145658 1007.46655,83.0847282 1007.6983,82.3657848 C1007.86825,82.3016156 1008.04685,82.2386925 1008.18405,82.1122233 C1008.72356,81.6443494 1009.14317,81.0568592 1009.53498,80.4631391 C1009.97685,79.7834448 1010.39276,79.0651244 1010.5763,78.2676829 C1010.72957,77.6297296 1010.68692,76.8952112 1010.26483,76.3669062 C1010.01887,76.0223865 1009.57886,75.8404702 1009.16419,75.9108693 C1008.41518,76.0236325 1007.78915,76.5058354 1007.22368,76.9824314 C1006.00376,78.0695685 1005.01188,79.384101 1004.07253,80.7173236 C1002.1759,83.502139 1000.35591,86.4321136 999.475883,89.724675 C999.236101,90.757611 999.018567,91.8927192 999.423971,92.9119492 C999.647685,93.5044233 1000.23478,93.86078 1000.83609,93.9492462 C1002.06466,94.1373925 1003.30683,93.8906841 1004.50203,93.6122025 C1006.16815,93.1960377 1007.78915,92.6091706 1009.35947,91.9120322 C1010.40636,91.4397973 1011.44397,90.9301823 1012.38826,90.2691781 C1013.1039,89.7882211 1013.47655,88.9646135 1014.13595,88.4213565 C1015.47515,87.1747311 1017.45891,86.8775595 1019.1893,87.2887403 C1020.15893,87.5983719 1020.73119,88.5577937 1021.04266,89.4767205 C1022.08955,90.1352328 1023.38981,90.2722931 1024.59366,90.1090667 C1026.04718,89.9171824 1027.46733,89.1533829 1028.26208,87.8855754 C1028.86339,87.0214728 1028.94372,85.8801346 1028.68973,84.8802176 C1029.38435,84.4603148 1030.2409,84.2908585 1031.0344,84.4814969 C1031.46391,84.5836691 1031.83409,84.8677576 1032.06645,85.2452963 C1032.72709,86.2526893 1033.57745,87.1878141 1034.69108,87.6862151 C1035.58161,88.0855588 1036.59388,88.162188 1037.54683,87.9765336 C1038.30758,87.8276363 1039.10356,87.645097 1039.87296,87.8413424 C1041.03788,88.188354 1041.29558,89.8237322 1040.56388,90.7009179 C1040.00583,91.5008514 1039.42491,92.295801 1039.01333,93.1860697 C1038.89282,93.4495992 1038.78529,93.7436558 1038.84462,94.0383353 C1039.01333,94.2775678 1039.33345,94.1853636 1039.57571,94.1542136 C1040.44955,93.9841342 1041.28446,93.6545666 1042.10639,93.3168999 C1044.07471,92.4820783 1045.95835,91.4522573 1047.7629,90.3034431 C1049.3975,89.2480791 1050.98265,88.0998879 1052.43123,86.7947003 C1052.85641,86.1567471 1052.84714,85.3318935 1052.89782,84.5905221 C1053.8452,84.3095485 1054.89332,84.3419446 1055.81043,84.7213523 C1056.26094,84.9088757 1056.70343,85.2608714 1056.78562,85.7754704 C1056.96731,86.6925281 1056.6064,87.6058479 1056.10706,88.3584334 C1057.52536,87.650704 1059.07653,87.1118079 1060.67528,87.122399 C1061.60722,87.140466 1062.60342,87.4457366 1063.19855,88.2095361 C1063.61755,88.7403331 1063.66081,89.4754745 1063.49395,90.1103127 C1063.29125,90.8491922 1062.87967,91.5077044 1062.41864,92.1076546 C1061.74194,92.9661503 1060.94534,93.7361798 1060.0338,94.3367529 C1064.67494,93.365494 1069.12821,91.3469701 1072.83124,88.3490883 C1073.27248,87.9534826 1073.85587,87.5734518 1073.93065,86.9298916 C1075.00596,86.7236782 1076.20487,87.1903061 1076.77219,88.15222 C1077.07315,88.6331769 1077.07933,89.2810981 1076.77033,89.7601861 C1076.3674,90.4324044 1075.62086,90.753873 1074.99298,91.1644308 C1071.38822,93.2876189 1067.57334,95.1017984 1063.54216,96.2356606 C1061.6684,96.7677036 1059.76992,97.2567596 1057.82756,97.4436599 C1056.91355,97.5109441 1055.90065,97.5651452 1055.10715,97.0212651 C1054.54168,96.6530714 1054.41932,95.8531378 1054.68073,95.2619097 C1054.86119,94.8557129 1055.24125,94.5946754 1055.60711,94.371641 C1056.23931,93.9990863 1056.89686,93.6526976 1057.4444,93.1542966 C1058.28117,92.3711841 1059.04625,91.4715704 1059.46957,90.3881713 C1057.54576,90.3352162 1055.69919,91.2429289 1054.38409,92.6253686 C1052.91512,94.1635586 1051.86824,96.0475142 1050.9363,97.9489139 C1049.89869,100.043444 1049.03164,102.218341 1048.24432,104.418781 C1047.55711,106.348839 1046.89709,108.29198 1046.3891,110.278731 C1046.23213,110.83071 1046.22533,111.442497 1045.90274,111.935291 C1045.52267,112.533995 1044.85894,112.909665 1044.16802,113 L1043.53087,113 C1042.97282,112.922125 1042.36163,112.635544 1042.20465,112.041201 C1041.98094,111.158408 1042.28932,110.251942 1042.57483,109.420858 C1043.28058,107.578021 1044.21994,105.838601 1045.02333,104.038751 C1046.86804,100.090792 1048.53848,96.0587282 1050.51607,92.1749387 C1049.16019,93.0004153 1047.77464,93.7772978 1046.37056,94.5161773 C1044.3046,95.5759023 1042.19168,96.5907713 1039.94094,97.1801304 C1039.02075,97.3969348 1038.05729,97.5769822 1037.11794,97.3832288 C1036.26387,97.2212485 1035.56245,96.5122731 1035.35542,95.6699755 C1035.19289,95.0637953 1035.27755,94.4233501 1035.43761,93.8252689 C1035.7015,92.8571251 1036.1755,91.9668563 1036.64765,91.0890476 C1034.69973,91.0473066 1032.80434,90.2897371 1031.26677,89.1016738 C1030.74023,89.8941313 1030.11235,90.6199277 1029.38806,91.2348299 C1027.87892,92.5238194 1025.92173,93.2421398 1023.94909,93.2901109 C1022.87131,93.3106699 1021.76324,93.1898077 1020.77692,92.7275408 C1019.60953,94.6625825 1018.01511,96.5290942 1015.80454,97.2312165 C1014.81575,97.5202891 1013.636,97.6947294 1012.74547,97.0474312 C1011.90932,96.4119699 1011.60959,95.2930598 1011.6238,94.2806828 C1008.75878,95.6463014 1005.80477,96.968933 1002.64125,97.4168709 C1000.94424,97.6411513 999.073568,97.5794742 997.612011,96.5776883 C996.458832,95.8064128 995.725273,94.4881422 995.573246,93.1119325 C995.3347,91.1856128 995.856906,89.2599161 996.518778,87.4681646 C997.210932,85.6328031 998.115058,83.8883997 999.100142,82.1981974 C1000.46776,79.8600739 1001.99607,77.5948416 1003.87662,75.6417328 C1004.95626,74.5415126 1006.15826,73.5229057 1007.56358,72.8731154 Z M1017.54481,90.9999585 C1016.65057,91.4883914 1015.8342,92.1051626 1014.99806,92.6864227 C1014.59821,92.9599203 1014.33618,93.5704614 1014.6149,94.0127923 C1014.83738,94.3074719 1015.23537,94.1753956 1015.51903,94.0576484 C1016.25753,93.7212277 1016.83844,93.1119325 1017.32048,92.4696183 C1017.56335,92.1176226 1017.81673,91.7375919 1017.85752,91.300245 C1017.90016,91.1233127 1017.69993,90.9526104 1017.54481,90.9999585 Z M930.340197,82.3421107 C931.780742,81.5060431 933.435114,81.0562362 935.096284,81.0244632 C935.992376,80.9796071 936.942852,81.1932965 937.634388,81.7976077 C938.390196,82.4399219 938.644191,83.5613241 938.34879,84.4964489 C938.013219,85.581717 937.212298,86.4370976 936.380477,87.1666321 C934.057435,89.1135108 931.321572,90.4978195 928.501662,91.5531835 C928.675937,92.5692985 929.264886,93.5243593 930.173338,94.0264983 C931.466183,94.7479337 933.024766,94.7510487 934.447389,94.5199153 C936.76487,94.0869294 938.882737,92.9530672 940.852905,91.6896208 C942.186537,90.7999751 943.574553,89.8972463 944.527501,88.5739918 C944.774699,88.2587532 944.887174,87.8494414 944.699304,87.4750177 C945.498989,87.0900029 946.49087,86.9485816 947.292409,87.4083565 C948.025969,87.8101923 948.388732,88.676164 948.391822,89.4891805 C948.375754,90.3370852 948.42643,91.1930888 948.633458,92.0166964 C948.737899,92.3998422 948.866442,92.7966939 949.145158,93.0888815 C949.30769,93.2589608 949.576518,93.362379 949.794052,93.2315488 C950.283504,92.9761183 950.642559,92.5369024 951.01212,92.1369357 C951.623934,91.4379283 952.197433,90.7071479 952.79318,89.9944345 C953.143583,89.5570877 953.552696,89.1527599 953.777028,88.6275699 C954.047092,88.0724758 954.310975,87.3965195 954.935768,87.1703701 C955.45612,87.0576068 956.063608,87.1012169 956.478901,87.4712796 C956.871327,87.8145533 957.02768,88.3522033 957.065378,88.8574573 C957.096277,90.1869419 957.07094,91.5401005 957.399713,92.838435 C957.5023,93.1574116 957.621573,93.5966275 958.000404,93.6682726 C958.471934,93.5773144 958.818011,93.2028907 959.16038,92.8926361 C960.384627,91.6298127 961.388869,90.1744819 962.503731,88.8169622 C962.964755,88.2637372 963.483871,87.648212 964.232262,87.5248577 C965.373081,87.3329734 966.368052,88.1223159 967.490948,88.154712 C968.76031,88.179009 970.118662,88.0917888 971.222401,87.3896665 C971.800844,87.0713129 972.509684,87.0532458 973.13633,87.2233252 C973.88225,87.4264236 974.518784,88.156581 974.431029,88.9633675 C974.397039,89.711592 973.752471,90.263571 973.09925,90.5059185 C970.938123,91.3494621 968.482212,91.7132948 966.243835,90.9538564 C965.49668,90.6473398 964.891045,91.3208041 964.403447,91.789301 C962.969081,93.329983 961.759048,95.1030444 960.06327,96.3795739 C959.250607,96.991361 958.286535,97.5900652 957.22791,97.466088 C956.362718,97.3801138 955.65326,96.7701956 955.183584,96.0680733 C954.636659,95.2376127 954.300469,94.2806828 954.097767,93.3094239 C953.131223,94.6333015 952.047261,95.916061 950.660481,96.8075757 C949.954731,97.2424305 949.12291,97.5832122 948.279965,97.4542509 C947.552585,97.3234207 947.003188,96.7539976 946.633627,96.1415874 C945.953833,95.0120862 945.636184,93.7112597 945.370446,92.4297462 C943.229094,93.8987831 940.975267,95.2220376 938.569414,96.2007725 C936.536829,97.0405781 934.350364,97.6019022 932.139797,97.491008 C930.288903,97.4243469 928.321826,97.0112971 926.91218,95.7223076 C925.894961,94.8158408 925.307248,93.4957013 925.166963,92.1475267 C924.189913,92.2590439 923.153536,92.2328779 922.248174,91.807368 C921.557874,91.4821614 920.970161,90.8224031 920.937407,90.0255846 C920.926901,89.1022968 921.517704,88.1397599 922.457674,87.9491216 C922.612173,88.3503343 923.068871,88.4780496 923.44523,88.5640238 C924.09227,88.667442 924.765266,88.685509 925.409835,88.5534327 C925.573603,88.5397267 925.576693,88.3459733 925.636639,88.2313411 C926.529023,85.8359015 928.107382,83.6242472 930.340197,82.3421107 Z M932.618125,84.5132699 C931.171399,85.2347053 929.836531,86.3193504 929.086285,87.7865183 C930.701105,87.2021431 932.292442,86.5143498 933.721246,85.5474519 C934.10193,85.2602484 934.502391,84.9294347 934.669867,84.4640528 C934.729813,84.2142293 934.483851,84.030444 934.258283,84.037297 C933.680458,84.044773 933.134769,84.2740375 932.618125,84.5132699 Z M980.782779,81.1901815 C982.024948,81.0294472 983.336333,80.922914 984.538333,81.3583918 C985.198969,81.5901483 985.846009,82.1433733 985.881853,82.8934668 C985.910281,83.8603647 985.149529,84.8559206 984.159502,84.9319267 C983.503191,85.0179009 982.870983,84.8054575 982.241864,84.6584292 C981.260489,84.5070399 980.195684,84.4466088 979.273636,84.8789716 C978.705698,85.1406321 978.540076,85.8147194 978.496816,86.3872575 C978.487546,87.4550816 979.02891,88.4244715 979.612297,89.2810981 C980.650528,90.769448 981.941519,92.0503385 983.114473,93.4265482 C983.63297,94.0738464 983.86719,94.9990032 983.556957,95.7902147 C983.129305,96.7807866 982.111467,97.6019022 980.994751,97.465465 C978.224899,97.1346513 975.460608,96.7122565 972.67407,96.5440462 C971.985624,96.5035511 971.214367,96.4904681 970.657553,96.0225942 C970.222485,95.6843045 970.320746,95.0625493 970.490695,94.6077584 C970.839862,93.6539436 971.619771,92.7593139 972.654912,92.5879885 C973.245715,93.1773477 974.07939,93.3835611 974.869187,93.5430494 C976.457434,93.84209 978.09512,94.0632554 979.708704,93.850812 C978.934974,92.9312622 978.205123,91.9774474 977.444989,91.0473066 C976.493895,89.8835403 975.613871,88.5852058 975.288806,87.0906259 C974.971156,85.6745442 975.418585,84.1139262 976.450636,83.0990572 C977.590836,81.9346679 979.216162,81.428791 980.782779,81.1901815 Z" id="newscorp" fill="#D4D4D4" fill-rule="nonzero"></path>
    </g>
</svg>