<?xml version="1.0" encoding="UTF-8"?>
<svg width="100px" height="100px" viewBox="0 0 100 100" version="1.1" xmlns="http://www.w3.org/2000/svg" xmlns:xlink="http://www.w3.org/1999/xlink">
    <!-- Generator: Sketch 48.2 (47327) - http://www.bohemiancoding.com/sketch -->
    <title>productivity</title>
    <desc>Created with Sketch.</desc>
    <defs></defs>
    <g id="Marketing-Stories" stroke="none" stroke-width="1" fill="none" fill-rule="evenodd" transform="translate(-750.000000, -1273.000000)">
        <g id="productivity" transform="translate(750.000000, 1273.000000)">
            <path d="M50,0 C77.614,0 100,22.386 100,50 C100,77.614 77.614,100 50,100 C22.386,100 0,77.614 0,50 C0,22.386 22.386,0 50,0 Z" id="Mask-Copy-3" fill="#CBCFB2"></path>
            <path d="M59.0116547,71.8324304 C56.1350993,73.1888201 52.9232023,73.9468553 49.5349864,73.9468553 C46.1666254,73.9468553 42.9725231,73.1976783 40.1089226,71.8562142 L37.4094944,74.5668124 C36.0583879,75.9235097 34.2225353,76.6861661 32.3078248,76.6861661 L29.3800214,76.6861661 C29.1419704,76.6861661 28.9136153,76.5918544 28.7449406,76.4238748 C28.3927438,76.0731294 28.3915673,75.5032821 28.7423127,75.1510853 L35.1740523,68.6927316 C30.3066899,64.5811772 27.2135578,58.4198343 27.2135578,51.5330622 C27.2135578,39.154266 37.2072018,29.1192691 49.5349864,29.1192691 C61.862771,29.1192691 71.8564149,39.154266 71.8564149,51.5330622 C71.8564149,58.4008065 68.7803514,64.5471248 63.9362245,68.6586047 L70.4019503,75.1510853 C70.7526958,75.5032821 70.7515192,76.0731294 70.3993224,76.4238748 C70.2306477,76.5918544 70.0022926,76.6861661 69.7642416,76.6861661 L66.8364382,76.6861661 C64.9217277,76.6861661 63.0858751,75.9235097 61.7347686,74.5668124 L59.0116547,71.8324304 Z M71.863897,38.987125 L61.1310262,28.2542543 C64.1070907,25.2781898 68.9223025,25.2682479 71.886103,28.2320483 C74.8499034,31.1958488 74.8399615,36.0110606 71.863897,38.987125 Z M27.2339533,38.987125 C24.2578889,36.0110606 24.2479469,31.1958488 27.2117474,28.2320483 C30.1755478,25.2682479 34.9907596,25.2781898 37.9668241,28.2542543 L27.2339533,38.987125 Z" id="Combined-Shape" fill="#85896E"></path>
            <ellipse id="Oval-3" fill="#A3A78A" cx="49.4992721" cy="51.5675449" rx="16.9642857" ry="17.0344828"></ellipse>
            <polyline id="Path-10" fill="#CBCFB2" points="47.4 64 49 53.516129 41 53.516129 50.6 39 49 49.483871 57 49.483871 47.4 64"></polyline>
        </g>
    </g>
</svg>