<?xml version="1.0" encoding="UTF-8"?>
<svg width="140px" height="30px" viewBox="0 0 140 30" version="1.1" xmlns="http://www.w3.org/2000/svg" xmlns:xlink="http://www.w3.org/1999/xlink">
    <!-- Generator: Sketch 48.2 (47327) - http://www.bohemiancoding.com/sketch -->
    <title>sanofi</title>
    <desc>Created with Sketch.</desc>
    <defs></defs>
    <g id="layout/clients-logo" stroke="none" stroke-width="1" fill="none" fill-rule="evenodd" transform="translate(-1167.000000, -75.000000)">
        <path d="M1265.3454,100.976997 L1265.3454,80.9889323 L1268.1912,80.9889323 L1268.1912,100.976997 L1265.3454,100.976997 Z M1234.10783,80.8543326 L1235.2991,80.8543326 L1236.29181,80.9889323 C1247.37939,83.8929222 1246.47712,99.688204 1235.10055,101.111596 L1233.11511,101.111596 C1221.74737,99.4100311 1220.86606,83.9097471 1232.12239,80.9889323 L1233.11511,80.8543326 L1234.10783,80.8543326 Z M1234.10783,83.6136276 L1232.71802,83.7482274 L1231.26204,84.2193266 C1224.95386,87.0975181 1225.92121,96.854879 1232.71802,98.3523014 L1234.10783,98.4869011 L1235.56382,98.3523014 C1242.65846,96.9401255 1243.09635,86.5422941 1236.95363,84.2193266 L1235.56382,83.7482274 L1234.10783,83.6136276 Z M1173.68431,83.3444281 L1172.95632,83.3444281 L1172.42687,83.4790279 L1171.83123,83.7482274 L1171.2356,84.2193266 L1170.97088,84.6231258 L1170.70615,85.2288248 L1170.57379,85.7672238 L1170.57379,86.5075225 L1170.70615,86.9113218 L1170.83852,87.5170207 L1171.2356,87.9881198 L1171.69887,88.2573194 L1172.95632,88.7957184 L1176.92719,90.2763158 L1177.78755,90.680115 L1178.38318,91.1512142 L1179.11118,92.0261126 L1179.64063,92.9010111 C1182.38053,100.816599 1171.08228,104.51024 1167.52945,97.6793026 L1167.13236,96.4679047 L1167,95.189207 L1169.71343,95.189207 L1169.8458,96.0641054 L1170.11052,96.8044041 L1170.57379,97.3428032 L1170.97088,97.9485021 L1171.56651,98.2177016 L1172.09596,98.4869011 L1172.82395,98.6888008 L1174.27994,98.6888008 L1174.80939,98.4869011 L1175.53739,98.2177016 L1176.13302,97.9485021 C1177.60224,96.2043135 1177.80961,94.1886821 1175.66975,92.9010111 L1174.54467,92.2953122 L1172.95632,91.8915129 L1171.2356,91.285814 L1169.97816,90.5455153 L1168.98544,89.8052166 L1168.25744,88.997618 L1167.86036,87.7862202 L1167.66181,86.5075225 L1167.86036,85.3634245 L1168.12508,84.2193266 L1168.72071,83.2098284 L1169.38253,82.4695297 L1170.24288,81.729231 C1172.75226,80.0041108 1176.35803,80.5324148 1178.38318,83.0079287 L1179.11118,83.8828272 L1179.50826,85.0269251 L1179.64063,86.238323 L1176.79483,86.238323 L1176.66247,85.4980243 C1176.41098,84.3539263 1175.37745,83.5541794 1174.27994,83.3444281 L1173.68431,83.3444281 Z M1250.91788,80.9889323 L1260.18326,80.9889323 L1260.18326,83.7482274 L1251.77824,83.7482274 L1251.77824,90.141716 L1260.18326,90.141716 L1260.18326,92.9010111 L1251.77824,92.9010111 L1251.77824,100.976997 L1248.93244,100.976997 L1248.93244,83.0079287 L1249.0648,82.1330303 L1249.52807,81.5946313 L1250.12371,81.1235321 L1250.91788,80.9889323 Z M1207.03968,85.632624 L1207.03968,100.976997 L1204.19389,100.976997 L1204.19389,82.873329 L1204.32625,81.9984305 L1204.78952,81.4600315 L1205.31897,80.9889323 L1206.17933,80.8543326 L1206.64259,80.8543326 L1207.17205,81.1235321 L1207.43677,81.4600315 L1207.90004,81.8638308 L1216.43743,96.333305 L1216.56979,80.9889323 L1219.41558,80.9889323 L1219.41558,99.0926 L1219.28322,99.9674985 L1218.88613,100.573197 L1218.15814,100.976997 L1217.43015,101.111596 L1216.9007,101.111596 L1216.43743,100.976997 L1216.04034,100.707797 L1215.70943,100.236698 L1207.03968,85.632624 Z M1187.38384,95.3238068 L1185.3984,100.976997 L1182.35406,100.976997 L1189.36928,82.1330303 L1189.634,81.5946313 L1190.09727,81.1235321 L1190.62672,80.9889323 L1191.22235,80.8543326 L1191.81799,80.9889323 L1192.34744,81.1235321 L1192.8107,81.5946313 L1193.07543,82.1330303 L1200.02447,100.976997 L1197.04631,100.976997 L1195.06087,95.3238068 L1187.38384,95.3238068 Z M1191.22235,84.7577256 L1188.37656,92.6991114 L1194.20051,92.6991114 L1191.22235,84.7577256 Z M1306.2999,85.5136549 L1305.3688,84.3301053 L1304.94204,83.8172338 L1304.43769,83.3832656 C1302.269,81.4797233 1299.34379,81.9636636 1296.83369,82.7914908 L1294.8551,83.3832656 L1293.8464,83.6594272 C1291.11582,84.2249009 1288.25009,83.917178 1287.13471,80.937263 L1286.97952,80.14823 L1286.90193,79.3986485 L1287.05712,78.6490671 L1287.32869,77.860034 C1288.36713,75.2279512 1292.30103,74.5625333 1294.73871,75.2562249 L1295.94138,75.4929348 L1297.02767,75.8479997 C1300.35571,76.963824 1303.0003,79.2875264 1304.86445,82.2786193 L1305.44639,83.3043623 L1306.2999,85.5136549 Z M1306.45508,85.9476231 L1306.61027,86.8550111 L1306.88184,87.8807541 C1307.51162,92.9667298 1305.60545,98.3249219 1301.60559,101.531026 L1300.44171,102.477866 L1299.27783,103.148544 C1294.86609,105.67608 1289.16438,105.608355 1284.80695,102.990738 L1283.79826,102.320059 L1282.78956,101.531026 L1283.56548,101.807188 L1284.3802,101.964995 C1288.35096,102.596878 1291.72362,101.44226 1294.07918,98.0592808 L1295.01028,96.5206663 L1295.7474,95.0215034 C1297.59668,90.8093819 1298.95066,86.1632921 1304.20492,85.7503648 L1305.2912,85.7503648 L1306.45508,85.9476231 Z M1286.82434,100.347477 L1286.04842,100.702542 C1279.9594,102.256279 1277.00962,93.8261183 1277.47452,89.0643037 L1277.55211,88.235819 L1278.13405,88.9854004 L1278.79358,89.6560785 C1281.53322,92.5708982 1284.03491,92.3525991 1287.2511,94.1535671 L1287.56146,94.5086319 L1287.83303,94.8242452 C1288.99562,96.3201204 1288.74215,98.3729214 1287.56146,99.7557019 L1287.13471,100.031863 L1286.82434,100.347477 Z" id="sanofi" fill="#D4D4D4" fill-rule="nonzero"></path>
    </g>
</svg>