<?xml version="1.0" encoding="UTF-8"?>
<svg width="100px" height="100px" viewBox="0 0 100 100" version="1.1" xmlns="http://www.w3.org/2000/svg" xmlns:xlink="http://www.w3.org/1999/xlink">
    <!-- Generator: Sketch 48.2 (47327) - http://www.bohemiancoding.com/sketch -->
    <title>schedule</title>
    <desc>Created with Sketch.</desc>
    <defs></defs>
    <g id="Marketing-Stories" stroke="none" stroke-width="1" fill="none" fill-rule="evenodd" transform="translate(-170.000000, -1503.000000)">
        <g id="schedule" transform="translate(170.000000, 1503.000000)">
            <path d="M50,0 C77.614,0 100,22.386 100,50 C100,77.614 77.614,100 50,100 C22.386,100 0,77.614 0,50 C0,22.386 22.386,0 50,0 Z" id="Mask-Copy" fill="#CBCFB2"></path>
            <rect id="Rectangle-24" fill="#85896E" x="24" y="25" width="52" height="50" rx="2"></rect>
            <rect id="Rectangle-3" fill="#CBCFB2" x="30" y="32" width="19" height="3" rx="1"></rect>
            <rect id="Rectangle-25" fill="#A3A78A" x="30" y="41" width="40" height="28" rx="1"></rect>
            <path d="M49.8249097,63 L45.8140794,63 L52.0288809,51.2716049 L46,51.2716049 C45.4477153,51.2716049 45,50.8238897 45,50.2716049 L45,49 C45,48.4477153 45.4477153,48 46,48 L55,48 C55.5522847,48 56,48.4477153 56,49 L56,51.127572 L49.8249097,63 Z" id="7" fill="#CBCFB2"></path>
        </g>
    </g>
</svg>