<?xml version="1.0" encoding="UTF-8"?>
<svg width="198px" height="27px" viewBox="0 0 198 27" version="1.1" xmlns="http://www.w3.org/2000/svg" xmlns:xlink="http://www.w3.org/1999/xlink">
    <!-- Generator: Sketch 48.2 (47327) - http://www.bohemiancoding.com/sketch -->
    <title>sequoia</title>
    <desc>Created with Sketch.</desc>
    <defs></defs>
    <g id="About" stroke="none" stroke-width="1" fill="none" fill-rule="evenodd" transform="translate(-486.000000, -3913.000000)">
        <path d="M556,3938.86667 L553.466667,3934.46667 C554.666667,3932.2 554.666667,3929.53333 554.666667,3926.06667 C554.666667,3921.66667 554.666667,3918.46667 552.133333,3915.8 C550.4,3913.93333 548.133333,3913 545.2,3913 C542.266667,3913 540,3914.06667 538.266667,3915.8 C535.733333,3918.33333 535.733333,3921.53333 535.733333,3926.06667 C535.733333,3930.46667 535.6,3933.66667 538.266667,3936.33333 C540.133333,3938.2 542.266667,3939.13333 545.2,3939.13333 C546,3939.13333 546.666667,3939 547.333333,3938.86667 L556,3938.86667 Z M541.866667,3933.26667 C540.933333,3932.2 540.666667,3931 540.666667,3926.06667 C540.666667,3921.13333 540.933333,3919.93333 541.866667,3918.86667 C542.533333,3918.06667 543.733333,3917.53333 545.066667,3917.53333 C546.4,3917.53333 547.6,3918.06667 548.266667,3918.86667 C549.2,3919.93333 549.466667,3921.13333 549.466667,3926.06667 C549.466667,3931 549.2,3932.2 548.266667,3933.26667 C547.6,3934.06667 546.4,3934.6 545.066667,3934.6 C543.733333,3934.6 542.533333,3934.06667 541.866667,3933.26667 Z M614.533333,3913.26667 L619.466667,3913.26667 L619.466667,3938.86667 L614.533333,3938.86667 L614.533333,3913.26667 Z M495.333333,3939.13333 C491.466667,3939.13333 488.533333,3938.33333 486,3935.8 L489.2,3932.6 C490.8,3934.2 493.066667,3934.73333 495.333333,3934.73333 C498.266667,3934.73333 499.866667,3933.66667 499.866667,3931.53333 C499.866667,3930.6 499.6,3929.93333 499.066667,3929.4 C498.533333,3928.86667 498,3928.73333 496.8,3928.46667 L493.733333,3928.06667 C491.6,3927.8 489.866667,3927 488.8,3925.93333 C487.6,3924.73333 486.933333,3923 486.933333,3920.86667 C486.933333,3916.33333 490.266667,3913.13333 495.866667,3913.13333 C499.333333,3913.13333 502,3913.93333 504.133333,3916.06667 L500.933333,3919.13333 C499.333333,3917.53333 497.333333,3917.4 495.733333,3917.4 C493.066667,3917.4 491.733333,3918.86667 491.733333,3920.6 C491.733333,3921.26667 492,3921.93333 492.533333,3922.46667 C493.066667,3923 493.866667,3923.26667 494.933333,3923.53333 L498,3923.93333 C500.4,3924.2 501.866667,3924.86667 502.933333,3925.93333 C504.266667,3927.26667 504.933333,3929.13333 504.933333,3931.4 C504.933333,3936.33333 500.666667,3939.13333 495.333333,3939.13333 Z M512.133333,3938.86667 L512.133333,3913.26667 L529.066667,3913.26667 L529.066667,3917.66667 L517.2,3917.66667 L517.2,3923.66667 L527.333333,3923.66667 L527.333333,3928.2 L517.2,3928.2 L517.2,3934.46667 L529.066667,3934.46667 L529.066667,3938.86667 L512.133333,3938.86667 Z M571.6,3939.13333 C566.4,3939.13333 562.133333,3935.53333 562.133333,3930.06667 L562.133333,3913.26667 L567.2,3913.26667 L567.2,3929.93333 C567.2,3932.86667 568.933333,3934.6 571.6,3934.6 C574.266667,3934.6 576,3932.86667 576,3929.93333 L576,3913.26667 L580.933333,3913.26667 L580.933333,3930.06667 C580.933333,3935.53333 576.8,3939.13333 571.6,3939.13333 Z M604.666667,3936.33333 C602.933333,3938.2 600.666667,3939.13333 597.733333,3939.13333 C594.8,3939.13333 592.533333,3938.06667 590.8,3936.33333 C588.266667,3933.8 588.266667,3930.6 588.266667,3926.06667 C588.266667,3921.66667 588.133333,3918.46667 590.8,3915.8 C592.533333,3913.93333 594.8,3913 597.733333,3913 C600.666667,3913 602.8,3914.06667 604.666667,3915.8 C607.2,3918.33333 607.2,3921.53333 607.2,3926.06667 C607.2,3930.46667 607.2,3933.66667 604.666667,3936.33333 Z M600.933333,3918.86667 C600.266667,3918.06667 599.066667,3917.53333 597.733333,3917.53333 C596.4,3917.53333 595.2,3918.06667 594.533333,3918.86667 C593.6,3919.93333 593.333333,3921.13333 593.333333,3926.06667 C593.333333,3931 593.6,3932.2 594.533333,3933.26667 C595.2,3934.06667 596.4,3934.6 597.733333,3934.6 C599.066667,3934.6 600.266667,3934.06667 600.933333,3933.26667 C601.866667,3932.2 602.133333,3931 602.133333,3926.06667 C602.133333,3921.13333 601.866667,3919.93333 600.933333,3918.86667 Z M643.066667,3938.86667 L641.6,3934.33333 L632.533333,3934.33333 L630.933333,3938.86667 L625.733333,3938.86667 L635.066667,3913.26667 L638.933333,3913.26667 L648.266667,3938.86667 L643.066667,3938.86667 Z M637.066667,3920.73333 L633.866667,3930.06667 L640.266667,3930.06667 L637.066667,3920.73333 Z M677.2,3914 L683.6,3914 L683.6,3920.4 L677.2,3920.4 L677.2,3914 Z M661.2,3934.13333 L658,3937.33333 L658,3914 L661.2,3914 L661.2,3934.13333 Z M663.466667,3936.4 L683.6,3936.4 L683.6,3939.6 L660.266667,3939.6 L663.466667,3936.4 Z M667.6,3927.73333 L664.4,3930.93333 L664.4,3914 L667.6,3914 L667.6,3927.73333 Z M669.866667,3930 L683.6,3930 L683.6,3933.2 L666.666667,3933.2 L669.866667,3930 Z M674,3921.33333 L670.8,3924.53333 L670.8,3914 L674,3914 L674,3921.33333 Z M676.266667,3923.6 L683.6,3923.6 L683.6,3926.8 L673.066667,3926.8 L676.266667,3923.6 Z" id="sequoia" fill="#D4D4D4" fill-rule="nonzero"></path>
    </g>
</svg>