<?xml version="1.0" encoding="UTF-8"?>
<svg width="97px" height="26px" viewBox="0 0 97 26" version="1.1" xmlns="http://www.w3.org/2000/svg" xmlns:xlink="http://www.w3.org/1999/xlink">
    <!-- Generator: Sketch 48.2 (47327) - http://www.bohemiancoding.com/sketch -->
    <title>sizmek</title>
    <desc>Created with Sketch.</desc>
    <defs></defs>
    <g id="Integration-Overview" stroke="none" stroke-width="1" fill="none" fill-rule="evenodd" transform="translate(-811.000000, -1095.000000)">
        <g id="sizmek" transform="translate(731.000000, 1038.000000)" fill="#FFFFFF">
            <path d="M97.5835142,62.8794788 C97.4673807,62.8964352 97.2813416,62.8331312 97.218201,62.7426968 C96.6161108,61.8971352 95.6994454,61.707223 94.785035,61.6868753 C92.4589825,61.6348755 90.1329299,61.6393972 87.8068773,61.675571 C86.3783225,61.6970491 85.3105708,62.4442633 85.0038882,63.5125195 C84.5686694,65.0250347 84.9452577,66.4109417 86.2689541,67.1491124 C87.3468534,67.7516315 88.5792215,68.0828475 89.7574692,68.4943239 C90.5602561,68.7746705 91.4070159,68.9318003 92.1962727,69.2415381 C94.4625673,70.1345777 95.7287607,71.8358746 96.0207857,74.2549945 C96.2383951,76.0489867 96.0771612,77.8034139 95.3228572,79.4662762 C94.5764457,81.1099213 93.3497152,82.226786 91.6156052,82.7626097 C91.4408412,82.8168704 91.2773523,83 91.1093533,83 L80,83 L80,78.4907153 C82.2550195,78.616193 85.3917515,78.7744532 88.0977749,78.8422789 C88.7799182,78.8603658 89.4846118,78.6817579 90.1306749,78.4364546 C91.3596605,77.9707175 91.7069335,76.9047222 91.7136985,75.6906405 C91.7204636,74.4618632 91.2999025,73.7655184 90.1069972,73.3540419 C88.8024684,72.9041309 87.4122489,72.6859579 86.1381629,72.168221 C84.9497677,71.6855275 83.7591174,71.0773562 82.7578888,70.2860553 C80.6268954,68.6017148 80.1319186,66.2549424 80.460024,63.6515624 C80.8523974,60.5451411 82.7409761,58.354368 85.7559372,57.6410668 C86.3512623,57.499763 86.9792852,57.4477633 87.593778,57.4409807 C89.9187031,57.4195025 92.2458831,57.4002852 94.5708082,57.4421111 C96.7085666,57.4805457 98.6320982,58.1486298 100.210612,59.6498407 C101.016781,60.4140112 101.532053,61.3952244 101.614361,62.2701771 C100.272625,62.4759153 98.9297608,62.6861753 97.5835142,62.8794788 Z M169.967722,73.2928857 C172.050232,76.2399163 174.114703,79.202773 176.182555,82.161108 C176.315602,82.3510202 176.44301,82.5465846 176.618902,82.8111052 C176.378742,82.829192 176.207361,82.8518006 176.032597,82.8529311 C174.7089,82.8563224 173.397606,82.8371051 172.07391,82.8642354 C171.647711,82.8732788 171.407552,82.7489315 171.156117,82.387194 C169.512208,80.0189434 167.888594,77.6665188 166.213114,75.3220073 C166.060901,75.1083561 165.886137,74.9772262 165.674165,74.8076617 C165.620044,74.8562702 165.691077,74.9048787 165.691077,74.9523567 L165.691077,82.999887 L161.181039,82.999887 L161.181039,57 L165.267134,57 C165.287429,57.6330407 165.506166,57.6160843 165.506166,57.8478224 C165.510676,61.7636315 165.691077,65.8297877 165.691077,69.7444663 L165.691077,70.7562011 C165.691077,70.5255934 166.216497,70.4317677 166.400281,70.2237686 C168.031788,68.3879505 169.472745,66.5430889 171.062534,64.6710971 C171.419954,64.2505772 171.78414,64.1104039 172.317452,64.1217082 C173.83057,64.1556211 175.345943,64.1330125 177,64.1330125 C176.827491,64.3590984 176.715868,64.5139673 176.592969,64.6597928 C174.399963,67.2529989 172.212594,69.8507267 170.001547,72.4281068 C169.721925,72.7548011 169.727562,72.9537567 169.967722,73.2928857 Z M98.0404939,82.9997739 L98.0404939,63.7824662 L101.423023,63.7824662 L101.423023,82.9997739 L98.0404939,82.9997739 Z M103.678043,63.7824662 L117.722304,63.7824662 C117.722304,64.912896 117.738089,65.9167178 117.709901,66.8730614 C117.704263,67.0629736 117.558815,67.4405372 117.438171,67.6089713 C114.928335,71.1166951 112.411733,74.5905061 109.898514,78.0959691 C109.81395,78.2135339 109.739535,78.4780544 109.601979,78.4780544 L118.335669,78.4780544 L118.335669,82.9997739 L103.558526,82.9997739 C103.558526,81.869344 103.540486,80.9163917 103.572057,79.9193525 C103.578822,79.7362229 103.768243,79.4490937 103.891142,79.2772684 C106.384066,75.8091095 108.880372,72.3330377 111.374424,68.8660093 C111.482665,68.7145317 111.585268,68.3041856 111.751012,68.3041856 L103.678043,68.3041856 L103.678043,63.7824662 Z M142.747833,68.7976183 C142.876369,69.4430937 143.036476,70.1111778 143.039858,70.7702184 C143.057898,74.5368107 143.141334,78.303403 143.141334,82.0699953 L143.141334,82.9992087 L138.631295,82.9992087 L138.631295,82.0326912 C138.631295,78.2660988 138.654973,74.5017674 138.63355,70.7351751 C138.630168,70.2355251 138.555752,69.7064839 138.365203,69.2475294 C137.955917,68.2674467 137.008809,67.8729266 135.991795,68.1917079 C135.261168,68.4211851 134.551965,68.728662 133.821339,68.9592697 C133.445878,69.0779649 133.369207,69.293877 133.371462,69.6770927 C133.391757,73.9569002 133.388375,78.279664 133.389502,82.5594715 C133.389502,82.663471 133.374845,82.9992087 133.361315,82.9992087 L129.611217,82.9992087 L129.611217,82.1276473 C129.611217,78.3384464 129.39248,74.5515063 129.372185,70.7634358 C129.36993,70.2377859 129.07114,69.6872666 128.898631,69.1955296 C128.552486,68.2086643 127.841027,67.8480572 126.839798,68.1510124 C125.903965,68.4336199 125.047058,68.8010096 124.116862,69.1050952 C123.721106,69.2350946 123.744784,69.4690936 123.744784,69.8636136 C123.759442,73.9727262 123.973669,78.0818388 123.973669,82.1920818 L123.973669,82.9992087 L119.46363,82.9992087 L119.46363,63.7819009 L123.480947,63.7819009 C123.510262,64.9123308 123.545215,64.3165943 123.581295,64.5121586 C123.638798,64.5155499 123.701939,64.7371142 123.756059,64.7224186 C124.636644,64.4725936 125.503699,64.168508 126.394432,63.974074 C128.086824,63.6055539 129.60107,64.1119865 130.972121,65.0931996 C131.291207,65.3215464 131.515581,65.320416 131.880894,65.191547 C133.161745,64.7359838 134.443724,64.2182469 135.769675,63.9729436 C139.033816,63.369294 142.096132,65.5329368 142.747833,68.7976183 Z M158.460921,67.3930592 C158.89163,68.2747945 159.183655,69.1757471 159.259198,70.1501776 C159.388862,71.8006052 159.295279,73.956335 159.295279,75.0867648 L148.827478,75.0867648 C149.004497,76.2171947 149.121758,76.623019 149.33824,77.2583206 C149.6686,78.2304903 150.454475,78.7764879 151.439918,78.7403142 C153.506644,78.6679667 155.599302,78.5481411 157.664899,78.4430111 C158.048253,78.4226634 158.925455,78.3876201 158.925455,78.355968 L158.925455,82.5803844 C156.670436,82.6719493 155.946575,82.7680358 154.48645,82.8675136 C154.127901,82.8912526 153.712978,82.9997739 153.355557,82.9997739 L150.794983,82.9997739 C150.298878,82.9997739 149.798264,82.7872531 149.30667,82.6538624 C147.112536,82.0626476 145.745994,80.5908279 145.132629,78.4509241 C144.312929,75.5852844 144.277976,72.6235582 144.731235,69.7341794 C145.358131,65.7313273 148.813948,63.4094243 152.878621,63.8909874 C155.309532,64.1781166 157.341304,65.10733 158.460921,67.3930592 Z M148.846646,71.6954752 L155.058097,71.6954752 C155.040057,70.5650454 154.974661,69.4402677 153.959902,68.8603571 C152.764742,68.1787079 151.456831,68.0362738 150.224463,68.6738362 C149.126268,69.241312 148.891746,70.5650454 148.846646,71.6954752 Z"></path>
        </g>
    </g>
</svg>