<?xml version="1.0" encoding="UTF-8"?>
<svg width="137px" height="63px" viewBox="0 0 137 63" version="1.1" xmlns="http://www.w3.org/2000/svg" xmlns:xlink="http://www.w3.org/1999/xlink">
    <!-- Generator: Sketch 48.2 (47327) - http://www.bohemiancoding.com/sketch -->
    <title>tableau</title>
    <desc>Created with Sketch.</desc>
    <defs></defs>
    <g id="Integration-Overview" stroke="none" stroke-width="1" fill="none" fill-rule="evenodd" transform="translate(-511.000000, -2913.000000)">
        <g id="dcm-copy-7" transform="translate(451.000000, 2874.000000)" fill="#FFFFFF">
            <g id="tableau" transform="translate(60.000000, 39.000000)">
                <g id="logo" transform="translate(49.000000, 0.000000)">
                    <polygon id="Fill-1" points="23.1709198 16.17668 18.3805443 16.17668 18.3805443 10.97148 16.4972278 10.97148 16.4972278 16.17668 11.7062743 16.17668 11.7062743 18.0261467 16.4972278 18.0261467 16.4972278 23.2301911 18.3805443 23.2301911 18.3805443 18.0261467 23.1709198 18.0261467"></polygon>
                    <polygon id="Fill-2" points="13.5395308 24.6743467 9.24686414 24.6743467 9.24686414 20.0145689 7.62251814 20.0145689 7.62251814 24.6743467 3.33100759 24.6743467 3.33100759 26.0951022 7.62251814 26.0951022 7.62251814 30.7560356 9.24686414 30.7560356 9.24686414 26.0951022 13.5395308 26.0951022"></polygon>
                    <polygon id="Fill-3" points="31.5468224 8.00482222 27.2553118 8.00482222 27.2553118 3.32251111 25.6292316 3.32251111 25.6292316 8.00482222 21.3377211 8.00482222 21.3377211 9.42442222 25.6292316 9.42442222 25.6292316 14.0634 27.2553118 14.0634 27.2553118 9.42442222 31.5468224 9.42442222"></polygon>
                    <polygon id="Fill-4" points="21.0723342 29.8455733 18.1600726 29.8455733 18.1600726 26.5955733 16.7727308 26.5955733 16.7727308 29.8455733 13.8610473 29.8455733 13.8610473 31.1005067 16.7727308 31.1005067 16.7727308 34.3510844 18.1600726 34.3510844 18.1600726 31.1005067 21.0723342 31.1005067"></polygon>
                    <polygon id="Fill-5" points="13.5395308 8.00395556 9.196573 8.00395556 9.196573 3.32222222 7.6739654 3.32222222 7.6739654 8.00395556 3.33100759 8.00395556 3.33100759 9.38253333 7.6739654 9.38253333 7.6739654 14.0631111 9.196573 14.0631111 9.196573 9.38253333 13.5395308 9.38253333"></polygon>
                    <polygon id="Fill-6" points="34.8441291 16.4740044 31.9324456 16.4740044 31.9324456 13.2245822 30.5451038 13.2245822 30.5451038 16.4740044 27.6328422 16.4740044 27.6328422 17.7289378 30.5451038 17.7289378 30.5451038 20.9789378 31.9324456 20.9789378 31.9324456 17.7289378 34.8441291 17.7289378"></polygon>
                    <polygon id="Fill-7" points="31.5468224 24.6743467 27.2553118 24.6743467 27.2553118 20.0145689 25.6292316 20.0145689 25.6292316 24.6743467 21.3377211 24.6743467 21.3377211 26.0951022 25.6292316 26.0951022 25.6292316 30.7560356 27.2553118 30.7560356 27.2553118 26.0951022 31.5468224 26.0951022"></polygon>
                    <polygon id="Fill-8" points="16.9482873 0.000231111111 16.9482873 3.18898667 14.067819 3.18898667 14.067819 4.15387556 16.9482873 4.15387556 16.9482873 7.34263111 17.9841692 7.34263111 17.9841692 4.15387556 20.8652156 4.15387556 20.8652156 3.18898667 17.9841692 3.18898667 17.9841692 0.000231111111"></polygon>
                    <polygon id="Fill-9" points="2.89156709 13.4723911 2.89156709 16.5987467 0.000115611814 16.5987467 0.000115611814 17.60408 2.89156709 17.5867467 2.89156709 20.7310133 3.90779494 20.7310133 3.90779494 17.5803911 6.79924641 17.5630578 6.79924641 16.5987467 3.90779494 16.5987467 3.90779494 13.4723911"></polygon>
                </g>
                <path d="M134.768519,51.0745378 L134.515329,51.0745378 L134.515329,49.4810267 C134.64886,49.46196 134.776033,49.4423156 134.966215,49.4423156 C135.209,49.4423156 135.366232,49.4943156 135.462189,49.5630711 C135.556413,49.63356 135.60786,49.7410267 135.60786,49.89356 C135.60786,50.1027156 135.46797,50.2298267 135.297443,50.2818267 L135.297443,50.2928044 C135.435021,50.3193822 135.532135,50.4453378 135.562194,50.6810711 C135.600346,50.92836 135.639654,51.0236933 135.663354,51.0745378 L135.398025,51.0745378 C135.359295,51.0236933 135.321143,50.8780933 135.290506,50.66836 C135.251776,50.4644044 135.149459,50.3887156 134.947139,50.3887156 L134.768519,50.3887156 L134.768519,51.0745378 Z M134.768519,50.1922711 L134.953497,50.1922711 C135.163911,50.1922711 135.339641,50.1154267 135.339641,49.9184044 C135.339641,49.77916 135.239059,49.6399156 134.953497,49.6399156 C134.871991,49.6399156 134.814185,49.6456933 134.768519,49.6526267 L134.768519,50.1922711 Z M135.036738,49.0367156 C134.407232,49.0367156 133.892181,49.5769378 133.892181,50.2425378 C133.892181,50.9220044 134.407232,51.4552933 135.041941,51.4552933 C135.678384,51.4628044 136.185341,50.9220044 136.185341,50.2488933 C136.185341,49.5769378 135.678384,49.0367156 135.041941,49.0367156 L135.036738,49.0367156 Z M135.041941,48.8148489 C135.822898,48.8148489 136.446046,49.4486711 136.446046,50.2425378 C136.446046,51.0496933 135.822898,51.67716 135.036738,51.67716 C134.253468,51.67716 133.619337,51.0496933 133.619337,50.2425378 C133.619337,49.4486711 134.253468,48.8148489 135.036738,48.8148489 L135.041941,48.8148489 Z M6.44362447,44.0517067 L8.8286962,44.0517067 L8.8286962,50.8192178 L15.2717426,50.8192178 L15.2717426,53.0425067 L8.8286962,53.0425067 L8.8286962,60.3802844 L6.44362447,60.3802844 L6.44362447,53.0425067 L0,53.0425067 L0,50.8192178 L6.44362447,50.8192178 L6.44362447,44.0517067 Z M106.791905,60.2957556 C102.763411,60.3084667 100.4795,58.1475778 100.4795,54.4717556 C100.4795,50.9276667 102.65358,48.6674 105.8699,48.6674 C106.954917,48.6674 107.852643,48.9077556 108.657879,49.4283333 L108.657879,48.6159778 L111.066073,48.6159778 L110.996706,59.5382889 C109.985103,59.9785556 108.320871,60.2905556 106.791905,60.2957556 Z M106.550854,58.0817111 C107.025441,58.0805556 107.763622,58.0331778 108.613369,57.8194 L108.657879,51.6608667 C107.88617,51.1322 107.141052,50.8837556 106.33177,50.8837556 C104.306829,50.8837556 103.010242,52.2386444 103.010242,54.4966 C103.010242,56.7926889 104.298736,58.0863333 106.550854,58.0817111 Z M30.6811789,60.2957556 C26.6532633,60.3084667 24.3681958,58.1475778 24.3681958,54.4717556 C24.3681958,50.9276667 26.5440101,48.6674 29.7591747,48.6674 C30.8453477,48.6674 31.7424954,48.9077556 32.5465755,49.4283333 L32.5465755,48.6159778 L34.9547696,48.6159778 L34.8871367,59.5382889 C33.8737992,59.9785556 32.2095671,60.2905556 30.6811789,60.2957556 Z M30.4389722,58.0817111 C30.9875502,58.0736222 31.6534743,58.0331778 32.5014869,57.8194 L32.5465755,51.6608667 C31.7748667,51.1322 31.0309046,50.8837556 30.2204658,50.8837556 C28.196103,50.8837556 26.8989384,52.2386444 26.8989384,54.4966 C26.8989384,56.7926889 28.1891662,58.1134889 30.4389722,58.0817111 Z M126.134859,58.4631022 C127.646484,58.4631022 128.666758,57.6929244 128.666758,55.9682578 L128.666758,48.9095467 L131.076686,48.9095467 L131.076686,56.2652356 C131.076686,58.72368 129.167357,60.2235911 126.133703,60.2235911 C123.102362,60.2235911 121.193032,58.72368 121.193032,56.2652356 L121.193032,48.9095467 L123.601227,48.9095467 L123.601227,55.9682578 C123.601227,57.6929244 124.624969,58.4631022 126.134859,58.4631022 Z M85.3969557,60.3397822 C81.7245464,59.9838711 79.9354536,57.4035156 80.0383481,54.3441822 C80.1493354,51.0404489 82.2887321,48.6958267 85.5507194,48.6958267 C88.9728291,48.6958267 90.9549937,51.2264933 90.7850443,54.9595156 L82.5477025,54.9595156 C82.7448207,57.0273822 83.9870696,58.0067156 85.6848291,58.1367156 C87.0981835,58.2464933 89.0942215,57.9264044 90.175192,57.2480933 L90.175192,59.5222267 C88.7508544,60.2149822 87.2675549,60.5212044 85.3969557,60.3397822 Z M82.6962637,53.20596 L88.1704831,53.20596 C88.1086308,51.74996 87.3259388,50.9942267 85.9316603,50.9046711 C84.5281329,50.8145378 83.1679599,51.7164489 82.6962637,53.20596 Z M67.1468215,62.3367556 L67.1468215,41 L69.5313152,41 L69.5313152,62.3367556 L67.1468215,62.3367556 Z M48.9546667,49.2451778 C50.0893966,48.7991333 51.0969536,48.6674 51.7420675,48.6674 C54.9595443,48.6674 57.1336245,50.9276667 57.1336245,54.4717556 C57.1336245,58.1475778 54.849135,60.2957556 50.8206414,60.2957556 C49.4234726,60.2957556 48.0534726,60.0259333 46.6141055,59.5382889 L46.5458945,43.2819333 L48.9546667,43.2819333 L48.9546667,49.2451778 Z M51.0628481,58.0817111 C53.3132321,58.0817111 54.6034599,56.7926889 54.6034599,54.4966 C54.6034599,52.2386444 53.3057173,50.8837556 51.2819325,50.8837556 C50.4009705,50.8837556 49.5662532,51.1882444 48.9546667,51.4673111 L48.9546667,57.6743778 C49.6986287,57.9470889 50.3934557,58.0817111 51.0628481,58.0817111 Z"></path>
            </g>
        </g>
    </g>
</svg>