<?xml version="1.0" encoding="UTF-8"?>
<svg width="180px" height="25px" viewBox="0 0 180 25" version="1.1" xmlns="http://www.w3.org/2000/svg" xmlns:xlink="http://www.w3.org/1999/xlink">
    <!-- Generator: Sketch 48.2 (47327) - http://www.bohemiancoding.com/sketch -->
    <title>techcrunch</title>
    <desc>Created with Sketch.</desc>
    <defs></defs>
    <g id="About" stroke="none" stroke-width="1" fill="none" fill-rule="evenodd" transform="translate(-265.000000, -3053.000000)">
        <path d="M277.5,3058.03571 L277.5,3077.16348 L272.5,3077.16348 L272.5,3058.03571 L265,3058.03571 L265,3054.21015 L283.75,3054.21015 L283.75,3058.03571 L277.5,3058.03571 Z M297.79375,3069.51237 L287.395625,3069.51237 C287.560625,3072.06274 289.31625,3073.23208 290.9725,3073.23208 C292.23125,3073.23208 293.29,3072.94708 293.953125,3072.16794 L297.198125,3075.03137 C295.8075,3076.85488 293.29,3077.95027 290.9725,3077.95027 C285.971875,3077.95027 282.7925,3074.35935 282.7925,3068.75108 C282.7925,3063.31178 286.136875,3059.50536 290.5425,3059.50536 C295.179375,3059.50536 297.860625,3063.3239 297.860625,3068.39212 C297.860625,3069.07116 297.8275,3069.51237 297.79375,3069.51237 Z M290.310625,3063.78551 C288.654375,3063.78551 287.628125,3064.41163 287.4625,3066.962 L293.42375,3066.962 C293.29125,3064.41163 292.36375,3063.78551 290.310625,3063.78551 Z M308.755625,3078 C304.218125,3078 300.609375,3074.21589 300.609375,3068.77659 C300.609375,3063.33729 304.12,3059.51938 308.954375,3059.51938 C312.26625,3059.51938 314.385625,3061.17521 315.843125,3063.4393 L312.83,3066.54693 C311.803125,3065.06006 310.710625,3064.0125 308.85625,3064.0125 C306.67,3064.0125 305.24625,3065.87044 305.24625,3068.77531 C305.24625,3071.61451 306.67,3073.50689 308.85625,3073.50689 C310.64375,3073.50689 311.77,3072.69651 312.963125,3071.24343 L315.876875,3074.04693 C314.186875,3076.34481 312.199375,3078 308.755625,3078 Z M329.375,3077.16348 L329.375,3068.03315 C329.375,3064.85858 328.779375,3063.91239 326.89125,3063.91239 C325.003125,3063.91239 324.375,3064.85922 324.375,3067.93369 L324.375,3077.16475 L319.375,3077.16475 L319.375,3055.33295 L324.375,3053 L324.375,3061.07638 C324.375,3060.23157 326.378125,3059.52257 328.199375,3059.52257 C332.6375,3059.52257 334.375,3062.6302 334.375,3067.6302 L334.375,3077.16475 L329.375,3077.16348 Z M352.634375,3060.87108 C351.80625,3059.25032 350.481875,3058.30349 348.39625,3058.30349 C344.91875,3058.30349 342.9325,3061.41239 342.9325,3065.80349 C342.9325,3070.06006 344.9525,3073.30349 348.429375,3073.30349 C350.5175,3073.30349 351.7425,3072.39174 352.966875,3070.29725 L356.875,3072.66144 C355.28625,3076.00625 352.5025,3077.99936 348.298125,3077.99936 C342.2375,3077.99936 338.163125,3073.26779 338.163125,3065.80222 C338.163125,3058.60635 342.40125,3053.60635 348.461875,3053.60635 C352.834375,3053.60635 355.48375,3055.76843 356.939375,3058.84162 L352.634375,3060.87108 Z M369.656875,3065.3304 C368.928125,3064.65391 368.190625,3064.18146 367.164375,3064.18146 C365.3775,3064.18146 364.375,3064.9606 364.375,3068.03252 L364.375,3077.16284 L359.375,3077.16284 L359.375,3059.31025 L364.375,3059.31025 L364.375,3061.07447 C365.625,3060.22966 366.1725,3059.52066 367.795625,3059.52066 C369.285,3059.52066 370.33125,3060.12765 370.926875,3060.77034 L369.656875,3065.3304 Z M384.375,3077.00472 L384.375,3076.44619 C383.125,3077.29036 382.371875,3078 380.550625,3078 C376.111875,3078 374.375,3074.8911 374.375,3069.89237 L374.375,3059.31089 L378.125,3059.31089 L378.125,3069.48559 C378.125,3072.66144 379.345625,3073.60763 381.234375,3073.60763 C383.119375,3073.60763 384.375,3072.66016 384.375,3069.58569 L384.375,3059.31025 L389.375,3059.31025 L389.375,3077.16284 L384.17875,3077.16284 L384.375,3077.00472 Z M402.5,3077.16348 L402.5,3068.03315 C402.5,3064.85858 402.216875,3063.91239 400.328125,3063.91239 C398.443125,3063.91239 398.125,3064.85922 398.125,3067.93369 L398.125,3077.16475 L393.125,3077.16475 L393.125,3059.31217 L398.125,3059.31217 L398.125,3061.07638 C398.125,3060.23157 399.815625,3059.52257 401.636875,3059.52257 C406.075625,3059.52257 407.5,3062.6302 407.5,3067.6302 L407.5,3077.16475 L402.5,3077.16348 Z M419.595,3078 C415.0575,3078 411.449375,3074.21589 411.449375,3068.77659 C411.449375,3063.33729 414.96,3059.51938 419.794375,3059.51938 C423.1075,3059.51938 425.22625,3061.17521 426.6825,3063.4393 L423.67125,3066.54693 C422.643125,3065.06006 421.551875,3064.0125 419.698125,3064.0125 C417.510625,3064.0125 416.08625,3065.87044 416.08625,3068.77531 C416.08625,3071.61451 417.510625,3073.50689 419.698125,3073.50689 C421.48375,3073.50689 422.611875,3072.69651 423.804375,3071.24343 L426.718125,3074.04693 C425.025,3076.34481 423.039375,3078 419.595,3078 Z M440,3077.62892 L440,3068.03315 C440,3064.85858 439.404375,3063.91239 437.515625,3063.91239 C435.630625,3063.91239 435,3064.85922 435,3067.93369 L435,3077.16475 L430,3077.16475 L430,3055.33295 L435,3053 L435,3061.07638 C435,3060.23157 437.003125,3059.52257 438.824375,3059.52257 C443.263125,3059.52257 445,3062.6302 445,3067.6302 L445,3077.16475 L440.1175,3077.16475 L440,3077.62892 Z" id="techcrunch" fill="#D4D4D4" fill-rule="nonzero"></path>
    </g>
</svg>