<?xml version="1.0" encoding="UTF-8"?>
<svg width="47px" height="60px" viewBox="0 0 47 60" version="1.1" xmlns="http://www.w3.org/2000/svg" xmlns:xlink="http://www.w3.org/1999/xlink">
    <!-- Generator: Sketch 48.2 (47327) - http://www.bohemiancoding.com/sketch -->
    <title>Combined Shape</title>
    <desc>Created with Sketch.</desc>
    <defs></defs>
    <g id="Customer-Stories" stroke="none" stroke-width="1" fill="none" fill-rule="evenodd" transform="translate(-844.000000, -797.000000)">
        <path d="M883.177872,822.19819 L883.177894,822.198213 C885.910581,824.20867 891,827.948608 891,835.53082 C891,843.850846 886.581892,848.918023 882.877365,851.703446 C878.403609,855.069507 872.46851,857 866.598117,857 C851.761301,857 844,848.511114 844,840.13145 C844,834.819338 847.981494,829.321801 854.636877,829.321801 C860.526903,829.321801 864.57603,833.165054 863.78323,838.862725 C866.280974,838.977853 867.984928,838.181498 869.36104,836.927349 C870.816455,835.602976 871.617066,833.677496 871.617066,831.509862 C871.617066,830.350359 871.297006,828.661055 868.165988,828.100873 C864.844176,827.509316 857.505548,826.849593 857.505548,823.304964 C857.505548,820.242352 866.247603,816.730897 866.247603,815.305976 C866.247603,814.1299 863.191085,813.724914 855.775155,813.724914 C850.786543,813.724914 846.477072,813.761043 844.931665,812.224911 C844.521572,811.816896 844.305285,811.305526 844.305285,810.748245 C844.305285,808.409864 847.499911,805.01554 852.441543,802.102197 C857.94689,798.858164 864.339045,797 869.985432,797 C881.91041,797 886.143474,803.739929 886.143474,809.51078 C886.143474,814.564258 883.716223,818.091428 882.4154,819.985749 C882.157057,820.35359 881.859567,820.799628 881.732261,821.038792 C881.965177,821.305198 882.631715,821.795191 883.177872,822.19819 Z M881.859549,850.354531 L881.859624,850.354456 C885.255806,847.797574 889.305791,843.154967 889.305791,835.530749 C889.305791,828.80148 884.840818,825.521261 882.171725,823.556656 C880.814273,822.55832 879.995038,821.955194 879.995038,821.078787 C879.995038,820.517511 880.356245,819.989581 881.015825,819.029176 C882.301038,817.164199 884.451287,814.040076 884.451287,809.510724 C884.451287,806.56033 883.229799,803.897943 881.018859,802.010493 C878.469223,799.836963 874.654037,798.688254 869.985485,798.688254 C857.663114,798.688254 845.997477,807.463101 845.997477,810.748203 C845.997477,811.182576 846.413488,811.612943 847.600728,811.612943 C849.525873,811.612943 852.871219,809.833736 856.426008,807.939414 C860.770685,805.619515 866.808513,802.32864 871.203984,802.626294 C869.050818,803.926293 867.839136,805.796147 867.839136,806.710737 C867.839136,807.030745 868.992037,806.670693 869.771115,806.415952 C872.347173,805.576566 877.039243,804.200492 880.814283,809.037327 C879.098495,808.649873 877.452346,808.879263 876.607656,809.496042 C876.426627,809.629734 876.332586,809.777141 876.332586,809.902036 C876.344413,810.036768 876.689872,810.420281 876.941416,810.704281 C877.745951,811.613837 878.969334,812.991048 878.969334,815.199608 C878.969334,817.421868 877.816437,819.789506 875.368561,821.363783 C875.872662,819.607062 875.736565,816.740666 874.757803,816.740666 C874.403527,816.740666 873.743915,817.28814 872.980458,817.919519 C872.250365,818.523622 871.34401,819.272238 870.175395,820.025642 C866.86722,822.148433 863.111813,824.315063 860.153141,824.473129 C864.064078,826.877919 880.166315,825.386588 884.822153,836.254882 C883.073139,835.422398 881.603109,834.973459 880.344468,834.973459 C880.055674,835.046674 879.924606,835.161794 879.924606,835.576586 C879.924606,835.852766 880.077209,836.327088 880.255361,836.874689 C880.990352,839.118412 882.438968,844.135761 877.405297,848.809614 C877.938646,846.335649 877.233974,843.111064 876.443166,843.111064 C876.13774,843.111064 875.773751,843.774699 875.348955,844.537877 C874.091234,846.806954 871.600381,851.15389 864.008291,852.142546 C865.334405,850.939193 866.316171,848.63887 865.950064,848.143989 C865.733772,847.82007 864.904827,848.176245 864.209862,848.368553 C861.430195,849.149195 856.181244,850.593694 851.674247,845.241549 C854.260997,845.477685 855.291618,844.833536 855.291618,844.440312 C855.286717,844.299716 854.859929,843.908384 854.580052,843.646864 C853.326313,842.490242 850.762957,839.6561 854.359844,835.656664 C854.123009,837.929648 855.277894,839.28725 856.202775,839.28725 C856.308547,839.28725 856.437719,839.132969 856.437719,838.580701 C856.437719,837.224081 857.616137,836.08026 859.009862,836.08026 C861.512534,836.08026 862.360102,838.363898 862.455913,839.013943 C863.100036,832.598063 857.951806,830.977933 854.645639,830.977933 C849.049208,830.977933 845.695079,835.647882 845.695079,840.131411 C845.695079,847.671689 852.877974,855.30949 866.598052,855.30949 C872.109263,855.30949 877.670431,853.503042 881.859549,850.354531 Z M859.214279,823.308872 L859.214259,823.308893 C859.214259,823.52548 859.648857,823.570412 859.813286,823.570412 C862.583086,823.570412 866.358125,821.39111 869.681931,819.258595 C870.801558,818.53647 871.684384,817.80643 872.395982,817.219889 C873.407982,816.383401 874.07259,815.830125 874.757626,815.830125 C875.177522,815.830125 875.548529,815.998973 875.830304,816.318131 C876.431355,817.000341 876.605492,818.486655 876.464589,819.491866 C877.403197,818.350067 878.055979,816.744603 878.055979,815.199669 C878.055979,813.335585 877.015648,812.165397 876.255101,811.310463 C875.769625,810.762958 875.417336,810.368629 875.417336,809.902096 C875.417336,809.61324 875.527883,809.179971 876.046719,808.777855 C876.585961,808.359186 877.537271,808.040943 878.694186,808.04583 C875.313635,805.57086 872.30885,806.547726 870.055857,807.280634 C869.203387,807.56085 868.466365,807.801874 867.841884,807.801874 C867.135219,807.801874 866.881745,807.361731 866.881745,806.949841 C866.881745,805.940715 867.558085,804.700224 868.588706,803.67354 C864.705058,804.556849 860.564047,806.7644 856.854623,808.74269 C854.319606,810.091423 852.026423,811.316346 850.138434,811.940914 C851.99116,812.09898 853.936949,812.041372 855.770086,812.03658 C860.805764,812.014093 865.562439,811.997541 867.254694,813.679066 C867.705925,814.127033 867.942734,814.691188 867.942734,815.30598 C867.942734,816.828456 865.975405,818.081622 863.482572,819.669498 C861.787428,820.746905 859.232904,822.375836 859.20065,823.308872 L859.214279,823.308872 Z M863.345582,840.464233 L863.345596,840.464259 C863.099963,841.086931 862.455846,842.03255 861.624911,842.674807 C862.45584,840.675038 861.512459,836.989812 859.009789,836.989812 C858.127888,836.989812 857.352827,837.732527 857.352827,838.580713 C857.352827,839.224763 857.352827,840.199704 856.20271,840.199704 C855.681087,840.199704 855.113396,839.901042 854.641644,839.378919 C854.240406,838.93786 853.9555,838.384489 853.800906,837.767678 C852.62735,840.593047 854.091597,841.95254 855.202441,842.978246 C855.763302,843.497493 856.20473,843.908375 856.20473,844.440305 C856.20473,844.79358 856.021676,845.147863 855.687886,845.432841 C855.225961,845.830952 854.542823,846.071125 853.75192,846.134534 C857.643383,849.255633 861.409597,848.207482 863.963147,847.494028 C864.750034,847.275456 865.426343,847.083116 865.970508,847.059783 L865.992137,847.059783 C866.339524,847.059783 866.632241,847.273438 866.778044,847.62772 C867.071645,848.343106 866.794646,849.666556 865.987236,850.900146 C871.652158,849.318177 873.450063,846.084818 874.551167,844.096718 C875.161931,842.995805 875.600419,842.200495 876.443085,842.200495 C876.696528,842.200495 877.077275,842.29903 877.452205,842.762537 C877.990424,843.430183 878.422145,844.778929 878.368263,846.459561 C881.094018,842.389812 880.041864,839.162216 879.38905,837.156657 C879.175768,836.507592 879.009346,835.995275 879.009346,835.576574 C879.009346,834.755883 879.565307,834.072667 880.187765,834.072667 C881.002096,834.072667 881.777284,834.188796 883.02318,834.621182 C880.626156,831.155537 875.969335,828.941082 871.628631,828.052 C872.785544,828.972359 873.309155,830.031198 873.309155,831.509823 C873.309155,834.119515 872.288341,836.54865 870.504063,838.172683 C868.679753,839.834747 866.280822,840.622299 863.345582,840.464233 Z" id="Combined-Shape" fill="#D4D4D4" fill-rule="nonzero"></path>
    </g>
</svg>