<?xml version="1.0" encoding="UTF-8"?>
<svg width="200px" height="36px" viewBox="0 0 200 36" version="1.1" xmlns="http://www.w3.org/2000/svg" xmlns:xlink="http://www.w3.org/1999/xlink">
    <!-- Generator: Sketch 48.2 (47327) - http://www.bohemiancoding.com/sketch -->
    <title>tia</title>
    <desc>Created with Sketch.</desc>
    <defs></defs>
    <g id="About" stroke="none" stroke-width="1" fill="none" fill-rule="evenodd" transform="translate(-505.000000, -3047.000000)">
        <path d="M575.324065,3055.60531 L559.761918,3055.60531 L559.761918,3059.63881 L565.179493,3059.63881 L565.179493,3073.6056 L569.908843,3073.6056 L569.908843,3059.63881 L575.324065,3059.63881 L575.324065,3055.60531 Z M576.641695,3073.6056 L591.361501,3073.6056 L591.361501,3069.5721 L581.369868,3069.5721 L581.369868,3066.14281 L590.268574,3066.14281 L590.268574,3062.51172 L581.371044,3062.51172 L581.371044,3059.36004 L591.108563,3059.36004 L591.108563,3055.60414 L576.641695,3055.60414 L576.641695,3073.60444 L576.641695,3073.6056 Z M608.221278,3062.1373 C608.100103,3057.97666 604.024863,3055.60531 600.268442,3055.60531 C594.99557,3055.60531 591.580321,3059.59682 591.580321,3064.60546 C591.580321,3069.61409 594.99557,3073.60677 600.267265,3073.60677 C604.682501,3073.60677 607.976575,3070.99397 608.220102,3066.54172 L603.682514,3066.54172 C603.510752,3068.52465 602.290768,3069.7354 600.168443,3069.7354 C597.23907,3069.7354 596.117908,3067.17159 596.117908,3064.60662 C596.117908,3062.04165 597.240247,3059.47901 600.168443,3059.47901 C602.071947,3059.47901 603.438988,3060.39816 603.682514,3062.13846 L608.221278,3062.13846 L608.221278,3062.1373 Z M609.585966,3073.6056 L614.315315,3073.6056 L614.315315,3066.19296 L620.543468,3066.19296 L620.543468,3073.6056 L625.272818,3073.6056 L625.272818,3055.60531 L620.543468,3055.60531 L620.543468,3062.16063 L614.314139,3062.16063 L614.314139,3055.60531 L609.584789,3055.60531 L609.584789,3073.6056 L609.585966,3073.6056 Z M627.526905,3073.6056 L629.256294,3073.6056 L629.256294,3055.60531 L627.526905,3055.60531 L627.526905,3073.6056 Z M631.535088,3073.6056 L633.264477,3073.6056 L633.264477,3058.37791 L633.315064,3058.37791 L643.891395,3073.6056 L645.825487,3073.6056 L645.825487,3055.60531 L644.096098,3055.60531 L644.096098,3070.83301 L644.045511,3070.83301 L633.46918,3055.60531 L631.536264,3055.60531 L631.536264,3073.6056 L631.535088,3073.6056 Z M647.261939,3073.6056 L652.117169,3073.6056 L653.26186,3070.3781 L659.591188,3070.3781 L660.711173,3073.6056 L665.645226,3073.6056 L658.85708,3055.60531 L654.051261,3055.60531 L647.263115,3073.6056 L647.261939,3073.6056 Z M656.414759,3060.59645 L656.465347,3060.59645 L658.474732,3066.89865 L654.354786,3066.89865 L656.413583,3060.59645 L656.414759,3060.59645 Z M664.699356,3067.43521 C664.722885,3071.86296 668.261662,3073.6056 672.263962,3073.6056 C676.094499,3073.6056 679.852097,3072.20239 679.852097,3067.82246 C679.852097,3064.7011 677.314483,3063.53934 674.801575,3062.83832 C672.263962,3062.13613 669.749877,3061.89351 669.749877,3060.56379 C669.749877,3059.42652 670.971038,3059.08826 671.946319,3059.08826 C673.338065,3059.08826 674.826281,3059.59566 674.753341,3061.16916 L679.290928,3061.16916 C679.267399,3057.2733 675.778033,3055.60531 672.312196,3055.60531 C669.041651,3055.60531 665.21229,3057.07967 665.21229,3060.85423 C665.21229,3064.02341 667.82402,3065.13501 670.312223,3065.83837 C672.825131,3066.53822 675.31451,3066.82983 675.31451,3068.35318 C675.31451,3069.63625 673.898058,3070.11915 672.532193,3070.11915 C670.602807,3070.11915 669.335765,3069.46595 669.238119,3067.43287 L664.699356,3067.43287 L664.699356,3067.43521 Z M680.88973,3073.6056 L685.619079,3073.6056 L685.619079,3055.60531 L680.88973,3055.60531 L680.88973,3073.6056 Z M686.616713,3073.6056 L691.47312,3073.6056 L692.616634,3070.3781 L698.948315,3070.3781 L700.065948,3073.6056 L705,3073.6056 L698.211854,3055.60531 L693.404859,3055.60531 L686.616713,3073.6056 Z M695.769534,3060.59645 L695.821298,3060.59645 L697.829506,3066.89865 L693.709561,3066.89865 L695.768357,3060.59645 L695.769534,3060.59645 Z M539.532773,3060.46348 L541.77392,3061.74655 C542.197444,3061.98916 542.671555,3061.51909 542.426853,3061.10035 L540.158647,3057.20448 C539.973944,3056.88955 539.51395,3056.88955 539.330423,3057.20448 L524.584735,3082.5276 C524.215329,3083.15747 523.296517,3083.15747 522.928287,3082.5276 L518.081292,3074.14449 C517.913059,3073.85522 517.857765,3073.52862 517.857765,3073.19619 L517.857765,3065.89202 C517.857765,3065.33214 517.575416,3064.80025 517.142481,3064.44099 L505.347342,3054.65467 C504.664999,3054.08546 505.053229,3052.99252 505.944982,3052.99252 L525.928247,3052.99252 C526.263537,3052.99252 526.592944,3053.06833 526.883529,3053.23513 L531.848169,3056.06955 C532.075225,3056.20135 532.154047,3056.48946 532.022284,3056.71458 L529.841137,3060.45881 C529.708197,3060.68626 529.417613,3060.76208 529.188204,3060.63377 L525.454136,3058.53187 C525.162375,3058.36624 524.832967,3058.31609 524.497678,3058.31609 L519.115396,3058.31609 C518.668343,3058.31609 518.464816,3058.82931 518.807165,3059.11275 L522.33653,3062.06848 C522.769465,3062.43007 522.971816,3062.94097 522.971816,3063.50318 L522.971816,3072.9454 C522.971816,3073.42947 523.665924,3073.6021 523.910627,3073.18219 L538.90337,3047.47415 C539.2716,3046.84195 540.202176,3046.84195 540.570407,3047.47415 L555.981968,3073.9287 C556.470197,3074.76853 555.525503,3075.7075 554.678456,3075.22344 L536.871632,3065.02887 C536.6434,3064.89823 536.565754,3064.60896 536.697517,3064.38267 L538.878664,3060.63844 C539.010427,3060.41099 539.302188,3060.33284 539.531597,3060.46348 L539.532773,3060.46348 Z" id="tia" fill="#D4D4D4" fill-rule="nonzero"></path>
    </g>
</svg>