<?xml version="1.0" encoding="UTF-8"?>
<svg width="44px" height="48px" viewBox="0 0 44 48" version="1.1" xmlns="http://www.w3.org/2000/svg" xmlns:xlink="http://www.w3.org/1999/xlink">
    <!-- Generator: Sketch 48.2 (47327) - http://www.bohemiancoding.com/sketch -->
    <title>trade-desk</title>
    <desc>Created with Sketch.</desc>
    <defs></defs>
    <g id="Integration-Overview" stroke="none" stroke-width="1" fill="none" fill-rule="evenodd" transform="translate(-558.000000, -1084.000000)">
        <g id="tradedesk" transform="translate(451.000000, 1038.000000)" fill="#FFFFFF">
            <path d="M114.126248,71.2621502 C114.126248,77.1426748 117.320434,82.248907 122.012602,84.8356256 L122.012602,92.8263076 C113.288705,89.8080225 107,81.2952101 107,71.2621502 C107,66.2055079 108.599687,61.5388837 111.302944,57.7641127 L121.872918,57.7641127 L121.872918,57.7648786 C117.256706,60.3734244 114.126248,65.4398315 114.126248,71.2621502 Z M118.036079,46 L132.560345,46 L132.560345,53.3620959 L132.560345,72.9983725 L125.437061,72.9983725 L125.437061,53.4790822 L118.036079,53.4790822 L118.036079,46 Z M136.126155,49.7504547 C144.778173,52.8106711 150.999815,61.2825095 151,71.2634904 C151,83.8200849 141.149375,94 128.999722,94 C127.789073,94 126.603063,93.8960334 125.445027,93.7032262 L125.445027,86.1931263 C126.583982,86.4812841 127.774438,86.635415 128.999722,86.635415 C137.214906,86.635415 143.877457,79.7512206 143.877457,71.263299 C143.877457,65.4388742 140.743294,60.3732329 136.126155,57.7633468 L136.126155,49.7504547 Z" id="trade-desk"></path>
        </g>
    </g>
</svg>