<?xml version="1.0" encoding="UTF-8"?>
<svg width="17px" height="14px" viewBox="0 0 17 14" version="1.1" xmlns="http://www.w3.org/2000/svg" xmlns:xlink="http://www.w3.org/1999/xlink">
    <!-- Generator: Sketch 48.2 (47327) - http://www.bohemiancoding.com/sketch -->
    <title>tw</title>
    <desc>Created with Sketch.</desc>
    <defs></defs>
    <g id="layout/footer" stroke="none" stroke-width="1" fill="none" fill-rule="evenodd" transform="translate(-1181.000000, -683.000000)">
        <g id="social" transform="translate(1181.000000, 682.000000)" fill="#FFFFFF">
            <path d="M14.9965844,3.21362332 C15.7170275,2.77650277 16.2697257,2.08408388 16.5299454,1.25810038 C15.8562005,1.66346432 15.1099505,1.95736874 14.3151589,2.11615184 C13.6795099,1.42964841 12.7728883,1 11.769798,1 C9.84380309,1 8.28248455,2.58253831 8.28248455,4.53432517 C8.28248455,4.81110592 8.31289984,5.08072587 8.37250154,5.33976027 C5.47383164,5.19218538 2.90389272,3.78524251 1.18373875,1.64696333 C0.883272491,2.16876821 0.711533596,2.77588009 0.711533596,3.42408878 C0.711533596,4.65014344 1.32721293,5.73204795 2.26302093,6.36593502 C1.69158203,6.34725465 1.15363068,6.18816021 0.683268876,5.92352169 C0.682961651,5.93815465 0.682961651,5.95309894 0.682961651,5.96835457 C0.682961651,7.68041008 1.88513391,9.10852403 3.48086168,9.43387373 C3.18807605,9.5141993 2.87992916,9.55747548 2.56195106,9.55747548 C2.33675498,9.55747548 2.11862508,9.53537038 1.90541078,9.49396224 C2.34965844,10.8981031 3.63754654,11.9202304 5.16353417,11.9485623 C3.96965699,12.8965908 2.46609679,13.4619832 0.83196588,13.4619832 C0.550547584,13.4619832 0.27281599,13.4448596 0,13.4118576 C1.5438067,14.4153046 3.37701955,15 5.34633318,15 C11.7618101,15 15.2697076,9.6144506 15.2697076,4.94404786 C15.2697076,4.79086886 15.2663281,4.6380012 15.2595692,4.48606756 C15.9409947,3.9888585 16.5324032,3.36617964 17,2.65725977 C16.3747967,2.93871061 15.7022807,3.12862766 14.9965844,3.21362332" id="tw"></path>
        </g>
    </g>
</svg>