<?xml version="1.0" encoding="UTF-8"?>
<svg width="50px" height="41px" viewBox="0 0 50 41" version="1.1" xmlns="http://www.w3.org/2000/svg" xmlns:xlink="http://www.w3.org/1999/xlink">
    <!-- Generator: Sketch 48.2 (47327) - http://www.bohemiancoding.com/sketch -->
    <title>twitter</title>
    <desc>Created with Sketch.</desc>
    <defs></defs>
    <g id="Connect-New-Integration" stroke="none" stroke-width="1" fill="none" fill-rule="evenodd" transform="translate(-578.000000, -760.000000)">
        <g id="twitter-ads" transform="translate(498.000000, 700.000000)" fill="#FFFFFF">
            <path d="M123.583036,66.478 C125.676786,65.1988 127.283036,63.1724889 128.039286,60.7553111 C126.08125,61.9415778 123.9125,62.8016667 121.602679,63.2663333 C119.755357,61.2573333 117.120536,60 114.205357,60 C108.608036,60 104.070536,64.6311778 104.070536,70.3429333 C104.070536,71.1529111 104.158929,71.9419333 104.332143,72.6999778 C95.9080357,72.2681111 88.4392857,68.1508 83.4401786,61.8932889 C82.5669643,63.4203111 82.0678571,65.1969778 82.0678571,67.0939111 C82.0678571,70.6818667 83.8571429,73.8479778 86.5767857,75.703 C84.9160714,75.6483333 83.3526786,75.1827556 81.9857143,74.4083111 C81.9848214,74.4511333 81.9848214,74.4948667 81.9848214,74.5395111 C81.9848214,79.5497111 85.4785714,83.7289778 90.1160714,84.6810889 C89.2651786,84.9161556 88.3696429,85.0428 87.4455357,85.0428 C86.7910714,85.0428 86.1571429,84.9781111 85.5375,84.8569333 C86.8285714,88.9660444 90.5714286,91.9572222 95.00625,92.0401333 C91.5366071,94.8144667 87.1669643,96.4690444 82.4178571,96.4690444 C81.6,96.4690444 80.7928571,96.4189333 80,96.3223556 C84.4866071,99.2588667 89.8142857,100.969933 95.5375,100.969933 C114.182143,100.969933 124.376786,85.2095333 124.376786,71.5419556 C124.376786,71.0936889 124.366964,70.6463333 124.347321,70.2017111 C126.327679,68.7466667 128.046429,66.9244444 129.405357,64.8498444 C127.588393,65.6734889 125.633929,66.2292667 123.583036,66.478" id="twitter"></path>
        </g>
    </g>
</svg>