<?xml version="1.0" encoding="UTF-8"?>
<svg width="100px" height="100px" viewBox="0 0 100 100" version="1.1" xmlns="http://www.w3.org/2000/svg" xmlns:xlink="http://www.w3.org/1999/xlink">
    <!-- Generator: Sketch 48.2 (47327) - http://www.bohemiancoding.com/sketch -->
    <title>valuable</title>
    <desc>Created with Sketch.</desc>
    <defs>
        <path d="M-0.0002,50 C-0.0002,22.386 22.3858,0 49.9998,0 C77.6138,0 99.9998,22.386 99.9998,50 C99.9998,77.614 77.6138,100 49.9998,100 C22.3858,100 -0.0002,77.614 -0.0002,50" id="path-1"></path>
    </defs>
    <g id="Storytelling" stroke="none" stroke-width="1" fill="none" fill-rule="evenodd" transform="translate(-1045.000000, -1536.000000)">
        <g id="Group-2" transform="translate(170.000000, 1496.000000)">
            <g id="valuable" transform="translate(875.000000, 40.000000)">
                <mask id="mask-2" fill="white">
                    <use xlink:href="#path-1"></use>
                </mask>
                <use id="Mask" fill="#D0E5E1" xlink:href="#path-1"></use>
                <g id="diamond" mask="url(#mask-2)">
                    <g transform="translate(-13.000000, 24.000000)">
                        <path d="M0,35 L34.0198807,35 C35.1133201,35 36,35.8991274 36,37.0066751 L36,53.817236 C36,55.6618064 34.7137177,57.2496271 32.9284294,57.6080698 L0,62 L0,35 Z" id="Fill-3" fill="#42858C"></path>
                        <path d="M34,40.5 C34,41.8803548 32.8811945,43 31.499459,43 C30.1198875,43 29,41.8803548 29,40.5 C29,39.1196452 30.1198875,38 31.499459,38 C32.8811945,38 34,39.1196452 34,40.5" id="Fill-5" fill-opacity="0.88" fill="#D0E5E1"></path>
                        <polygon id="Fill-7" fill="#42858C" points="74.5 9 65.0009887 9 55.5 9 46 17.793238 65.0009887 37 84 17.793238"></polygon>
                        <polygon id="Page-1" fill="#FFFFFF" points="74.5 -4.97379915e-14 72.6008368 6.6002152 66 8.4994919 66 8.5005081 72.6008368 10.3997848 74.5 17 76.3991632 10.3997848 83 8.5005081 76.3991632 6.6002152"></polygon>
                        <path d="M36,36.1489725 L59.0248887,29.1990772 C60.8570867,28.6453632 62.8468176,29.2717276 64.005738,30.7669515 C64.6147983,31.5513796 64.4221466,32.6754975 63.5863191,33.2243026 L50.1478595,40.7632553 L75.1133127,40.7632553 L94.4296562,35.3292009 C96.215698,34.8265386 98.1402082,35.2732405 99.5048245,36.5053522 L99.5048245,36.5063339 C100.227268,37.1582241 100.148,38.2980501 99.3402678,38.8488188 L81.076485,51.2975647 C77.9529186,53.4270071 74.1329965,54.3479002 70.355217,53.8815631 L46.26071,50.9097686 C44.2519146,50.6623645 42.212014,50.8351547 40.2764665,51.4183215 L36,52.7054118 L36,36.1489725 Z" id="Fill-9" fill-opacity="0.88" fill="#94BFB6"></path>
                    </g>
                </g>
            </g>
        </g>
    </g>
</svg>