<?xml version="1.0" encoding="UTF-8"?>
<svg width="100px" height="36px" viewBox="0 0 100 36" version="1.1" xmlns="http://www.w3.org/2000/svg" xmlns:xlink="http://www.w3.org/1999/xlink">
    <!-- Generator: Sketch 48.2 (47327) - http://www.bohemiancoding.com/sketch -->
    <title>yahoo</title>
    <desc>Created with Sketch.</desc>
    <defs></defs>
    <g id="Integration-Overview" stroke="none" stroke-width="1" fill="none" fill-rule="evenodd" transform="translate(-810.000000, -784.000000)">
        <g id="yahoo" transform="translate(731.000000, 732.000000)" fill="#FFFFFF">
            <g transform="translate(79.000000, 52.000000)">
                <path d="M59.3959036,20.0551515 C55.0862651,20.0551515 52.5525301,16.9484848 52.5525301,11.7072727 C52.5525301,5.78 55.673012,3.39333333 59.2187952,3.32060606 C59.2742169,3.31939394 59.3320482,3.32060606 59.3886747,3.32060606 C63.3416867,3.32060606 66.246506,6.02969697 66.246506,11.6915152 C66.246506,17.3472727 63.3453012,20.0551515 59.3959036,20.0551515 M59.3766265,2.20424242 C65.3814458,2.20424242 69.2561446,5.78606061 69.2561446,11.7375758 C69.2561446,17.0757576 66.0103614,21.0975758 59.3681928,21.0975758 C53.2224096,21.0975758 49.5187952,17.5290909 49.5187952,11.6757576 C49.5187952,6.32909091 52.9103614,2.20424242 59.3766265,2.20424242 Z M18.3108434,0 C17.1590361,1.56606061 12.9650602,8.88363636 10.4228916,13.369697 L10.6048193,23.2436364 C10.6048193,23.2436364 9.79638554,23.0945455 9.14578313,23.0945455 C8.55783133,23.0945455 7.68072289,23.2436364 7.68072289,23.2436364 L7.8626506,13.369697 C6.50120482,11.0012121 2.49759036,3.78787879 0,0 C1.25783133,0.287272727 1.78554217,0.27030303 3.04698795,0 C4.6373494,2.83636364 7.08072289,6.80484848 9.14337349,10.2424242 C11.1771084,6.87757576 14.3722892,1.6230303 15.2385542,0 C16.2228916,0.258181818 17.2120482,0.250909091 18.3096386,0 L18.3084337,0.00121212121 C18.3096386,0 18.3108434,0 18.3108434,0 Z M26.0280723,14.170303 C23.8666265,14.2454545 21.7051807,14.2466667 19.5437349,14.170303 L19.5425301,14.170303 C20.8654217,10.7945455 22.1220482,7.53878788 22.7846988,5.61878788 C23.7943373,8.45393939 24.9051807,11.3084848 26.0353012,14.1727273 L26.0280723,14.170303 Z M23.8485542,2.44666667 L23.8461446,2.44787879 L23.8485542,2.44666667 C23.0907229,2.71212121 22.4726506,2.69757576 21.7268675,2.44787879 L21.7244578,2.44545455 C19.2690361,8.64181818 16.4413253,15.6357576 13.8979518,20.8515152 L13.8979518,20.8539394 L13.9075904,20.8490909 C13.9039759,20.850303 13.9015663,20.850303 13.8979518,20.8515152 L13.9196386,20.8442424 L13.9075904,20.8490909 C15.0714458,20.5593939 16.1810843,20.6490909 16.9148193,20.8478788 C16.9136145,20.8478788 16.9124096,20.8466667 16.91,20.8454545 L16.9148193,20.8466667 C17.563012,19.1993939 18.3003614,17.3315152 19.0389157,15.4527273 L19.0425301,15.4551515 C21.5413253,15.3824242 24.0425301,15.3739394 26.5413253,15.4551515 L26.5413253,15.4551515 C27.2521687,17.2515152 27.9642169,19.0527273 28.6593976,20.8527273 L28.6593976,20.8539394 C29.7714458,20.5618182 30.8798795,20.6406061 31.6991566,20.8478788 L31.696747,20.8466667 C29.8642169,17.4042424 26.1859036,8.3969697 23.8485542,2.44666667 L23.8485542,2.44666667 Z M81.7144578,21.0979394 C77.3542169,21.0979394 73.3819277,18.5233939 73.3819277,11.574303 C73.3819277,4.37187879 77.7843373,2.2409697 81.7060241,2.2409697 C86.5421687,2.2409697 90.1036145,5.19612121 90.1036145,11.7149091 C90.1036145,18.7997576 85.7963855,21.0979394 81.7144578,21.0979394 M81.6987952,1.09672727 C88.946988,1.09672727 93.1433735,5.41309091 93.1433735,11.7149091 C93.1433735,18.3973333 88.6445783,22.2094545 81.7518072,22.2094545 C73.6108434,22.2094545 70.3385542,17.2494545 70.3385542,11.614303 C70.3385542,4.77551515 75.260241,1.09672727 81.6987952,1.09672727 Z M98.5772289,0.268121212 C99.343494,0.396606061 99.8543373,0.869333333 99.8543373,1.68145455 C99.8543373,1.94933333 99.7446988,2.32751515 99.67,2.64751515 C99.156747,4.92266667 97.1543373,12.9626667 96.309759,18.3287273 L96.3121687,18.3311515 C95.9736145,18.1941818 95.6254217,18.0766061 95.1760241,18.1541818 L95.1724096,18.1553939 L95.1687952,18.1553939 L95.1736145,18.1517576 C95.9157831,12.8681212 96.3675904,7.31418182 96.8013253,1.77721212 C96.8013253,0.672969697 97.5266265,0.241454545 98.2579518,0.241454545 C98.3868675,0.241454545 98.5760241,0.268121212 98.5760241,0.268121212 L98.5760241,0.269333333 L98.5772289,0.268121212 Z M45.5910843,2.45333333 C46.5898795,2.69575758 47.6043373,2.7030303 48.6392771,2.45333333 C48.3742169,8.59636364 48.3971084,14.7284848 48.6392771,20.8521212 C47.6489157,20.6109091 46.6356627,20.6012121 45.5946988,20.8521212 L45.6007229,20.8484848 L45.5910843,20.8521212 C45.7416867,17.9951515 45.8187952,15.1418182 45.8284337,12.2909091 C42.4212048,12.2448485 39.0139759,12.2472727 35.6055422,12.2945455 C35.6151807,15.1442424 35.6922892,17.9963636 35.8428916,20.8521212 L35.833253,20.8484848 L35.8380723,20.8521212 C34.7983133,20.6012121 33.7838554,20.6109091 32.7946988,20.8521212 C33.0368675,14.7284848 33.0609639,8.59636364 32.7946988,2.45333333 C33.8284337,2.7030303 34.8440964,2.69575758 35.8428916,2.45333333 C35.6946988,5.31272727 35.6163855,8.17575758 35.6055422,11.04 C39.0103614,11.1260606 42.4175904,11.1187879 45.8284337,11.04 C45.8175904,8.17575758 45.7380723,5.31272727 45.5910843,2.45333333 Z M95.0780723,20.3770909 C95.9961446,20.3770909 96.6828916,20.9286061 96.6828916,21.8122424 C96.6828916,22.9104242 95.9587952,23.3152727 95.2985542,23.3152727 C94.3816867,23.3152727 93.6419277,22.8364848 93.6419277,21.9043636 C93.6419277,21.1128485 94.1190361,20.3770909 95.0780723,20.3770909 Z"></path>
                <path d="M36.9915181,27.726036 C36.1275181,26.874036 34.9995181,26.442036 33.8715181,26.442036 C30.9075181,26.442036 29.4315181,28.626036 29.4315181,30.990036 C29.4315181,33.198036 30.7155181,35.274036 33.8715181,35.274036 C35.3475181,35.274036 36.3915181,34.710036 37.2195181,33.762036 L37.2195181,30.222036 L33.6195181,30.222036 L33.6195181,31.638036 L35.7675181,31.638036 L35.7675181,33.126036 C35.1075181,33.654036 34.5315181,33.798036 33.8715181,33.798036 C31.7835181,33.798036 30.9795181,32.370036 30.9795181,30.990036 C30.9795181,29.262036 32.0715181,27.894036 33.8715181,27.894036 C34.6035181,27.894036 35.4435181,28.194036 36.0075181,28.734036 L36.9915181,27.726036 Z M44.7795181,33.522036 L40.0635181,33.522036 L40.0635181,31.626036 L44.6115181,31.626036 L44.6115181,30.150036 L40.0635181,30.150036 L40.0635181,28.218036 L44.7795181,28.218036 L44.7795181,26.682036 L38.4915181,26.682036 L38.4915181,35.082036 L44.7795181,35.082036 L44.7795181,33.522036 Z M53.3235181,35.094036 L54.9075181,35.094036 L54.9075181,26.694036 L53.0955181,26.694036 L50.4675181,30.306036 L47.8395181,26.694036 L46.0155181,26.694036 L46.0155181,35.094036 L47.5995181,35.094036 L47.5995181,28.986036 L50.2755181,32.646036 L50.5875181,32.646036 L53.3235181,28.998036 L53.3235181,35.094036 Z M57.9795181,35.082036 L57.9795181,26.682036 L56.4075181,26.682036 L56.4075181,35.082036 L57.9795181,35.082036 Z M64.9875181,31.890036 L60.8715181,26.682036 L59.5875181,26.682036 L59.5875181,35.082036 L61.1715181,35.082036 L61.1715181,29.418036 L65.5875181,35.094036 L65.5875181,35.082036 L66.5715181,35.082036 L66.5715181,26.670036 L64.9875181,26.670036 L64.9875181,31.890036 Z M69.6075181,35.082036 L69.6075181,26.682036 L68.0355181,26.682036 L68.0355181,35.082036 L69.6075181,35.082036 Z" id="gemini"></path>
            </g>
        </g>
    </g>
</svg>