<?xml version="1.0" encoding="UTF-8"?>
<svg width="55px" height="39px" viewBox="0 0 55 39" version="1.1" xmlns="http://www.w3.org/2000/svg" xmlns:xlink="http://www.w3.org/1999/xlink">
    <!-- Generator: Sketch 48.2 (47327) - http://www.bohemiancoding.com/sketch -->
    <title>youtube</title>
    <desc>Created with Sketch.</desc>
    <defs></defs>
    <g id="Page-1" stroke="none" stroke-width="1" fill="none" fill-rule="evenodd">
        <path d="M22.691,38.242 C12.426,38.053 8.92,37.883 6.765,37.439 C5.307,37.144 4.04,36.489 3.111,35.539 C2.393,34.82 1.822,33.723 1.379,32.201 C0.999,30.933 0.851,29.878 0.64,27.301 C0.317,21.485 0.24,16.73 0.64,11.417 C0.97,8.483 1.13,5 3.322,2.968 C4.357,2.017 5.561,1.405 6.913,1.152 C9.025,0.751 18.023,0.434 27.338,0.434 C36.632,0.434 45.65,0.751 47.764,1.152 C49.453,1.469 51.037,2.419 51.967,3.644 C53.967,6.79 54.002,10.702 54.205,13.762 C54.289,15.22 54.289,23.499 54.205,24.957 C53.889,29.793 53.635,31.504 52.917,33.278 C52.473,34.398 52.094,34.989 51.438,35.644 C50.4091633,36.6519581 49.0975594,37.3224109 47.678,37.566 C38.795,38.234 31.252,38.379 22.691,38.242 Z M36.294,18.81 C31.352,16.169 26.62,13.72 21.783,11.185 L21.783,26.351 C26.873,23.584 32.239,21.049 36.315,18.789 L36.294,18.81 Z" id="youtube" fill="#FFFFFF" fill-rule="nonzero"></path>
    </g>
</svg>