<?xml version="1.0" encoding="utf-8"?>
<!-- Generator: Adobe Illustrator 22.0.1, SVG Export Plug-In . SVG Version: 6.00 Build 0)  -->
<svg version="1.1" id="Layer_1" xmlns="http://www.w3.org/2000/svg" xmlns:xlink="http://www.w3.org/1999/xlink" x="0px" y="0px"
	 viewBox="0 0 748 424" style="enable-background:new 0 0 748 424;" xml:space="preserve">
<style type="text/css">
	.st0{filter:url(#filter-2);}
	.st1{fill:#F3F3F3;}
	.st2{fill:none;stroke:#EEEEEE;stroke-width:0.7812;}
	.st3{fill:#E5E5E5;}
	.st4{fill:#818181;}
	.st5{fill:#FFFFFF;}
	.st6{fill:none;stroke:#F2F2F2;}
	.st7{fill:#42858C;}
	.st8{enable-background:new    ;}
	.st9{fill:#353C45;}
	.st10{filter:url(#filter-4);}
	.st11{fill:#2BADE8;}
	.st12{fill:url(#Oval-5-Copy-3_1_);}
	.st13{fill:#F9F9F9;}
	.st14{fill:#F57E02;}
	.st15{fill:#FFC313;}
	.st16{fill:url(#Shape_6_);}
	.st17{fill:#003366;}
	.st18{fill:#CD201F;}
	.st19{fill:#3D5B97;}
	.st20{fill:#3C3256;}
	.st21{fill:#E0D6E9;}
	.st22{fill:#8B7EBA;}
</style>
<filter  filterUnits="objectBoundingBox" height="210.9%" id="filter-4" width="124.1%" x="-12.1%" y="-41.4%">
	<feOffset  dx="0" dy="18" in="SourceAlpha" result="shadowOffsetOuter1"></feOffset>
	<feGaussianBlur  in="shadowOffsetOuter1" result="shadowBlurOuter1" stdDeviation="20"></feGaussianBlur>
	
		<feColorMatrix  in="shadowBlurOuter1" result="shadowMatrixOuter1" type="matrix" values="0 0 0 0 0   0 0 0 0 0   0 0 0 0 0  0 0 0 0.08 0">
		</feColorMatrix>
	<feOffset  dx="0" dy="0" in="SourceAlpha" result="shadowOffsetOuter2"></feOffset>
	<feGaussianBlur  in="shadowOffsetOuter2" result="shadowBlurOuter2" stdDeviation="1"></feGaussianBlur>
	
		<feColorMatrix  in="shadowBlurOuter2" result="shadowMatrixOuter2" type="matrix" values="0 0 0 0 0   0 0 0 0 0   0 0 0 0 0  0 0 0 0.05 0">
		</feColorMatrix>
	<feMerge>
		<feMergeNode  in="shadowMatrixOuter1"></feMergeNode>
		<feMergeNode  in="shadowMatrixOuter2"></feMergeNode>
	</feMerge>
</filter>
<filter  filterUnits="objectBoundingBox" height="135.3%" id="filter-2" width="120.1%" x="-10.0%" y="-13.2%">
	<feOffset  dx="0" dy="18" in="SourceAlpha" result="shadowOffsetOuter1"></feOffset>
	<feGaussianBlur  in="shadowOffsetOuter1" result="shadowBlurOuter1" stdDeviation="20"></feGaussianBlur>
	<feComposite  in="shadowBlurOuter1" in2="SourceAlpha" operator="out" result="shadowBlurOuter1"></feComposite>
	
		<feColorMatrix  in="shadowBlurOuter1" result="shadowMatrixOuter1" type="matrix" values="0 0 0 0 0   0 0 0 0 0   0 0 0 0 0  0 0 0 0.08 0">
		</feColorMatrix>
	<feOffset  dx="0" dy="0" in="SourceAlpha" result="shadowOffsetOuter2"></feOffset>
	<feGaussianBlur  in="shadowOffsetOuter2" result="shadowBlurOuter2" stdDeviation="1"></feGaussianBlur>
	<feComposite  in="shadowBlurOuter2" in2="SourceAlpha" operator="out" result="shadowBlurOuter2"></feComposite>
	
		<feColorMatrix  in="shadowBlurOuter2" result="shadowMatrixOuter2" type="matrix" values="0 0 0 0 0   0 0 0 0 0   0 0 0 0 0  0 0 0 0.05 0">
		</feColorMatrix>
	<feMerge>
		<feMergeNode  in="shadowMatrixOuter1"></feMergeNode>
		<feMergeNode  in="shadowMatrixOuter2"></feMergeNode>
	</feMerge>
</filter>
<title>channel-data</title>
<desc>Created with Sketch.</desc>
<g id="Rectangle">
	<g class="st0">
		<path id="path-1_2_" d="M44,22h700c2.2,0,4,1.8,4,4v398H40V26C40,23.8,41.8,22,44,22z"/>
	</g>
	<g>
		<path id="path-1_1_" class="st1" d="M44,22h700c2.2,0,4,1.8,4,4v398H40V26C40,23.8,41.8,22,44,22z"/>
	</g>
	<path class="st2" d="M40.4,423.6h707.2V26c0-2-1.6-3.6-3.6-3.6H44c-2,0-3.6,1.6-3.6,3.6V423.6z"/>
</g>
<path id="Rectangle-35" class="st3" d="M61,38h26c2.2,0,4,1.8,4,4v26c0,2.2-1.8,4-4,4H61c-2.2,0-4-1.8-4-4V42C57,39.8,58.8,38,61,38
	z"/>
<path id="Rectangle_1_" class="st4" d="M66,47h16c1.1,0,2,0.9,2,2v12c0,1.1-0.9,2-2,2H66c-1.1,0-2-0.9-2-2V49C64,47.9,64.9,47,66,47
	z"/>
<path id="Rectangle-Copy-2" class="st5" d="M134,112h610c2.2,0,4,1.8,4,4v308H130V116C130,113.8,131.8,112,134,112z"/>
<circle id="Oval" class="st6" cx="195" cy="177" r="34.5"/>
<path id="Combined-Shape" class="st7" d="M175,190.7v-10.9h4.3v10.9H175z M184.1,191v-17.4h4.3V191H184.1z M210.7,191v-12.3h4.3V191
	H210.7z M201.9,191v-20.9h4.3V191H201.9z M193,191v-28h4.3v28H193z"/>
<g class="st8">
	<path class="st9" d="M251.7,158.9V172h-2.6v-13.1h-4.9v-2.3h12.3v2.3H251.7z"/>
	<path class="st9" d="M267.9,166.1c0,3.5-2.5,5.9-6.1,5.9c-3.6,0-6.1-2.4-6.1-5.9c0-3.5,2.5-5.9,6.1-5.9
		C265.4,160.2,267.9,162.6,267.9,166.1z M258.2,166.2c0,2.3,1.5,3.8,3.6,3.8c2.1,0,3.6-1.5,3.6-3.8c0-2.2-1.5-3.8-3.6-3.8
		C259.7,162.4,258.2,163.9,258.2,166.2z"/>
	<path class="st9" d="M282.6,166.2c0,3.5-2.2,5.9-5.5,5.9c-1.9,0-3.3-0.7-4.1-2.1v6.3h-2.5v-16h2.5v2c0.9-1.4,2.3-2.1,4.1-2.1
		C280.3,160.2,282.6,162.6,282.6,166.2z M280,166.1c0-2.2-1.5-3.8-3.6-3.8s-3.6,1.6-3.6,3.8c0,2.3,1.5,3.8,3.6,3.8
		S280,168.3,280,166.1z"/>
	<path class="st9" d="M292.6,158.9v3.3l2.1,0c3.3,0,5.5,2,5.5,4.7c0,3.1-2.2,5.2-5.7,5.2c-1.8,0-4-0.7-5.5-1.8l1-2.1
		c1.2,1,2.8,1.6,4.2,1.6c2,0,3.2-1,3.2-2.8c0-1.6-1.2-2.5-3.2-2.5c-0.9,0-3,0.1-4,0.2v-8.1h9.4l0,2.3H292.6z"/>
	<path class="st9" d="M314.4,156.6c3.9,0,6.1,1.9,6.1,5.3c0,3.5-2.2,5.5-6.1,5.5h-3.5v4.6h-2.6v-15.4H314.4z M310.9,165h3.4
		c2.4,0,3.7-1,3.7-3.1c0-2-1.3-3-3.7-3h-3.4V165z"/>
	<path class="st9" d="M332.9,167.1h-8.8c0.4,1.8,1.8,2.9,3.6,2.9c1.3,0,2.4-0.5,3.3-1.4l1.3,1.4c-1.1,1.3-2.8,2-4.8,2
		c-3.6,0-6-2.4-6-5.9c0-3.5,2.4-5.9,5.9-6C331.6,160.2,333.2,162.9,332.9,167.1z M330.7,165.3c-0.1-1.9-1.3-3-3.3-3
		c-1.8,0-3.1,1.2-3.4,3H330.7z"/>
	<path class="st9" d="M337.8,162.6c0.8-1.6,2.2-2.4,4-2.4v2.4c-2.4-0.1-3.9,1.3-4,3.3v6.1h-2.5v-11.7h2.5V162.6z"/>
	<path class="st9" d="M346.7,159.3v1.4h3.1v1.9h-3.1v9.4h-2.5v-9.4h-1.5v-1.9h1.5v-1.1c0-2.7,2-4,4-4c0.9,0,1.9,0.3,2.6,0.8l-1,1.9
		c-0.5-0.4-1.1-0.6-1.6-0.6C347.4,157.8,346.7,158.2,346.7,159.3z"/>
	<path class="st9" d="M361.8,166.1c0,3.5-2.5,5.9-6.1,5.9c-3.6,0-6.1-2.4-6.1-5.9c0-3.5,2.5-5.9,6.1-5.9
		C359.3,160.2,361.8,162.6,361.8,166.1z M352.1,166.2c0,2.3,1.5,3.8,3.6,3.8c2.1,0,3.6-1.5,3.6-3.8c0-2.2-1.5-3.8-3.6-3.8
		C353.6,162.4,352.1,163.9,352.1,166.2z"/>
	<path class="st9" d="M366.7,162.6c0.8-1.6,2.2-2.4,4-2.4v2.4c-2.4-0.1-3.9,1.3-4,3.3v6.1h-2.5v-11.7h2.5V162.6z"/>
	<path class="st9" d="M392.1,164.7v7.3h-2.5v-6.6c0-1.8-1.1-2.9-2.8-2.9c-2,0.1-3.2,1.6-3.2,3.7v5.8h-2.5v-6.6c0-1.8-1-2.9-2.8-2.9
		c-2,0.1-3.3,1.6-3.3,3.7v5.8h-2.5v-11.7h2.5v2.3c0.8-1.7,2.3-2.4,4.2-2.4c2.1,0,3.5,1,4.1,2.8c0.7-2,2.3-2.8,4.4-2.8
		C390.5,160.2,392.1,161.9,392.1,164.7z"/>
	<path class="st9" d="M397.9,157c0,0.9-0.6,1.5-1.5,1.5c-0.8,0-1.5-0.6-1.5-1.5c0-0.9,0.6-1.5,1.5-1.5
		C397.3,155.4,397.9,156,397.9,157z M395.2,172v-11.7h2.5V172H395.2z"/>
	<path class="st9" d="M412.4,164.7v7.3h-2.5v-6.6c0-1.8-1.1-2.8-2.8-2.8c-1.9,0-3.1,1.4-3.3,3.2v6.2h-2.5v-11.7h2.5v2.2
		c0.8-1.6,2.3-2.3,4.3-2.3C410.7,160.2,412.4,161.9,412.4,164.7z"/>
	<path class="st9" d="M426,170.9c0,3.4-2.4,5.5-6.1,5.5c-1.8,0-3.4-0.6-4.9-1.5l1.1-1.8c1.1,0.8,2.2,1.3,3.7,1.3
		c2.2,0,3.7-1.3,3.7-3.3v-1.5c-0.8,1.3-2.1,2-3.9,2c-3.2,0-5.3-2.3-5.3-5.7c0-3.3,2.1-5.5,5.2-5.6c1.8,0,3.1,0.7,4,2v-1.9h2.5V170.9
		z M423.5,165.8c0-2.1-1.4-3.6-3.4-3.6c-2,0-3.4,1.5-3.4,3.6c0,2.1,1.4,3.6,3.4,3.6C422.1,169.4,423.5,168,423.5,165.8z"/>
	<path class="st9" d="M447.5,158.9l-1.5,1.9c-1.1-1.2-2.7-2-4.3-2c-3.1,0-5.5,2.4-5.5,5.4s2.4,5.4,5.5,5.4c1.5,0,3.1-0.7,4.3-1.8
		l1.5,1.7c-1.6,1.5-3.8,2.5-6,2.5c-4.5,0-8-3.4-8-7.8c0-4.4,3.5-7.7,8.1-7.7C443.8,156.5,446,157.4,447.5,158.9z"/>
	<path class="st9" d="M456.7,170.6c-0.8,1-2.2,1.5-3.9,1.5c-2.5,0-4.1-1.6-4.1-3.6c0-2.1,1.6-3.5,4.4-3.5h3.5v-0.4
		c0-1.5-0.9-2.4-2.8-2.4c-1.1,0-2.3,0.4-3.5,1.2l-1-1.8c1.6-1,2.8-1.5,5-1.5c3,0,4.7,1.5,4.7,4.1l0,7.7h-2.5V170.6z M456.7,167.9
		v-1.1h-3.2c-1.7,0-2.4,0.4-2.4,1.6c0,1.1,0.9,1.7,2.3,1.7C455.2,170.1,456.6,169.2,456.7,167.9z"/>
	<path class="st9" d="M481.9,164.7v7.3h-2.5v-6.6c0-1.8-1.1-2.9-2.8-2.9c-2,0.1-3.2,1.6-3.2,3.7v5.8h-2.5v-6.6c0-1.8-1-2.9-2.8-2.9
		c-2,0.1-3.3,1.6-3.3,3.7v5.8h-2.5v-11.7h2.5v2.3c0.8-1.7,2.3-2.4,4.2-2.4c2.1,0,3.5,1,4.1,2.8c0.7-2,2.3-2.8,4.4-2.8
		C480.3,160.2,481.9,161.9,481.9,164.7z"/>
	<path class="st9" d="M497.3,166.2c0,3.5-2.2,5.9-5.5,5.9c-1.9,0-3.3-0.7-4.1-2.1v6.3h-2.5v-16h2.5v2c0.9-1.4,2.3-2.1,4.1-2.1
		C495,160.2,497.3,162.6,497.3,166.2z M494.7,166.1c0-2.2-1.5-3.8-3.6-3.8s-3.6,1.6-3.6,3.8c0,2.3,1.5,3.8,3.6,3.8
		S494.7,168.3,494.7,166.1z"/>
	<path class="st9" d="M506.7,170.6c-0.8,1-2.2,1.5-3.9,1.5c-2.5,0-4.1-1.6-4.1-3.6c0-2.1,1.6-3.5,4.4-3.5h3.5v-0.4
		c0-1.5-0.9-2.4-2.8-2.4c-1.1,0-2.3,0.4-3.5,1.2l-1-1.8c1.6-1,2.8-1.5,5-1.5c3,0,4.7,1.5,4.7,4.1l0,7.7h-2.5V170.6z M506.6,167.9
		v-1.1h-3.2c-1.7,0-2.4,0.4-2.4,1.6c0,1.1,0.9,1.7,2.3,1.7C505.1,170.1,506.5,169.2,506.6,167.9z"/>
	<path class="st9" d="M515,157c0,0.9-0.6,1.5-1.5,1.5c-0.8,0-1.5-0.6-1.5-1.5c0-0.9,0.6-1.5,1.5-1.5C514.3,155.4,515,156,515,157z
		 M512.2,172v-11.7h2.5V172H512.2z"/>
	<path class="st9" d="M528.8,170.9c0,3.4-2.4,5.5-6.1,5.5c-1.8,0-3.4-0.6-4.9-1.5l1.1-1.8c1.1,0.8,2.2,1.3,3.7,1.3
		c2.2,0,3.7-1.3,3.7-3.3v-1.5c-0.8,1.3-2.1,2-3.9,2c-3.2,0-5.3-2.3-5.3-5.7c0-3.3,2.1-5.5,5.2-5.6c1.8,0,3.1,0.7,4,2v-1.9h2.5V170.9
		z M526.3,165.8c0-2.1-1.4-3.6-3.4-3.6c-2,0-3.4,1.5-3.4,3.6c0,2.1,1.4,3.6,3.4,3.6C524.9,169.4,526.3,168,526.3,165.8z"/>
	<path class="st9" d="M543.2,164.7v7.3h-2.5v-6.6c0-1.8-1.1-2.8-2.8-2.8c-1.9,0-3.1,1.4-3.3,3.2v6.2H532v-11.7h2.5v2.2
		c0.8-1.6,2.3-2.3,4.3-2.3C541.6,160.2,543.2,161.9,543.2,164.7z"/>
	<path class="st9" d="M553.9,161.4l-0.9,1.9c-1-0.6-2.3-1-3.4-1c-1,0-1.7,0.3-1.7,1.2c0,2.2,6.2,1,6.2,5.2c0,2.4-2.1,3.5-4.5,3.5
		c-1.7,0-3.5-0.6-4.7-1.6l0.9-1.8c1,0.9,2.6,1.5,3.9,1.5c1.1,0,1.9-0.4,1.9-1.3c0-2.4-6.2-1.1-6.1-5.3c0-2.4,2.1-3.4,4.3-3.4
		C551.3,160.2,552.8,160.6,553.9,161.4z"/>
</g>
<g class="st8">
	<path class="st9" d="M249.7,188.8V200h-1.4v-11.2h-4.1v-1.4h9.7v1.4H249.7z"/>
	<path class="st9" d="M263.5,200l-2.8-7.7l-2.8,7.7h-1.5l-3.5-9.5h1.5l2.8,8l2.8-8h1.5l2.8,8l2.8-8h1.5l-3.5,9.5H263.5z"/>
	<path class="st9" d="M271.4,187.8c0,0.6-0.4,1-0.9,1c-0.5,0-0.9-0.4-0.9-1c0-0.6,0.4-1,0.9-1C271,186.8,271.4,187.2,271.4,187.8z
		 M269.8,200v-9.5h1.4v9.5H269.8z"/>
	<path class="st9" d="M279.1,199.4c-0.7,0.5-1.4,0.7-2.1,0.7c-1.4,0-2.4-0.8-2.4-2.7V192h-1.4v-1.1h1.4v-2.5h1.4v2.5l3,0v1.2h-3v5.2
		c0,1.2,0.5,1.6,1.3,1.6c0.5,0,1-0.2,1.5-0.5L279.1,199.4z"/>
	<path class="st9" d="M285.8,199.4c-0.7,0.5-1.4,0.7-2.1,0.7c-1.4,0-2.4-0.8-2.4-2.7V192h-1.4v-1.1h1.4v-2.5h1.4v2.5l3,0v1.2h-3v5.2
		c0,1.2,0.4,1.6,1.3,1.6c0.5,0,1-0.2,1.5-0.5L285.8,199.4z"/>
	<path class="st9" d="M295.7,195.8h-7.7c0.3,1.9,1.6,3,3.4,3c1.2,0,2.2-0.4,2.9-1.2l0.8,0.8c-0.9,1-2.2,1.6-3.8,1.6
		c-2.8,0-4.7-2-4.7-4.8s1.9-4.8,4.7-4.8C294.3,190.5,295.8,192.6,295.7,195.8z M294.4,194.7c-0.1-1.8-1.3-3-3.2-3
		c-1.8,0-3.1,1.2-3.3,3H294.4z"/>
	<path class="st9" d="M299.2,192.6c0.6-1.4,1.8-2.1,3.4-2.2v1.4c-2,0-3.2,1.2-3.4,3.1v5h-1.4v-9.5h1.4V192.6z"/>
	<path class="st9" d="M305.1,199.2c0,0.3-0.1,0.5-0.3,0.8l-0.8,1.3h-0.8l0.6-1.3c-0.3-0.2-0.4-0.5-0.4-0.8c0-0.5,0.4-0.9,0.8-0.9
		C304.7,198.3,305.1,198.6,305.1,199.2z"/>
	<path class="st9" d="M312.1,200v-12.6h1.4V200H312.1z"/>
	<path class="st9" d="M325.6,194.1v5.9h-1.4v-5.5c0-1.7-1-2.7-2.7-2.7c-1.9,0-3,1.2-3.2,3v5.1h-1.4v-9.5h1.4v2.1
		c0.7-1.4,1.9-2.1,3.7-2.1C324.2,190.5,325.6,191.9,325.6,194.1z"/>
	<path class="st9" d="M333.9,191.3l-0.5,1.1c-0.7-0.5-1.7-0.8-2.6-0.8c-1.1,0-1.9,0.4-1.9,1.3c0,2.1,5.3,1,5.3,4.4
		c0,1.9-1.7,2.7-3.5,2.7c-1.3,0-2.7-0.5-3.6-1.3l0.5-1.1c0.8,0.8,2,1.2,3.2,1.2c1.1,0,2-0.4,2-1.3c0.1-2.3-5.3-1.1-5.2-4.5
		c0-1.8,1.6-2.6,3.3-2.6C332,190.5,333.1,190.8,333.9,191.3z"/>
	<path class="st9" d="M341.1,199.4c-0.7,0.5-1.4,0.7-2.1,0.7c-1.4,0-2.4-0.8-2.4-2.7V192h-1.4v-1.1h1.4v-2.5h1.4v2.5l3,0v1.2h-3v5.2
		c0,1.2,0.5,1.6,1.3,1.6c0.5,0,1-0.2,1.5-0.5L341.1,199.4z"/>
	<path class="st9" d="M348.8,198.5c-0.8,1-2,1.5-3.5,1.5c-2,0-3.2-1.3-3.2-2.9c0-1.7,1.3-2.7,3.5-2.7h3.1v-0.6
		c0-1.4-0.9-2.2-2.5-2.2c-1,0-2,0.4-3,1.1l-0.6-1c1.2-0.8,2.2-1.3,3.9-1.3c2.3,0,3.6,1.2,3.7,3.3l0,6.3h-1.4V198.5z M348.8,196.7
		v-1.1h-3c-1.6,0-2.4,0.5-2.4,1.5s0.8,1.7,2.2,1.7C347.2,198.8,348.4,198,348.8,196.7z"/>
	<path class="st9" d="M361.2,199c0,2.8-1.9,4.5-4.8,4.5c-1.5,0-2.7-0.5-3.9-1.4l0.6-1.1c0.9,0.8,1.9,1.2,3.2,1.2
		c2.1,0,3.4-1.3,3.4-3.2v-1.4c-0.7,1.3-1.9,2-3.5,2c-2.6,0-4.3-1.9-4.3-4.6c0-2.6,1.7-4.5,4.3-4.5c1.6,0,2.8,0.7,3.5,2v-1.9h1.4V199
		z M359.8,195c0-2-1.4-3.4-3.2-3.4c-1.9,0-3.2,1.4-3.3,3.4c0,1.9,1.4,3.3,3.3,3.3C358.5,198.4,359.8,197,359.8,195z"/>
	<path class="st9" d="M365.5,192.6c0.6-1.4,1.8-2.1,3.4-2.2v1.4c-2,0-3.2,1.2-3.4,3.1v5h-1.4v-9.5h1.4V192.6z"/>
	<path class="st9" d="M375.9,198.5c-0.8,1-2,1.5-3.5,1.5c-2,0-3.2-1.3-3.2-2.9c0-1.7,1.3-2.7,3.5-2.7h3.1v-0.6
		c0-1.4-0.9-2.2-2.5-2.2c-1,0-2,0.4-3,1.1l-0.6-1c1.2-0.8,2.2-1.3,3.9-1.3c2.3,0,3.6,1.2,3.7,3.3l0,6.3h-1.4V198.5z M375.9,196.7
		v-1.1h-3c-1.6,0-2.4,0.5-2.4,1.5s0.8,1.7,2.2,1.7C374.3,198.8,375.5,198,375.9,196.7z"/>
	<path class="st9" d="M395.7,194.1v5.9h-1.4v-5.5c0-1.7-1-2.7-2.6-2.7c-2,0.1-3.1,1.5-3.1,3.5v4.7h-1.4v-5.5c0-1.7-1-2.7-2.6-2.7
		c-1.9,0.1-3.1,1.5-3.1,3.5v4.7h-1.4v-9.5h1.4v2.1c0.6-1.5,1.9-2.2,3.6-2.2c1.8,0,3,0.9,3.4,2.5c0.6-1.7,1.9-2.5,3.7-2.5
		C394.4,190.5,395.7,191.9,395.7,194.1z"/>
	<path class="st9" d="M410.1,198.1c-1.2,1.2-2.5,1.9-3.9,1.9c-2.1,0-3.7-1.5-3.7-3.5c0-1.8,1.4-2.8,2.9-3.6c-0.9-1.1-1.3-2.1-1.3-3
		c0-1.6,1.2-2.7,3.1-2.7c1.7,0,2.9,1,2.9,2.5c0,1.7-1.5,2.6-3.1,3.4c0.8,0.9,1.8,1.9,3.1,3.2c0.5-0.7,0.9-1.5,1.3-2.4l1,0.7
		c-0.4,1-0.9,1.8-1.4,2.5l2.2,2.1l-0.8,0.8L410.1,198.1z M409.3,197.3c-1.4-1.4-2.5-2.5-3.4-3.5c-1.2,0.7-2.3,1.4-2.3,2.7
		c0,1.4,1.2,2.4,2.6,2.4C407.4,198.9,408.4,198.3,409.3,197.3z M406.3,192.5c1.4-0.7,2.6-1.4,2.6-2.7c0-0.9-0.7-1.6-1.8-1.6
		c-1.2,0-1.9,0.8-1.9,1.7C405.2,190.8,405.6,191.6,406.3,192.5z"/>
	<path class="st9" d="M420.2,188.8v3.5c0.6-0.1,1.5-0.2,2.1-0.2c2.6,0,4.3,1.6,4.3,3.7c0,2.5-1.7,4.2-4.4,4.2
		c-1.4,0-3.1-0.5-4.2-1.4l0.6-1.2c1,0.8,2.4,1.3,3.5,1.3c1.9,0,3.1-1,3.1-2.7c0-1.5-1.2-2.4-3-2.4c-0.8,0-2.3,0.1-3.2,0.3v-6.4h7.3
		v1.4H420.2z"/>
	<path class="st9" d="M449.2,194.1v5.9h-1.4v-5.5c0-1.7-1-2.7-2.6-2.7c-2,0.1-3.1,1.5-3.1,3.5v4.7h-1.4v-5.5c0-1.7-1-2.7-2.6-2.7
		c-1.9,0.1-3.1,1.5-3.1,3.5v4.7h-1.4v-9.5h1.4v2.1c0.6-1.5,1.9-2.2,3.6-2.2c1.8,0,3,0.9,3.4,2.5c0.6-1.7,1.9-2.5,3.7-2.5
		C447.9,190.5,449.2,191.9,449.2,194.1z"/>
	<path class="st9" d="M460.7,195.2c0,2.8-2,4.8-4.8,4.8s-4.8-2-4.8-4.8c0-2.8,2-4.8,4.8-4.8S460.7,192.4,460.7,195.2z M452.5,195.3
		c0,2.1,1.4,3.5,3.4,3.5s3.4-1.4,3.4-3.5c0-2.1-1.4-3.5-3.4-3.5S452.5,193.2,452.5,195.3z"/>
	<path class="st9" d="M464.2,192.6c0.6-1.4,1.8-2.1,3.4-2.2v1.4c-2,0-3.2,1.2-3.4,3.1v5h-1.4v-9.5h1.4V192.6z"/>
	<path class="st9" d="M477.4,195.8h-7.7c0.3,1.9,1.6,3,3.4,3c1.2,0,2.2-0.4,2.9-1.2l0.8,0.8c-0.9,1-2.2,1.6-3.8,1.6
		c-2.8,0-4.7-2-4.7-4.8s1.9-4.8,4.7-4.8C476,190.5,477.5,192.6,477.4,195.8z M476.1,194.7c-0.1-1.8-1.3-3-3.2-3
		c-1.8,0-3.1,1.2-3.3,3H476.1z"/>
</g>
<g id="Combined-Shape_1_">
	<g class="st10">
		<path id="path-3_2_" d="M358,236l17.5-20l17.5,20h272c2.2,0,4,1.8,4,4v100c0,2.2-1.8,4-4,4H85c-2.2,0-4-1.8-4-4V240
			c0-2.2,1.8-4,4-4H358z"/>
	</g>
	<g>
		<path id="path-3_1_" class="st5" d="M358,236l17.5-20l17.5,20h272c2.2,0,4,1.8,4,4v100c0,2.2-1.8,4-4,4H85c-2.2,0-4-1.8-4-4V240
			c0-2.2,1.8-4,4-4H358z"/>
	</g>
</g>
<g id="twitter" transform="translate(65.000000, 238.000000)">
	<circle id="Oval-5-Copy-4" class="st11" cx="70" cy="52" r="30"/>
	<path class="st5" d="M82,43.4c1.3-0.8,2.4-2.1,2.8-3.7c-1.2,0.8-2.6,1.3-4.1,1.6c-1.2-1.3-2.9-2.1-4.7-2.1c-3.6,0-6.5,3-6.5,6.6
		c0,0.5,0.1,1,0.2,1.5c-5.4-0.3-10.1-2.9-13.3-6.9c-0.6,1-0.9,2.1-0.9,3.3c0,2.3,1.1,4.3,2.9,5.5c-1.1,0-2.1-0.3-2.9-0.8
		c0,0,0,0.1,0,0.1c0,3.2,2.2,5.9,5.2,6.5c-0.5,0.2-1.1,0.2-1.7,0.2c-0.4,0-0.8,0-1.2-0.1c0.8,2.6,3.2,4.5,6,4.6
		c-2.2,1.8-5,2.8-8,2.8c-0.5,0-1,0-1.5-0.1c2.9,1.9,6.3,3,9.9,3c11.9,0,18.4-10.1,18.4-18.9c0-0.3,0-0.6,0-0.9
		c1.3-0.9,2.4-2.1,3.2-3.4C84.6,42.9,83.3,43.2,82,43.4"/>
</g>
<g id="instagram" transform="translate(143.000000, 238.000000)">
	
		<linearGradient id="Oval-5-Copy-3_1_" gradientUnits="userSpaceOnUse" x1="200.6833" y1="1.047" x2="200.6833" y2="2.4201" gradientTransform="matrix(60 0 0 -60 -11971 149)">
		<stop  offset="0" style="stop-color:#F67635"/>
		<stop  offset="0.3442" style="stop-color:#E24F57"/>
		<stop  offset="1" style="stop-color:#D23083"/>
	</linearGradient>
	<circle id="Oval-5-Copy-3" class="st12" cx="70" cy="52" r="30"/>
	<path id="Combined-Shape_2_" class="st5" d="M76.8,35.5H63.2c-5.4,0-9.7,4.3-9.7,9.7v13.6c0,5.4,4.3,9.7,9.7,9.7h13.6
		c5.4,0,9.7-4.3,9.7-9.7V45.2C86.5,39.8,82.2,35.5,76.8,35.5L76.8,35.5z M83.8,58.8c0,3.9-3.2,7-7,7H63.2c-3.9,0-7-3.2-7-7V45.2
		c0-3.9,3.2-7,7-7h13.6c3.9,0,7,3.2,7,7V58.8z M70,43.6c-4.7,0-8.4,3.8-8.4,8.4s3.8,8.4,8.4,8.4s8.4-3.8,8.4-8.4
		C78.4,47.3,74.7,43.6,70,43.6z M70,57.8c-3.2,0-5.8-2.6-5.8-5.8c0-3.2,2.6-5.8,5.8-5.8c3.2,0,5.8,2.6,5.8,5.8
		C75.8,55.2,73.2,57.8,70,57.8L70,57.8z M78.8,44.7c0.9,0,1.6-0.7,1.6-1.6c0-0.9-0.7-1.6-1.6-1.6c-0.9,0-1.6,0.7-1.6,1.6
		C77.1,43.9,77.9,44.7,78.8,44.7z"/>
</g>
<g id="ga" transform="translate(221.000000, 238.000000)">
	<circle id="Oval-5-Copy-6" class="st13" cx="70" cy="52" r="30"/>
	<g id="Group-4" transform="translate(15.000000, 15.000000)">
		<path id="Shape" class="st14" d="M67.4,22.3H62c-0.6,0-1.2,0.2-1.7,0.7s-0.7,1-0.7,1.7v27.1h7.7c1.3,0,2.4-1.1,2.4-2.4V24.7
			C69.7,23.4,68.7,22.3,67.4,22.3L67.4,22.3z"/>
		<path id="Shape_1_" class="st15" d="M49.6,33.9v7.7h-7c-1.3,0-2.3,1-2.3,2.3v5.4c0,1.3,1,2.3,2.3,2.3h17V31.6h-7.7
			C50.6,31.6,49.6,32.6,49.6,33.9L49.6,33.9z"/>
		
			<linearGradient id="Shape_6_" gradientUnits="userSpaceOnUse" x1="77.756" y1="-6.9622" x2="79.1841" y2="-7.6748" gradientTransform="matrix(10.0439 0 0 -20.129 -726.3123 -103.4839)">
			<stop  offset="0" style="stop-color:#BF360C;stop-opacity:0.2"/>
			<stop  offset="1" style="stop-color:#BF360C;stop-opacity:2.000000e-02"/>
		</linearGradient>
		<path id="Shape_2_" class="st16" d="M59.6,31.6v20.1h7.7c1.3,0,2.4-1.1,2.4-2.4v-7.7L59.6,31.6z"/>
	</g>
</g>
<g id="jira" transform="translate(299.000000, 238.000000)">
	<circle id="Oval-5-Copy-5" class="st17" cx="70" cy="52" r="30"/>
	<path class="st5" d="M70.1,53.9c1.2-1.1,5.8-5.7,6.6-9.4c0,0,2.9,0,4.9-1.7c0,0,1.1-0.7,1.1,0.6c0,0,0.2,5.4-7.4,12.9
		c-0.4,0.4-0.9,0.9-1.3,1.3c4.5,5.5,4.2,11.3,4.2,11.3h-5.6c0.4-2.1-0.5-5.2-8.1-12.8c-7.6-7.6-7.4-12.8-7.4-12.8
		c0-1.3,1.1-0.6,1.1-0.6c2,1.6,4.9,1.7,4.9,1.7C64.2,48.3,69.3,53.1,70.1,53.9z M69,63.6c-1.8,2.7-2,4.3-1.7,5.6h-5.6
		c0,0-0.3-5.1,3.3-10.2C66.7,60.8,68,62.3,69,63.6z M67.2,44.9h5.5c0,0,0.7-0.1,0.5,0.9C73,47.1,70,49.9,70,49.9s-2.2-2-3.1-4
		C66.9,45.9,66.5,44.9,67.2,44.9z M79.7,39.1c0,1.3-1.1,2.4-2.4,2.4s-2.4-1.1-2.4-2.4c0-1.3,1.1-2.4,2.4-2.4S79.7,37.8,79.7,39.1z
		 M65.5,39.1c0,1.3-1.1,2.4-2.4,2.4s-2.4-1.1-2.4-2.4c0-1.3,1.1-2.4,2.4-2.4S65.5,37.8,65.5,39.1z M72.7,37.2c0,1.3-1.1,2.4-2.4,2.4
		s-2.4-1.1-2.4-2.4c0-1.3,1.1-2.4,2.4-2.4S72.7,35.8,72.7,37.2z"/>
</g>
<g id="youtube" transform="translate(377.000000, 238.000000)">
	<circle id="Oval-5-Copy-9" class="st18" cx="70" cy="52" r="30"/>
	<path id="Shape_3_" class="st5" d="M56.4,64.2c-1-0.2-1.9-0.6-2.5-1.3c-0.5-0.5-0.9-1.2-1.2-2.2c-0.3-0.9-0.4-1.6-0.5-3.3
		c-0.2-3.9-0.3-7.1,0-10.7c0.2-2,0.3-4.3,1.8-5.7c0.7-0.6,1.5-1.1,2.4-1.2c1.4-0.3,7.6-0.5,13.9-0.5c6.3,0,12.5,0.2,13.9,0.5
		c1.2,0.2,2.2,0.9,2.9,1.7c1.4,2.1,1.4,4.8,1.5,6.8c0.1,1,0.1,6.6,0,7.5c-0.2,3.3-0.4,4.4-0.9,5.6c-0.3,0.8-0.6,1.2-1,1.6
		c-0.7,0.7-1.6,1.1-2.6,1.3c-6.1,0.4-11.2,0.5-17,0.5C60.2,64.6,57.8,64.5,56.4,64.2z M66.6,46.5v10.2c3.5-1.9,7.1-3.6,9.9-5.1
		C73.1,49.8,69.9,48.2,66.6,46.5z"/>
</g>
<g id="facebook" transform="translate(461.000000, 238.000000)">
	<circle id="Oval-5-Copy-7" class="st19" cx="70" cy="52" r="30"/>
	<path id="Fill-15" class="st5" d="M79,35v5.3c-0.9,0-1.8,0-2.8,0c-2.2,0-3,0.7-3,2.9c0,1.2,0,2.4,0,3.7h5.7
		c-0.2,1.9-0.4,3.7-0.6,5.6h-5.2v16.9h-6.8V52.4h-4.6v-5.6h4.6c0-1.3,0-2.4,0-3.5c0-6.1,2.8-8.8,9-8.6C76.5,34.8,77.7,34.9,79,35"/>
</g>
<g id="omniture" transform="translate(545.000000, 238.000000)">
	<circle id="Oval-5-Copy-2" class="st20" cx="70" cy="52" r="30"/>
	<path id="Shape_4_" class="st21" d="M66,52.7h-1.7v11.3c0.5,0.3,1.2,0.5,1.7,0.7V52.7z M69.1,52v13.4c0.2,0,0.6,0.1,0.8,0.1
		c0.3,0,0.6,0,0.9,0V52H69.1L69.1,52z M79,61.5c0.6-0.7,1.2-1.4,1.7-2.2v-8.6H79V61.5z M60.2,53.5l3.9-4.6l3.7,1.4l8-5.8l4,3.8
		l2-1.6l-0.3-0.7L80,47.5l-4-3.7l-8.1,5.8l-3.8-1.5l-4.2,4.8l-2.6,0.6v0.6L60.2,53.5z M61,56.2h-1.7v3.3c0.5,0.7,1.1,1.4,1.7,2V56.2
		z M75.8,48.6h-1.7v16.1c0.6-0.2,1.2-0.4,1.7-0.7V48.6z"/>
	<path id="Shape_5_" class="st22" d="M51.2,52c0,10.4,8.4,18.8,18.8,18.8S88.8,62.4,88.8,52S80.3,33.2,70,33.2S51.2,41.6,51.2,52z
		 M53.2,52c0-9.3,7.5-16.8,16.8-16.8S86.8,42.7,86.8,52S79.3,68.8,70,68.8S53.2,61.3,53.2,52z"/>
</g>
</svg>
