<?xml version="1.0" encoding="UTF-8"?>
<svg width="58px" height="23px" viewBox="0 0 58 23" version="1.1" xmlns="http://www.w3.org/2000/svg" xmlns:xlink="http://www.w3.org/1999/xlink">
    <!-- Generator: Sketch 48.2 (47327) - http://www.bohemiancoding.com/sketch -->
    <title>ibm</title>
    <desc>Created with Sketch.</desc>
    <defs></defs>
    <g id="layout/clients-logo" stroke="none" stroke-width="1" fill="none" fill-rule="evenodd" transform="translate(-582.000000, -79.000000)">
        <path d="M582,79 L582,80.725 L593.02,80.725 L593.02,79 L582,79 Z M594.76,79 L594.76,80.725 L611,80.725 C611,80.725 609.341174,79 607.144115,79 L594.76,79 Z M613.9,79 L613.9,80.725 L623.76,80.725 L623.174734,79 L613.9,79 Z M630.730627,79 L630.14,80.725 L640,80.725 L640,79 L630.730627,79 Z M582,81.875 L582,83.6 L593.02,83.6 L593.02,81.875 L582,81.875 Z M594.76,81.875 L594.76,83.6 L612.74,83.6 C612.74,83.6 612.530002,82.2704824 612.163732,81.875 L594.76,81.875 Z M613.9,81.875 L613.9,83.6 L624.92,83.6 L624.374432,81.875 L613.9,81.875 Z M629.527751,81.875 L628.98,83.6 L640,83.6 L640,81.875 L629.527751,81.875 Z M585.48,85.325 L585.48,87.05 L590.12,87.05 L590.12,85.325 L585.48,85.325 Z M598.24,85.325 L598.24,87.05 L602.88,87.05 L602.88,85.325 L598.24,85.325 Z M607.52,85.325 L607.52,87.05 L612.428392,87.05 C612.428393,87.05 612.74,86.1390248 612.74,85.325 L607.52,85.325 Z M617.38,85.325 L617.38,87.05 L626.08,87.05 L625.500151,85.325 L617.38,85.325 Z M628.399246,85.325 L627.82,87.05 L636.52,87.05 L636.52,85.325 L628.399246,85.325 Z M585.48,88.2 L585.48,89.925 L590.12,89.925 L590.12,88.2 L585.48,88.2 Z M598.24,88.2 L598.24,89.925 L610.777099,89.925 C610.777099,89.9249994 611.825847,89.0398847 612.16,88.2 L598.24,88.2 Z M617.38,88.2 L617.38,89.925 L622.209197,89.925 L622.209197,88.9647661 L622.515777,89.925 L631.361845,89.925 L631.690803,88.9647661 L631.690803,89.925 L636.52,89.925 L636.52,88.2 L627.454626,88.2 L626.973497,89.661119 L626.49013,88.2 L617.38,88.2 Z M585.48,91.075 L585.48,92.8 L590.12,92.8 L590.12,91.075 L585.48,91.075 Z M598.24,91.075 L598.24,92.8 L612.16,92.8 C611.825775,91.9628522 610.777099,91.075 610.777099,91.075 L598.24,91.075 Z M617.38,91.075 L617.38,92.8 L622.02,92.8 L622.02,91.075 L617.38,91.075 Z M623.18,91.075 L623.790228,92.8 L630.720167,92.8 L631.3,91.075 L623.18,91.075 Z M631.88,91.075 L631.88,92.8 L636.52,92.8 L636.52,91.075 L631.88,91.075 Z M585.48,94.525 L585.48,96.25 L590.12,96.25 L590.12,94.525 L585.48,94.525 Z M598.24,94.525 L598.24,96.25 L602.88,96.25 L602.88,94.525 L598.24,94.525 Z M607.52,94.525 L607.52,96.25 L612.74,96.25 C612.740001,95.4359188 612.428392,94.525 612.428392,94.525 L607.52,94.525 Z M617.38,94.525 L617.38,96.25 L622.02,96.25 L622.02,94.525 L617.38,94.525 Z M624.34,94.525 L624.928137,96.25 L629.547214,96.25 L630.14,94.525 L624.34,94.525 Z M631.88,94.525 L631.88,96.25 L636.52,96.25 L636.52,94.525 L631.88,94.525 Z M582,97.4 L582,99.125 L593.02,99.125 L593.02,97.4 L582,97.4 Z M594.76,97.4 L594.76,99.125 L612.163732,99.125 C612.530002,98.7300119 612.74,97.4 612.74,97.4 L594.76,97.4 Z M614.48,97.4 L614.48,99.125 L622.6,99.125 L622.6,97.4 L614.48,97.4 Z M625.5,97.4 L626.097228,99.125 L628.419525,99.125 L628.98,97.4 L625.5,97.4 Z M631.88,97.4 L631.88,99.125 L640,99.125 L640,97.4 L631.88,97.4 Z M582,100.275 L582,102 L593.02,102 L593.02,100.275 L582,100.275 Z M594.76,100.275 L594.76,102 L607.144115,102 C609.341173,101.999999 611,100.275 611,100.275 L594.76,100.275 Z M614.48,100.275 L614.48,102 L622.6,102 L622.6,100.275 L614.48,100.275 Z M626.66,100.275 L627.190165,101.997552 L627.281353,102 L627.82,100.275 L626.66,100.275 Z M631.88,100.275 L631.88,102 L640,102 L640,100.275 L631.88,100.275 Z" id="ibm" fill="#D4D4D4" fill-rule="nonzero"></path>
    </g>
</svg>