<?xml version="1.0" encoding="utf-8"?>
<!-- Generator: Adobe Illustrator 22.0.1, SVG Export Plug-In . SVG Version: 6.00 Build 0)  -->
<svg version="1.1" id="Layer_1" xmlns="http://www.w3.org/2000/svg" xmlns:xlink="http://www.w3.org/1999/xlink" x="0px" y="0px"
	 viewBox="0 0 788 682" style="enable-background:new 0 0 788 682;" xml:space="preserve">
<style type="text/css">
	.st0{filter:url(#filter-2);}
	.st1{fill:#FFFFFF;}
	.st2{fill:#FFFFFF;fill-opacity:0.1;}
	.st3{enable-background:new    ;}
	.st4{fill:#D8D8D8;}
	.st5{fill:#EFF4FF;}
	.st6{fill:#6983C0;}
	.st7{fill:none;stroke:#E8E8E8;}
	.st8{fill:#353C45;}
	.st9{fill:#818181;}
	.st10{fill:none;stroke:#ADADAD;}
	.st11{fill:#ADADAD;}
	.st12{fill:#848484;}
	.st13{fill:none;stroke:#CECECE;stroke-width:2;}
	.st14{fill:none;stroke:#EEEEEE;stroke-linecap:square;}
	.st15{fill:#A3B8E5;fill-opacity:0.88;}
	.st16{filter:url(#filter-5);}
	.st17{fill:#DEDEDE;}
	.st18{filter:url(#filter-7);}
</style>
<filter  filterUnits="objectBoundingBox" height="130.0%" id="filter-7" width="130.0%" x="-15.0%" y="-15.0%">
	<feOffset  dx="0" dy="0" in="SourceAlpha" result="shadowOffsetOuter1"></feOffset>
	<feGaussianBlur  in="shadowOffsetOuter1" result="shadowBlurOuter1" stdDeviation="1"></feGaussianBlur>
	<feColorMatrix  in="shadowBlurOuter1" type="matrix" values="0 0 0 0 0   0 0 0 0 0   0 0 0 0 0  0 0 0 0.2 0"></feColorMatrix>
</filter>
<filter  filterUnits="objectBoundingBox" height="130.0%" id="filter-5" width="130.0%" x="-15.0%" y="-15.0%">
	<feOffset  dx="0" dy="0" in="SourceAlpha" result="shadowOffsetOuter1"></feOffset>
	<feGaussianBlur  in="shadowOffsetOuter1" result="shadowBlurOuter1" stdDeviation="1"></feGaussianBlur>
	<feColorMatrix  in="shadowBlurOuter1" type="matrix" values="0 0 0 0 0   0 0 0 0 0   0 0 0 0 0  0 0 0 0.2 0"></feColorMatrix>
</filter>
<filter  filterUnits="objectBoundingBox" height="123.6%" id="filter-2" width="120.1%" x="-10.0%" y="-8.8%">
	<feOffset  dx="0" dy="18" in="SourceAlpha" result="shadowOffsetOuter1"></feOffset>
	<feGaussianBlur  in="shadowOffsetOuter1" result="shadowBlurOuter1" stdDeviation="20"></feGaussianBlur>
	
		<feColorMatrix  in="shadowBlurOuter1" result="shadowMatrixOuter1" type="matrix" values="0 0 0 0 0   0 0 0 0 0   0 0 0 0 0  0 0 0 0.08 0">
		</feColorMatrix>
	<feOffset  dx="0" dy="0" in="SourceAlpha" result="shadowOffsetOuter2"></feOffset>
	<feGaussianBlur  in="shadowOffsetOuter2" result="shadowBlurOuter2" stdDeviation="1"></feGaussianBlur>
	
		<feColorMatrix  in="shadowBlurOuter2" result="shadowMatrixOuter2" type="matrix" values="0 0 0 0 0   0 0 0 0 0   0 0 0 0 0  0 0 0 0.05 0">
		</feColorMatrix>
	<feMerge>
		<feMergeNode  in="shadowMatrixOuter1"></feMergeNode>
		<feMergeNode  in="shadowMatrixOuter2"></feMergeNode>
	</feMerge>
</filter>
<title>share-live</title>
<desc>Created with Sketch.</desc>
<g id="Combined-Shape">
	<g class="st0">
		<path id="path-1_2_" d="M44,22h700c2.2,0,4,1.8,4,4v598H40V26C40,23.8,41.8,22,44,22z"/>
	</g>
	<g>
		<path id="path-1_1_" class="st1" d="M44,22h700c2.2,0,4,1.8,4,4v598H40V26C40,23.8,41.8,22,44,22z"/>
	</g>
</g>
<g id="Group-2" transform="translate(209.000000, 24.000000)">
	<rect id="Rectangle-Copy-2" x="145" y="22" class="st2" width="80" height="40"/>
	<g class="st3">
		<path class="st4" d="M249.1,37.9l-0.8,1.7c-1.2-0.7-2.4-1-3.3-1c-1.1,0-1.8,0.4-1.8,1.2c0,2.4,6.1,1.1,6,5.2c0,2-1.8,3.2-4.2,3.2
			c-1.8,0-3.4-0.7-4.6-1.8l0.8-1.6c1.2,1.1,2.6,1.6,3.8,1.6c1.3,0,2.1-0.5,2.1-1.4c0-2.5-6.1-1.1-6.1-5.1c0-1.9,1.6-3.1,4.1-3.1
			C246.6,36.7,248,37.2,249.1,37.9z"/>
		<path class="st4" d="M258.3,40.8l-1,1.2c-0.6-0.6-1.4-1-2.4-1c-1.5,0-2.5,1.1-2.5,2.7c0,1.6,1.1,2.7,2.5,2.7c1.1,0,1.9-0.4,2.5-1
			l1,1c-0.8,1-2,1.6-3.6,1.6c-2.5,0-4.3-1.7-4.3-4.3c0-2.6,1.8-4.3,4.3-4.3C256.3,39.4,257.5,39.9,258.3,40.8z"/>
		<path class="st4" d="M268.6,42.7V48h-1.8v-4.8c0-1.3-0.8-2.1-2-2.1c-1.5,0-2.4,1.2-2.4,2.7V48h-1.8V36.1h1.8v5
			c0.6-1.2,1.7-1.7,3.2-1.7C267.4,39.4,268.6,40.7,268.6,42.7z"/>
		<path class="st4" d="M278.5,44.4h-6.4c0.3,1.3,1.3,2.1,2.6,2.1c0.9,0,1.8-0.4,2.4-1l1,1c-0.8,0.9-2,1.4-3.5,1.4
			c-2.6,0-4.4-1.7-4.4-4.3c0-2.6,1.8-4.3,4.3-4.3C277.5,39.4,278.8,41.4,278.5,44.4z M276.9,43.1c-0.1-1.4-1-2.2-2.4-2.2
			c-1.3,0-2.3,0.8-2.5,2.2H276.9z"/>
		<path class="st4" d="M288.6,48h-1.8v-1.5c-0.6,1-1.6,1.5-3,1.5c-2.4,0-4.1-1.8-4.1-4.4c0-2.6,1.6-4.3,4-4.3c1.4,0,2.4,0.6,3,1.6
			v-4.8h1.8V48z M286.7,43.8c0-1.6-1.1-2.8-2.6-2.8c-1.5,0-2.6,1.2-2.6,2.8c0,1.6,1.1,2.8,2.6,2.8C285.7,46.5,286.7,45.4,286.7,43.8
			z"/>
		<path class="st4" d="M299.1,48h-1.8v-1.7c-0.6,1.2-1.6,1.7-3,1.7c-2,0-3.1-1.2-3.1-3.3v-5.3h1.8v4.8c0,1.3,0.8,2.1,2,2.1
			c1.5,0,2.3-1.2,2.3-2.7v-4.2h1.8V48z"/>
		<path class="st4" d="M301.9,48V36.1h1.8V48H301.9z"/>
		<path class="st4" d="M314,44.4h-6.4c0.3,1.3,1.3,2.1,2.6,2.1c0.9,0,1.8-0.4,2.4-1l1,1c-0.8,0.9-2,1.4-3.5,1.4
			c-2.6,0-4.4-1.7-4.4-4.3c0-2.6,1.8-4.3,4.3-4.3C313,39.4,314.2,41.4,314,44.4z M312.4,43.1c-0.1-1.4-1-2.2-2.4-2.2
			c-1.3,0-2.3,0.8-2.5,2.2H312.4z"/>
	</g>
	<g class="st3">
		<path class="st4" d="M165.4,38.5v3h5.5v1.7h-5.5v3.1h6.3V48h-8.2V36.8h8v1.7H165.4z"/>
		<path class="st4" d="M188.1,42.7V48h-1.8v-4.8c0-1.3-0.8-2.1-2-2.1c-1.5,0-2.3,1.2-2.3,2.7V48h-1.8v-4.8c0-1.3-0.8-2.1-2-2.1
			c-1.5,0-2.4,1.2-2.4,2.7V48h-1.8v-8.5h1.8v1.6c0.6-1.2,1.7-1.7,3.1-1.7c1.5,0,2.6,0.8,3,2c0.5-1.4,1.7-2,3.2-2
			C186.9,39.4,188.1,40.7,188.1,42.7z"/>
		<path class="st4" d="M195.7,47c-0.6,0.8-1.6,1.1-2.8,1.1c-1.8,0-3-1.1-3-2.6c0-1.6,1.2-2.5,3.2-2.6h2.6v-0.3c0-1.1-0.7-1.7-2-1.7
			c-0.8,0-1.7,0.3-2.5,0.9l-0.8-1.3c1.2-0.7,2-1.1,3.7-1.1c2.2,0,3.4,1.1,3.4,3l0,5.6h-1.8V47z M195.6,45v-0.8h-2.3
			c-1.2,0-1.8,0.3-1.8,1.1c0,0.8,0.6,1.3,1.6,1.3C194.5,46.6,195.5,45.9,195.6,45z"/>
		<path class="st4" d="M201.9,37.1c0,0.6-0.5,1.1-1.1,1.1c-0.6,0-1.1-0.5-1.1-1.1c0-0.7,0.5-1.1,1.1-1.1
			C201.4,35.9,201.9,36.4,201.9,37.1z M199.9,48v-8.5h1.8V48H199.9z"/>
		<path class="st4" d="M204.5,48V36.1h1.8V48H204.5z"/>
	</g>
	<path id="Rectangle" class="st5" d="M44,22h98c2.2,0,4,1.8,4,4v32c0,2.2-1.8,4-4,4H44c-2.2,0-4-1.8-4-4V26C40,23.8,41.8,22,44,22z"
		/>
	<path id="Rectangle-Copy-3" class="st2" d="M224,22h102c2.2,0,4,1.8,4,4v32c0,2.2-1.8,4-4,4H224V22z"/>
	<g class="st3">
		<path class="st6" d="M64.2,46.3V48h-6.7V36.8h1.9v9.5H64.2z"/>
		<path class="st6" d="M67.9,37.1c0,0.6-0.5,1.1-1.1,1.1s-1.1-0.5-1.1-1.1c0-0.7,0.5-1.1,1.1-1.1S67.9,36.4,67.9,37.1z M65.9,48
			v-8.5h1.8V48H65.9z"/>
		<path class="st6" d="M72.4,48l-3.3-8.5H71l2.4,6.7l2.3-6.7h1.8L74.3,48H72.4z"/>
		<path class="st6" d="M86,44.4h-6.4c0.3,1.3,1.3,2.1,2.6,2.1c0.9,0,1.8-0.4,2.4-1l1,1c-0.8,0.9-2,1.4-3.5,1.4
			c-2.6,0-4.4-1.7-4.4-4.3c0-2.6,1.8-4.3,4.3-4.3C85,39.4,86.2,41.4,86,44.4z M84.4,43.1c-0.1-1.4-1-2.2-2.4-2.2
			c-1.3,0-2.3,0.8-2.5,2.2H84.4z"/>
		<path class="st6" d="M95.2,48l-4.5-11.2h2l3.5,9.1l3.5-9.1h2L97.2,48H95.2z"/>
		<path class="st6" d="M105,37.1c0,0.6-0.5,1.1-1.1,1.1c-0.6,0-1.1-0.5-1.1-1.1c0-0.7,0.5-1.1,1.1-1.1C104.5,35.9,105,36.4,105,37.1
			z M103,48v-8.5h1.8V48H103z"/>
		<path class="st6" d="M115,44.4h-6.4c0.3,1.3,1.3,2.1,2.6,2.1c0.9,0,1.8-0.4,2.4-1l1,1c-0.8,0.9-2,1.4-3.5,1.4
			c-2.6,0-4.4-1.7-4.4-4.3c0-2.6,1.8-4.3,4.3-4.3C114.1,39.4,115.3,41.4,115,44.4z M113.4,43.1c-0.1-1.4-1-2.2-2.4-2.2
			c-1.3,0-2.3,0.8-2.5,2.2H113.4z"/>
		<path class="st6" d="M124.6,48l-2.2-6.3l-2.2,6.3h-1.9l-3.1-8.5h1.9l2.2,6.7l2.1-6.7h1.9l2.2,6.7l2.2-6.7h1.9l-3.1,8.5H124.6z"/>
	</g>
</g>
<g id="normal-field-box">
	<g>
		<path id="path-3" class="st1" d="M78,186h632c2.2,0,4,1.8,4,4v32c0,2.2-1.8,4-4,4H78c-2.2,0-4-1.8-4-4v-32
			C74,187.8,75.8,186,78,186z"/>
	</g>
	<path class="st7" d="M78.5,186.5h631c2.2,0,4,1.8,4,4v31c0,2.2-1.8,4-4,4h-631c-2.2,0-4-1.8-4-4v-31
		C74.5,188.3,76.3,186.5,78.5,186.5z"/>
</g>
<g class="st3">
	<path class="st8" d="M96.4,206.4v4.6h-1.6v-4.2c0-1.1-0.7-1.8-1.8-1.8c-1.3,0-2.1,1-2.1,2.3v3.7h-1.6v-10.4h1.6v4.4
		c0.5-1.1,1.5-1.5,2.8-1.5C95.4,203.5,96.4,204.6,96.4,206.4z"/>
	<path class="st8" d="M102.8,210.5c-0.6,0.4-1.2,0.5-1.8,0.5c-1.1,0-2.1-0.6-2.1-2.2V205h-1.1v-1.2h1.1v-2h1.6v2h2.2v1.2h-2.2v3.6
		c0,0.8,0.3,1,0.8,1c0.3,0,0.7-0.1,1.1-0.3L102.8,210.5z"/>
	<path class="st8" d="M108.5,210.5c-0.6,0.4-1.2,0.5-1.8,0.5c-1.1,0-2.1-0.6-2.1-2.2V205h-1.1v-1.2h1.1v-2h1.6v2h2.2v1.2h-2.2v3.6
		c0,0.8,0.3,1,0.8,1c0.3,0,0.7-0.1,1.1-0.3L108.5,210.5z"/>
	<path class="st8" d="M117.8,207.3c0,2.2-1.4,3.8-3.5,3.8c-1.2,0-2.1-0.5-2.6-1.3v4H110v-10.2h1.6v1.3c0.5-0.9,1.4-1.3,2.6-1.3
		C116.4,203.5,117.8,205,117.8,207.3z M116.2,207.2c0-1.4-0.9-2.4-2.3-2.4c-1.3,0-2.3,1-2.3,2.4c0,1.4,0.9,2.4,2.3,2.4
		C115.2,209.7,116.2,208.7,116.2,207.2z"/>
	<path class="st8" d="M124.3,204.2l-0.6,1.2c-0.7-0.4-1.5-0.7-2.1-0.7c-0.6,0-1.1,0.2-1.1,0.7c0,1.4,4,0.6,4,3.3
		c0,1.5-1.4,2.2-2.9,2.2c-1.1,0-2.3-0.4-3-1l0.6-1.1c0.6,0.6,1.7,0.9,2.5,0.9c0.7,0,1.2-0.2,1.2-0.8c0-1.5-3.9-0.7-3.9-3.4
		c0-1.5,1.3-2.2,2.7-2.2C122.6,203.5,123.6,203.8,124.3,204.2z"/>
	<path class="st8" d="M127.3,206c0,0.5-0.4,0.9-0.9,0.9c-0.5,0-0.9-0.4-0.9-0.9c0-0.5,0.4-0.9,0.9-0.9
		C126.9,205.1,127.3,205.5,127.3,206z M127.3,210.2c0,0.5-0.4,0.9-0.9,0.9c-0.5,0-0.9-0.4-0.9-0.9c0-0.5,0.4-0.9,0.9-0.9
		C126.9,209.3,127.3,209.7,127.3,210.2z"/>
	<path class="st8" d="M127.5,212.6l4.4-13.1h1.4l-4.4,13.1H127.5z"/>
	<path class="st8" d="M132.2,212.6l4.4-13.1h1.4l-4.4,13.1H132.2z"/>
	<path class="st8" d="M145.4,206.4v4.6h-1.6v-4.2c0-1.1-0.7-1.8-1.8-1.8c-1.2,0-2,0.9-2.1,2v4h-1.6v-7.5h1.6v1.4
		c0.5-1,1.5-1.5,2.7-1.5C144.4,203.5,145.4,204.6,145.4,206.4z"/>
	<path class="st8" d="M154.3,211h-1.6v-1.5c-0.5,1-1.4,1.5-2.7,1.5c-1.7,0-2.7-1.1-2.7-2.9v-4.6h1.6v4.2c0,1.1,0.7,1.8,1.7,1.8
		c1.3,0,2-1,2-2.3v-3.7h1.6V211z"/>
	<path class="st8" d="M163.4,210.3c0,2.1-1.5,3.5-3.9,3.5c-1.2,0-2.2-0.4-3.1-1l0.7-1.2c0.7,0.5,1.4,0.8,2.3,0.8
		c1.4,0,2.3-0.8,2.3-2.1v-0.9c-0.5,0.8-1.3,1.3-2.5,1.3c-2,0-3.4-1.5-3.4-3.6c0-2.1,1.3-3.5,3.3-3.5c1.1,0,2,0.4,2.5,1.3v-1.2h1.6
		V210.3z M161.8,207.1c0-1.3-0.9-2.3-2.1-2.3c-1.3,0-2.2,1-2.2,2.3c0,1.3,0.9,2.3,2.2,2.3C161,209.4,161.8,208.4,161.8,207.1z"/>
	<path class="st8" d="M166.9,210.2c0,0.5-0.4,0.9-0.9,0.9c-0.5,0-0.9-0.4-0.9-0.9c0-0.5,0.4-0.9,0.9-0.9
		C166.5,209.3,166.9,209.7,166.9,210.2z"/>
	<path class="st8" d="M174.9,204.7l-0.9,1c-0.5-0.5-1.2-0.9-2.1-0.8c-1.3,0-2.2,1-2.2,2.4s0.9,2.4,2.2,2.4c0.9,0,1.7-0.3,2.2-0.9
		l0.9,0.9c-0.7,0.9-1.8,1.4-3.2,1.4c-2.2,0-3.8-1.5-3.8-3.8c0-2.3,1.5-3.8,3.8-3.8C173.1,203.5,174.2,203.9,174.9,204.7z"/>
	<path class="st8" d="M183.4,207.3c0,2.2-1.6,3.8-3.9,3.8c-2.3,0-3.9-1.5-3.9-3.8c0-2.3,1.6-3.8,3.9-3.8
		C181.8,203.5,183.4,205,183.4,207.3z M177.2,207.3c0,1.4,0.9,2.4,2.3,2.4c1.3,0,2.3-1,2.3-2.4c0-1.4-0.9-2.4-2.3-2.4
		C178.2,204.9,177.2,205.9,177.2,207.3z"/>
	<path class="st8" d="M183.6,212.6l4.4-13.1h1.4l-4.4,13.1H183.6z"/>
	<path class="st8" d="M191.3,209.5h6v1.5H189v-1.2l6-7.1h-5.8v-1.5h8v1.2L191.3,209.5z"/>
	<path class="st8" d="M203.4,203.5h1.8l-2.4,3.6l2.6,3.8h-1.8l-1.8-2.7l-1.9,2.7H198l2.6-3.8l-2.5-3.6h1.8l1.7,2.5L203.4,203.5z"/>
	<path class="st8" d="M210.7,207.1v-2.3h1.5v2.3h1.4v1.5h-1.4v2.4h-1.5v-2.4H206v-1.2l3.3-6.2h1.6l-3.2,5.9H210.7z"/>
	<path class="st8" d="M218.2,205.3c1.6,0.1,2.8,1.1,2.8,2.6c0,1.8-1.4,3.1-3.6,3.1c-1.2,0-2.5-0.4-3.3-1.1l0.7-1.3
		c0.7,0.7,1.6,1,2.5,1c1.3,0,2.1-0.7,2.1-1.7c0-1.1-0.8-1.6-2.1-1.6h-1.4v-1l2.5-2.7h-3.9v-1.5h6v1l-2.8,3L218.2,205.3z"/>
	<path class="st8" d="M226.8,201.2c2.9,0,5.1,2.1,5.1,4.9c0,2.8-2.1,4.9-5.1,4.9h-4v-9.8H226.8z M224.5,209.5h2.4
		c1.9,0,3.4-1.4,3.4-3.4c0-2-1.5-3.4-3.4-3.4h-2.3V209.5z"/>
</g>
<g class="st3">
	<path class="st6" d="M641.7,202.7l-1,1.2c-0.7-0.8-1.7-1.2-2.7-1.2c-2,0-3.5,1.5-3.5,3.4s1.5,3.5,3.5,3.5c1,0,2-0.4,2.7-1.2l1,1.1
		c-1,1-2.4,1.6-3.8,1.6c-2.9,0-5.1-2.2-5.1-5c0-2.8,2.3-4.9,5.2-4.9C639.4,201.2,640.8,201.7,641.7,202.7z"/>
	<path class="st6" d="M650.2,207.3c0,2.2-1.6,3.8-3.9,3.8c-2.3,0-3.9-1.5-3.9-3.8c0-2.3,1.6-3.8,3.9-3.8
		C648.6,203.5,650.2,205,650.2,207.3z M644,207.3c0,1.4,0.9,2.4,2.3,2.4c1.3,0,2.3-1,2.3-2.4c0-1.4-0.9-2.4-2.3-2.4
		C644.9,204.9,644,205.9,644,207.3z"/>
	<path class="st6" d="M659.7,207.3c0,2.2-1.4,3.8-3.5,3.8c-1.2,0-2.1-0.5-2.6-1.3v4h-1.6v-10.2h1.6v1.3c0.5-0.9,1.4-1.3,2.6-1.3
		C658.2,203.5,659.7,205,659.7,207.3z M658.1,207.2c0-1.4-0.9-2.4-2.3-2.4c-1.3,0-2.3,1-2.3,2.4c0,1.4,0.9,2.4,2.3,2.4
		C657.1,209.7,658.1,208.7,658.1,207.2z"/>
	<path class="st6" d="M664,212c-0.5,1.2-1.3,1.8-2.4,1.8c-0.7,0-1.2-0.2-1.7-0.6l0.7-1.2c0.4,0.3,0.6,0.4,1,0.4
		c0.5,0,0.9-0.3,1.1-0.8l0.3-0.6l-3.1-7.3h1.7l2.2,5.6l2.1-5.6h1.6L664,212z"/>
	<path class="st6" d="M678.1,209.5v1.5h-5.9v-9.8h1.7v8.3H678.1z"/>
	<path class="st6" d="M681.3,201.4c0,0.6-0.4,1-0.9,1s-0.9-0.4-0.9-1c0-0.6,0.4-1,0.9-1S681.3,200.8,681.3,201.4z M679.6,211v-7.5
		h1.6v7.5H679.6z"/>
	<path class="st6" d="M690.7,206.4v4.6h-1.6v-4.2c0-1.1-0.7-1.8-1.8-1.8c-1.2,0-2,0.9-2.1,2v4h-1.6v-7.5h1.6v1.4
		c0.5-1,1.5-1.5,2.7-1.5C689.7,203.5,690.7,204.6,690.7,206.4z"/>
	<path class="st6" d="M694.5,208.9v2.1h-1.6v-10.4h1.6v6.3l3.3-3.3h1.8l-2.8,2.9l3,4.6H698l-2.2-3.4L694.5,208.9z"/>
</g>
<g class="st3">
	<path class="st9" d="M76.3,345.5l-1.1,2.5h-1.2l4.4-9.8h1.2L84,348h-1.2l-1.1-2.5H76.3z M79,339.5l-2.2,5h4.4L79,339.5z"/>
	<path class="st9" d="M85.5,348v-10.4h1.1V348H85.5z"/>
	<path class="st9" d="M89.3,348v-10.4h1.1V348H89.3z"/>
	<path class="st9" d="M99.9,344.3c0,2.2-1.6,3.7-3.7,3.7c-2.2,0-3.7-1.5-3.7-3.7c0-2.2,1.6-3.7,3.7-3.7
		C98.3,340.6,99.9,342.1,99.9,344.3z M93.5,344.3c0,1.6,1.1,2.7,2.6,2.7c1.5,0,2.6-1.1,2.6-2.7c0-1.6-1.1-2.7-2.6-2.7
		C94.6,341.6,93.5,342.7,93.5,344.3z"/>
	<path class="st9" d="M108.5,348l-2.2-6l-2.2,6h-1.1l-2.8-7.4h1.1l2.2,6.2l2.1-6.2h1.1l2.2,6.2l2.2-6.2h1.1l-2.7,7.4H108.5z"/>
	<path class="st9" d="M123.9,348h-1.1v-1.7c-0.5,1.1-1.5,1.7-2.8,1.7c-1.7,0-2.8-1.1-2.8-2.9v-4.6h1.1v4.3c0,1.3,0.8,2.1,2,2.1
		c1.5,0,2.4-1.1,2.4-2.7v-3.6h1.1V348z"/>
	<path class="st9" d="M130.9,341.2l-0.4,0.9c-0.6-0.4-1.3-0.6-2-0.6c-0.8,0-1.5,0.3-1.5,1c0,1.6,4.1,0.8,4.1,3.4
		c0,1.5-1.3,2.1-2.7,2.1c-1.1,0-2.1-0.4-2.8-1l0.4-0.8c0.6,0.6,1.6,0.9,2.5,0.9s1.6-0.3,1.6-1c0-1.8-4.1-0.9-4.1-3.5
		c0-1.4,1.2-2,2.6-2C129.4,340.6,130.3,340.8,130.9,341.2z"/>
	<path class="st9" d="M139.3,344.7h-6c0.2,1.4,1.2,2.4,2.7,2.4c0.9,0,1.7-0.3,2.3-0.9l0.6,0.6c-0.7,0.8-1.7,1.2-3,1.2
		c-2.2,0-3.7-1.5-3.7-3.7s1.5-3.7,3.7-3.7C138.2,340.6,139.4,342.2,139.3,344.7z M138.3,343.8c-0.1-1.4-1-2.3-2.5-2.3
		c-1.4,0-2.4,0.9-2.6,2.3H138.3z"/>
	<path class="st9" d="M142.2,342.3c0.5-1.1,1.4-1.7,2.6-1.7v1.1c-1.6,0-2.5,0.9-2.6,2.4v3.9h-1.1v-7.4h1.1V342.3z"/>
	<path class="st9" d="M150.7,341.2l-0.4,0.9c-0.6-0.4-1.3-0.6-2-0.6c-0.8,0-1.5,0.3-1.5,1c0,1.6,4.1,0.8,4.1,3.4
		c0,1.5-1.3,2.1-2.7,2.1c-1.1,0-2.1-0.4-2.8-1l0.4-0.8c0.6,0.6,1.6,0.9,2.5,0.9s1.6-0.3,1.6-1c0-1.8-4.1-0.9-4.1-3.5
		c0-1.4,1.2-2,2.6-2C149.2,340.6,150,340.8,150.7,341.2z"/>
	<path class="st9" d="M163.5,348l-2.2-6l-2.2,6H158l-2.8-7.4h1.1l2.2,6.2l2.1-6.2h1.1l2.2,6.2l2.2-6.2h1.1l-2.7,7.4H163.5z"/>
	<path class="st9" d="M169.9,338.5c0,0.4-0.3,0.8-0.7,0.8s-0.7-0.3-0.7-0.8s0.3-0.8,0.7-0.8S169.9,338.1,169.9,338.5z M168.6,348
		v-7.4h1.1v7.4H168.6z"/>
	<path class="st9" d="M176.2,347.5c-0.5,0.3-1.1,0.5-1.7,0.6c-1.1,0-1.9-0.6-1.9-2.1v-4.2h-1.1v-0.9h1.1v-1.9h1.1v1.9l2.3,0v0.9
		h-2.3v4c0,0.9,0.3,1.2,1,1.2c0.4,0,0.8-0.1,1.2-0.4L176.2,347.5z"/>
	<path class="st9" d="M184.7,343.4v4.6h-1.1v-4.3c0-1.3-0.8-2.1-2.1-2.1c-1.6,0-2.5,1.1-2.5,2.7v3.6h-1.1v-10.4h1.1v4.7
		c0.5-1.1,1.5-1.7,2.9-1.7C183.6,340.6,184.7,341.7,184.7,343.4z"/>
	<path class="st9" d="M194.7,347.5c-0.5,0.3-1.1,0.5-1.7,0.6c-1.1,0-1.9-0.6-1.9-2.1v-4.2h-1.1v-0.9h1.1v-1.9h1.1v1.9l2.3,0v0.9
		h-2.3v4c0,0.9,0.3,1.2,1,1.2c0.4,0,0.8-0.1,1.2-0.4L194.7,347.5z"/>
	<path class="st9" d="M203.2,343.4v4.6h-1.1v-4.3c0-1.3-0.8-2.1-2.1-2.1c-1.6,0-2.5,1.1-2.5,2.7v3.6h-1.1v-10.4h1.1v4.7
		c0.5-1.1,1.5-1.7,2.9-1.7C202.2,340.6,203.2,341.7,203.2,343.4z"/>
	<path class="st9" d="M206.9,338.5c0,0.4-0.3,0.8-0.7,0.8s-0.7-0.3-0.7-0.8s0.3-0.8,0.7-0.8S206.9,338.1,206.9,338.5z M205.7,348
		v-7.4h1.1v7.4H205.7z"/>
	<path class="st9" d="M213.7,341.2l-0.4,0.9c-0.6-0.4-1.3-0.6-2-0.6c-0.8,0-1.5,0.3-1.5,1c0,1.6,4.1,0.8,4.1,3.4
		c0,1.5-1.3,2.1-2.7,2.1c-1.1,0-2.1-0.4-2.8-1l0.4-0.8c0.6,0.6,1.6,0.9,2.5,0.9s1.6-0.3,1.6-1c0-1.8-4.1-0.9-4.1-3.5
		c0-1.4,1.2-2,2.6-2C212.2,340.6,213.1,340.8,213.7,341.2z"/>
	<path class="st9" d="M219.6,348v-10.4h1.1V348H219.6z"/>
	<path class="st9" d="M224.7,338.5c0,0.4-0.3,0.8-0.7,0.8s-0.7-0.3-0.7-0.8s0.3-0.8,0.7-0.8S224.7,338.1,224.7,338.5z M223.5,348
		v-7.4h1.1v7.4H223.5z"/>
	<path class="st9" d="M234,343.4v4.6h-1.1v-4.3c0-1.3-0.8-2.1-2.1-2.1c-1.5,0-2.4,1-2.5,2.4v4h-1.1v-7.4h1.1v1.6
		c0.5-1.1,1.5-1.7,2.9-1.7C232.9,340.6,234,341.7,234,343.4z"/>
	<path class="st9" d="M237.5,345.9v2.1h-1.1v-10.4h1.1v6.8l3.8-3.8h1.3l-2.8,2.9l3.1,4.5h-1.3l-2.5-3.7L237.5,345.9z"/>
	<path class="st9" d="M252.1,347.5c-0.5,0.3-1.1,0.5-1.7,0.6c-1.1,0-1.9-0.6-1.9-2.1v-4.2h-1.1v-0.9h1.1v-1.9h1.1v1.9l2.3,0v0.9
		h-2.3v4c0,0.9,0.3,1.2,1,1.2c0.4,0,0.8-0.1,1.2-0.4L252.1,347.5z"/>
	<path class="st9" d="M260.3,344.3c0,2.2-1.6,3.7-3.7,3.7c-2.2,0-3.7-1.5-3.7-3.7c0-2.2,1.6-3.7,3.7-3.7
		C258.8,340.6,260.3,342.1,260.3,344.3z M253.9,344.3c0,1.6,1.1,2.7,2.6,2.7s2.6-1.1,2.6-2.7c0-1.6-1.1-2.7-2.6-2.7
		S253.9,342.7,253.9,344.3z"/>
	<path class="st9" d="M272.9,348h-1.1v-1.6c-0.5,1-1.6,1.6-2.9,1.6c-2.1,0-3.6-1.6-3.6-3.8c0-2.2,1.5-3.7,3.5-3.7
		c1.3,0,2.3,0.6,2.9,1.7v-4.6h1.1V348z M271.8,344.3c0-1.6-1.1-2.8-2.7-2.8c-1.6,0-2.7,1.2-2.7,2.8c0,1.6,1.1,2.7,2.7,2.7
		C270.7,347.1,271.8,345.9,271.8,344.3z"/>
	<path class="st9" d="M282.3,344.3c0,2.2-1.6,3.7-3.7,3.7c-2.2,0-3.7-1.5-3.7-3.7c0-2.2,1.6-3.7,3.7-3.7
		C280.8,340.6,282.3,342.1,282.3,344.3z M275.9,344.3c0,1.6,1.1,2.7,2.6,2.7s2.6-1.1,2.6-2.7c0-1.6-1.1-2.7-2.6-2.7
		S275.9,342.7,275.9,344.3z"/>
	<path class="st9" d="M289.3,338.5c0,0.4-0.3,0.8-0.7,0.8s-0.7-0.3-0.7-0.8s0.3-0.8,0.7-0.8S289.3,338.1,289.3,338.5z M288.1,348
		v-7.4h1.1v7.4H288.1z"/>
	<path class="st9" d="M298.6,343.4v4.6h-1.1v-4.3c0-1.3-0.8-2.1-2.1-2.1c-1.5,0-2.4,1-2.5,2.4v4h-1.1v-7.4h1.1v1.6
		c0.5-1.1,1.5-1.7,2.9-1.7C297.5,340.6,298.6,341.7,298.6,343.4z"/>
	<path class="st9" d="M304.8,347.5c-0.5,0.3-1.1,0.5-1.7,0.6c-1.1,0-1.9-0.6-1.9-2.1v-4.2h-1.1v-0.9h1.1v-1.9h1.1v1.9l2.3,0v0.9
		h-2.3v4c0,0.9,0.3,1.2,1,1.2c0.4,0,0.8-0.1,1.2-0.4L304.8,347.5z"/>
	<path class="st9" d="M312.7,344.7h-6c0.2,1.4,1.2,2.4,2.7,2.4c0.9,0,1.7-0.3,2.3-0.9l0.6,0.6c-0.7,0.8-1.7,1.2-3,1.2
		c-2.2,0-3.7-1.5-3.7-3.7s1.5-3.7,3.7-3.7C311.6,340.6,312.8,342.2,312.7,344.7z M311.7,343.8c-0.1-1.4-1-2.3-2.5-2.3
		c-1.4,0-2.4,0.9-2.6,2.3H311.7z"/>
	<path class="st9" d="M315.7,342.3c0.5-1.1,1.4-1.7,2.6-1.7v1.1c-1.6,0-2.5,0.9-2.6,2.4v3.9h-1.1v-7.4h1.1V342.3z"/>
	<path class="st9" d="M324,346.9c-0.6,0.8-1.5,1.2-2.7,1.2c-1.5,0-2.5-1-2.5-2.3c0-1.3,1-2.1,2.8-2.1h2.4v-0.4c0-1.1-0.7-1.7-2-1.7
		c-0.8,0-1.6,0.3-2.3,0.8l-0.5-0.8c1-0.6,1.8-1,3-1c1.8,0,2.8,1,2.8,2.5l0,4.9H324V346.9z M324,345.5v-0.9h-2.3
		c-1.2,0-1.9,0.4-1.9,1.2s0.7,1.3,1.7,1.3C322.8,347.1,323.7,346.5,324,345.5z"/>
	<path class="st9" d="M333.3,341.7l-0.6,0.8c-0.6-0.5-1.3-0.9-2.2-0.9c-1.5,0-2.6,1.1-2.6,2.7c0,1.6,1.1,2.7,2.6,2.7
		c1,0,1.8-0.3,2.3-1l0.6,0.7c-0.7,0.8-1.7,1.3-3,1.3c-2.1,0-3.7-1.5-3.7-3.7s1.5-3.7,3.7-3.7C331.6,340.6,332.6,341,333.3,341.7z"/>
	<path class="st9" d="M339.2,347.5c-0.5,0.3-1.1,0.5-1.7,0.6c-1.1,0-1.9-0.6-1.9-2.1v-4.2h-1.1v-0.9h1.1v-1.9h1.1v1.9l2.3,0v0.9
		h-2.3v4c0,0.9,0.3,1.2,1,1.2c0.4,0,0.8-0.1,1.2-0.4L339.2,347.5z"/>
	<path class="st9" d="M351.6,348l-2.2-6l-2.2,6h-1.1l-2.8-7.4h1.1l2.2,6.2l2.1-6.2h1.1l2.2,6.2l2.2-6.2h1.1l-2.7,7.4H351.6z"/>
	<path class="st9" d="M358,338.5c0,0.4-0.3,0.8-0.7,0.8s-0.7-0.3-0.7-0.8s0.3-0.8,0.7-0.8S358,338.1,358,338.5z M356.8,348v-7.4h1.1
		v7.4H356.8z"/>
	<path class="st9" d="M364.3,347.5c-0.5,0.3-1.1,0.5-1.7,0.6c-1.1,0-1.9-0.6-1.9-2.1v-4.2h-1.1v-0.9h1.1v-1.9h1.1v1.9l2.3,0v0.9
		h-2.3v4c0,0.9,0.3,1.2,1,1.2c0.4,0,0.8-0.1,1.2-0.4L364.3,347.5z"/>
	<path class="st9" d="M372.8,343.4v4.6h-1.1v-4.3c0-1.3-0.8-2.1-2.1-2.1c-1.6,0-2.5,1.1-2.5,2.7v3.6H366v-10.4h1.1v4.7
		c0.5-1.1,1.5-1.7,2.9-1.7C371.8,340.6,372.8,341.7,372.8,343.4z"/>
	<path class="st9" d="M382.9,347.5c-0.5,0.3-1.1,0.5-1.7,0.6c-1.1,0-1.9-0.6-1.9-2.1v-4.2h-1.1v-0.9h1.1v-1.9h1.1v1.9l2.3,0v0.9
		h-2.3v4c0,0.9,0.3,1.2,1,1.2c0.4,0,0.8-0.1,1.2-0.4L382.9,347.5z"/>
	<path class="st9" d="M391.4,343.4v4.6h-1.1v-4.3c0-1.3-0.8-2.1-2.1-2.1c-1.6,0-2.5,1.1-2.5,2.7v3.6h-1.1v-10.4h1.1v4.7
		c0.5-1.1,1.5-1.7,2.9-1.7C390.3,340.6,391.4,341.7,391.4,343.4z"/>
	<path class="st9" d="M400.1,344.7h-6c0.2,1.4,1.2,2.4,2.7,2.4c0.9,0,1.7-0.3,2.3-0.9l0.6,0.6c-0.7,0.8-1.7,1.2-3,1.2
		c-2.2,0-3.7-1.5-3.7-3.7s1.5-3.7,3.7-3.7C399.1,340.6,400.3,342.2,400.1,344.7z M399.2,343.8c-0.1-1.4-1-2.3-2.5-2.3
		c-1.4,0-2.4,0.9-2.6,2.3H399.2z"/>
	<path class="st9" d="M410.2,341.2l-0.4,0.9c-0.6-0.4-1.3-0.6-2-0.6c-0.8,0-1.5,0.3-1.5,1c0,1.6,4.1,0.8,4.1,3.4
		c0,1.5-1.3,2.1-2.7,2.1c-1.1,0-2.1-0.4-2.8-1l0.4-0.8c0.6,0.6,1.6,0.9,2.5,0.9s1.6-0.3,1.6-1c0-1.8-4.1-0.9-4.1-3.5
		c0-1.4,1.2-2,2.6-2C408.7,340.6,409.5,340.8,410.2,341.2z"/>
	<path class="st9" d="M416,347.5c-0.5,0.3-1.1,0.5-1.7,0.6c-1.1,0-1.9-0.6-1.9-2.1v-4.2h-1.1v-0.9h1.1v-1.9h1.1v1.9l2.3,0v0.9h-2.3
		v4c0,0.9,0.3,1.2,1,1.2c0.4,0,0.8-0.1,1.2-0.4L416,347.5z"/>
	<path class="st9" d="M424.3,344.3c0,2.2-1.6,3.7-3.7,3.7c-2.2,0-3.7-1.5-3.7-3.7c0-2.2,1.6-3.7,3.7-3.7
		C422.7,340.6,424.3,342.1,424.3,344.3z M417.9,344.3c0,1.6,1.1,2.7,2.6,2.7s2.6-1.1,2.6-2.7c0-1.6-1.1-2.7-2.6-2.7
		S417.9,342.7,417.9,344.3z"/>
	<path class="st9" d="M427.3,342.3c0.5-1.1,1.4-1.7,2.6-1.7v1.1c-1.6,0-2.5,0.9-2.6,2.4v3.9h-1.1v-7.4h1.1V342.3z"/>
	<path class="st9" d="M434.1,349.1c-0.5,1.1-1.2,1.7-2.2,1.7c-0.6,0-1.1-0.2-1.6-0.5l0.5-0.9c0.3,0.2,0.7,0.4,1,0.4
		c0.6,0,1-0.4,1.3-1l0.3-0.7l-3.1-7.3h1.1l2.5,6.1l2.3-6.1h1.1L434.1,349.1z"/>
	<path class="st9" d="M443.9,338.5c0,0.4-0.3,0.8-0.7,0.8s-0.7-0.3-0.7-0.8s0.3-0.8,0.7-0.8S443.9,338.1,443.9,338.5z M442.7,348
		v-7.4h1.1v7.4H442.7z"/>
	<path class="st9" d="M453.1,343.4v4.6h-1.1v-4.3c0-1.3-0.8-2.1-2.1-2.1c-1.5,0-2.4,1-2.5,2.4v4h-1.1v-7.4h1.1v1.6
		c0.5-1.1,1.5-1.7,2.9-1.7C452.1,340.6,453.1,341.7,453.1,343.4z"/>
	<path class="st9" d="M463.2,347.5c-0.5,0.3-1.1,0.5-1.7,0.6c-1.1,0-1.9-0.6-1.9-2.1v-4.2h-1.1v-0.9h1.1v-1.9h1.1v1.9l2.3,0v0.9
		h-2.3v4c0,0.9,0.3,1.2,1,1.2c0.4,0,0.8-0.1,1.2-0.4L463.2,347.5z"/>
	<path class="st9" d="M471.7,343.4v4.6h-1.1v-4.3c0-1.3-0.8-2.1-2.1-2.1c-1.6,0-2.5,1.1-2.5,2.7v3.6h-1.1v-10.4h1.1v4.7
		c0.5-1.1,1.5-1.7,2.9-1.7C470.7,340.6,471.7,341.7,471.7,343.4z"/>
	<path class="st9" d="M480.5,344.7h-6c0.2,1.4,1.2,2.4,2.7,2.4c0.9,0,1.7-0.3,2.3-0.9l0.6,0.6c-0.7,0.8-1.7,1.2-3,1.2
		c-2.2,0-3.7-1.5-3.7-3.7s1.5-3.7,3.7-3.7C479.4,340.6,480.6,342.2,480.5,344.7z M479.5,343.8c-0.1-1.4-1-2.3-2.5-2.3
		c-1.4,0-2.4,0.9-2.6,2.3H479.5z"/>
	<path class="st9" d="M487.5,339.9v1h2.1v0.9h-2.1v6.3h-1.1v-6.3h-1v-0.9h1V340c0-1.6,1.1-2.5,2.4-2.5c0.6,0,1.1,0.2,1.6,0.5
		l-0.4,0.9c-0.3-0.2-0.7-0.4-1.1-0.4C488.1,338.6,487.5,339,487.5,339.9z"/>
	<path class="st9" d="M497.3,344.3c0,2.2-1.6,3.7-3.7,3.7c-2.2,0-3.7-1.5-3.7-3.7c0-2.2,1.6-3.7,3.7-3.7
		C495.8,340.6,497.3,342.1,497.3,344.3z M491,344.3c0,1.6,1.1,2.7,2.6,2.7s2.6-1.1,2.6-2.7c0-1.6-1.1-2.7-2.6-2.7
		S491,342.7,491,344.3z"/>
	<path class="st9" d="M499.3,348v-10.4h1.1V348H499.3z"/>
	<path class="st9" d="M503.2,348v-10.4h1.1V348H503.2z"/>
	<path class="st9" d="M513.8,344.3c0,2.2-1.6,3.7-3.7,3.7c-2.2,0-3.7-1.5-3.7-3.7c0-2.2,1.6-3.7,3.7-3.7
		C512.2,340.6,513.8,342.1,513.8,344.3z M507.4,344.3c0,1.6,1.1,2.7,2.6,2.7s2.6-1.1,2.6-2.7c0-1.6-1.1-2.7-2.6-2.7
		S507.4,342.7,507.4,344.3z"/>
	<path class="st9" d="M522.4,348l-2.2-6l-2.2,6h-1.1l-2.8-7.4h1.1l2.2,6.2l2.1-6.2h1.1l2.2,6.2l2.2-6.2h1.1l-2.7,7.4H522.4z"/>
	<path class="st9" d="M528.8,338.5c0,0.4-0.3,0.8-0.7,0.8s-0.7-0.3-0.7-0.8s0.3-0.8,0.7-0.8S528.8,338.1,528.8,338.5z M527.6,348
		v-7.4h1.1v7.4H527.6z"/>
	<path class="st9" d="M538,343.4v4.6H537v-4.3c0-1.3-0.8-2.1-2.1-2.1c-1.5,0-2.4,1-2.5,2.4v4h-1.1v-7.4h1.1v1.6
		c0.5-1.1,1.5-1.7,2.9-1.7C537,340.6,538,341.7,538,343.4z"/>
	<path class="st9" d="M546.9,347.2c0,2.2-1.5,3.5-3.7,3.5c-1.2,0-2.1-0.4-3-1.1l0.5-0.8c0.7,0.6,1.5,0.9,2.5,0.9
		c1.6,0,2.7-1,2.7-2.5v-1.1c-0.5,1-1.5,1.5-2.7,1.5c-2,0-3.4-1.5-3.4-3.6c0-2.1,1.4-3.5,3.3-3.5c1.3,0,2.2,0.6,2.7,1.5v-1.5h1.1
		V347.2z M545.8,344.1c0-1.5-1.1-2.6-2.5-2.6c-1.5,0-2.5,1.1-2.5,2.6c0,1.5,1,2.6,2.5,2.6C544.8,346.8,545.8,345.7,545.8,344.1z"/>
	<path class="st9" d="M560.2,348l-2.2-6l-2.2,6h-1.1l-2.8-7.4h1.1l2.2,6.2l2.1-6.2h1.1l2.2,6.2l2.2-6.2h1.1l-2.7,7.4H560.2z"/>
	<path class="st9" d="M569.7,346.9c-0.6,0.8-1.5,1.2-2.7,1.2c-1.5,0-2.5-1-2.5-2.3c0-1.3,1-2.1,2.8-2.1h2.4v-0.4
		c0-1.1-0.7-1.7-2-1.7c-0.8,0-1.6,0.3-2.3,0.8l-0.5-0.8c1-0.6,1.8-1,3-1c1.8,0,2.8,1,2.8,2.5l0,4.9h-1.1V346.9z M569.7,345.5v-0.9
		h-2.3c-1.2,0-1.9,0.4-1.9,1.2s0.7,1.3,1.7,1.3C568.5,347.1,569.4,346.5,569.7,345.5z"/>
	<path class="st9" d="M575.3,349.1c-0.5,1.1-1.2,1.7-2.2,1.7c-0.6,0-1.1-0.2-1.6-0.5l0.5-0.9c0.3,0.2,0.7,0.4,1,0.4
		c0.6,0,1.1-0.4,1.3-1l0.3-0.7l-3.1-7.3h1.1l2.5,6.1l2.3-6.1h1.1L575.3,349.1z"/>
	<path class="st9" d="M584.2,341.2l-0.4,0.9c-0.6-0.4-1.3-0.6-2-0.6c-0.8,0-1.5,0.3-1.5,1c0,1.6,4.1,0.8,4.1,3.4
		c0,1.5-1.3,2.1-2.7,2.1c-1.1,0-2.1-0.4-2.8-1l0.4-0.8c0.6,0.6,1.6,0.9,2.5,0.9s1.6-0.3,1.6-1c0-1.8-4.1-0.9-4.1-3.5
		c0-1.4,1.2-2,2.6-2C582.7,340.6,583.6,340.8,584.2,341.2z"/>
</g>
<g id="Group-2_1_" transform="translate(584.000000, 524.000000)">
	<path id="Rectangle-3" class="st6" d="M46,22h78c3.3,0,6,2.7,6,6v32c0,3.3-2.7,6-6,6H46c-3.3,0-6-2.7-6-6V28C40,24.7,42.7,22,46,22
		z"/>
	<g class="st3">
		<path class="st1" d="M63.9,40.1l-0.7,1.5c-1.1-0.6-2.1-0.9-2.9-0.9c-1,0-1.6,0.4-1.6,1c0,2.1,5.3,1,5.3,4.5c0,1.8-1.5,2.8-3.7,2.8
			c-1.5,0-3-0.6-4-1.6l0.7-1.4c1,0.9,2.3,1.4,3.3,1.4c1.1,0,1.8-0.4,1.8-1.2c0-2.2-5.3-1-5.3-4.5c0-1.7,1.4-2.7,3.6-2.7
			C61.8,39.1,63,39.5,63.9,40.1z"/>
		<path class="st1" d="M72.5,45.9h-5.6c0.3,1.1,1.1,1.9,2.3,1.9c0.8,0,1.6-0.3,2.1-0.9l0.9,0.9c-0.7,0.8-1.8,1.3-3.1,1.3
			c-2.3,0-3.8-1.5-3.8-3.8c0-2.3,1.6-3.8,3.8-3.8C71.6,41.5,72.7,43.2,72.5,45.9z M71.1,44.7c-0.1-1.2-0.9-1.9-2.1-1.9
			c-1.2,0-2,0.7-2.2,1.9H71.1z"/>
		<path class="st1" d="M81.3,44.4V49h-1.6v-4.2c0-1.1-0.7-1.8-1.8-1.8c-1.2,0-2,0.9-2.1,2v4h-1.6v-7.5h1.6V43c0.5-1,1.5-1.5,2.7-1.5
			C80.2,41.5,81.3,42.6,81.3,44.4z"/>
		<path class="st1" d="M90.5,49h-1.6v-1.3c-0.5,0.9-1.4,1.3-2.6,1.3c-2.1,0-3.6-1.6-3.6-3.8c0-2.2,1.4-3.8,3.5-3.8
			c1.2,0,2.1,0.5,2.6,1.4v-4.2h1.6V49z M88.9,45.3c0-1.4-0.9-2.5-2.3-2.5s-2.3,1-2.3,2.5c0,1.4,0.9,2.4,2.3,2.4
			C88,47.7,88.9,46.7,88.9,45.3z"/>
	</g>
	<path id="Combined-Shape_1_" class="st1" d="M98.7,44.2l-2.5-4.9c-0.5-1,0-1.5,1-1.1l16.5,5.7c0.5,0.2,0.5,0.3-0.1,0.3H98.7z
		 M98.7,44.8h14.9c0.6,0,0.6,0.1,0.1,0.3l-16.5,5.7c-1,0.4-1.5-0.1-1-1.1L98.7,44.8z"/>
</g>
<g id="Button-Copy-10" transform="translate(419.000000, 524.000000)">
	<path id="Rectangle-3_1_" class="st10" d="M46.5,22.5h138c3.3,0,6,2.7,6,6v31c0,3.3-2.7,6-6,6h-138c-3.3,0-6-2.7-6-6v-31
		C40.5,25.2,43.2,22.5,46.5,22.5z"/>
	<g class="st3">
		<path class="st11" d="M64,40.1l-0.7,1.5c-1.1-0.6-2.1-0.9-2.9-0.9c-1,0-1.6,0.4-1.6,1c0,2.1,5.3,1,5.3,4.5c0,1.8-1.5,2.8-3.7,2.8
			c-1.5,0-3-0.6-4-1.6l0.7-1.4c1,0.9,2.3,1.4,3.3,1.4c1.1,0,1.8-0.4,1.8-1.2c0-2.2-5.3-1-5.3-4.5c0-1.7,1.4-2.7,3.6-2.7
			C61.9,39.1,63.1,39.5,64,40.1z"/>
		<path class="st11" d="M72.5,45.9h-5.6c0.3,1.1,1.1,1.9,2.3,1.9c0.8,0,1.6-0.3,2.1-0.9l0.9,0.9c-0.7,0.8-1.8,1.3-3.1,1.3
			c-2.3,0-3.8-1.5-3.8-3.8c0-2.3,1.6-3.8,3.8-3.8C71.7,41.5,72.7,43.2,72.5,45.9z M71.1,44.7c-0.1-1.2-0.9-1.9-2.1-1.9
			c-1.2,0-2,0.7-2.2,1.9H71.1z"/>
		<path class="st11" d="M81.3,44.4V49h-1.6v-4.2c0-1.1-0.7-1.8-1.8-1.8c-1.2,0-2,0.9-2.1,2v4h-1.6v-7.5h1.6V43
			c0.5-1,1.5-1.5,2.7-1.5C80.3,41.5,81.3,42.6,81.3,44.4z"/>
		<path class="st11" d="M90.6,49H89v-1.3c-0.5,0.9-1.4,1.3-2.6,1.3c-2.1,0-3.6-1.6-3.6-3.8c0-2.2,1.4-3.8,3.5-3.8
			c1.2,0,2.1,0.5,2.6,1.4v-4.2h1.6V49z M89,45.3c0-1.4-0.9-2.5-2.3-2.5s-2.3,1-2.3,2.5c0,1.4,0.9,2.4,2.3,2.4
			C88,47.7,89,46.7,89,45.3z"/>
		<path class="st11" d="M105.6,49l0-7.3l-3.1,6.3h-1.1l-3.1-6.3V49h-1.6v-9.8h2l3.2,6.5l3.2-6.5h1.9V49H105.6z"/>
		<path class="st11" d="M116.2,45.9h-5.6c0.3,1.1,1.1,1.9,2.3,1.9c0.8,0,1.6-0.3,2.1-0.9l0.9,0.9c-0.7,0.8-1.8,1.3-3.1,1.3
			c-2.3,0-3.8-1.5-3.8-3.8c0-2.3,1.6-3.8,3.8-3.8C115.3,41.5,116.4,43.2,116.2,45.9z M114.8,44.7c-0.1-1.2-0.9-1.9-2.1-1.9
			c-1.2,0-2,0.7-2.2,1.9H114.8z"/>
		<path class="st11" d="M125.5,39.2c2.5,0,3.9,1.2,3.9,3.3c0,2.2-1.4,3.5-3.9,3.5h-2.3v3h-1.7v-9.8H125.5z M123.2,44.6h2.2
			c1.5,0,2.4-0.6,2.4-2c0-1.3-0.9-1.9-2.4-1.9h-2.2V44.6z"/>
		<path class="st11" d="M132.5,43c0.5-1,1.4-1.5,2.6-1.5V43c-1.5-0.1-2.5,0.8-2.6,2.1V49h-1.6v-7.5h1.6V43z"/>
		<path class="st11" d="M142.9,45.9h-5.6c0.3,1.1,1.1,1.9,2.3,1.9c0.8,0,1.6-0.3,2.1-0.9l0.9,0.9c-0.7,0.8-1.8,1.3-3.1,1.3
			c-2.3,0-3.8-1.5-3.8-3.8c0-2.3,1.6-3.8,3.8-3.8C142.1,41.5,143.1,43.2,142.9,45.9z M141.5,44.7c-0.1-1.2-0.9-1.9-2.1-1.9
			c-1.2,0-2,0.7-2.2,1.9H141.5z"/>
		<path class="st11" d="M146,49l-2.9-7.5h1.7l2.1,5.9l2-5.9h1.6l-2.9,7.5H146z"/>
		<path class="st11" d="M153.4,39.4c0,0.6-0.4,1-0.9,1s-0.9-0.4-0.9-1c0-0.6,0.4-1,0.9-1S153.4,38.8,153.4,39.4z M151.7,49v-7.5h1.6
			V49H151.7z"/>
		<path class="st11" d="M162.2,45.9h-5.6c0.3,1.1,1.1,1.9,2.3,1.9c0.8,0,1.6-0.3,2.1-0.9l0.9,0.9c-0.7,0.8-1.8,1.3-3.1,1.3
			c-2.3,0-3.8-1.5-3.8-3.8c0-2.3,1.6-3.8,3.8-3.8C161.3,41.5,162.4,43.2,162.2,45.9z M160.8,44.7c-0.1-1.2-0.9-1.9-2.1-1.9
			c-1.2,0-2,0.7-2.2,1.9H160.8z"/>
		<path class="st11" d="M170.6,49l-1.9-5.5l-1.9,5.5h-1.7l-2.7-7.5h1.7l1.9,5.9l1.9-5.9h1.7l1.9,5.9l1.9-5.9h1.6l-2.7,7.5H170.6z"/>
	</g>
</g>
<g class="st3">
	<path class="st8" d="M85,123.4c0,2.9-1.8,4.7-4.9,4.7c-3,0-4.9-1.8-4.9-4.7v-6.6h1.9v6.6c0,1.9,1.2,3,3,3c1.8,0,3-1.1,3-3v-6.6H85
		V123.4z"/>
	<path class="st8" d="M92.8,124.6c-0.2,0-0.3,0-0.5,0h-2.7v3.4h-1.9v-11.2h4.5c2.9,0,4.5,1.4,4.5,3.8c0,1.8-0.8,3.1-2.3,3.6l2.5,3.7
		h-2.1L92.8,124.6z M92.2,122.9c1.7,0,2.7-0.7,2.7-2.3c0-1.5-1-2.2-2.7-2.2h-2.7v4.4H92.2z"/>
	<path class="st8" d="M106,126.3v1.7h-6.7v-11.2h1.9v9.5H106z"/>
	<path class="st8" d="M116,118.5v9.5h-1.9v-9.5h-3.5v-1.7h9v1.7H116z"/>
	<path class="st8" d="M128.1,123.7c0,2.6-1.8,4.3-4.4,4.3c-2.6,0-4.4-1.8-4.4-4.3c0-2.6,1.8-4.3,4.4-4.3
		C126.2,119.4,128.1,121.2,128.1,123.7z M121,123.8c0,1.6,1.1,2.8,2.6,2.8c1.5,0,2.6-1.1,2.6-2.8c0-1.6-1.1-2.8-2.6-2.8
		C122.1,121,121,122.1,121,123.8z"/>
	<path class="st8" d="M135.8,125.5l-1.1,2.5h-2l4.9-11.2h1.9l4.9,11.2h-2l-1.1-2.5H135.8z M138.6,118.8l-2.1,5h4.2L138.6,118.8z"/>
	<path class="st8" d="M152.5,120.8l-1,1.2c-0.6-0.6-1.4-1-2.4-1c-1.5,0-2.5,1.1-2.5,2.7c0,1.6,1.1,2.7,2.5,2.7c1.1,0,1.9-0.4,2.5-1
		l1,1c-0.8,1-2,1.6-3.6,1.6c-2.5,0-4.3-1.7-4.3-4.3c0-2.6,1.8-4.3,4.3-4.3C150.5,119.4,151.7,119.9,152.5,120.8z"/>
	<path class="st8" d="M161.2,120.8l-1,1.2c-0.6-0.6-1.4-1-2.4-1c-1.5,0-2.5,1.1-2.5,2.7c0,1.6,1.1,2.7,2.5,2.7c1.1,0,1.9-0.4,2.5-1
		l1,1c-0.8,1-2,1.6-3.6,1.6c-2.5,0-4.3-1.7-4.3-4.3c0-2.6,1.8-4.3,4.3-4.3C159.2,119.4,160.4,119.9,161.2,120.8z"/>
	<path class="st8" d="M170.4,124.4h-6.4c0.3,1.3,1.3,2.1,2.6,2.1c0.9,0,1.8-0.4,2.4-1l1,1c-0.8,0.9-2,1.4-3.5,1.4
		c-2.6,0-4.4-1.7-4.4-4.3c0-2.6,1.8-4.3,4.3-4.3C169.4,119.4,170.6,121.4,170.4,124.4z M168.8,123.1c-0.1-1.4-1-2.2-2.4-2.2
		c-1.3,0-2.3,0.8-2.5,2.2H168.8z"/>
	<path class="st8" d="M177.8,120.3l-0.7,1.4c-0.8-0.5-1.7-0.8-2.4-0.8c-0.7,0-1.2,0.2-1.2,0.8c0,1.6,4.5,0.7,4.5,3.8
		c0,1.7-1.6,2.5-3.3,2.5c-1.2,0-2.6-0.4-3.4-1.2l0.7-1.3c0.7,0.7,1.9,1.1,2.8,1.1c0.8,0,1.4-0.3,1.4-0.9c0-1.7-4.5-0.8-4.5-3.8
		c0-1.7,1.5-2.5,3.1-2.5C175.9,119.4,177,119.7,177.8,120.3z"/>
	<path class="st8" d="M185.3,120.3l-0.7,1.4c-0.8-0.5-1.7-0.8-2.4-0.8c-0.7,0-1.2,0.2-1.2,0.8c0,1.6,4.5,0.7,4.5,3.8
		c0,1.7-1.6,2.5-3.3,2.5c-1.2,0-2.6-0.4-3.4-1.2l0.7-1.3c0.7,0.7,1.9,1.1,2.8,1.1c0.8,0,1.4-0.3,1.4-0.9c0-1.7-4.5-0.8-4.5-3.8
		c0-1.7,1.5-2.5,3.1-2.5C183.4,119.4,184.5,119.7,185.3,120.3z"/>
	<path class="st8" d="M198.3,126.3v1.7h-6.7v-11.2h1.9v9.5H198.3z"/>
	<path class="st8" d="M202,117.1c0,0.6-0.5,1.1-1.1,1.1c-0.6,0-1.1-0.5-1.1-1.1c0-0.7,0.5-1.1,1.1-1.1
		C201.5,115.9,202,116.4,202,117.1z M200,128v-8.5h1.8v8.5H200z"/>
	<path class="st8" d="M206.5,128l-3.3-8.5h1.9l2.4,6.7l2.3-6.7h1.8l-3.3,8.5H206.5z"/>
	<path class="st8" d="M220.1,124.4h-6.4c0.3,1.3,1.3,2.1,2.6,2.1c0.9,0,1.8-0.4,2.4-1l1,1c-0.8,0.9-2,1.4-3.5,1.4
		c-2.6,0-4.4-1.7-4.4-4.3c0-2.6,1.8-4.3,4.3-4.3C219.1,119.4,220.3,121.4,220.1,124.4z M218.5,123.1c-0.1-1.4-1-2.2-2.4-2.2
		c-1.3,0-2.3,0.8-2.5,2.2H218.5z"/>
	<path class="st8" d="M233.9,117.9l-0.8,1.7c-1.2-0.7-2.4-1-3.3-1c-1.1,0-1.8,0.4-1.8,1.2c0,2.4,6,1.1,6,5.2c0,2-1.8,3.2-4.2,3.2
		c-1.8,0-3.4-0.7-4.6-1.8l0.8-1.6c1.2,1.1,2.6,1.6,3.8,1.6c1.3,0,2.1-0.5,2.1-1.4c0-2.5-6.1-1.1-6.1-5.1c0-1.9,1.6-3.1,4.1-3.1
		C231.4,116.7,232.8,117.2,233.9,117.9z"/>
	<path class="st8" d="M240.9,127.5c-0.7,0.4-1.4,0.6-2.1,0.6c-1.3,0-2.4-0.7-2.4-2.5v-4.4h-1.2v-1.4h1.2v-2.3h1.8v2.3h2.5v1.4h-2.5
		v4.1c0,0.9,0.3,1.2,0.9,1.2c0.4,0,0.8-0.1,1.3-0.4L240.9,127.5z"/>
	<path class="st8" d="M250.6,123.7c0,2.6-1.8,4.3-4.4,4.3c-2.6,0-4.4-1.8-4.4-4.3c0-2.6,1.8-4.3,4.4-4.3
		C248.8,119.4,250.6,121.2,250.6,123.7z M243.6,123.8c0,1.6,1.1,2.8,2.6,2.8c1.5,0,2.6-1.1,2.6-2.8c0-1.6-1.1-2.8-2.6-2.8
		C244.6,121,243.6,122.1,243.6,123.8z"/>
	<path class="st8" d="M254.4,121.2c0.6-1.2,1.6-1.8,2.9-1.8v1.8c-1.7-0.1-2.8,0.9-2.9,2.4v4.5h-1.8v-8.5h1.8V121.2z"/>
	<path class="st8" d="M262.6,129.2c-0.5,1.3-1.5,2-2.8,2c-0.8,0-1.4-0.2-2-0.7l0.8-1.4c0.4,0.3,0.7,0.4,1.1,0.4c0.6,0,1-0.3,1.3-0.9
		l0.3-0.6l-3.5-8.4h1.9l2.5,6.5l2.4-6.5h1.8L262.6,129.2z"/>
</g>
<g class="st3">
	<path class="st9" d="M83.3,160.6l-0.7,0.9c-0.8-0.8-1.8-1.2-2.9-1.2c-2.2,0-4,1.7-4,3.9c0,2.1,1.8,3.9,4,3.9c1.1,0,2.1-0.4,2.9-1.2
		l0.7,0.8c-1,0.9-2.3,1.5-3.6,1.5c-2.8,0-5.1-2.2-5.1-5c0-2.7,2.3-4.9,5.1-4.9C81,159.2,82.3,159.7,83.3,160.6z"/>
	<path class="st9" d="M91.6,165.3c0,2.2-1.6,3.7-3.7,3.7c-2.2,0-3.7-1.5-3.7-3.7c0-2.2,1.6-3.7,3.7-3.7
		C90.1,161.6,91.6,163.1,91.6,165.3z M85.2,165.3c0,1.6,1.1,2.7,2.6,2.7c1.5,0,2.6-1.1,2.6-2.7c0-1.6-1.1-2.7-2.6-2.7
		C86.3,162.6,85.2,163.7,85.2,165.3z"/>
	<path class="st9" d="M101.1,165.3c0,2.2-1.4,3.7-3.5,3.7c-1.3,0-2.3-0.6-2.9-1.6v4.3h-1.1v-10.1h1.1v1.6c0.5-1,1.6-1.6,2.8-1.6
		C99.6,161.6,101.1,163.1,101.1,165.3z M100,165.3c0-1.6-1.1-2.7-2.6-2.7c-1.6,0-2.6,1.1-2.6,2.7c0,1.6,1.1,2.7,2.6,2.7
		C98.9,168,100,166.9,100,165.3z"/>
	<path class="st9" d="M105.1,170.1c-0.5,1.1-1.2,1.7-2.2,1.7c-0.6,0-1.1-0.2-1.6-0.5l0.5-0.9c0.3,0.2,0.7,0.4,1,0.4
		c0.6,0,1-0.4,1.3-1l0.3-0.7l-3.1-7.3h1.1l2.5,6.1l2.3-6.1h1.1L105.1,170.1z"/>
	<path class="st9" d="M118.2,167.9c-0.6,0.8-1.5,1.2-2.7,1.2c-1.5,0-2.5-1-2.5-2.3c0-1.3,1-2.1,2.8-2.1h2.4v-0.4
		c0-1.1-0.7-1.7-2-1.7c-0.8,0-1.6,0.3-2.3,0.8l-0.5-0.8c1-0.6,1.8-1,3-1c1.8,0,2.8,1,2.8,2.5l0,4.9h-1.1V167.9z M118.2,166.5v-0.9
		h-2.3c-1.2,0-1.9,0.4-1.9,1.2s0.7,1.3,1.7,1.3C117,168.1,117.9,167.5,118.2,166.5z"/>
	<path class="st9" d="M128.5,164.4v4.6h-1.1v-4.3c0-1.3-0.8-2.1-2.1-2.1c-1.5,0-2.4,1-2.5,2.4v4h-1.1v-7.4h1.1v1.6
		c0.5-1.1,1.5-1.7,2.9-1.7C127.4,161.6,128.5,162.7,128.5,164.4z"/>
	<path class="st9" d="M137.7,169h-1.1v-1.6c-0.5,1-1.6,1.6-2.9,1.6c-2.1,0-3.6-1.6-3.6-3.8c0-2.2,1.5-3.7,3.5-3.7
		c1.3,0,2.3,0.6,2.9,1.7v-4.6h1.1V169z M136.6,165.3c0-1.6-1.1-2.8-2.7-2.8c-1.6,0-2.7,1.2-2.7,2.8c0,1.6,1.1,2.7,2.7,2.7
		C135.5,168.1,136.6,166.9,136.6,165.3z"/>
	<path class="st9" d="M151.8,165.3c0,2.2-1.4,3.7-3.5,3.7c-1.3,0-2.3-0.6-2.9-1.6v4.3h-1.1v-10.1h1.1v1.6c0.5-1,1.6-1.6,2.8-1.6
		C150.3,161.6,151.8,163.1,151.8,165.3z M150.7,165.3c0-1.6-1.1-2.7-2.6-2.7c-1.6,0-2.6,1.1-2.6,2.7c0,1.6,1.1,2.7,2.6,2.7
		C149.6,168,150.7,166.9,150.7,165.3z"/>
	<path class="st9" d="M158.3,167.9c-0.6,0.8-1.5,1.2-2.7,1.2c-1.5,0-2.5-1-2.5-2.3c0-1.3,1-2.1,2.8-2.1h2.4v-0.4
		c0-1.1-0.7-1.7-2-1.7c-0.8,0-1.6,0.3-2.3,0.8l-0.5-0.8c1-0.6,1.8-1,3-1c1.8,0,2.8,1,2.8,2.5l0,4.9h-1.1V167.9z M158.3,166.5v-0.9
		H156c-1.2,0-1.9,0.4-1.9,1.2s0.7,1.3,1.7,1.3C157,168.1,158,167.5,158.3,166.5z"/>
	<path class="st9" d="M166.1,162.2l-0.4,0.9c-0.6-0.4-1.3-0.6-2-0.6c-0.8,0-1.5,0.3-1.5,1c0,1.6,4.1,0.8,4.1,3.4
		c0,1.5-1.3,2.1-2.7,2.1c-1.1,0-2.1-0.4-2.8-1l0.4-0.8c0.6,0.6,1.6,0.9,2.5,0.9s1.6-0.3,1.6-1c0-1.8-4.1-0.9-4.1-3.5
		c0-1.4,1.2-2,2.6-2C164.6,161.6,165.5,161.8,166.1,162.2z"/>
	<path class="st9" d="M171.9,168.5c-0.5,0.3-1.1,0.5-1.7,0.6c-1.1,0-1.9-0.6-1.9-2.1v-4.2h-1.1v-0.9h1.1v-1.9h1.1v1.9l2.3,0v0.9
		h-2.3v4c0,0.9,0.3,1.2,1,1.2c0.4,0,0.8-0.1,1.2-0.4L171.9,168.5z"/>
	<path class="st9" d="M179.8,165.7h-6c0.2,1.4,1.2,2.4,2.7,2.4c0.9,0,1.7-0.3,2.3-0.9l0.6,0.6c-0.7,0.8-1.7,1.2-3,1.2
		c-2.2,0-3.7-1.5-3.7-3.7s1.5-3.7,3.7-3.7C178.8,161.6,179.9,163.2,179.8,165.7z M178.8,164.8c-0.1-1.4-1-2.3-2.5-2.3
		c-1.4,0-2.4,0.9-2.6,2.3H178.8z"/>
	<path class="st9" d="M189.3,168.5c-0.5,0.3-1.1,0.5-1.7,0.6c-1.1,0-1.9-0.6-1.9-2.1v-4.2h-1.1v-0.9h1.1v-1.9h1.1v1.9l2.3,0v0.9
		h-2.3v4c0,0.9,0.3,1.2,1,1.2c0.4,0,0.8-0.1,1.2-0.4L189.3,168.5z"/>
	<path class="st9" d="M197.8,164.4v4.6h-1.1v-4.3c0-1.3-0.8-2.1-2.1-2.1c-1.6,0-2.5,1.1-2.5,2.7v3.6h-1.1v-10.4h1.1v4.7
		c0.5-1.1,1.5-1.7,2.9-1.7C196.8,161.6,197.8,162.7,197.8,164.4z"/>
	<path class="st9" d="M206.6,165.7h-6c0.2,1.4,1.2,2.4,2.7,2.4c0.9,0,1.7-0.3,2.3-0.9l0.6,0.6c-0.7,0.8-1.7,1.2-3,1.2
		c-2.2,0-3.7-1.5-3.7-3.7s1.5-3.7,3.7-3.7C205.6,161.6,206.7,163.2,206.6,165.7z M205.6,164.8c-0.1-1.4-1-2.3-2.5-2.3
		c-1.4,0-2.4,0.9-2.6,2.3H205.6z"/>
	<path class="st9" d="M212.4,169v-10.4h1.1V169H212.4z"/>
	<path class="st9" d="M217.5,159.5c0,0.4-0.3,0.8-0.7,0.8s-0.7-0.3-0.7-0.8s0.3-0.8,0.7-0.8S217.5,159.1,217.5,159.5z M216.2,169
		v-7.4h1.1v7.4H216.2z"/>
	<path class="st9" d="M226.7,164.4v4.6h-1.1v-4.3c0-1.3-0.8-2.1-2.1-2.1c-1.5,0-2.4,1-2.5,2.4v4H220v-7.4h1.1v1.6
		c0.5-1.1,1.5-1.7,2.9-1.7C225.7,161.6,226.7,162.7,226.7,164.4z"/>
	<path class="st9" d="M230.3,166.9v2.1h-1.1v-10.4h1.1v6.8l3.8-3.8h1.3l-2.8,2.9l3.1,4.5h-1.3l-2.5-3.7L230.3,166.9z"/>
	<path class="st9" d="M248.6,165.3c0,2.2-1.4,3.7-3.5,3.7c-1.3,0-2.3-0.6-2.9-1.6v1.6h-1.1v-10.4h1.1v4.6c0.5-1,1.6-1.6,2.8-1.6
		C247.1,161.6,248.6,163.1,248.6,165.3z M247.4,165.3c0-1.6-1.1-2.7-2.6-2.7c-1.6,0-2.6,1.1-2.6,2.7c0,1.6,1.1,2.7,2.6,2.7
		C246.4,168,247.4,166.9,247.4,165.3z"/>
	<path class="st9" d="M256.8,165.7h-6c0.2,1.4,1.2,2.4,2.7,2.4c0.9,0,1.7-0.3,2.3-0.9l0.6,0.6c-0.7,0.8-1.7,1.2-3,1.2
		c-2.2,0-3.7-1.5-3.7-3.7s1.5-3.7,3.7-3.7C255.8,161.6,256.9,163.2,256.8,165.7z M255.8,164.8c-0.1-1.4-1-2.3-2.5-2.3
		c-1.4,0-2.4,0.9-2.6,2.3H255.8z"/>
	<path class="st9" d="M258.8,169v-10.4h1.1V169H258.8z"/>
	<path class="st9" d="M269.3,165.3c0,2.2-1.6,3.7-3.7,3.7c-2.2,0-3.7-1.5-3.7-3.7c0-2.2,1.6-3.7,3.7-3.7
		C267.8,161.6,269.3,163.1,269.3,165.3z M262.9,165.3c0,1.6,1.1,2.7,2.6,2.7s2.6-1.1,2.6-2.7c0-1.6-1.1-2.7-2.6-2.7
		S262.9,163.7,262.9,165.3z"/>
	<path class="st9" d="M278,169l-2.2-6l-2.2,6h-1.1l-2.8-7.4h1.1l2.2,6.2l2.1-6.2h1.1l2.2,6.2l2.2-6.2h1.1l-2.7,7.4H278z"/>
	<path class="st9" d="M288.2,159.5c0,0.4-0.3,0.8-0.7,0.8s-0.7-0.3-0.7-0.8s0.3-0.8,0.7-0.8S288.2,159.1,288.2,159.5z M286.9,169
		v-7.4h1.1v7.4H286.9z"/>
	<path class="st9" d="M297.4,164.4v4.6h-1.1v-4.3c0-1.3-0.8-2.1-2.1-2.1c-1.5,0-2.4,1-2.5,2.4v4h-1.1v-7.4h1.1v1.6
		c0.5-1.1,1.5-1.7,2.9-1.7C296.4,161.6,297.4,162.7,297.4,164.4z"/>
	<path class="st9" d="M303.7,168.5c-0.5,0.3-1.1,0.5-1.7,0.6c-1.1,0-1.9-0.6-1.9-2.1v-4.2h-1.1v-0.9h1.1v-1.9h1.1v1.9l2.3,0v0.9
		h-2.3v4c0,0.9,0.3,1.2,1,1.2c0.4,0,0.8-0.1,1.2-0.4L303.7,168.5z"/>
	<path class="st9" d="M311.9,165.3c0,2.2-1.6,3.7-3.7,3.7c-2.2,0-3.7-1.5-3.7-3.7c0-2.2,1.6-3.7,3.7-3.7
		C310.4,161.6,311.9,163.1,311.9,165.3z M305.6,165.3c0,1.6,1.1,2.7,2.6,2.7s2.6-1.1,2.6-2.7c0-1.6-1.1-2.7-2.6-2.7
		S305.6,163.7,305.6,165.3z"/>
	<path class="st9" d="M324.1,165.7h-6c0.2,1.4,1.2,2.4,2.7,2.4c0.9,0,1.7-0.3,2.3-0.9l0.6,0.6c-0.7,0.8-1.7,1.2-3,1.2
		c-2.2,0-3.7-1.5-3.7-3.7s1.5-3.7,3.7-3.7C323,161.6,324.2,163.2,324.1,165.7z M323.1,164.8c-0.1-1.4-1-2.3-2.5-2.3
		c-1.4,0-2.4,0.9-2.6,2.3H323.1z"/>
	<path class="st9" d="M338.1,164.4v4.6H337v-4.3c0-1.3-0.8-2.1-2-2.1c-1.5,0-2.4,1.1-2.4,2.7v3.6h-1.1v-4.3c0-1.3-0.8-2.1-2-2.1
		c-1.5,0-2.4,1.1-2.4,2.7v3.6h-1.1v-7.4h1.1v1.7c0.5-1.1,1.5-1.7,2.8-1.7c1.4,0,2.3,0.7,2.6,1.9c0.5-1.3,1.5-1.9,2.9-1.9
		C337.1,161.6,338.1,162.7,338.1,164.4z"/>
	<path class="st9" d="M345.1,167.9c-0.6,0.8-1.5,1.2-2.7,1.2c-1.5,0-2.5-1-2.5-2.3c0-1.3,1-2.1,2.8-2.1h2.4v-0.4
		c0-1.1-0.7-1.7-2-1.7c-0.8,0-1.6,0.3-2.3,0.8l-0.5-0.8c1-0.6,1.8-1,3-1c1.8,0,2.8,1,2.8,2.5l0,4.9h-1.1V167.9z M345.1,166.5v-0.9
		h-2.3c-1.2,0-1.9,0.4-1.9,1.2s0.7,1.3,1.7,1.3C343.9,168.1,344.8,167.5,345.1,166.5z"/>
	<path class="st9" d="M349.9,159.5c0,0.4-0.3,0.8-0.7,0.8s-0.7-0.3-0.7-0.8s0.3-0.8,0.7-0.8S349.9,159.1,349.9,159.5z M348.6,169
		v-7.4h1.1v7.4H348.6z"/>
	<path class="st9" d="M352.4,169v-10.4h1.1V169H352.4z"/>
	<path class="st9" d="M360.6,162.2l-0.4,0.9c-0.6-0.4-1.3-0.6-2-0.6c-0.8,0-1.5,0.3-1.5,1c0,1.6,4.1,0.8,4.1,3.4
		c0,1.5-1.3,2.1-2.7,2.1c-1.1,0-2.1-0.4-2.8-1l0.4-0.8c0.6,0.6,1.6,0.9,2.5,0.9s1.6-0.3,1.6-1c0-1.8-4.1-0.9-4.1-3.5
		c0-1.4,1.2-2,2.6-2C359.1,161.6,359.9,161.8,360.6,162.2z"/>
	<path class="st9" d="M363.3,168.4c0,0.2-0.1,0.4-0.2,0.6l-0.7,1h-0.6l0.5-1c-0.2-0.1-0.3-0.4-0.3-0.6c0-0.4,0.3-0.7,0.7-0.7
		C363,167.7,363.3,167.9,363.3,168.4z"/>
	<path class="st9" d="M374.9,162.7l-0.6,0.8c-0.6-0.5-1.3-0.9-2.2-0.9c-1.5,0-2.6,1.1-2.6,2.7c0,1.6,1.1,2.7,2.6,2.7
		c1,0,1.8-0.3,2.3-1l0.6,0.7c-0.7,0.8-1.7,1.3-3,1.3c-2.1,0-3.7-1.5-3.7-3.7s1.5-3.7,3.7-3.7C373.3,161.6,374.3,162,374.9,162.7z"/>
	<path class="st9" d="M383.9,164.4v4.6h-1.1v-4.3c0-1.3-0.8-2.1-2.1-2.1c-1.6,0-2.5,1.1-2.5,2.7v3.6h-1.1v-10.4h1.1v4.7
		c0.5-1.1,1.5-1.7,2.9-1.7C382.8,161.6,383.9,162.7,383.9,164.4z"/>
	<path class="st9" d="M390.9,167.9c-0.6,0.8-1.5,1.2-2.7,1.2c-1.5,0-2.5-1-2.5-2.3c0-1.3,1-2.1,2.8-2.1h2.4v-0.4
		c0-1.1-0.7-1.7-2-1.7c-0.8,0-1.6,0.3-2.3,0.8l-0.5-0.8c1-0.6,1.8-1,3-1c1.8,0,2.8,1,2.8,2.5l0,4.9h-1.1V167.9z M390.9,166.5v-0.9
		h-2.3c-1.2,0-1.9,0.4-1.9,1.2s0.7,1.3,1.7,1.3C389.6,168.1,390.6,167.5,390.9,166.5z"/>
	<path class="st9" d="M398.2,168.5c-0.5,0.3-1.1,0.5-1.7,0.6c-1.1,0-1.9-0.6-1.9-2.1v-4.2h-1.1v-0.9h1.1v-1.9h1.1v1.9l2.3,0v0.9
		h-2.3v4c0,0.9,0.3,1.2,1,1.2c0.4,0,0.8-0.1,1.2-0.4L398.2,168.5z"/>
	<path class="st9" d="M404.2,162.2l-0.4,0.9c-0.6-0.4-1.3-0.6-2-0.6c-0.8,0-1.5,0.3-1.5,1c0,1.6,4.1,0.8,4.1,3.4
		c0,1.5-1.3,2.1-2.7,2.1c-1.1,0-2.1-0.4-2.8-1l0.4-0.8c0.6,0.6,1.6,0.9,2.5,0.9s1.6-0.3,1.6-1c0-1.8-4.1-0.9-4.1-3.5
		c0-1.4,1.2-2,2.6-2C402.7,161.6,403.5,161.8,404.2,162.2z"/>
	<path class="st9" d="M416.8,165.3c0,2.2-1.6,3.7-3.7,3.7c-2.2,0-3.7-1.5-3.7-3.7c0-2.2,1.6-3.7,3.7-3.7
		C415.2,161.6,416.8,163.1,416.8,165.3z M410.4,165.3c0,1.6,1.1,2.7,2.6,2.7s2.6-1.1,2.6-2.7c0-1.6-1.1-2.7-2.6-2.7
		S410.4,163.7,410.4,165.3z"/>
	<path class="st9" d="M419.8,163.3c0.5-1.1,1.4-1.7,2.6-1.7v1.1c-1.6,0-2.5,0.9-2.6,2.4v3.9h-1.1v-7.4h1.1V163.3z"/>
	<path class="st9" d="M435.3,165.3c0,2.2-1.4,3.7-3.5,3.7c-1.3,0-2.3-0.6-2.9-1.6v1.6h-1.1v-10.4h1.1v4.6c0.5-1,1.6-1.6,2.8-1.6
		C433.8,161.6,435.3,163.1,435.3,165.3z M434.2,165.3c0-1.6-1.1-2.7-2.6-2.7c-1.6,0-2.6,1.1-2.6,2.7c0,1.6,1.1,2.7,2.6,2.7
		C433.1,168,434.2,166.9,434.2,165.3z"/>
	<path class="st9" d="M438.3,163.3c0.5-1.1,1.4-1.7,2.6-1.7v1.1c-1.6,0-2.5,0.9-2.6,2.4v3.9h-1.1v-7.4h1.1V163.3z"/>
	<path class="st9" d="M449.1,165.3c0,2.2-1.6,3.7-3.7,3.7c-2.2,0-3.7-1.5-3.7-3.7c0-2.2,1.6-3.7,3.7-3.7
		C447.6,161.6,449.1,163.1,449.1,165.3z M442.7,165.3c0,1.6,1.1,2.7,2.6,2.7s2.6-1.1,2.6-2.7c0-1.6-1.1-2.7-2.6-2.7
		S442.7,163.7,442.7,165.3z"/>
	<path class="st9" d="M457.8,169l-2.2-6l-2.2,6h-1.1l-2.8-7.4h1.1l2.2,6.2l2.1-6.2h1.1l2.2,6.2l2.2-6.2h1.1l-2.7,7.4H457.8z"/>
	<path class="st9" d="M467.2,162.2l-0.4,0.9c-0.6-0.4-1.3-0.6-2-0.6c-0.8,0-1.5,0.3-1.5,1c0,1.6,4.1,0.8,4.1,3.4
		c0,1.5-1.3,2.1-2.7,2.1c-1.1,0-2.1-0.4-2.8-1l0.4-0.8c0.6,0.6,1.6,0.9,2.5,0.9s1.6-0.3,1.6-1c0-1.8-4.1-0.9-4.1-3.5
		c0-1.4,1.2-2,2.6-2C465.7,161.6,466.6,161.8,467.2,162.2z"/>
	<path class="st9" d="M475.6,165.7h-6c0.2,1.4,1.2,2.4,2.7,2.4c0.9,0,1.7-0.3,2.3-0.9l0.6,0.6c-0.7,0.8-1.7,1.2-3,1.2
		c-2.2,0-3.7-1.5-3.7-3.7s1.5-3.7,3.7-3.7C474.5,161.6,475.7,163.2,475.6,165.7z M474.6,164.8c-0.1-1.4-1-2.3-2.5-2.3
		c-1.4,0-2.4,0.9-2.6,2.3H474.6z"/>
	<path class="st9" d="M478.5,163.3c0.5-1.1,1.4-1.7,2.6-1.7v1.1c-1.6,0-2.5,0.9-2.6,2.4v3.9h-1.1v-7.4h1.1V163.3z"/>
	<path class="st9" d="M487,162.2l-0.4,0.9c-0.6-0.4-1.3-0.6-2-0.6c-0.8,0-1.5,0.3-1.5,1c0,1.6,4.1,0.8,4.1,3.4
		c0,1.5-1.3,2.1-2.7,2.1c-1.1,0-2.1-0.4-2.8-1l0.4-0.8c0.6,0.6,1.6,0.9,2.5,0.9s1.6-0.3,1.6-1c0-1.8-4.1-0.9-4.1-3.5
		c0-1.4,1.2-2,2.6-2C485.5,161.6,486.3,161.8,487,162.2z"/>
	<path class="st9" d="M489.7,168.4c0,0.4-0.3,0.7-0.7,0.7c-0.4,0-0.7-0.3-0.7-0.7s0.3-0.7,0.7-0.7
		C489.4,167.7,489.7,168,489.7,168.4z"/>
</g>
<g class="st3">
	<path class="st12" d="M118.4,381.7l-1,1.2c-0.7-0.8-1.7-1.2-2.7-1.2c-2,0-3.5,1.5-3.5,3.4s1.5,3.5,3.5,3.5c1,0,2-0.4,2.7-1.2l1,1.1
		c-1,1-2.4,1.6-3.8,1.6c-2.9,0-5.1-2.2-5.1-5c0-2.8,2.3-4.9,5.2-4.9C116,380.2,117.4,380.7,118.4,381.7z"/>
	<path class="st12" d="M127.2,385.4v4.6h-1.6v-4.2c0-1.1-0.7-1.8-1.8-1.8c-1.3,0-2.1,1-2.1,2.3v3.7H120v-10.4h1.6v4.4
		c0.5-1.1,1.5-1.5,2.8-1.5C126.1,382.5,127.2,383.6,127.2,385.4z"/>
	<path class="st12" d="M133.8,389.1c-0.5,0.7-1.4,1-2.5,1c-1.6,0-2.6-1-2.6-2.3c0-1.4,1-2.2,2.8-2.2h2.3v-0.2c0-0.9-0.6-1.5-1.8-1.5
		c-0.7,0-1.5,0.3-2.2,0.8l-0.7-1.1c1-0.6,1.8-0.9,3.2-0.9c1.9,0,3,1,3,2.6l0,4.9h-1.6V389.1z M133.8,387.4v-0.7h-2
		c-1.1,0-1.5,0.3-1.5,1c0,0.7,0.5,1.1,1.4,1.1C132.8,388.8,133.7,388.2,133.8,387.4z"/>
	<path class="st12" d="M144.6,385.4v4.6H143v-4.2c0-1.1-0.7-1.8-1.8-1.8c-1.2,0-2,0.9-2.1,2v4h-1.6v-7.5h1.6v1.4
		c0.5-1,1.5-1.5,2.7-1.5C143.6,382.5,144.6,383.6,144.6,385.4z"/>
	<path class="st12" d="M153.5,389.3c0,2.1-1.5,3.5-3.9,3.5c-1.2,0-2.2-0.4-3.1-1l0.7-1.2c0.7,0.5,1.4,0.8,2.3,0.8
		c1.4,0,2.3-0.8,2.3-2.1v-0.9c-0.5,0.8-1.3,1.3-2.5,1.3c-2,0-3.4-1.5-3.4-3.6c0-2.1,1.3-3.5,3.3-3.5c1.1,0,2,0.4,2.5,1.3v-1.2h1.6
		V389.3z M151.9,386.1c0-1.3-0.9-2.3-2.1-2.3c-1.3,0-2.2,1-2.2,2.3c0,1.3,0.9,2.3,2.2,2.3C151,388.4,151.9,387.4,151.9,386.1z"/>
	<path class="st12" d="M162.3,386.9h-5.6c0.3,1.1,1.1,1.9,2.3,1.9c0.8,0,1.6-0.3,2.1-0.9l0.9,0.9c-0.7,0.8-1.8,1.3-3.1,1.3
		c-2.3,0-3.8-1.5-3.8-3.8c0-2.3,1.6-3.8,3.8-3.8C161.4,382.5,162.5,384.2,162.3,386.9z M160.9,385.7c-0.1-1.2-0.9-1.9-2.1-1.9
		c-1.2,0-2,0.7-2.2,1.9H160.9z"/>
	<path class="st12" d="M174.7,390h-1.6v-1.3c-0.5,0.9-1.4,1.3-2.6,1.3c-2.1,0-3.6-1.6-3.6-3.8c0-2.2,1.4-3.8,3.5-3.8
		c1.2,0,2.1,0.5,2.6,1.4v-4.2h1.6V390z M173.1,386.3c0-1.4-0.9-2.5-2.3-2.5s-2.3,1-2.3,2.5c0,1.4,0.9,2.4,2.3,2.4
		C172.2,388.7,173.1,387.7,173.1,386.3z"/>
	<path class="st12" d="M181.6,389.1c-0.5,0.7-1.4,1-2.5,1c-1.6,0-2.6-1-2.6-2.3c0-1.4,1-2.2,2.8-2.2h2.3v-0.2c0-0.9-0.6-1.5-1.8-1.5
		c-0.7,0-1.5,0.3-2.2,0.8l-0.7-1.1c1-0.6,1.8-0.9,3.2-0.9c1.9,0,3,1,3,2.6l0,4.9h-1.6V389.1z M181.6,387.4v-0.7h-2
		c-1.1,0-1.5,0.3-1.5,1c0,0.7,0.5,1.1,1.4,1.1C180.6,388.8,181.5,388.2,181.6,387.4z"/>
	<path class="st12" d="M189.6,389.5c-0.6,0.4-1.2,0.5-1.8,0.5c-1.1,0-2.1-0.6-2.1-2.2V384h-1v-1.2h1v-2h1.6v2h2.2v1.2h-2.2v3.6
		c0,0.8,0.3,1,0.8,1c0.3,0,0.7-0.1,1.1-0.3L189.6,389.5z"/>
	<path class="st12" d="M197.5,386.9h-5.6c0.3,1.1,1.1,1.9,2.3,1.9c0.8,0,1.6-0.3,2.1-0.9l0.9,0.9c-0.7,0.8-1.8,1.3-3.1,1.3
		c-2.3,0-3.8-1.5-3.8-3.8c0-2.3,1.6-3.8,3.8-3.8C196.7,382.5,197.7,384.2,197.5,386.9z M196.1,385.7c-0.1-1.2-0.9-1.9-2.1-1.9
		c-1.2,0-2,0.7-2.2,1.9H196.1z"/>
	<path class="st12" d="M204.4,384c0.5-1,1.4-1.5,2.6-1.5v1.5c-1.5-0.1-2.5,0.8-2.6,2.1v3.9h-1.6v-7.5h1.6V384z"/>
	<path class="st12" d="M212.5,389.1c-0.5,0.7-1.4,1-2.5,1c-1.6,0-2.6-1-2.6-2.3c0-1.4,1-2.2,2.8-2.2h2.3v-0.2c0-0.9-0.6-1.5-1.8-1.5
		c-0.7,0-1.5,0.3-2.2,0.8l-0.7-1.1c1-0.6,1.8-0.9,3.2-0.9c1.9,0,3,1,3,2.6l0,4.9h-1.6V389.1z M212.5,387.4v-0.7h-2
		c-1.1,0-1.5,0.3-1.5,1c0,0.7,0.5,1.1,1.4,1.1C211.5,388.8,212.4,388.2,212.5,387.4z"/>
	<path class="st12" d="M223.4,385.4v4.6h-1.6v-4.2c0-1.1-0.7-1.8-1.8-1.8c-1.2,0-2,0.9-2.1,2v4h-1.6v-7.5h1.6v1.4
		c0.5-1,1.5-1.5,2.7-1.5C222.3,382.5,223.4,383.6,223.4,385.4z"/>
	<path class="st12" d="M232.2,389.3c0,2.1-1.5,3.5-3.9,3.5c-1.2,0-2.2-0.4-3.1-1l0.7-1.2c0.7,0.5,1.4,0.8,2.3,0.8
		c1.4,0,2.3-0.8,2.3-2.1v-0.9c-0.5,0.8-1.3,1.3-2.5,1.3c-2,0-3.4-1.5-3.4-3.6c0-2.1,1.3-3.5,3.3-3.5c1.1,0,2,0.4,2.5,1.3v-1.2h1.6
		V389.3z M230.6,386.1c0-1.3-0.9-2.3-2.1-2.3c-1.3,0-2.2,1-2.2,2.3c0,1.3,0.9,2.3,2.2,2.3C229.8,388.4,230.6,387.4,230.6,386.1z"/>
	<path class="st12" d="M241,386.9h-5.6c0.3,1.1,1.1,1.9,2.3,1.9c0.8,0,1.6-0.3,2.1-0.9l0.9,0.9c-0.7,0.8-1.8,1.3-3.1,1.3
		c-2.3,0-3.8-1.5-3.8-3.8c0-2.3,1.6-3.8,3.8-3.8C240.2,382.5,241.2,384.2,241,386.9z M239.6,385.7c-0.1-1.2-0.9-1.9-2.1-1.9
		c-1.2,0-2,0.7-2.2,1.9H239.6z"/>
</g>
<path id="Combined-Shape-Copy-5" class="st6" d="M74,378c0-1.7,1.3-3,3-3h15c1.7,0,3,1.3,3,3v15c0,1.7-1.3,3-3,3H77
	c-1.7,0-3-1.3-3-3V378z M90.6,381.5c-0.6-0.6-1.6-0.6-2.2,0L83,387l-1.4-1.4c-0.6-0.6-1.6-0.6-2.2,0c-0.6,0.6-0.6,1.6,0,2.2l2.4,2.5
	c0.6,0.6,1.6,0.6,2.2,0l6.5-6.6C91.1,383.1,91.1,382.1,90.6,381.5z"/>
<path id="Combined-Shape-Copy-5_1_" class="st6" d="M384,378c0-1.7,1.3-3,3-3h15c1.7,0,3,1.3,3,3v15c0,1.7-1.3,3-3,3h-15
	c-1.7,0-3-1.3-3-3V378z M400.6,381.5c-0.6-0.6-1.6-0.6-2.2,0L393,387l-1.4-1.4c-0.6-0.6-1.6-0.6-2.2,0c-0.6,0.6-0.6,1.6,0,2.2
	l2.4,2.5c0.6,0.6,1.6,0.6,2.2,0l6.5-6.6C401.1,383.1,401.1,382.1,400.6,381.5z"/>
<g id="check-on" transform="translate(34.000000, 388.000000)">
	<path id="no-check-copy-12" class="st13" d="M44,23h13c1.7,0,3,1.3,3,3v13c0,1.7-1.3,3-3,3H44c-1.7,0-3-1.3-3-3V26
		C41,24.3,42.3,23,44,23z"/>
</g>
<path id="Combined-Shape-Copy-5_2_" class="st6" d="M384,413c0-1.7,1.3-3,3-3h15c1.7,0,3,1.3,3,3v15c0,1.7-1.3,3-3,3h-15
	c-1.7,0-3-1.3-3-3V413z M400.6,416.5c-0.6-0.6-1.6-0.6-2.2,0L393,422l-1.4-1.4c-0.6-0.6-1.6-0.6-2.2,0c-0.6,0.6-0.6,1.6,0,2.2
	l2.4,2.5c0.6,0.6,1.6,0.6,2.2,0l6.5-6.6C401.1,418.1,401.1,417.1,400.6,416.5z"/>
<g class="st3">
	<path class="st12" d="M116.9,416.1l-0.7,1.5c-1.1-0.6-2.1-0.9-2.9-0.9c-1,0-1.6,0.4-1.6,1c0,2.1,5.3,1,5.3,4.5
		c0,1.8-1.5,2.8-3.7,2.8c-1.5,0-3-0.6-4-1.6l0.7-1.4c1,0.9,2.3,1.4,3.3,1.4c1.1,0,1.8-0.4,1.8-1.2c0-2.2-5.3-1-5.3-4.5
		c0-1.7,1.4-2.7,3.6-2.7C114.8,415.1,116,415.5,116.9,416.1z"/>
	<path class="st12" d="M125.5,421.9h-5.6c0.3,1.1,1.1,1.9,2.3,1.9c0.8,0,1.6-0.3,2.1-0.9l0.9,0.9c-0.7,0.8-1.8,1.3-3.1,1.3
		c-2.3,0-3.8-1.5-3.8-3.8c0-2.3,1.6-3.8,3.8-3.8C124.6,417.5,125.7,419.2,125.5,421.9z M124.1,420.7c-0.1-1.2-0.9-1.9-2.1-1.9
		c-1.2,0-2,0.7-2.2,1.9H124.1z"/>
	<path class="st12" d="M127.2,425v-10.4h1.6V425H127.2z"/>
	<path class="st12" d="M137.8,421.9h-5.6c0.3,1.1,1.1,1.9,2.3,1.9c0.8,0,1.6-0.3,2.1-0.9l0.9,0.9c-0.7,0.8-1.8,1.3-3.1,1.3
		c-2.3,0-3.8-1.5-3.8-3.8c0-2.3,1.6-3.8,3.8-3.8C136.9,417.5,138,419.2,137.8,421.9z M136.4,420.7c-0.1-1.2-0.9-1.9-2.1-1.9
		c-1.2,0-2,0.7-2.2,1.9H136.4z"/>
	<path class="st12" d="M145.6,418.7l-0.9,1c-0.5-0.5-1.2-0.9-2.1-0.8c-1.3,0-2.2,1-2.2,2.4s0.9,2.4,2.2,2.4c0.9,0,1.7-0.3,2.2-0.9
		l0.9,0.9c-0.7,0.9-1.8,1.4-3.2,1.4c-2.2,0-3.8-1.5-3.8-3.8c0-2.3,1.5-3.8,3.8-3.8C143.9,417.5,144.9,417.9,145.6,418.7z"/>
	<path class="st12" d="M151.6,424.5c-0.6,0.4-1.2,0.5-1.8,0.5c-1.1,0-2.1-0.6-2.1-2.2V419h-1v-1.2h1v-2h1.6v2h2.2v1.2h-2.2v3.6
		c0,0.8,0.3,1,0.8,1c0.3,0,0.7-0.1,1.1-0.3L151.6,424.5z"/>
	<path class="st12" d="M169.2,420.4v4.6h-1.6v-4.2c0-1.1-0.7-1.8-1.8-1.8c-1.3,0-2,1-2,2.3v3.7h-1.6v-4.2c0-1.1-0.7-1.8-1.8-1.8
		c-1.3,0-2.1,1-2.1,2.3v3.7h-1.6v-7.5h1.6v1.4c0.5-1.1,1.5-1.5,2.7-1.5c1.3,0,2.2,0.7,2.6,1.8c0.5-1.2,1.5-1.8,2.8-1.8
		C168.1,417.5,169.2,418.6,169.2,420.4z"/>
	<path class="st12" d="M177.9,421.9h-5.6c0.3,1.1,1.1,1.9,2.3,1.9c0.8,0,1.6-0.3,2.1-0.9l0.9,0.9c-0.7,0.8-1.8,1.3-3.1,1.3
		c-2.3,0-3.8-1.5-3.8-3.8c0-2.3,1.6-3.8,3.8-3.8C177,417.5,178.1,419.2,177.9,421.9z M176.5,420.7c-0.1-1.2-0.9-1.9-2.1-1.9
		c-1.2,0-2,0.7-2.2,1.9H176.5z"/>
	<path class="st12" d="M183.7,424.5c-0.6,0.4-1.2,0.5-1.8,0.5c-1.1,0-2.1-0.6-2.1-2.2V419h-1v-1.2h1v-2h1.6v2h2.2v1.2h-2.2v3.6
		c0,0.8,0.3,1,0.8,1c0.3,0,0.7-0.1,1.1-0.3L183.7,424.5z"/>
	<path class="st12" d="M186.8,419c0.5-1,1.4-1.5,2.6-1.5v1.5c-1.5-0.1-2.5,0.8-2.6,2.1v3.9h-1.6v-7.5h1.6V419z"/>
	<path class="st12" d="M192.5,415.4c0,0.6-0.4,1-0.9,1s-0.9-0.4-0.9-1c0-0.6,0.4-1,0.9-1S192.5,414.8,192.5,415.4z M190.7,425v-7.5
		h1.6v7.5H190.7z"/>
	<path class="st12" d="M200.9,418.7l-0.9,1c-0.5-0.5-1.2-0.9-2.1-0.8c-1.3,0-2.2,1-2.2,2.4s0.9,2.4,2.2,2.4c0.9,0,1.7-0.3,2.2-0.9
		l0.9,0.9c-0.7,0.9-1.8,1.4-3.2,1.4c-2.2,0-3.8-1.5-3.8-3.8c0-2.3,1.5-3.8,3.8-3.8C199.1,417.5,200.2,417.9,200.9,418.7z"/>
	<path class="st12" d="M207.5,418.2l-0.6,1.2c-0.7-0.4-1.5-0.7-2.1-0.7c-0.6,0-1.1,0.2-1.1,0.7c0,1.4,4,0.6,4,3.3
		c0,1.5-1.4,2.2-2.9,2.2c-1.1,0-2.3-0.4-3-1l0.6-1.1c0.6,0.6,1.7,0.9,2.5,0.9c0.7,0,1.2-0.2,1.2-0.8c0-1.5-3.9-0.7-3.9-3.4
		c0-1.5,1.3-2.2,2.7-2.2C205.8,417.5,206.8,417.8,207.5,418.2z"/>
</g>
<g class="st3">
	<path class="st12" d="M421.9,381.7v2.8h4.5v1.5h-4.5v4h-1.7v-9.8h6.6l0,1.5H421.9z"/>
	<path class="st12" d="M430,380.4c0,0.6-0.4,1-0.9,1s-0.9-0.4-0.9-1c0-0.6,0.4-1,0.9-1S430,379.8,430,380.4z M428.2,390v-7.5h1.6
		v7.5H428.2z"/>
	<path class="st12" d="M432.3,390v-10.4h1.6V390H432.3z"/>
	<path class="st12" d="M440.6,389.5c-0.6,0.4-1.2,0.5-1.8,0.5c-1.1,0-2.1-0.6-2.1-2.2V384h-1.1v-1.2h1.1v-2h1.6v2h2.2v1.2h-2.2v3.6
		c0,0.8,0.3,1,0.8,1c0.3,0,0.7-0.1,1.1-0.3L440.6,389.5z"/>
	<path class="st12" d="M448.5,386.9h-5.6c0.3,1.1,1.1,1.9,2.3,1.9c0.8,0,1.6-0.3,2.1-0.9l0.9,0.9c-0.7,0.8-1.8,1.3-3.1,1.3
		c-2.3,0-3.8-1.5-3.8-3.8c0-2.3,1.6-3.8,3.8-3.8C447.6,382.5,448.7,384.2,448.5,386.9z M447.1,385.7c-0.1-1.2-0.9-1.9-2.1-1.9
		c-1.2,0-2,0.7-2.2,1.9H447.1z"/>
	<path class="st12" d="M451.8,384c0.5-1,1.4-1.5,2.6-1.5v1.5c-1.5-0.1-2.5,0.8-2.6,2.1v3.9h-1.6v-7.5h1.6V384z"/>
	<path class="st12" d="M466.4,390h-1.6v-1.3c-0.5,0.9-1.4,1.3-2.6,1.3c-2.1,0-3.6-1.6-3.6-3.8c0-2.2,1.4-3.8,3.5-3.8
		c1.2,0,2.1,0.5,2.6,1.4v-4.2h1.6V390z M464.8,386.3c0-1.4-0.9-2.5-2.3-2.5s-2.3,1-2.3,2.5c0,1.4,0.9,2.4,2.3,2.4
		C463.9,388.7,464.8,387.7,464.8,386.3z"/>
	<path class="st12" d="M473.3,389.1c-0.5,0.7-1.4,1-2.5,1c-1.6,0-2.6-1-2.6-2.3c0-1.4,1-2.2,2.8-2.2h2.3v-0.2c0-0.9-0.6-1.5-1.8-1.5
		c-0.7,0-1.5,0.3-2.2,0.8l-0.7-1.1c1-0.6,1.8-0.9,3.2-0.9c1.9,0,3,1,3,2.6l0,4.9h-1.6V389.1z M473.3,387.4v-0.7h-2
		c-1.1,0-1.5,0.3-1.5,1c0,0.7,0.5,1.1,1.4,1.1C472.4,388.8,473.2,388.2,473.3,387.4z"/>
	<path class="st12" d="M481.3,389.5c-0.6,0.4-1.2,0.5-1.8,0.5c-1.1,0-2.1-0.6-2.1-2.2V384h-1v-1.2h1v-2h1.6v2h2.2v1.2H479v3.6
		c0,0.8,0.3,1,0.8,1c0.3,0,0.7-0.1,1.1-0.3L481.3,389.5z"/>
	<path class="st12" d="M487.2,389.1c-0.5,0.7-1.4,1-2.5,1c-1.6,0-2.6-1-2.6-2.3c0-1.4,1-2.2,2.8-2.2h2.3v-0.2c0-0.9-0.6-1.5-1.8-1.5
		c-0.7,0-1.5,0.3-2.2,0.8l-0.7-1.1c1-0.6,1.8-0.9,3.2-0.9c1.9,0,3,1,3,2.6l0,4.9h-1.6V389.1z M487.2,387.4v-0.7h-2
		c-1.1,0-1.5,0.3-1.5,1c0,0.7,0.5,1.1,1.4,1.1C486.3,388.8,487.1,388.2,487.2,387.4z"/>
</g>
<g class="st3">
	<path class="st12" d="M421.9,416.7v2.6h4.8v1.5h-4.8v2.7h5.5v1.5h-7.2v-9.8h7v1.5H421.9z"/>
	<path class="st12" d="M433.8,417.5h1.8l-2.4,3.6l2.6,3.8h-1.8l-1.8-2.7l-1.9,2.7h-1.8l2.6-3.8l-2.5-3.6h1.8l1.7,2.5L433.8,417.5z"
		/>
	<path class="st12" d="M445,421.3c0,2.2-1.4,3.8-3.5,3.8c-1.2,0-2.1-0.5-2.6-1.3v4h-1.6v-10.2h1.6v1.3c0.5-0.9,1.4-1.3,2.6-1.3
		C443.5,417.5,445,419,445,421.3z M443.3,421.2c0-1.4-0.9-2.4-2.3-2.4c-1.3,0-2.3,1-2.3,2.4c0,1.4,0.9,2.4,2.3,2.4
		C442.4,423.7,443.3,422.7,443.3,421.2z"/>
	<path class="st12" d="M453.7,421.3c0,2.2-1.6,3.8-3.9,3.8c-2.3,0-3.9-1.5-3.9-3.8c0-2.3,1.6-3.8,3.9-3.8
		C452.1,417.5,453.7,419,453.7,421.3z M447.6,421.3c0,1.4,0.9,2.4,2.3,2.4c1.3,0,2.3-1,2.3-2.4c0-1.4-0.9-2.4-2.3-2.4
		C448.5,418.9,447.6,419.9,447.6,421.3z"/>
	<path class="st12" d="M457,419c0.5-1,1.4-1.5,2.6-1.5v1.5c-1.5-0.1-2.5,0.8-2.6,2.1v3.9h-1.6v-7.5h1.6V419z"/>
	<path class="st12" d="M465.1,424.5c-0.6,0.4-1.2,0.5-1.8,0.5c-1.1,0-2.1-0.6-2.1-2.2V419h-1v-1.2h1v-2h1.6v2h2.2v1.2h-2.2v3.6
		c0,0.8,0.3,1,0.8,1c0.3,0,0.7-0.1,1.1-0.3L465.1,424.5z"/>
	<path class="st12" d="M478.4,416.7l-1,1.2c-0.7-0.8-1.7-1.2-2.7-1.2c-2,0-3.5,1.5-3.5,3.4s1.5,3.5,3.5,3.5c1,0,2-0.4,2.7-1.2l1,1.1
		c-1,1-2.4,1.6-3.8,1.6c-2.9,0-5.1-2.2-5.1-5c0-2.8,2.3-4.9,5.2-4.9C476.1,415.2,477.4,415.7,478.4,416.7z"/>
	<path class="st12" d="M486.7,416.1l-0.7,1.5c-1.1-0.6-2.1-0.9-2.9-0.9c-1,0-1.6,0.4-1.6,1c0,2.1,5.3,1,5.3,4.5
		c0,1.8-1.5,2.8-3.7,2.8c-1.5,0-3-0.6-4-1.6l0.7-1.4c1,0.9,2.3,1.4,3.3,1.4c1.1,0,1.8-0.4,1.8-1.2c0-2.2-5.3-1-5.3-4.5
		c0-1.7,1.4-2.7,3.6-2.7C484.6,415.1,485.8,415.5,486.7,416.1z"/>
	<path class="st12" d="M491.5,425l-3.9-9.8h1.8l3,8l3.1-8h1.7l-4,9.8H491.5z"/>
	<path class="st12" d="M509.1,425h-1.6v-1.3c-0.5,0.9-1.4,1.3-2.6,1.3c-2.1,0-3.6-1.6-3.6-3.8c0-2.2,1.4-3.8,3.5-3.8
		c1.2,0,2.1,0.5,2.6,1.4v-4.2h1.6V425z M507.5,421.3c0-1.4-0.9-2.5-2.3-2.5s-2.3,1-2.3,2.5c0,1.4,0.9,2.4,2.3,2.4
		C506.5,423.7,507.5,422.7,507.5,421.3z"/>
	<path class="st12" d="M516,424.1c-0.5,0.7-1.4,1-2.5,1c-1.6,0-2.6-1-2.6-2.3c0-1.4,1-2.2,2.8-2.2h2.3v-0.2c0-0.9-0.6-1.5-1.8-1.5
		c-0.7,0-1.5,0.3-2.2,0.8l-0.7-1.1c1-0.6,1.8-0.9,3.2-0.9c1.9,0,3,1,3,2.6l0,4.9H516V424.1z M516,422.4v-0.7h-2
		c-1.1,0-1.5,0.3-1.5,1c0,0.7,0.5,1.1,1.4,1.1C515,423.8,515.9,423.2,516,422.4z"/>
	<path class="st12" d="M523.9,424.5c-0.6,0.4-1.2,0.5-1.8,0.5c-1.1,0-2.1-0.6-2.1-2.2V419h-1v-1.2h1v-2h1.6v2h2.2v1.2h-2.2v3.6
		c0,0.8,0.3,1,0.8,1c0.3,0,0.7-0.1,1.1-0.3L523.9,424.5z"/>
	<path class="st12" d="M529.9,424.1c-0.5,0.7-1.4,1-2.5,1c-1.6,0-2.6-1-2.6-2.3c0-1.4,1-2.2,2.8-2.2h2.3v-0.2c0-0.9-0.6-1.5-1.8-1.5
		c-0.7,0-1.5,0.3-2.2,0.8l-0.7-1.1c1-0.6,1.8-0.9,3.2-0.9c1.9,0,3,1,3,2.6l0,4.9h-1.6V424.1z M529.9,422.4v-0.7h-2
		c-1.1,0-1.5,0.3-1.5,1c0,0.7,0.5,1.1,1.4,1.1C528.9,423.8,529.8,423.2,529.9,422.4z"/>
</g>
<path id="Line-Copy-10" class="st14" d="M74,462h640"/>
<path id="Line-Copy-11" class="st14" d="M74,257h640"/>
<g class="st3">
	<path class="st8" d="M82.2,304.3v1.7h-6.7v-11.2h1.9v9.5H82.2z"/>
	<path class="st8" d="M85.9,295.1c0,0.6-0.5,1.1-1.1,1.1s-1.1-0.5-1.1-1.1c0-0.7,0.5-1.1,1.1-1.1S85.9,294.4,85.9,295.1z M83.9,306
		v-8.5h1.8v8.5H83.9z"/>
	<path class="st8" d="M90.4,306l-3.3-8.5H89l2.4,6.7l2.3-6.7h1.8l-3.3,8.5H90.4z"/>
	<path class="st8" d="M104,302.4h-6.4c0.3,1.3,1.3,2.1,2.6,2.1c0.9,0,1.8-0.4,2.4-1l1,1c-0.8,0.9-2,1.4-3.5,1.4
		c-2.6,0-4.4-1.7-4.4-4.3c0-2.6,1.8-4.3,4.3-4.3C103,297.4,104.2,299.4,104,302.4z M102.4,301.1c-0.1-1.4-1-2.2-2.4-2.2
		c-1.3,0-2.3,0.8-2.5,2.2H102.4z"/>
	<path class="st8" d="M113.2,306l-4.5-11.2h2l3.5,9.1l3.5-9.1h2l-4.5,11.2H113.2z"/>
	<path class="st8" d="M123,295.1c0,0.6-0.5,1.1-1.1,1.1c-0.6,0-1.1-0.5-1.1-1.1c0-0.7,0.5-1.1,1.1-1.1
		C122.5,293.9,123,294.4,123,295.1z M121,306v-8.5h1.8v8.5H121z"/>
	<path class="st8" d="M133,302.4h-6.4c0.3,1.3,1.3,2.1,2.6,2.1c0.9,0,1.8-0.4,2.4-1l1,1c-0.8,0.9-2,1.4-3.5,1.4
		c-2.6,0-4.4-1.7-4.4-4.3c0-2.6,1.8-4.3,4.3-4.3C132.1,297.4,133.3,299.4,133,302.4z M131.4,301.1c-0.1-1.4-1-2.2-2.4-2.2
		c-1.3,0-2.3,0.8-2.5,2.2H131.4z"/>
	<path class="st8" d="M142.6,306l-2.2-6.3l-2.2,6.3h-1.9l-3.1-8.5h1.9l2.2,6.7l2.1-6.7h1.9l2.2,6.7l2.2-6.7h1.9l-3.1,8.5H142.6z"/>
	<path class="st8" d="M157.6,294.8c2.8,0,4.4,1.4,4.4,3.8c0,2.5-1.6,4-4.4,4h-2.6v3.4h-1.9v-11.2H157.6z M155.1,300.9h2.5
		c1.7,0,2.7-0.7,2.7-2.3c0-1.5-1-2.2-2.7-2.2h-2.5V300.9z"/>
	<path class="st8" d="M171.3,302.4h-6.4c0.3,1.3,1.3,2.1,2.6,2.1c0.9,0,1.8-0.4,2.4-1l1,1c-0.8,0.9-2,1.4-3.5,1.4
		c-2.6,0-4.4-1.7-4.4-4.3c0-2.6,1.8-4.3,4.3-4.3C170.3,297.4,171.5,299.4,171.3,302.4z M169.7,301.1c-0.1-1.4-1-2.2-2.4-2.2
		c-1.3,0-2.3,0.8-2.5,2.2H169.7z"/>
	<path class="st8" d="M175.1,299.2c0.6-1.2,1.6-1.8,2.9-1.8v1.8c-1.7-0.1-2.8,0.9-2.9,2.4v4.5h-1.8v-8.5h1.8V299.2z"/>
	<path class="st8" d="M193.8,300.7v5.3h-1.8v-4.8c0-1.3-0.8-2.1-2-2.1c-1.5,0-2.3,1.2-2.3,2.7v4.2h-1.8v-4.8c0-1.3-0.8-2.1-2-2.1
		c-1.5,0-2.4,1.2-2.4,2.7v4.2h-1.8v-8.5h1.8v1.6c0.6-1.2,1.7-1.7,3.1-1.7c1.5,0,2.6,0.8,3,2c0.5-1.4,1.7-2,3.2-2
		C192.6,297.4,193.8,298.7,193.8,300.7z"/>
	<path class="st8" d="M198.2,295.1c0,0.6-0.5,1.1-1.1,1.1c-0.6,0-1.1-0.5-1.1-1.1c0-0.7,0.5-1.1,1.1-1.1
		C197.7,293.9,198.2,294.4,198.2,295.1z M196.2,306v-8.5h1.8v8.5H196.2z"/>
	<path class="st8" d="M206.3,298.3l-0.7,1.4c-0.8-0.5-1.7-0.8-2.4-0.8c-0.7,0-1.2,0.2-1.2,0.8c0,1.6,4.5,0.7,4.5,3.8
		c0,1.7-1.6,2.5-3.3,2.5c-1.2,0-2.6-0.4-3.4-1.2l0.7-1.3c0.7,0.7,1.9,1.1,2.8,1.1c0.8,0,1.4-0.3,1.4-0.9c0-1.7-4.5-0.8-4.5-3.8
		c0-1.7,1.5-2.5,3.1-2.5C204.4,297.4,205.5,297.7,206.3,298.3z"/>
	<path class="st8" d="M213.8,298.3l-0.7,1.4c-0.8-0.5-1.7-0.8-2.4-0.8c-0.7,0-1.2,0.2-1.2,0.8c0,1.6,4.5,0.7,4.5,3.8
		c0,1.7-1.6,2.5-3.3,2.5c-1.2,0-2.6-0.4-3.4-1.2l0.7-1.3c0.7,0.7,1.9,1.1,2.8,1.1c0.8,0,1.4-0.3,1.4-0.9c0-1.7-4.5-0.8-4.5-3.8
		c0-1.7,1.5-2.5,3.1-2.5C211.9,297.4,213,297.7,213.8,298.3z"/>
	<path class="st8" d="M217.8,295.1c0,0.6-0.5,1.1-1.1,1.1c-0.6,0-1.1-0.5-1.1-1.1c0-0.7,0.5-1.1,1.1-1.1
		C217.3,293.9,217.8,294.4,217.8,295.1z M215.8,306v-8.5h1.8v8.5H215.8z"/>
	<path class="st8" d="M228.4,301.7c0,2.6-1.8,4.3-4.4,4.3c-2.6,0-4.4-1.8-4.4-4.3c0-2.6,1.8-4.3,4.4-4.3
		C226.6,297.4,228.4,299.2,228.4,301.7z M221.4,301.8c0,1.6,1.1,2.8,2.6,2.8c1.5,0,2.6-1.1,2.6-2.8c0-1.6-1.1-2.8-2.6-2.8
		C222.5,299,221.4,300.1,221.4,301.8z"/>
	<path class="st8" d="M238.5,300.7v5.3h-1.8v-4.8c0-1.3-0.8-2.1-2-2.1c-1.4,0-2.3,1-2.4,2.3v4.5h-1.8v-8.5h1.8v1.6
		c0.6-1.2,1.7-1.7,3.1-1.7C237.3,297.4,238.5,298.7,238.5,300.7z"/>
	<path class="st8" d="M246.5,298.3l-0.7,1.4c-0.8-0.5-1.7-0.8-2.4-0.8c-0.7,0-1.2,0.2-1.2,0.8c0,1.6,4.5,0.7,4.5,3.8
		c0,1.7-1.6,2.5-3.3,2.5c-1.2,0-2.6-0.4-3.4-1.2l0.7-1.3c0.7,0.7,1.9,1.1,2.8,1.1c0.8,0,1.4-0.3,1.4-0.9c0-1.7-4.5-0.8-4.5-3.8
		c0-1.7,1.5-2.5,3.1-2.5C244.6,297.4,245.7,297.7,246.5,298.3z"/>
</g>
<g class="st3">
	<path class="st8" d="M80.5,504.6c-0.2,0-0.3,0-0.5,0h-2.7v3.4h-1.9v-11.2H80c2.9,0,4.5,1.4,4.5,3.8c0,1.8-0.8,3.1-2.3,3.6l2.5,3.7
		h-2.1L80.5,504.6z M80,502.9c1.7,0,2.7-0.7,2.7-2.3c0-1.5-1-2.2-2.7-2.2h-2.7v4.4H80z"/>
	<path class="st8" d="M94.4,504.4H88c0.3,1.3,1.3,2.1,2.6,2.1c0.9,0,1.8-0.4,2.4-1l1,1c-0.8,0.9-2,1.4-3.5,1.4
		c-2.6,0-4.4-1.7-4.4-4.3c0-2.6,1.8-4.3,4.3-4.3C93.4,499.4,94.6,501.4,94.4,504.4z M92.8,503.1c-0.1-1.4-1-2.2-2.4-2.2
		c-1.3,0-2.3,0.8-2.5,2.2H92.8z"/>
	<path class="st8" d="M104.5,511.1h-1.8v-4.6c-0.6,1-1.6,1.5-3,1.5c-2.4,0-4.1-1.8-4.1-4.4c0-2.6,1.6-4.3,4.1-4.3
		c1.4,0,2.4,0.6,3,1.6v-1.5h1.8V511.1z M102.6,503.8c0-1.6-1.1-2.8-2.6-2.8c-1.5,0-2.6,1.2-2.6,2.8c0,1.6,1.1,2.8,2.6,2.8
		C101.5,506.5,102.6,505.4,102.6,503.8z"/>
	<path class="st8" d="M115,508h-1.8v-1.7c-0.6,1.2-1.6,1.7-3,1.7c-2,0-3.1-1.2-3.1-3.3v-5.3h1.8v4.8c0,1.3,0.8,2.1,2,2.1
		c1.5,0,2.3-1.2,2.3-2.7v-4.2h1.8V508z"/>
	<path class="st8" d="M119.7,497.1c0,0.6-0.5,1.1-1.1,1.1c-0.6,0-1.1-0.5-1.1-1.1c0-0.7,0.5-1.1,1.1-1.1
		C119.2,495.9,119.7,496.4,119.7,497.1z M117.7,508v-8.5h1.8v8.5H117.7z"/>
	<path class="st8" d="M124.1,501.2c0.6-1.2,1.6-1.8,2.9-1.8v1.8c-1.7-0.1-2.8,0.9-2.9,2.4v4.5h-1.8v-8.5h1.8V501.2z"/>
	<path class="st8" d="M136,504.4h-6.4c0.3,1.3,1.3,2.1,2.6,2.1c0.9,0,1.8-0.4,2.4-1l1,1c-0.8,0.9-2,1.4-3.5,1.4
		c-2.6,0-4.4-1.7-4.4-4.3c0-2.6,1.8-4.3,4.3-4.3C135,499.4,136.3,501.4,136,504.4z M134.4,503.1c-0.1-1.4-1-2.2-2.4-2.2
		c-1.3,0-2.3,0.8-2.5,2.2H134.4z"/>
	<path class="st8" d="M146.7,496.8c2.8,0,4.4,1.4,4.4,3.8c0,2.5-1.6,4-4.4,4h-2.6v3.4h-1.9v-11.2H146.7z M144.1,502.9h2.5
		c1.7,0,2.7-0.7,2.7-2.3c0-1.5-1-2.2-2.7-2.2h-2.5V502.9z"/>
	<path class="st8" d="M158,507c-0.6,0.8-1.6,1.1-2.8,1.1c-1.8,0-3-1.1-3-2.6c0-1.6,1.2-2.5,3.2-2.6h2.6v-0.3c0-1.1-0.7-1.7-2-1.7
		c-0.8,0-1.7,0.3-2.5,0.9l-0.8-1.3c1.2-0.7,2-1.1,3.7-1.1c2.2,0,3.4,1.1,3.4,3l0,5.6H158V507z M157.9,505v-0.8h-2.3
		c-1.2,0-1.8,0.3-1.8,1.1c0,0.8,0.6,1.3,1.6,1.3C156.8,506.6,157.8,505.9,157.9,505z"/>
	<path class="st8" d="M167.7,500.3l-0.7,1.4c-0.8-0.5-1.7-0.8-2.4-0.8c-0.7,0-1.2,0.2-1.2,0.8c0,1.6,4.5,0.7,4.5,3.8
		c0,1.7-1.6,2.5-3.3,2.5c-1.2,0-2.6-0.4-3.4-1.2l0.7-1.3c0.7,0.7,1.9,1.1,2.8,1.1c0.8,0,1.4-0.3,1.4-0.9c0-1.7-4.5-0.8-4.5-3.8
		c0-1.7,1.5-2.5,3.1-2.5C165.8,499.4,167,499.7,167.7,500.3z"/>
	<path class="st8" d="M175.3,500.3l-0.7,1.4c-0.8-0.5-1.7-0.8-2.4-0.8c-0.7,0-1.2,0.2-1.2,0.8c0,1.6,4.5,0.7,4.5,3.8
		c0,1.7-1.6,2.5-3.3,2.5c-1.2,0-2.6-0.4-3.4-1.2l0.7-1.3c0.7,0.7,1.9,1.1,2.8,1.1c0.8,0,1.4-0.3,1.4-0.9c0-1.7-4.5-0.8-4.5-3.8
		c0-1.7,1.5-2.5,3.1-2.5C173.4,499.4,174.5,499.7,175.3,500.3z"/>
	<path class="st8" d="M185.2,508l-2.2-6.3l-2.2,6.3H179l-3.1-8.5h1.9l2.2,6.7l2.1-6.7h1.9l2.2,6.7l2.2-6.7h1.9l-3.1,8.5H185.2z"/>
	<path class="st8" d="M199.2,503.7c0,2.6-1.8,4.3-4.4,4.3c-2.6,0-4.4-1.8-4.4-4.3c0-2.6,1.8-4.3,4.4-4.3
		C197.4,499.4,199.2,501.2,199.2,503.7z M192.2,503.8c0,1.6,1.1,2.8,2.6,2.8c1.5,0,2.6-1.1,2.6-2.8c0-1.6-1.1-2.8-2.6-2.8
		C193.3,501,192.2,502.1,192.2,503.8z"/>
	<path class="st8" d="M203,501.2c0.6-1.2,1.6-1.8,2.9-1.8v1.8c-1.7-0.1-2.8,0.9-2.9,2.4v4.5h-1.8v-8.5h1.8V501.2z"/>
	<path class="st8" d="M215.6,508h-1.8v-1.5c-0.6,1-1.6,1.5-3,1.5c-2.4,0-4.1-1.8-4.1-4.4c0-2.6,1.6-4.3,4-4.3c1.4,0,2.4,0.6,3,1.6
		v-4.8h1.8V508z M213.7,503.8c0-1.6-1.1-2.8-2.6-2.8c-1.5,0-2.6,1.2-2.6,2.8c0,1.6,1.1,2.8,2.6,2.8
		C212.7,506.5,213.7,505.4,213.7,503.8z"/>
	<path class="st8" d="M224.7,498.8v1h2.2v1.4h-2.2v6.8h-1.8v-6.8h-1.1v-1.4h1.1V499c0-2,1.5-2.9,2.9-2.9c0.7,0,1.4,0.2,1.9,0.6
		L227,498c-0.4-0.3-0.8-0.4-1.2-0.4C225.2,497.6,224.7,498,224.7,498.8z"/>
	<path class="st8" d="M235.9,503.7c0,2.6-1.8,4.3-4.4,4.3c-2.6,0-4.4-1.8-4.4-4.3c0-2.6,1.8-4.3,4.4-4.3
		C234.1,499.4,235.9,501.2,235.9,503.7z M228.9,503.8c0,1.6,1.1,2.8,2.6,2.8c1.5,0,2.6-1.1,2.6-2.8c0-1.6-1.1-2.8-2.6-2.8
		C229.9,501,228.9,502.1,228.9,503.8z"/>
	<path class="st8" d="M239.7,501.2c0.6-1.2,1.6-1.8,2.9-1.8v1.8c-1.7-0.1-2.8,0.9-2.9,2.4v4.5h-1.8v-8.5h1.8V501.2z"/>
	<path class="st8" d="M255.1,506.3v1.7h-6.7v-11.2h1.9v9.5H255.1z"/>
	<path class="st8" d="M258.8,497.1c0,0.6-0.5,1.1-1.1,1.1c-0.6,0-1.1-0.5-1.1-1.1c0-0.7,0.5-1.1,1.1-1.1
		C258.3,495.9,258.8,496.4,258.8,497.1z M256.8,508v-8.5h1.8v8.5H256.8z"/>
	<path class="st8" d="M263.3,508l-3.3-8.5h1.9l2.4,6.7l2.3-6.7h1.8l-3.3,8.5H263.3z"/>
	<path class="st8" d="M276.9,504.4h-6.4c0.3,1.3,1.3,2.1,2.6,2.1c0.9,0,1.8-0.4,2.4-1l1,1c-0.8,0.9-2,1.4-3.5,1.4
		c-2.6,0-4.4-1.7-4.4-4.3c0-2.6,1.8-4.3,4.3-4.3C275.9,499.4,277.1,501.4,276.9,504.4z M275.3,503.1c-0.1-1.4-1-2.2-2.4-2.2
		c-1.3,0-2.3,0.8-2.5,2.2H275.3z"/>
	<path class="st8" d="M286.1,508l-4.5-11.2h2l3.5,9.1l3.5-9.1h2l-4.5,11.2H286.1z"/>
	<path class="st8" d="M295.9,497.1c0,0.6-0.5,1.1-1.1,1.1c-0.6,0-1.1-0.5-1.1-1.1c0-0.7,0.5-1.1,1.1-1.1
		C295.4,495.9,295.9,496.4,295.9,497.1z M293.9,508v-8.5h1.8v8.5H293.9z"/>
	<path class="st8" d="M305.9,504.4h-6.4c0.3,1.3,1.3,2.1,2.6,2.1c0.9,0,1.8-0.4,2.4-1l1,1c-0.8,0.9-2,1.4-3.5,1.4
		c-2.6,0-4.4-1.7-4.4-4.3c0-2.6,1.8-4.3,4.3-4.3C304.9,499.4,306.2,501.4,305.9,504.4z M304.3,503.1c-0.1-1.4-1-2.2-2.4-2.2
		c-1.3,0-2.3,0.8-2.5,2.2H304.3z"/>
	<path class="st8" d="M315.5,508l-2.2-6.3l-2.2,6.3h-1.9l-3.1-8.5h1.9l2.2,6.7l2.1-6.7h1.9l2.2,6.7l2.2-6.7h1.9l-3.1,8.5H315.5z"/>
</g>
<path id="Rectangle-8-Copy" class="st15" d="M682,288h20c6.6,0,12,5.4,12,12l0,0c0,6.6-5.4,12-12,12h-20c-6.6,0-12-5.4-12-12l0,0
	C670,293.4,675.4,288,682,288z"/>
<g id="Oval-5-Copy">
	<g class="st16">
		<circle id="path-4_2_" cx="702" cy="301" r="10"/>
	</g>
	<g>
		<circle id="path-4_1_" class="st1" cx="702" cy="300" r="10"/>
	</g>
</g>
<path id="Rectangle-8-Copy_1_" class="st17" d="M682,492h20c6.6,0,12,5.4,12,12l0,0c0,6.6-5.4,12-12,12h-20c-6.6,0-12-5.4-12-12l0,0
	C670,497.4,675.4,492,682,492z"/>
<g id="Oval-5-Copy_1_">
	<g class="st18">
		<circle id="path-6_2_" cx="682" cy="504" r="10"/>
	</g>
	<g>
		<circle id="path-6_1_" class="st1" cx="682" cy="504" r="10"/>
	</g>
</g>
</svg>
