<?xml version="1.0" encoding="UTF-8"?>
<svg width="140px" height="21px" viewBox="0 0 140 21" version="1.1" xmlns="http://www.w3.org/2000/svg" xmlns:xlink="http://www.w3.org/1999/xlink">
    <!-- Generator: Sketch 48.2 (47327) - http://www.bohemiancoding.com/sketch -->
    <title>samsung</title>
    <desc>Created with Sketch.</desc>
    <defs></defs>
    <g id="layout/clients-logo" stroke="none" stroke-width="1" fill="none" fill-rule="evenodd" transform="translate(-352.000000, -80.000000)">
        <path d="M467.608736,80.6246961 L467.880376,96.0165365 L467.770074,96.0165365 L463.171949,80.6246961 L455.745476,80.6246961 L455.745476,100.030677 L460.666276,100.030677 L460.389697,84.1080277 L460.499999,84.1080277 L465.438909,100.030677 L472.564109,100.030677 L472.564109,80.6246961 L467.608736,80.6246961 Z M373.42176,80.6246961 L369.712639,100.232352 L375.120745,100.232352 L377.856901,82.441385 L377.96885,82.4397716 L380.635861,100.232352 L386.01104,100.232352 L382.323321,80.6246961 L373.42176,80.6246961 Z M403.6538,80.6246961 L411.811232,80.6246961 L412.252441,100.232352 L407.24768,100.232352 L407.122561,82.6059519 L407.012259,82.6075654 L403.668617,100.232352 L398.591418,100.232352 L395.249423,82.6059519 L395.13912,82.6059519 L395.014001,100.232352 L390.005947,100.232352 L390.447156,80.6246961 L398.607881,80.6246961 L401.072397,95.6180266 L401.185992,95.6180266 L403.6538,80.6246961 Z M361.291726,94.7012907 C360.261141,92.1634143 353.150765,91.0049939 352.283164,86.997311 C352.072437,86.0099109 352.092193,85.2274124 352.237067,84.3529502 C352.767177,81.1551936 355.676191,80 359.232203,80 C362.063841,80 365.978746,80.6679471 365.978746,84.938614 L365.978746,86.3196835 L360.985514,86.3196835 L360.985514,85.1047941 C360.985514,84.036724 360.299006,83.3284419 359.126839,83.3284419 C357.87565,83.3284419 357.441027,84.0157498 357.299445,84.6449754 C357.248409,84.8643977 357.225361,85.2774278 357.320847,85.6759373 C357.887174,87.9718039 365.478271,89.1963737 366.322823,93.3024739 C366.408431,93.715504 366.587878,94.823909 366.344225,96.5163645 C365.868444,99.7899508 362.891931,101 359.271714,101 C355.511561,101 352,99.6786263 352,95.3047019 L352.001646,93.7929471 L357.366943,93.7929471 L357.371882,95.693531 C357.371882,96.7616011 358.130827,97.4714966 359.382016,97.4714966 C360.71552,97.4714966 361.168253,96.8051629 361.331237,96.1517363 C361.425076,95.7838814 361.487636,95.17563 361.291726,94.7012907 Z M426.342861,94.6640212 C425.322154,92.1503457 418.280923,91.0048325 417.424846,87.0342578 C417.214119,86.0581515 417.233875,85.28372 417.378749,84.4173248 C417.902273,81.2502228 420.783301,80.1095498 424.301447,80.1095498 C427.105099,80.1095498 430.982139,80.7694299 430.982139,84.9981484 L430.982139,86.3630839 L426.038295,86.3630839 L426.038295,85.1627151 C426.038295,84.102712 425.360019,83.4041103 424.196084,83.4041103 C422.959711,83.4041103 422.52838,84.0849647 422.386799,84.7077366 C422.339056,84.9255455 422.314361,85.3337354 422.411493,85.7257913 C422.969589,87.9990704 430.484956,89.2107329 431.322923,93.2764982 C431.408531,93.6879149 431.584685,94.7850261 431.344325,96.4597342 C430.873483,99.7010526 427.926603,100.898195 424.342605,100.898195 C420.620317,100.898195 417.141682,99.5913414 417.141682,95.2609788 L417.143328,93.7637446 L422.455943,93.7637446 L422.459236,95.6433543 C422.459236,96.7033574 423.211596,97.4035725 424.451261,97.4035725 C425.771594,97.4035725 426.219388,96.7453058 426.380726,96.0999462 C426.474565,95.7337047 426.533832,95.1351337 426.342861,94.6640212 Z M443.139582,97.2975722 C444.530706,97.2975722 444.958745,96.3585741 445.057523,95.8761678 C445.100327,95.6648125 445.106912,95.3792409 445.105266,95.1275507 L445.105266,80.6214813 L450.169289,80.6214813 L450.169289,94.6806392 C450.175874,95.0420406 450.138009,95.7793639 450.118254,95.9713583 C449.769238,99.630547 446.817419,100.816395 443.139582,100.816395 C439.460098,100.816395 436.508279,99.630547 436.157617,95.9713583 C436.139508,95.7793639 436.101643,95.0420406 436.11152,94.6806392 L436.11152,80.6214813 L441.172251,80.6214813 L441.172251,95.1275507 C441.167312,95.3792409 441.17719,95.6648125 441.219994,95.8761678 C441.317126,96.3585741 441.746811,97.2975722 443.139582,97.2975722 Z M484.871514,97.0936386 C486.32026,97.0936386 486.825674,96.1949754 486.916221,95.6706208 C486.957378,95.4495851 486.967256,95.1753073 486.963964,94.9268439 L486.963964,92.0791948 L484.912672,92.0791948 L484.912672,89.220252 L492,89.220252 L492,94.4767056 C491.996707,94.8461739 491.988476,95.1156116 491.927563,95.7674247 C491.596656,99.3394899 488.437404,100.614075 484.89127,100.614075 C481.34349,100.614075 478.18753,99.3394899 477.853331,95.7674247 C477.79571,95.1156116 477.785833,94.8461739 477.784186,94.4767056 L477.785833,86.227397 C477.785833,85.8789029 477.828636,85.2641979 477.869794,84.9366779 C478.315942,81.2710356 481.34349,80.0916411 484.892916,80.0916411 C488.440696,80.0916411 491.547267,81.2597419 491.916039,84.9366779 C491.980244,85.5610633 491.958842,86.227397 491.962135,86.227397 L491.962135,86.8808236 L486.916221,86.8808236 L486.916221,85.782099 C486.917867,85.7837124 486.912928,85.3174401 486.853661,85.0350953 C486.763115,84.6027044 486.382819,83.6120774 484.853405,83.6120774 C483.398075,83.6120774 482.970036,84.5510756 482.859734,85.0350953 C482.802113,85.2932391 482.779065,85.6433467 482.779065,85.9627996 L482.779065,94.9268439 C482.777419,95.1753073 482.787297,95.4495851 482.825162,95.6706208 C482.919001,96.1949754 483.424415,97.0936386 484.871514,97.0936386 Z" id="samsung" fill="#D4D4D4" fill-rule="nonzero"></path>
    </g>
</svg>